G04 #@! TF.FileFunction,Paste,Bot*
%FSLAX46Y46*%
G04 Gerber Fmt 4.6, Leading zero omitted, Abs format (unit mm)*
G04 Created by KiCad (PCBNEW 4.0.6) date Monday, May 07, 2018 'PMt' 08:57:05 PM*
%MOMM*%
%LPD*%
G01*
G04 APERTURE LIST*
%ADD10C,0.100000*%
%ADD11R,1.250000X1.500000*%
%ADD12R,1.500000X1.250000*%
%ADD13R,1.270000X0.965200*%
%ADD14R,0.900000X0.800000*%
%ADD15R,1.500000X1.300000*%
%ADD16R,1.300000X1.500000*%
%ADD17R,2.000000X1.700000*%
%ADD18R,0.700000X0.250000*%
%ADD19R,0.250000X0.700000*%
%ADD20R,1.035000X1.035000*%
%ADD21R,1.550000X0.600000*%
%ADD22R,0.700000X0.240000*%
%ADD23R,0.800000X0.240000*%
%ADD24R,0.240000X0.800000*%
%ADD25R,2.550000X2.550000*%
%ADD26R,1.550000X1.300000*%
G04 APERTURE END LIST*
D10*
G36*
X174041266Y-78919551D02*
X172958734Y-79544551D01*
X172208734Y-78245513D01*
X173291266Y-77620513D01*
X174041266Y-78919551D01*
X174041266Y-78919551D01*
G37*
G36*
X172791266Y-76754487D02*
X171708734Y-77379487D01*
X170958734Y-76080449D01*
X172041266Y-75455449D01*
X172791266Y-76754487D01*
X172791266Y-76754487D01*
G37*
G36*
X155643846Y-102240038D02*
X154759962Y-101356154D01*
X155820622Y-100295494D01*
X156704506Y-101179378D01*
X155643846Y-102240038D01*
X155643846Y-102240038D01*
G37*
G36*
X157411612Y-100472272D02*
X156527728Y-99588388D01*
X157588388Y-98527728D01*
X158472272Y-99411612D01*
X157411612Y-100472272D01*
X157411612Y-100472272D01*
G37*
G36*
X148856155Y-142972271D02*
X147972271Y-143856155D01*
X146911611Y-142795495D01*
X147795495Y-141911611D01*
X148856155Y-142972271D01*
X148856155Y-142972271D01*
G37*
G36*
X147088389Y-141204505D02*
X146204505Y-142088389D01*
X145143845Y-141027729D01*
X146027729Y-140143845D01*
X147088389Y-141204505D01*
X147088389Y-141204505D01*
G37*
G36*
X154143846Y-100740038D02*
X153259962Y-99856154D01*
X154320622Y-98795494D01*
X155204506Y-99679378D01*
X154143846Y-100740038D01*
X154143846Y-100740038D01*
G37*
G36*
X155911612Y-98972272D02*
X155027728Y-98088388D01*
X156088388Y-97027728D01*
X156972272Y-97911612D01*
X155911612Y-98972272D01*
X155911612Y-98972272D01*
G37*
D11*
X145800000Y-100600001D03*
X145800000Y-98100001D03*
X146000000Y-109850000D03*
X146000000Y-112350000D03*
X148000000Y-109850000D03*
X148000000Y-112350000D03*
X148900000Y-80450001D03*
X148900000Y-82950001D03*
D12*
X149999999Y-96000001D03*
X147499999Y-96000001D03*
X124250000Y-96000000D03*
X121750000Y-96000000D03*
X126250000Y-75000000D03*
X123750000Y-75000000D03*
X165600000Y-94450000D03*
X168100000Y-94450000D03*
D10*
G36*
X156972272Y-65588388D02*
X156088388Y-66472272D01*
X155027728Y-65411612D01*
X155911612Y-64527728D01*
X156972272Y-65588388D01*
X156972272Y-65588388D01*
G37*
G36*
X155204506Y-63820622D02*
X154320622Y-64704506D01*
X153259962Y-63643846D01*
X154143846Y-62759962D01*
X155204506Y-63820622D01*
X155204506Y-63820622D01*
G37*
G36*
X172158734Y-73880449D02*
X173241266Y-73255449D01*
X173991266Y-74554487D01*
X172908734Y-75179487D01*
X172158734Y-73880449D01*
X172158734Y-73880449D01*
G37*
G36*
X173408734Y-76045513D02*
X174491266Y-75420513D01*
X175241266Y-76719551D01*
X174158734Y-77344551D01*
X173408734Y-76045513D01*
X173408734Y-76045513D01*
G37*
D13*
X148750000Y-66650000D03*
X148750000Y-67920000D03*
X151250000Y-66650000D03*
X151250000Y-67920000D03*
D10*
G36*
X169624038Y-80544968D02*
X170974038Y-82883236D01*
X170281218Y-83283236D01*
X168931218Y-80944968D01*
X169624038Y-80544968D01*
X169624038Y-80544968D01*
G37*
G36*
X167718782Y-81644968D02*
X169068782Y-83983236D01*
X168375962Y-84383236D01*
X167025962Y-82044968D01*
X167718782Y-81644968D01*
X167718782Y-81644968D01*
G37*
D14*
X125000000Y-91050000D03*
X125000000Y-92950000D03*
X123000000Y-92000000D03*
X121000000Y-77050000D03*
X121000000Y-78950000D03*
X119000000Y-78000000D03*
X170000000Y-90950000D03*
X170000000Y-89050000D03*
X172000000Y-90000000D03*
D10*
G36*
X158929290Y-68979899D02*
X158363604Y-68414213D01*
X159000000Y-67777817D01*
X159565686Y-68343503D01*
X158929290Y-68979899D01*
X158929290Y-68979899D01*
G37*
G36*
X157585787Y-67636396D02*
X157020101Y-67070710D01*
X157656497Y-66434314D01*
X158222183Y-67000000D01*
X157585787Y-67636396D01*
X157585787Y-67636396D01*
G37*
G36*
X159671752Y-66893934D02*
X159106066Y-66328248D01*
X159742462Y-65691852D01*
X160308148Y-66257538D01*
X159671752Y-66893934D01*
X159671752Y-66893934D01*
G37*
D15*
X153449999Y-128050000D03*
X150749999Y-128050000D03*
D16*
X151050000Y-112000000D03*
X151050000Y-114700000D03*
D15*
X153450000Y-125050000D03*
X150750000Y-125050000D03*
D10*
G36*
X152870711Y-141710051D02*
X153789949Y-142629289D01*
X152729289Y-143689949D01*
X151810051Y-142770711D01*
X152870711Y-141710051D01*
X152870711Y-141710051D01*
G37*
G36*
X150961523Y-143619239D02*
X151880761Y-144538477D01*
X150820101Y-145599137D01*
X149900863Y-144679899D01*
X150961523Y-143619239D01*
X150961523Y-143619239D01*
G37*
D16*
X161000000Y-95650000D03*
X161000000Y-98350000D03*
D15*
X142850000Y-97000000D03*
X140150000Y-97000000D03*
D17*
X132000000Y-93000000D03*
X128000000Y-93000000D03*
X128000001Y-80000000D03*
X124000001Y-80000000D03*
X163000000Y-89000000D03*
X167000000Y-89000000D03*
D10*
G36*
X152479720Y-72722362D02*
X151277638Y-71520280D01*
X152691852Y-70106066D01*
X153893934Y-71308148D01*
X152479720Y-72722362D01*
X152479720Y-72722362D01*
G37*
G36*
X155308148Y-69893934D02*
X154106066Y-68691852D01*
X155520280Y-67277638D01*
X156722362Y-68479720D01*
X155308148Y-69893934D01*
X155308148Y-69893934D01*
G37*
D15*
X129700000Y-90000000D03*
X127000000Y-90000000D03*
X125700000Y-77000000D03*
X123000000Y-77000000D03*
X165550000Y-92150000D03*
X168250000Y-92150000D03*
D10*
G36*
X155474695Y-72944543D02*
X154555457Y-72025305D01*
X155616117Y-70964645D01*
X156535355Y-71883883D01*
X155474695Y-72944543D01*
X155474695Y-72944543D01*
G37*
G36*
X157383883Y-71035355D02*
X156464645Y-70116117D01*
X157525305Y-69055457D01*
X158444543Y-69974695D01*
X157383883Y-71035355D01*
X157383883Y-71035355D01*
G37*
G36*
X182990769Y-81169626D02*
X181769169Y-81614253D01*
X181256139Y-80204714D01*
X182477739Y-79760087D01*
X182990769Y-81169626D01*
X182990769Y-81169626D01*
G37*
G36*
X182067315Y-78632456D02*
X180845715Y-79077083D01*
X180332685Y-77667544D01*
X181554285Y-77222917D01*
X182067315Y-78632456D01*
X182067315Y-78632456D01*
G37*
G36*
X175676220Y-76112917D02*
X175026220Y-74987083D01*
X176325258Y-74237083D01*
X176975258Y-75362917D01*
X175676220Y-76112917D01*
X175676220Y-76112917D01*
G37*
G36*
X178014488Y-74762917D02*
X177364488Y-73637083D01*
X178663526Y-72887083D01*
X179313526Y-74012917D01*
X178014488Y-74762917D01*
X178014488Y-74762917D01*
G37*
G36*
X180006347Y-73612917D02*
X179356347Y-72487083D01*
X180655385Y-71737083D01*
X181305385Y-72862917D01*
X180006347Y-73612917D01*
X180006347Y-73612917D01*
G37*
G36*
X182344615Y-72262917D02*
X181694615Y-71137083D01*
X182993653Y-70387083D01*
X183643653Y-71512917D01*
X182344615Y-72262917D01*
X182344615Y-72262917D01*
G37*
D18*
X152400000Y-102850000D03*
X152400000Y-103350000D03*
X152400000Y-103850000D03*
X152400000Y-104350000D03*
X152400000Y-104850000D03*
X152400000Y-105350000D03*
X152400000Y-105850000D03*
X152400000Y-106350000D03*
D19*
X151750000Y-107000000D03*
X151250000Y-107000000D03*
X150750000Y-107000000D03*
X150250000Y-107000000D03*
X149750000Y-107000000D03*
X149250000Y-107000000D03*
X148750000Y-107000000D03*
X148250000Y-107000000D03*
D18*
X147600000Y-106350000D03*
X147600000Y-105850000D03*
X147600000Y-105350000D03*
X147600000Y-104850000D03*
X147600000Y-104350000D03*
X147600000Y-103850000D03*
X147600000Y-103350000D03*
X147600000Y-102850000D03*
D19*
X148250000Y-102200000D03*
X148750000Y-102200000D03*
X149250000Y-102200000D03*
X149750000Y-102200000D03*
X150250000Y-102200000D03*
X150750000Y-102200000D03*
X151250000Y-102200000D03*
X151750000Y-102200000D03*
D20*
X149137500Y-105462500D03*
X149137500Y-103737500D03*
X150862500Y-105462500D03*
X150862500Y-103737500D03*
D21*
X147300000Y-120905000D03*
X147300000Y-119635000D03*
X147300000Y-118365000D03*
X147300000Y-117095000D03*
X152700000Y-117095000D03*
X152700000Y-118365000D03*
X152700000Y-119635000D03*
X152700000Y-120905000D03*
D22*
X147300000Y-92000000D03*
D23*
X147400000Y-91600000D03*
X147400000Y-91200000D03*
X147400000Y-90800000D03*
X147400000Y-90400000D03*
X147400000Y-90000000D03*
X147400000Y-89600000D03*
X147400000Y-89200000D03*
X147400000Y-88800000D03*
X147400000Y-88400000D03*
X147300000Y-88000000D03*
D24*
X148000000Y-87300000D03*
X148400000Y-87400000D03*
X148800000Y-87400000D03*
X149200000Y-87400000D03*
X149600000Y-87400000D03*
X150000000Y-87400000D03*
X150400000Y-87400000D03*
X150800000Y-87400000D03*
X151200000Y-87400000D03*
X151600000Y-87400000D03*
X152000000Y-87300000D03*
D23*
X152700000Y-88000000D03*
X152600000Y-88400000D03*
X152600000Y-88800000D03*
X152600000Y-89200000D03*
X152600000Y-89600000D03*
X152600000Y-90000000D03*
X152600000Y-90400000D03*
X152600000Y-90800000D03*
X152600000Y-91200000D03*
X152600000Y-91600000D03*
X152700000Y-92000000D03*
D24*
X152000000Y-92700000D03*
X151600000Y-92600000D03*
X151200000Y-92600000D03*
X150800000Y-92600000D03*
X150400000Y-92600000D03*
X150000000Y-92600000D03*
X149600000Y-92600000D03*
X149200000Y-92600000D03*
X148800000Y-92600000D03*
X148400000Y-92600000D03*
X148000000Y-92700000D03*
D25*
X150000000Y-90000000D03*
D10*
G36*
X165542866Y-80736169D02*
X165217866Y-80173253D01*
X166568866Y-79393253D01*
X166893866Y-79956169D01*
X165542866Y-80736169D01*
X165542866Y-80736169D01*
G37*
G36*
X165067866Y-79913445D02*
X164742866Y-79350529D01*
X166093866Y-78570529D01*
X166418866Y-79133445D01*
X165067866Y-79913445D01*
X165067866Y-79913445D01*
G37*
G36*
X164592866Y-79090721D02*
X164267866Y-78527805D01*
X165618866Y-77747805D01*
X165943866Y-78310721D01*
X164592866Y-79090721D01*
X164592866Y-79090721D01*
G37*
G36*
X166931134Y-77740721D02*
X166606134Y-77177805D01*
X167957134Y-76397805D01*
X168282134Y-76960721D01*
X166931134Y-77740721D01*
X166931134Y-77740721D01*
G37*
G36*
X167881134Y-79386169D02*
X167556134Y-78823253D01*
X168907134Y-78043253D01*
X169232134Y-78606169D01*
X167881134Y-79386169D01*
X167881134Y-79386169D01*
G37*
G36*
X167406134Y-78563445D02*
X167081134Y-78000529D01*
X168432134Y-77220529D01*
X168757134Y-77783445D01*
X167406134Y-78563445D01*
X167406134Y-78563445D01*
G37*
D26*
X111025000Y-89750000D03*
X118975000Y-89750000D03*
X118975000Y-94250000D03*
X111025000Y-94250000D03*
X145950000Y-69850000D03*
X138000000Y-69850000D03*
X138000000Y-65350000D03*
X145950000Y-65350000D03*
D14*
X132000000Y-98950000D03*
X132000000Y-97050000D03*
X134000000Y-98000000D03*
D16*
X128000000Y-95650000D03*
X128000000Y-98350000D03*
D10*
G36*
X150396016Y-147730330D02*
X149830330Y-148296016D01*
X149406066Y-147871752D01*
X149971752Y-147306066D01*
X150396016Y-147730330D01*
X150396016Y-147730330D01*
G37*
G36*
X149193934Y-146528248D02*
X148628248Y-147093934D01*
X148203984Y-146669670D01*
X148769670Y-146103984D01*
X149193934Y-146528248D01*
X149193934Y-146528248D01*
G37*
G36*
X183931728Y-94671228D02*
X184105701Y-92183303D01*
X185296792Y-92266592D01*
X185122819Y-94754517D01*
X183931728Y-94671228D01*
X183931728Y-94671228D01*
G37*
G36*
X186425638Y-94845619D02*
X186599611Y-92357694D01*
X187790702Y-92440983D01*
X187616729Y-94928908D01*
X186425638Y-94845619D01*
X186425638Y-94845619D01*
G37*
G36*
X188919548Y-95020010D02*
X189093521Y-92532085D01*
X190284612Y-92615374D01*
X190110639Y-95103299D01*
X188919548Y-95020010D01*
X188919548Y-95020010D01*
G37*
G36*
X181450000Y-93250000D02*
X180850000Y-93250000D01*
X180350000Y-92250000D01*
X181950000Y-92250000D01*
X181450000Y-93250000D01*
X181450000Y-93250000D01*
G37*
G36*
X181950000Y-92050000D02*
X180350000Y-92050000D01*
X180850000Y-91050000D01*
X181450000Y-91050000D01*
X181950000Y-92050000D01*
X181950000Y-92050000D01*
G37*
G36*
X149650000Y-68700000D02*
X150250000Y-68700000D01*
X150750000Y-69700000D01*
X149150000Y-69700000D01*
X149650000Y-68700000D01*
X149650000Y-68700000D01*
G37*
G36*
X149150000Y-70000000D02*
X150750000Y-70000000D01*
X150250000Y-71000000D01*
X149650000Y-71000000D01*
X149150000Y-70000000D01*
X149150000Y-70000000D01*
G37*
M02*
