G04 #@! TF.FileFunction,Copper,L2,Inr,Signal*
%FSLAX46Y46*%
G04 Gerber Fmt 4.6, Leading zero omitted, Abs format (unit mm)*
G04 Created by KiCad (PCBNEW 4.0.6) date Monday, May 07, 2018 'PMt' 08:57:05 PM*
%MOMM*%
%LPD*%
G01*
G04 APERTURE LIST*
%ADD10C,0.100000*%
%ADD11C,2.000000*%
%ADD12R,2.032000X1.727200*%
%ADD13O,2.032000X1.727200*%
%ADD14C,0.900000*%
%ADD15R,1.727200X1.727200*%
%ADD16O,1.727200X1.727200*%
%ADD17C,0.610000*%
%ADD18C,0.800000*%
%ADD19C,0.500000*%
%ADD20C,1.000000*%
%ADD21C,0.152400*%
%ADD22C,0.200000*%
%ADD23C,0.240000*%
%ADD24C,0.750000*%
G04 APERTURE END LIST*
D10*
D11*
X177000000Y-80000000D03*
X177000000Y-94990000D03*
D12*
X153500000Y-135210000D03*
D13*
X153500000Y-137750000D03*
X153500000Y-140290000D03*
D12*
X150000000Y-139079999D03*
D13*
X150000000Y-136539999D03*
X150000000Y-133999999D03*
X150000000Y-131459999D03*
D14*
X190691718Y-91137172D03*
X183908282Y-90662828D03*
D15*
X148760000Y-60560000D03*
D16*
X151300000Y-60560000D03*
X148760000Y-63100000D03*
X151300000Y-63100000D03*
D17*
X177600000Y-77200000D03*
X176700000Y-77200000D03*
X175900000Y-77400000D03*
X168000000Y-100000000D03*
X148450000Y-119850000D03*
X150000000Y-89900000D03*
D18*
X150000000Y-90700000D03*
D17*
X149800000Y-84800000D03*
X121950000Y-97150000D03*
X145550000Y-95650000D03*
X144650000Y-97100000D03*
X157200000Y-97000000D03*
X188000000Y-69000000D03*
X123700000Y-72900000D03*
X154600000Y-96100000D03*
X140100000Y-95600000D03*
X162200000Y-77000000D03*
X150600000Y-116400000D03*
X149137500Y-105462500D03*
X150862500Y-105462500D03*
X150862500Y-103737500D03*
X149137500Y-103737500D03*
X150850000Y-120900000D03*
X145550000Y-61250000D03*
X145900000Y-67050000D03*
X152450000Y-96900000D03*
X148350000Y-108450000D03*
X164100000Y-83100000D03*
X169800000Y-76700000D03*
X147800000Y-99850000D03*
X153250000Y-103400000D03*
X121550000Y-94350000D03*
X147900000Y-140800000D03*
X153000000Y-111000000D03*
X157600000Y-97800000D03*
D18*
X144800000Y-138400000D03*
D17*
X134900000Y-92025000D03*
X131250000Y-100500000D03*
X113750000Y-95750000D03*
X123500000Y-88500000D03*
X144800000Y-95250000D03*
X108250000Y-77750000D03*
X117350000Y-90750000D03*
X168500000Y-99000000D03*
X184800000Y-75750000D03*
X179600000Y-75800000D03*
X143850000Y-95100000D03*
X111000000Y-77250000D03*
X117350000Y-91550000D03*
X165550000Y-99000000D03*
X184950000Y-74750000D03*
X140400000Y-90550000D03*
X113750000Y-74750000D03*
X117250000Y-97000000D03*
X165550000Y-97500000D03*
X116900000Y-76000000D03*
X139850000Y-89475000D03*
X118000000Y-97300000D03*
X171500000Y-97500000D03*
X183900000Y-77600000D03*
X188250000Y-72250000D03*
X139250000Y-87550000D03*
X114750000Y-71000000D03*
X118850000Y-97600000D03*
X171500000Y-96050000D03*
X138650000Y-86950000D03*
X125000000Y-73000000D03*
X173700000Y-98900000D03*
X170800000Y-92100000D03*
X133600000Y-96200000D03*
X139250000Y-86350000D03*
X126500000Y-73500000D03*
X176150000Y-98250000D03*
X172000000Y-91700000D03*
X135000000Y-94000000D03*
X162000000Y-96900000D03*
X128100000Y-75100000D03*
X138650000Y-85750000D03*
X134550000Y-95400000D03*
X160050000Y-82850000D03*
X167300000Y-90800000D03*
X181900000Y-95950000D03*
X139250000Y-85150000D03*
X130150000Y-78200000D03*
X133750000Y-95350000D03*
X185700000Y-94900000D03*
X188400000Y-76900000D03*
X138650000Y-84550000D03*
X131100000Y-78050000D03*
X133000000Y-95600000D03*
X176200000Y-91500000D03*
X139250000Y-83950000D03*
X131650000Y-79350000D03*
X125350000Y-97950000D03*
X185050000Y-77350000D03*
X188200000Y-73750000D03*
X126300000Y-94900000D03*
X176200000Y-90000000D03*
X138650000Y-83350000D03*
X133250000Y-77500000D03*
X161350000Y-87600000D03*
X125800000Y-94200000D03*
X185900000Y-93550000D03*
X139250000Y-82700000D03*
X136500000Y-77500000D03*
X184400000Y-91500000D03*
X156200000Y-80850000D03*
X139250000Y-78500000D03*
X143400000Y-82800000D03*
X183000000Y-90100000D03*
X189100000Y-77550000D03*
X144000000Y-83400000D03*
X140250000Y-80000000D03*
X190900000Y-89900000D03*
X160800000Y-85900000D03*
X143500000Y-79750000D03*
X144600000Y-82800000D03*
X145200000Y-83300000D03*
X143450000Y-76450000D03*
X180200000Y-74450000D03*
X153100000Y-101400000D03*
X145800000Y-82800000D03*
X146250000Y-80250000D03*
X180650000Y-75200000D03*
X144400000Y-77600000D03*
X150000000Y-80100000D03*
X141100000Y-91150000D03*
X150600000Y-80700000D03*
X141500000Y-91800000D03*
X151200000Y-80100000D03*
X140460000Y-69210000D03*
X147750000Y-139750000D03*
X139600000Y-68200000D03*
X146250000Y-132550000D03*
X151800000Y-80700000D03*
X142300000Y-64283530D03*
X152400000Y-80100000D03*
X148000000Y-132100000D03*
X146700000Y-116050000D03*
X156800000Y-82800000D03*
X147500000Y-71000000D03*
X157600000Y-83400000D03*
X146000000Y-71000000D03*
X146550000Y-122150000D03*
X147750000Y-130250000D03*
X156800000Y-84000000D03*
X148000000Y-73250000D03*
X147750000Y-123000000D03*
X157600000Y-84600000D03*
X148000000Y-74750000D03*
X149000000Y-114450000D03*
X156800000Y-85300000D03*
X145050000Y-74450000D03*
X148750000Y-120850000D03*
D18*
X144000000Y-71000000D03*
D17*
X157600000Y-85900000D03*
X159100000Y-82750000D03*
X151200000Y-142000000D03*
X115600000Y-92400000D03*
X156000000Y-91600000D03*
X120450000Y-80750000D03*
X160700000Y-83350000D03*
X150200000Y-142000000D03*
X156700000Y-92200000D03*
X131325000Y-84050000D03*
X194000000Y-73300000D03*
X172400000Y-99000000D03*
X149200000Y-142000000D03*
X156000000Y-92800000D03*
X132400000Y-85200000D03*
X161200000Y-86600000D03*
X156700000Y-93400000D03*
X131700000Y-84725000D03*
X161400000Y-84750000D03*
X116150000Y-91700000D03*
X156000000Y-94000000D03*
X115750000Y-78000000D03*
X160600000Y-85000000D03*
X116800000Y-92250000D03*
X115350000Y-79500000D03*
X156700000Y-94600000D03*
X159700000Y-85050000D03*
X115600000Y-91000000D03*
X155875000Y-95200000D03*
X106000000Y-75500000D03*
X147250000Y-79000000D03*
X147400000Y-67100000D03*
X134875000Y-76700000D03*
D18*
X140000000Y-72000000D03*
D17*
X115250000Y-76500000D03*
D18*
X167800000Y-95800000D03*
X154100000Y-143700000D03*
X155300000Y-112500000D03*
X155300000Y-120900000D03*
X155300000Y-130500000D03*
X155300000Y-108300000D03*
D17*
X174535715Y-89300000D03*
X173500000Y-89800000D03*
X194000000Y-89800000D03*
X192800000Y-71800000D03*
X186300000Y-75600000D03*
X165750000Y-83500000D03*
D18*
X156800000Y-63800000D03*
D17*
X161000000Y-77250000D03*
X161000000Y-77250000D03*
X183750000Y-70250000D03*
X174500000Y-73250000D03*
X162500000Y-68500000D03*
X147550000Y-101850000D03*
X146400000Y-103500000D03*
X150100000Y-118250000D03*
X149975000Y-99575000D03*
X158100000Y-96175000D03*
X150985000Y-118365000D03*
X149950000Y-100350000D03*
X158900000Y-96050000D03*
X124650000Y-89950000D03*
X146950000Y-106848062D03*
X115300000Y-70300000D03*
X147400000Y-100650000D03*
X126250000Y-91300000D03*
X135250000Y-94800000D03*
X148575000Y-99775000D03*
X162400000Y-96000000D03*
X149150000Y-100325000D03*
X159675000Y-96250000D03*
X143100000Y-94800000D03*
X149775000Y-93675000D03*
X151600000Y-96850000D03*
X152900000Y-107600000D03*
X146500000Y-108600000D03*
X146050000Y-107950000D03*
X150950000Y-110100000D03*
X152900000Y-131000000D03*
X151450000Y-101250000D03*
X147950000Y-101200000D03*
X148600000Y-122200000D03*
X136650000Y-96250000D03*
X143400000Y-98400000D03*
X151100000Y-72900000D03*
D18*
X190850000Y-94100000D03*
X190850000Y-94100000D03*
X190850000Y-93100000D03*
X150800000Y-123300000D03*
X152850000Y-115250000D03*
X174200000Y-93700000D03*
X173750000Y-84450000D03*
X172700000Y-84450000D03*
X185850000Y-95950000D03*
X187000000Y-95500000D03*
D17*
X181500000Y-74100000D03*
X168500000Y-75100000D03*
D19*
X150850000Y-120900000D02*
X148250000Y-118300000D01*
X148250000Y-118300000D02*
X148250000Y-108550000D01*
X148250000Y-108550000D02*
X148350000Y-108450000D01*
X145900000Y-67050000D02*
X145900000Y-61600000D01*
X145900000Y-61600000D02*
X145550000Y-61250000D01*
D20*
X169800000Y-76700000D02*
X164100000Y-83100000D01*
D21*
X140950000Y-99000000D02*
X128475000Y-99000000D01*
D22*
X121550000Y-94350000D02*
X123825000Y-94350000D01*
X123825000Y-94350000D02*
X128475000Y-99000000D01*
D21*
X142900000Y-100500000D02*
X140950000Y-99000000D01*
X144750000Y-134000000D02*
X144750000Y-102350000D01*
X144750000Y-102350000D02*
X142900000Y-100500000D01*
X149829999Y-139079999D02*
X144750000Y-134000000D01*
X150000000Y-139079999D02*
X149829999Y-139079999D01*
X142900000Y-100500000D02*
X143550000Y-99850000D01*
X147800000Y-99850000D02*
X143550000Y-99850000D01*
D23*
X147900000Y-140800000D02*
X148000000Y-140900000D01*
X154800000Y-131500000D02*
X153700000Y-130400000D01*
X148000000Y-140900000D02*
X151300000Y-140900000D01*
X151300000Y-140900000D02*
X152400000Y-142000000D01*
X153600000Y-142000000D02*
X154800000Y-140800000D01*
X154800000Y-140800000D02*
X154800000Y-131500000D01*
X152400000Y-142000000D02*
X153600000Y-142000000D01*
X153700000Y-115600000D02*
X154100000Y-115200000D01*
X153700000Y-130400000D02*
X153700000Y-115600000D01*
X154100000Y-115200000D02*
X154100000Y-112100000D01*
X154100000Y-112100000D02*
X153000000Y-111000000D01*
D24*
X116200000Y-93250000D02*
X120400000Y-93250000D01*
X113750000Y-95750000D02*
X113750000Y-95700000D01*
X113750000Y-95700000D02*
X116200000Y-93250000D01*
D20*
X120400000Y-95475000D02*
X120400000Y-93250000D01*
X123025000Y-95950000D02*
X120400000Y-95475000D01*
X123100000Y-98300000D02*
X123025000Y-95950000D01*
X129175000Y-100361666D02*
X131250000Y-100500000D01*
X129175000Y-100361666D02*
X123100000Y-98300000D01*
D19*
X134900000Y-92025000D02*
X127700000Y-90750000D01*
D20*
X120400000Y-93250000D02*
X120400000Y-88755172D01*
X120500000Y-88655172D02*
X123500000Y-88500000D01*
X120400000Y-88755172D02*
X120500000Y-88655172D01*
D19*
X127700000Y-90750000D02*
X123500000Y-88500000D01*
D22*
X143525000Y-95850000D02*
X144200000Y-95850000D01*
X144200000Y-95850000D02*
X144800000Y-95250000D01*
X141100000Y-95850000D02*
X143525000Y-95850000D01*
X137850000Y-94600000D02*
X138250000Y-95000000D01*
X140300000Y-95000000D02*
X138250000Y-95000000D01*
X108250000Y-77750000D02*
X109200000Y-78600000D01*
X126400000Y-85000000D02*
X129300000Y-85000000D01*
X130450000Y-90200000D02*
X135850000Y-91250000D01*
X135850000Y-91250000D02*
X135950000Y-92050000D01*
X109200000Y-78600000D02*
X116600000Y-81600000D01*
X116600000Y-81600000D02*
X125200000Y-84800000D01*
X125200000Y-84800000D02*
X126400000Y-85000000D01*
X135950000Y-92050000D02*
X136250000Y-94600000D01*
X140700000Y-95400000D02*
X141100000Y-95850000D01*
X129300000Y-85000000D02*
X130150000Y-85600000D01*
X130150000Y-85600000D02*
X130450000Y-90200000D01*
X136250000Y-94600000D02*
X137850000Y-94600000D01*
X140300000Y-95000000D02*
X140700000Y-95400000D01*
X142750000Y-95450000D02*
X143500000Y-95450000D01*
X143500000Y-95450000D02*
X143850000Y-95100000D01*
X111000000Y-77250000D02*
X111800000Y-78000000D01*
X129450000Y-84600000D02*
X130500000Y-85400000D01*
X130500000Y-85400000D02*
X130800000Y-89900000D01*
X141250000Y-95450000D02*
X142750000Y-95450000D01*
X111800000Y-78000000D02*
X114400000Y-80200000D01*
X136600000Y-94200000D02*
X137950000Y-94200000D01*
X114400000Y-80200000D02*
X116600000Y-81200000D01*
X138400000Y-94600000D02*
X140450000Y-94600000D01*
X116600000Y-81200000D02*
X125250000Y-84400000D01*
X125250000Y-84400000D02*
X126350000Y-84600000D01*
X126350000Y-84600000D02*
X129450000Y-84600000D01*
X130800000Y-89900000D02*
X136250000Y-90950000D01*
X137950000Y-94200000D02*
X138400000Y-94600000D01*
X136250000Y-90950000D02*
X136600000Y-94200000D01*
X140450000Y-94600000D02*
X141250000Y-95450000D01*
X138850000Y-90550000D02*
X140400000Y-90550000D01*
X138850000Y-90550000D02*
X138650000Y-88850000D01*
X134350000Y-88000000D02*
X138650000Y-88850000D01*
X133800000Y-87850000D02*
X134350000Y-88000000D01*
X133750000Y-84400000D02*
X133800000Y-87850000D01*
X132200000Y-83150000D02*
X133750000Y-84400000D01*
X132200000Y-83150000D02*
X126450000Y-83050000D01*
X121800000Y-81500000D02*
X121600000Y-80950000D01*
X126450000Y-83050000D02*
X124850000Y-82650000D01*
X124850000Y-82650000D02*
X121800000Y-81500000D01*
X121600000Y-80950000D02*
X115600000Y-75600000D01*
X115600000Y-75600000D02*
X113750000Y-74750000D01*
X116900000Y-76000000D02*
X116900000Y-76259091D01*
X116900000Y-76259091D02*
X117000000Y-76359091D01*
X117000000Y-76359091D02*
X122800000Y-81500000D01*
X139050000Y-88550000D02*
X139127500Y-89325000D01*
X139850000Y-89475000D02*
X139277500Y-89475000D01*
X139277500Y-89475000D02*
X139127500Y-89325000D01*
X134150000Y-87550000D02*
X139050000Y-88550000D01*
X134150000Y-86000000D02*
X134150000Y-87550000D01*
X134100000Y-84200000D02*
X134150000Y-86000000D01*
X132350000Y-82800000D02*
X134100000Y-84200000D01*
X126450000Y-82650000D02*
X132350000Y-82800000D01*
X122800000Y-81500000D02*
X126450000Y-82650000D01*
X139250000Y-87550000D02*
X138050000Y-87550000D01*
X138050000Y-87550000D02*
X134550000Y-84050000D01*
X134550000Y-84050000D02*
X132950000Y-82450000D01*
X117450000Y-74850000D02*
X114750000Y-71000000D01*
X132950000Y-82450000D02*
X132550000Y-82450000D01*
X132550000Y-82450000D02*
X126500000Y-82250000D01*
X126500000Y-82250000D02*
X123000000Y-81150000D01*
X123000000Y-81150000D02*
X118800000Y-77450000D01*
X118800000Y-77450000D02*
X117450000Y-74850000D01*
X138650000Y-86950000D02*
X137950000Y-86950000D01*
X137950000Y-86950000D02*
X134925000Y-83925000D01*
X132550000Y-81550000D02*
X134925000Y-83925000D01*
X125500000Y-81550000D02*
X132550000Y-81550000D01*
X125000000Y-81050000D02*
X125500000Y-81550000D01*
X125000000Y-73000000D02*
X125000000Y-81050000D01*
X132675000Y-81175000D02*
X135250000Y-83750000D01*
X135250000Y-83750000D02*
X135300000Y-83800000D01*
X139250000Y-86350000D02*
X137850000Y-86350000D01*
X137850000Y-86350000D02*
X135250000Y-83750000D01*
X126875000Y-81175000D02*
X132675000Y-81175000D01*
X126500000Y-80800000D02*
X126875000Y-81175000D01*
X126500000Y-73500000D02*
X126500000Y-80800000D01*
X127500000Y-80450000D02*
X127500000Y-75700000D01*
X127500000Y-75700000D02*
X128100000Y-75100000D01*
X132800000Y-80800000D02*
X135600000Y-83600000D01*
X135600000Y-83600000D02*
X135700000Y-83700000D01*
X138650000Y-85750000D02*
X137750000Y-85750000D01*
X137750000Y-85750000D02*
X135600000Y-83600000D01*
X127850000Y-80800000D02*
X132800000Y-80800000D01*
X127500000Y-80450000D02*
X127850000Y-80800000D01*
X139250000Y-85150000D02*
X137650000Y-85150000D01*
X137650000Y-85150000D02*
X136100000Y-83600000D01*
X130150000Y-78200000D02*
X130150000Y-80250000D01*
X130150000Y-80250000D02*
X130300000Y-80400000D01*
X130300000Y-80400000D02*
X130900000Y-80400000D01*
X132900000Y-80400000D02*
X136100000Y-83600000D01*
X130900000Y-80400000D02*
X132900000Y-80400000D01*
X131050000Y-78100000D02*
X131050000Y-79800000D01*
X138650000Y-84550000D02*
X137550000Y-84550000D01*
X137550000Y-84550000D02*
X136500000Y-83500000D01*
X131100000Y-78050000D02*
X131050000Y-78100000D01*
X131275000Y-80025000D02*
X133025000Y-80025000D01*
X131050000Y-79800000D02*
X131275000Y-80025000D01*
X133025000Y-80025000D02*
X136500000Y-83500000D01*
X133025000Y-79525000D02*
X137200000Y-83700000D01*
X137200000Y-83700000D02*
X137300000Y-83800000D01*
X139250000Y-83950000D02*
X137450000Y-83950000D01*
X137450000Y-83950000D02*
X137200000Y-83700000D01*
X131650000Y-79350000D02*
X131825000Y-79525000D01*
X131825000Y-79525000D02*
X133025000Y-79525000D01*
X133250000Y-79250000D02*
X137150000Y-83150000D01*
X137150000Y-83150000D02*
X137300000Y-83300000D01*
X138650000Y-83350000D02*
X137350000Y-83350000D01*
X137350000Y-83350000D02*
X137150000Y-83150000D01*
X133250000Y-77500000D02*
X133250000Y-79250000D01*
X136500000Y-81600000D02*
X137600000Y-82700000D01*
X137600000Y-82700000D02*
X139250000Y-82700000D01*
X136500000Y-81500000D02*
X136500000Y-81600000D01*
X136500000Y-77500000D02*
X136500000Y-81500000D01*
D23*
X142950000Y-80952631D02*
X139600000Y-80600000D01*
X143400000Y-82800000D02*
X143400000Y-81400000D01*
X142950000Y-80952631D02*
X142952631Y-80952631D01*
X142952631Y-80952631D02*
X143400000Y-81400000D01*
X139600000Y-80600000D02*
X139250000Y-78500000D01*
X144000000Y-83400000D02*
X144000000Y-80600000D01*
X144000000Y-80600000D02*
X140250000Y-80000000D01*
X143500000Y-79750000D02*
X144350000Y-80000000D01*
X144600000Y-82800000D02*
X144600000Y-80250000D01*
X144600000Y-80250000D02*
X144350000Y-80000000D01*
D22*
X143450000Y-76450000D02*
X143450000Y-77600000D01*
X143450000Y-77600000D02*
X145200000Y-79350000D01*
X145200000Y-79350000D02*
X145200000Y-83300000D01*
X157800000Y-87000000D02*
X150000000Y-87000000D01*
X150000000Y-87000000D02*
X145800000Y-82800000D01*
X158400000Y-86400000D02*
X157800000Y-87000000D01*
X158400000Y-82400000D02*
X158400000Y-86400000D01*
X159100000Y-81700000D02*
X158400000Y-82400000D01*
X161400000Y-81700000D02*
X159100000Y-81700000D01*
X162000000Y-82300000D02*
X161400000Y-81700000D01*
X162000000Y-85100000D02*
X162000000Y-82300000D01*
X163200000Y-86300000D02*
X162000000Y-85100000D01*
X163200000Y-89300000D02*
X163200000Y-86300000D01*
X153100000Y-99400000D02*
X163200000Y-89300000D01*
X153100000Y-101400000D02*
X153100000Y-99400000D01*
D23*
X145800000Y-82800000D02*
X145800000Y-81000000D01*
X145800000Y-81000000D02*
X146250000Y-80250000D01*
D22*
X144400000Y-77600000D02*
X145100000Y-78300000D01*
X145100000Y-78300000D02*
X146100000Y-78300000D01*
X150000000Y-78951852D02*
X149800000Y-78855556D01*
X150000000Y-80100000D02*
X150000000Y-78951852D01*
X149800000Y-78855556D02*
X148542308Y-78250000D01*
X148542308Y-78250000D02*
X146100000Y-78300000D01*
X151100000Y-78600000D02*
X151200000Y-78700000D01*
X151200000Y-80100000D02*
X151200000Y-78700000D01*
X143700000Y-75950000D02*
X142350000Y-71550000D01*
X142350000Y-71550000D02*
X141400000Y-70600000D01*
X151100000Y-78600000D02*
X146850000Y-76600000D01*
X146850000Y-76600000D02*
X145350000Y-76400000D01*
X145350000Y-76400000D02*
X144700000Y-76450000D01*
X141400000Y-70600000D02*
X140460000Y-69210000D01*
X144700000Y-76450000D02*
X143700000Y-75950000D01*
X141050000Y-68250000D02*
X139600000Y-68200000D01*
X141470000Y-68670000D02*
X141200000Y-68400000D01*
X141050000Y-68250000D02*
X141200000Y-68400000D01*
X151800000Y-80700000D02*
X151800000Y-78550000D01*
X151800000Y-78550000D02*
X151700000Y-78450000D01*
X151700000Y-78450000D02*
X147000000Y-76250000D01*
X147000000Y-76250000D02*
X145350000Y-76000000D01*
X145350000Y-76000000D02*
X144750000Y-76050000D01*
X144750000Y-76050000D02*
X144000000Y-75650000D01*
X144000000Y-75650000D02*
X142650000Y-71300000D01*
X142650000Y-71300000D02*
X141650000Y-70250000D01*
X141650000Y-70250000D02*
X141470000Y-69800000D01*
X141470000Y-69800000D02*
X141470000Y-68670000D01*
X142200000Y-66600000D02*
X142300000Y-64283530D01*
X142200000Y-68400000D02*
X142200000Y-66600000D01*
X152400000Y-78400000D02*
X152200000Y-78300000D01*
X152400000Y-80100000D02*
X152400000Y-78400000D01*
X142000000Y-69750000D02*
X142200000Y-68400000D01*
X144800000Y-75657894D02*
X144305883Y-75400000D01*
X144305883Y-75400000D02*
X142800000Y-70600000D01*
X152200000Y-78300000D02*
X149500000Y-76900000D01*
X149500000Y-76900000D02*
X147100000Y-75900000D01*
X147100000Y-75900000D02*
X145350000Y-75600000D01*
X145350000Y-75600000D02*
X144800000Y-75657894D01*
X142800000Y-70600000D02*
X142000000Y-69750000D01*
X156800000Y-82800000D02*
X156800000Y-78650000D01*
X150550000Y-74950000D02*
X150200000Y-74650000D01*
X150200000Y-74650000D02*
X150250000Y-73400000D01*
X156800000Y-78650000D02*
X153179200Y-75029200D01*
X153179200Y-75029200D02*
X150700000Y-75029200D01*
X150700000Y-75029200D02*
X150550000Y-74950000D01*
X150250000Y-73400000D02*
X147500000Y-71000000D01*
X155650000Y-83400000D02*
X157600000Y-83400000D01*
X155250000Y-77750000D02*
X155295576Y-82900000D01*
X155295576Y-82900000D02*
X155295576Y-83045576D01*
X155295576Y-83045576D02*
X155650000Y-83400000D01*
X150350000Y-75250000D02*
X155250000Y-77750000D01*
X149800000Y-74800000D02*
X150350000Y-75250000D01*
X149850000Y-73550000D02*
X149800000Y-74800000D01*
X148050000Y-71950000D02*
X149850000Y-73550000D01*
X146000000Y-71000000D02*
X148050000Y-71950000D01*
X155050000Y-84000000D02*
X156800000Y-84000000D01*
X148000000Y-73250000D02*
X149550000Y-75100000D01*
X149550000Y-75100000D02*
X150150000Y-75550000D01*
X154700000Y-77900000D02*
X154700000Y-83650000D01*
X154700000Y-83650000D02*
X155050000Y-84000000D01*
X150150000Y-75550000D02*
X154700000Y-77900000D01*
X148000000Y-74750000D02*
X149950000Y-75850000D01*
X149950000Y-75850000D02*
X154100000Y-78000000D01*
X154100000Y-78000000D02*
X154100000Y-84250000D01*
X154100000Y-84250000D02*
X154450000Y-84600000D01*
X154450000Y-84600000D02*
X157600000Y-84600000D01*
X154000000Y-85300000D02*
X156800000Y-85300000D01*
X153600000Y-78200000D02*
X153600000Y-84900000D01*
X153600000Y-84900000D02*
X154000000Y-85300000D01*
X149750000Y-76150000D02*
X153600000Y-78200000D01*
X145050000Y-74450000D02*
X146600000Y-74450000D01*
X146600000Y-74450000D02*
X147350000Y-75200000D01*
X147350000Y-75200000D02*
X149750000Y-76150000D01*
X144600000Y-75100000D02*
X143584616Y-71800000D01*
X144000000Y-71000000D02*
X143584616Y-71800000D01*
X153000000Y-78300000D02*
X153000000Y-85400000D01*
X153500000Y-85900000D02*
X157600000Y-85900000D01*
X153000000Y-85400000D02*
X153500000Y-85900000D01*
X149800000Y-76600000D02*
X153000000Y-78300000D01*
X149800000Y-76600000D02*
X147200000Y-75550000D01*
X147200000Y-75550000D02*
X145350000Y-75200000D01*
X145350000Y-75200000D02*
X144900000Y-75250000D01*
X144900000Y-75250000D02*
X144600000Y-75100000D01*
X120450000Y-80750000D02*
X121500000Y-81800000D01*
X126300000Y-83400000D02*
X132000000Y-83500000D01*
X121500000Y-81800000D02*
X124700000Y-83000000D01*
X124700000Y-83000000D02*
X126300000Y-83400000D01*
X132000000Y-83500000D02*
X133400000Y-84600000D01*
X133575000Y-88205000D02*
X138300000Y-89150000D01*
X138300000Y-89150000D02*
X138600000Y-92000000D01*
X138600000Y-92000000D02*
X138900000Y-92000000D01*
X133400000Y-84600000D02*
X133400000Y-88030000D01*
X148300000Y-92375000D02*
X149075000Y-91600000D01*
X149075000Y-91600000D02*
X156000000Y-91600000D01*
X133400000Y-88030000D02*
X133575000Y-88205000D01*
X138900000Y-92000000D02*
X139275000Y-92375000D01*
X139275000Y-92375000D02*
X148300000Y-92375000D01*
X131325000Y-84050000D02*
X131900000Y-83875000D01*
X137250000Y-89300000D02*
X137950000Y-89450000D01*
X131900000Y-83875000D02*
X132013157Y-84000000D01*
X132013157Y-84000000D02*
X133013157Y-85000000D01*
X133013157Y-88240330D02*
X133300000Y-88527173D01*
X137950000Y-89450000D02*
X138250000Y-92400000D01*
X133013157Y-85000000D02*
X133013157Y-88240330D01*
X133300000Y-88527173D02*
X137250000Y-89300000D01*
X138250000Y-92400000D02*
X138775000Y-92400000D01*
X138775000Y-92400000D02*
X139125000Y-92750000D01*
X149000000Y-92200000D02*
X156700000Y-92200000D01*
X139125000Y-92750000D02*
X148450000Y-92750000D01*
X148450000Y-92750000D02*
X149000000Y-92200000D01*
X165800000Y-85600000D02*
X165800000Y-88600000D01*
X172450000Y-90150000D02*
X167350000Y-90150000D01*
X167350000Y-90150000D02*
X165800000Y-88600000D01*
X175450000Y-93150000D02*
X172450000Y-90150000D01*
X175450000Y-94050000D02*
X175450000Y-93150000D01*
X172400000Y-97100000D02*
X175450000Y-94050000D01*
X172400000Y-99000000D02*
X172400000Y-97100000D01*
X194000000Y-73300000D02*
X194000000Y-74150000D01*
X194000000Y-74150000D02*
X190000000Y-78150000D01*
X190000000Y-78150000D02*
X186200000Y-78400000D01*
X186200000Y-78400000D02*
X177450000Y-78250000D01*
X177450000Y-78250000D02*
X171700000Y-78800000D01*
X171700000Y-78800000D02*
X165800000Y-85600000D01*
X132400000Y-86975000D02*
X132400000Y-88532194D01*
X132400000Y-88532194D02*
X132650000Y-88782194D01*
X138645000Y-92775000D02*
X138990000Y-93120000D01*
X138990000Y-93120000D02*
X148600000Y-93120000D01*
X132650000Y-88782194D02*
X137350000Y-89691156D01*
X148920000Y-92800000D02*
X156000000Y-92800000D01*
X137350000Y-89691156D02*
X137600000Y-89735618D01*
X148600000Y-93120000D02*
X148920000Y-92800000D01*
X137600000Y-89735618D02*
X137648799Y-90400000D01*
X137648799Y-90400000D02*
X137900000Y-92775000D01*
X137900000Y-92775000D02*
X138645000Y-92775000D01*
X132400000Y-85200000D02*
X132400000Y-86975000D01*
X132400000Y-85100000D02*
X132400000Y-86975000D01*
X131700000Y-84725000D02*
X131750000Y-85000000D01*
X138520000Y-93150000D02*
X138850000Y-93480000D01*
X131750000Y-85000000D02*
X131875000Y-89000000D01*
X131875000Y-89000000D02*
X137250000Y-90050000D01*
X137250000Y-90050000D02*
X137575000Y-93125000D01*
X137575000Y-93125000D02*
X138450000Y-93150000D01*
X138450000Y-93150000D02*
X138520000Y-93150000D01*
X138850000Y-93480000D02*
X146380000Y-93480000D01*
X153400000Y-94850000D02*
X154850000Y-93400000D01*
X146380000Y-93480000D02*
X147750000Y-94850000D01*
X147750000Y-94850000D02*
X153400000Y-94850000D01*
X154950000Y-93400000D02*
X156700000Y-93400000D01*
X154850000Y-93400000D02*
X154950000Y-93400000D01*
X115750000Y-78000000D02*
X116600000Y-80000000D01*
X126325000Y-83850000D02*
X129775000Y-83850000D01*
X116600000Y-80000000D02*
X117050000Y-80500000D01*
X124550000Y-83350000D02*
X126325000Y-83850000D01*
X138360000Y-93500000D02*
X138700000Y-93840000D01*
X138250000Y-93500000D02*
X138360000Y-93500000D01*
X117050000Y-80500000D02*
X124550000Y-83350000D01*
X131250000Y-85075000D02*
X131500000Y-89300000D01*
X129775000Y-83850000D02*
X131250000Y-85075000D01*
X131500000Y-89300000D02*
X136900000Y-90350000D01*
X136900000Y-90350000D02*
X137250000Y-93475000D01*
X137250000Y-93475000D02*
X138250000Y-93500000D01*
X146200000Y-93840000D02*
X147610000Y-95250000D01*
X138700000Y-93840000D02*
X146200000Y-93840000D01*
X153500000Y-95250000D02*
X154750000Y-94000000D01*
X147610000Y-95250000D02*
X153500000Y-95250000D01*
X154750000Y-94000000D02*
X156000000Y-94000000D01*
X162550000Y-86650000D02*
X161400000Y-85500000D01*
X161400000Y-85500000D02*
X161400000Y-84750000D01*
X162550000Y-88350000D02*
X162550000Y-86650000D01*
X156900000Y-94000000D02*
X162550000Y-88350000D01*
X156000000Y-94000000D02*
X156900000Y-94000000D01*
X115350000Y-79500000D02*
X116200000Y-80600000D01*
X116200000Y-80600000D02*
X125250000Y-84000000D01*
X125250000Y-84000000D02*
X126300000Y-84225000D01*
X147500000Y-95650000D02*
X153600000Y-95650000D01*
X130800000Y-85175000D02*
X130850000Y-85230000D01*
X126300000Y-84225000D02*
X129575000Y-84225000D01*
X129575000Y-84225000D02*
X130800000Y-85175000D01*
X130850000Y-85230000D02*
X130875000Y-85625000D01*
X138100000Y-93850000D02*
X138500000Y-94202941D01*
X136575000Y-90650000D02*
X136925000Y-93825000D01*
X130875000Y-85625000D02*
X131150000Y-89600000D01*
X140500000Y-94200000D02*
X146050000Y-94200000D01*
X131150000Y-89600000D02*
X136575000Y-90650000D01*
X136925000Y-93825000D02*
X138100000Y-93850000D01*
X138500000Y-94202941D02*
X140500000Y-94200000D01*
X146050000Y-94200000D02*
X147500000Y-95650000D01*
X154650000Y-94600000D02*
X156700000Y-94600000D01*
X153600000Y-95650000D02*
X154650000Y-94600000D01*
X153500000Y-96300000D02*
X154525000Y-95353847D01*
X155875000Y-95200000D02*
X154678847Y-95200000D01*
X154678847Y-95200000D02*
X154525000Y-95353847D01*
X106000000Y-75500000D02*
X107800000Y-78200000D01*
X107800000Y-78200000D02*
X109000000Y-79000000D01*
X125200000Y-85200000D02*
X126400000Y-85400000D01*
X109000000Y-79000000D02*
X116600000Y-82000000D01*
X116600000Y-82000000D02*
X125200000Y-85200000D01*
X135900000Y-95000000D02*
X137700000Y-95000000D01*
X129800000Y-85800000D02*
X130075000Y-90500000D01*
X129200000Y-85400000D02*
X129800000Y-85800000D01*
X126400000Y-85400000D02*
X129200000Y-85400000D01*
X130075000Y-90500000D02*
X133725000Y-91250000D01*
X137700000Y-95000000D02*
X138900000Y-96200000D01*
X133725000Y-91250000D02*
X135500000Y-91550000D01*
X135500000Y-91550000D02*
X135900000Y-95000000D01*
X138900000Y-96200000D02*
X153500000Y-96300000D01*
D24*
X160000000Y-98300000D02*
X155300000Y-103000000D01*
X155300000Y-103000000D02*
X155300000Y-103200000D01*
X161800000Y-98300000D02*
X160000000Y-98300000D01*
X167800000Y-95800000D02*
X164300000Y-95800000D01*
X164300000Y-95800000D02*
X161800000Y-98300000D01*
X155300000Y-103200000D02*
X155300000Y-108300000D01*
D20*
X174500000Y-73250000D02*
X172197500Y-75950000D01*
X163000000Y-84750000D02*
X164200000Y-85290000D01*
X165750000Y-83500000D02*
X164200000Y-85290000D01*
X165750000Y-83500000D02*
X172197500Y-75950000D01*
D24*
X183750000Y-70250000D02*
X188250000Y-70250000D01*
X192800000Y-71800000D02*
X189800000Y-71800000D01*
X189800000Y-71800000D02*
X188250000Y-70250000D01*
X185822973Y-73722973D02*
X186300000Y-74200000D01*
X186300000Y-74200000D02*
X186300000Y-75600000D01*
X183250000Y-73722973D02*
X185822973Y-73722973D01*
X183250000Y-73722973D02*
X180750000Y-71222973D01*
X162500000Y-67100000D02*
X159200000Y-63800000D01*
X159200000Y-63800000D02*
X156800000Y-63800000D01*
X162500000Y-68500000D02*
X162500000Y-67100000D01*
D20*
X159450000Y-77900000D02*
X160550000Y-78333333D01*
X160550000Y-78333333D02*
X162750000Y-79200000D01*
X161000000Y-77250000D02*
X160550000Y-78333333D01*
X162750000Y-79200000D02*
X163000000Y-84750000D01*
X158100000Y-77000000D02*
X159450000Y-77900000D01*
X157000000Y-74000000D02*
X158100000Y-77000000D01*
X180750000Y-71222973D02*
X183750000Y-70250000D01*
X174500000Y-73250000D02*
X180750000Y-71222973D01*
X162500000Y-68500000D02*
X157000000Y-74000000D01*
D21*
X150000000Y-136539999D02*
X148839999Y-136539999D01*
X148839999Y-136539999D02*
X145100000Y-132800000D01*
X145100000Y-132800000D02*
X145100000Y-102150000D01*
X145100000Y-102150000D02*
X145400000Y-101850000D01*
X145400000Y-101850000D02*
X147550000Y-101850000D01*
X145450000Y-120600000D02*
X146000000Y-121150000D01*
X146400000Y-105600000D02*
X145450000Y-106550000D01*
X145450000Y-106550000D02*
X145450000Y-120600000D01*
X146400000Y-103500000D02*
X146400000Y-105600000D01*
X146000000Y-121150000D02*
X146000000Y-131625000D01*
X146000000Y-131625000D02*
X146100000Y-131725000D01*
X146100000Y-131725000D02*
X150000000Y-133999999D01*
X150750000Y-100000000D02*
X150325000Y-99575000D01*
X150325000Y-99575000D02*
X149975000Y-99575000D01*
X150750000Y-100850000D02*
X150750000Y-100000000D01*
X150250000Y-101350000D02*
X150750000Y-100850000D01*
X150250000Y-106100000D02*
X150250000Y-101350000D01*
X150000000Y-106350000D02*
X150250000Y-106100000D01*
X150000000Y-116800000D02*
X150000000Y-106350000D01*
X150100000Y-116900000D02*
X150000000Y-116800000D01*
X150100000Y-118250000D02*
X150100000Y-116900000D01*
X149550000Y-118700000D02*
X149750000Y-118900000D01*
X150450000Y-118900000D02*
X149750000Y-118900000D01*
X150985000Y-118365000D02*
X150450000Y-118900000D01*
X149550000Y-118700000D02*
X149550000Y-106150000D01*
X149850000Y-105850000D02*
X149850000Y-100450000D01*
X149850000Y-100450000D02*
X149950000Y-100350000D01*
X149550000Y-106150000D02*
X149850000Y-105850000D01*
X126250000Y-93400000D02*
X127650000Y-94800000D01*
X127650000Y-94800000D02*
X135250000Y-94800000D01*
X126250000Y-91300000D02*
X126250000Y-93400000D01*
X152400000Y-98900000D02*
X152400000Y-107100000D01*
X152400000Y-98900000D02*
X152400000Y-97650000D01*
X152400000Y-97650000D02*
X151600000Y-96850000D01*
X152400000Y-107100000D02*
X152900000Y-107600000D01*
X153500000Y-135210000D02*
X152000000Y-130800000D01*
X152000000Y-130800000D02*
X151800000Y-130400000D01*
X151800000Y-130400000D02*
X150800000Y-129800000D01*
X150800000Y-129800000D02*
X148400000Y-129200000D01*
X148000000Y-122400000D02*
X148000000Y-122150000D01*
X146150000Y-108950000D02*
X146500000Y-108600000D01*
X148400000Y-129200000D02*
X148400000Y-122800000D01*
X148400000Y-122800000D02*
X148000000Y-122400000D01*
X148000000Y-122150000D02*
X146150000Y-120300000D01*
X146150000Y-120300000D02*
X146150000Y-108950000D01*
X153500000Y-137750000D02*
X151600000Y-137000000D01*
X151600000Y-137000000D02*
X151600000Y-130800000D01*
X151600000Y-130800000D02*
X150800000Y-130200000D01*
X150800000Y-130200000D02*
X148050000Y-129565384D01*
X148050000Y-129565384D02*
X148050000Y-124100000D01*
X145800000Y-120450000D02*
X145800000Y-108200000D01*
X148050000Y-124100000D02*
X147100000Y-123150000D01*
X145800000Y-108200000D02*
X146050000Y-107950000D01*
X147100000Y-123150000D02*
X147100000Y-121750000D01*
X147100000Y-121750000D02*
X145800000Y-120450000D01*
X152900000Y-131000000D02*
X152900000Y-117100000D01*
X152900000Y-117100000D02*
X150400000Y-114600000D01*
X150400000Y-114600000D02*
X150400000Y-107700000D01*
X150400000Y-107700000D02*
X151950000Y-106150000D01*
X151950000Y-106150000D02*
X151950000Y-101750000D01*
X151950000Y-101750000D02*
X151450000Y-101250000D01*
X147950000Y-101200000D02*
X148250000Y-101500000D01*
X148250000Y-101500000D02*
X148250000Y-107050000D01*
X148250000Y-107050000D02*
X147250000Y-108050000D01*
X147250000Y-108050000D02*
X147250000Y-120850000D01*
X147250000Y-120850000D02*
X148600000Y-122200000D01*
D19*
X138900000Y-98400000D02*
X136750000Y-96250000D01*
X136750000Y-96250000D02*
X136650000Y-96250000D01*
X140000000Y-98400000D02*
X138900000Y-98400000D01*
X140000000Y-98400000D02*
X143400000Y-98400000D01*
D24*
X154100000Y-61100000D02*
X154100000Y-69900000D01*
X149200000Y-59000000D02*
X152000000Y-59000000D01*
X152000000Y-59000000D02*
X154100000Y-61100000D01*
X148760000Y-59440000D02*
X149200000Y-59000000D01*
X148760000Y-60560000D02*
X148760000Y-59440000D01*
X154100000Y-69900000D02*
X151100000Y-72900000D01*
D20*
X174200000Y-93700000D02*
X162550000Y-93700000D01*
X162550000Y-93700000D02*
X160850000Y-95400000D01*
X160850000Y-95400000D02*
X160850000Y-96500000D01*
X160100000Y-97250000D02*
X159550000Y-97250000D01*
X160850000Y-96500000D02*
X160100000Y-97250000D01*
X159550000Y-97250000D02*
X154250000Y-102550000D01*
X154250000Y-102550000D02*
X154250000Y-107800000D01*
X154250000Y-107800000D02*
X151950000Y-110100000D01*
X151950000Y-110100000D02*
X151950000Y-114350000D01*
X151950000Y-114350000D02*
X152850000Y-115250000D01*
X185850000Y-95950000D02*
X187000000Y-95500000D01*
X174500000Y-88300000D02*
X170700000Y-88050000D01*
X172700000Y-84450000D02*
X173750000Y-84450000D01*
X170400000Y-84450000D02*
X172700000Y-84450000D01*
X168900000Y-85800000D02*
X170400000Y-84450000D01*
X168800000Y-87700000D02*
X168900000Y-85800000D01*
X170700000Y-88050000D02*
X168800000Y-87700000D01*
X177800000Y-88800000D02*
X174500000Y-88300000D01*
X181600000Y-92200000D02*
X177800000Y-88800000D01*
X184350000Y-95650000D02*
X181600000Y-92200000D01*
X185850000Y-95950000D02*
X184350000Y-95650000D01*
M02*
