G04 #@! TF.FileFunction,Copper,L6,Bot,Signal*
%FSLAX46Y46*%
G04 Gerber Fmt 4.6, Leading zero omitted, Abs format (unit mm)*
G04 Created by KiCad (PCBNEW 4.0.6) date Monday, May 07, 2018 'PMt' 08:57:05 PM*
%MOMM*%
%LPD*%
G01*
G04 APERTURE LIST*
%ADD10C,0.100000*%
%ADD11C,0.200000*%
%ADD12C,2.000000*%
%ADD13R,1.250000X1.500000*%
%ADD14R,1.500000X1.250000*%
%ADD15R,2.032000X1.727200*%
%ADD16O,2.032000X1.727200*%
%ADD17C,1.500000*%
%ADD18R,1.270000X0.965200*%
%ADD19R,0.900000X0.800000*%
%ADD20R,1.500000X1.300000*%
%ADD21R,1.300000X1.500000*%
%ADD22R,2.000000X1.700000*%
%ADD23R,0.700000X0.250000*%
%ADD24R,0.250000X0.700000*%
%ADD25R,1.725000X1.725000*%
%ADD26R,1.550000X0.600000*%
%ADD27R,0.700000X0.240000*%
%ADD28R,0.800000X0.240000*%
%ADD29R,0.240000X0.800000*%
%ADD30R,2.550000X2.550000*%
%ADD31R,1.550000X1.300000*%
%ADD32R,1.500000X1.500000*%
%ADD33C,0.900000*%
%ADD34R,1.727200X1.727200*%
%ADD35O,1.727200X1.727200*%
%ADD36C,0.610000*%
%ADD37C,0.800000*%
%ADD38C,0.152400*%
%ADD39C,1.000000*%
%ADD40C,0.500000*%
%ADD41C,0.750000*%
%ADD42C,0.240000*%
%ADD43C,0.254000*%
G04 APERTURE END LIST*
D10*
D11*
X149950000Y-70485000D02*
X149950000Y-69215000D01*
D10*
G36*
X174041266Y-78919551D02*
X172958734Y-79544551D01*
X172208734Y-78245513D01*
X173291266Y-77620513D01*
X174041266Y-78919551D01*
X174041266Y-78919551D01*
G37*
G36*
X172791266Y-76754487D02*
X171708734Y-77379487D01*
X170958734Y-76080449D01*
X172041266Y-75455449D01*
X172791266Y-76754487D01*
X172791266Y-76754487D01*
G37*
D12*
X177000000Y-80000000D03*
X177000000Y-94990000D03*
D10*
G36*
X155643846Y-102240038D02*
X154759962Y-101356154D01*
X155820622Y-100295494D01*
X156704506Y-101179378D01*
X155643846Y-102240038D01*
X155643846Y-102240038D01*
G37*
G36*
X157411612Y-100472272D02*
X156527728Y-99588388D01*
X157588388Y-98527728D01*
X158472272Y-99411612D01*
X157411612Y-100472272D01*
X157411612Y-100472272D01*
G37*
G36*
X148856155Y-142972271D02*
X147972271Y-143856155D01*
X146911611Y-142795495D01*
X147795495Y-141911611D01*
X148856155Y-142972271D01*
X148856155Y-142972271D01*
G37*
G36*
X147088389Y-141204505D02*
X146204505Y-142088389D01*
X145143845Y-141027729D01*
X146027729Y-140143845D01*
X147088389Y-141204505D01*
X147088389Y-141204505D01*
G37*
G36*
X154143846Y-100740038D02*
X153259962Y-99856154D01*
X154320622Y-98795494D01*
X155204506Y-99679378D01*
X154143846Y-100740038D01*
X154143846Y-100740038D01*
G37*
G36*
X155911612Y-98972272D02*
X155027728Y-98088388D01*
X156088388Y-97027728D01*
X156972272Y-97911612D01*
X155911612Y-98972272D01*
X155911612Y-98972272D01*
G37*
D13*
X145800000Y-100600001D03*
X145800000Y-98100001D03*
X146000000Y-109850000D03*
X146000000Y-112350000D03*
X148000000Y-109850000D03*
X148000000Y-112350000D03*
X148900000Y-80450001D03*
X148900000Y-82950001D03*
D14*
X149999999Y-96000001D03*
X147499999Y-96000001D03*
X124250000Y-96000000D03*
X121750000Y-96000000D03*
X126250000Y-75000000D03*
X123750000Y-75000000D03*
X165600000Y-94450000D03*
X168100000Y-94450000D03*
D10*
G36*
X156972272Y-65588388D02*
X156088388Y-66472272D01*
X155027728Y-65411612D01*
X155911612Y-64527728D01*
X156972272Y-65588388D01*
X156972272Y-65588388D01*
G37*
G36*
X155204506Y-63820622D02*
X154320622Y-64704506D01*
X153259962Y-63643846D01*
X154143846Y-62759962D01*
X155204506Y-63820622D01*
X155204506Y-63820622D01*
G37*
G36*
X172158734Y-73880449D02*
X173241266Y-73255449D01*
X173991266Y-74554487D01*
X172908734Y-75179487D01*
X172158734Y-73880449D01*
X172158734Y-73880449D01*
G37*
G36*
X173408734Y-76045513D02*
X174491266Y-75420513D01*
X175241266Y-76719551D01*
X174158734Y-77344551D01*
X173408734Y-76045513D01*
X173408734Y-76045513D01*
G37*
D15*
X153500000Y-135210000D03*
D16*
X153500000Y-137750000D03*
X153500000Y-140290000D03*
D17*
X154600000Y-122600000D03*
X151250000Y-108550000D03*
X145300000Y-122600000D03*
D15*
X150000000Y-139079999D03*
D16*
X150000000Y-136539999D03*
X150000000Y-133999999D03*
X150000000Y-131459999D03*
D18*
X148750000Y-66650000D03*
X148750000Y-67920000D03*
X151250000Y-66650000D03*
X151250000Y-67920000D03*
D17*
X115750000Y-96000000D03*
X130000000Y-75250000D03*
X192600000Y-90600000D03*
X195400000Y-73000000D03*
D10*
G36*
X169624038Y-80544968D02*
X170974038Y-82883236D01*
X170281218Y-83283236D01*
X168931218Y-80944968D01*
X169624038Y-80544968D01*
X169624038Y-80544968D01*
G37*
G36*
X167718782Y-81644968D02*
X169068782Y-83983236D01*
X168375962Y-84383236D01*
X167025962Y-82044968D01*
X167718782Y-81644968D01*
X167718782Y-81644968D01*
G37*
D19*
X125000000Y-91050000D03*
X125000000Y-92950000D03*
X123000000Y-92000000D03*
X121000000Y-77050000D03*
X121000000Y-78950000D03*
X119000000Y-78000000D03*
X170000000Y-90950000D03*
X170000000Y-89050000D03*
X172000000Y-90000000D03*
D10*
G36*
X158929290Y-68979899D02*
X158363604Y-68414213D01*
X159000000Y-67777817D01*
X159565686Y-68343503D01*
X158929290Y-68979899D01*
X158929290Y-68979899D01*
G37*
G36*
X157585787Y-67636396D02*
X157020101Y-67070710D01*
X157656497Y-66434314D01*
X158222183Y-67000000D01*
X157585787Y-67636396D01*
X157585787Y-67636396D01*
G37*
G36*
X159671752Y-66893934D02*
X159106066Y-66328248D01*
X159742462Y-65691852D01*
X160308148Y-66257538D01*
X159671752Y-66893934D01*
X159671752Y-66893934D01*
G37*
D20*
X153449999Y-128050000D03*
X150749999Y-128050000D03*
D21*
X151050000Y-112000000D03*
X151050000Y-114700000D03*
D20*
X153450000Y-125050000D03*
X150750000Y-125050000D03*
D10*
G36*
X152870711Y-141710051D02*
X153789949Y-142629289D01*
X152729289Y-143689949D01*
X151810051Y-142770711D01*
X152870711Y-141710051D01*
X152870711Y-141710051D01*
G37*
G36*
X150961523Y-143619239D02*
X151880761Y-144538477D01*
X150820101Y-145599137D01*
X149900863Y-144679899D01*
X150961523Y-143619239D01*
X150961523Y-143619239D01*
G37*
D21*
X161000000Y-95650000D03*
X161000000Y-98350000D03*
D20*
X142850000Y-97000000D03*
X140150000Y-97000000D03*
D22*
X132000000Y-93000000D03*
X128000000Y-93000000D03*
X128000001Y-80000000D03*
X124000001Y-80000000D03*
X163000000Y-89000000D03*
X167000000Y-89000000D03*
D10*
G36*
X152479720Y-72722362D02*
X151277638Y-71520280D01*
X152691852Y-70106066D01*
X153893934Y-71308148D01*
X152479720Y-72722362D01*
X152479720Y-72722362D01*
G37*
G36*
X155308148Y-69893934D02*
X154106066Y-68691852D01*
X155520280Y-67277638D01*
X156722362Y-68479720D01*
X155308148Y-69893934D01*
X155308148Y-69893934D01*
G37*
D20*
X129700000Y-90000000D03*
X127000000Y-90000000D03*
X125700000Y-77000000D03*
X123000000Y-77000000D03*
X165550000Y-92150000D03*
X168250000Y-92150000D03*
D10*
G36*
X155474695Y-72944543D02*
X154555457Y-72025305D01*
X155616117Y-70964645D01*
X156535355Y-71883883D01*
X155474695Y-72944543D01*
X155474695Y-72944543D01*
G37*
G36*
X157383883Y-71035355D02*
X156464645Y-70116117D01*
X157525305Y-69055457D01*
X158444543Y-69974695D01*
X157383883Y-71035355D01*
X157383883Y-71035355D01*
G37*
G36*
X182990769Y-81169626D02*
X181769169Y-81614253D01*
X181256139Y-80204714D01*
X182477739Y-79760087D01*
X182990769Y-81169626D01*
X182990769Y-81169626D01*
G37*
G36*
X182067315Y-78632456D02*
X180845715Y-79077083D01*
X180332685Y-77667544D01*
X181554285Y-77222917D01*
X182067315Y-78632456D01*
X182067315Y-78632456D01*
G37*
G36*
X175676220Y-76112917D02*
X175026220Y-74987083D01*
X176325258Y-74237083D01*
X176975258Y-75362917D01*
X175676220Y-76112917D01*
X175676220Y-76112917D01*
G37*
G36*
X178014488Y-74762917D02*
X177364488Y-73637083D01*
X178663526Y-72887083D01*
X179313526Y-74012917D01*
X178014488Y-74762917D01*
X178014488Y-74762917D01*
G37*
G36*
X180006347Y-73612917D02*
X179356347Y-72487083D01*
X180655385Y-71737083D01*
X181305385Y-72862917D01*
X180006347Y-73612917D01*
X180006347Y-73612917D01*
G37*
G36*
X182344615Y-72262917D02*
X181694615Y-71137083D01*
X182993653Y-70387083D01*
X183643653Y-71512917D01*
X182344615Y-72262917D01*
X182344615Y-72262917D01*
G37*
D23*
X152400000Y-102850000D03*
X152400000Y-103350000D03*
X152400000Y-103850000D03*
X152400000Y-104350000D03*
X152400000Y-104850000D03*
X152400000Y-105350000D03*
X152400000Y-105850000D03*
X152400000Y-106350000D03*
D24*
X151750000Y-107000000D03*
X151250000Y-107000000D03*
X150750000Y-107000000D03*
X150250000Y-107000000D03*
X149750000Y-107000000D03*
X149250000Y-107000000D03*
X148750000Y-107000000D03*
X148250000Y-107000000D03*
D23*
X147600000Y-106350000D03*
X147600000Y-105850000D03*
X147600000Y-105350000D03*
X147600000Y-104850000D03*
X147600000Y-104350000D03*
X147600000Y-103850000D03*
X147600000Y-103350000D03*
X147600000Y-102850000D03*
D24*
X148250000Y-102200000D03*
X148750000Y-102200000D03*
X149250000Y-102200000D03*
X149750000Y-102200000D03*
X150250000Y-102200000D03*
X150750000Y-102200000D03*
X151250000Y-102200000D03*
X151750000Y-102200000D03*
D25*
X149137500Y-105462500D03*
X149137500Y-103737500D03*
X150862500Y-105462500D03*
X150862500Y-103737500D03*
D26*
X147300000Y-120905000D03*
X147300000Y-119635000D03*
X147300000Y-118365000D03*
X147300000Y-117095000D03*
X152700000Y-117095000D03*
X152700000Y-118365000D03*
X152700000Y-119635000D03*
X152700000Y-120905000D03*
D27*
X147300000Y-92000000D03*
D28*
X147400000Y-91600000D03*
X147400000Y-91200000D03*
X147400000Y-90800000D03*
X147400000Y-90400000D03*
X147400000Y-90000000D03*
X147400000Y-89600000D03*
X147400000Y-89200000D03*
X147400000Y-88800000D03*
X147400000Y-88400000D03*
X147300000Y-88000000D03*
D29*
X148000000Y-87300000D03*
X148400000Y-87400000D03*
X148800000Y-87400000D03*
X149200000Y-87400000D03*
X149600000Y-87400000D03*
X150000000Y-87400000D03*
X150400000Y-87400000D03*
X150800000Y-87400000D03*
X151200000Y-87400000D03*
X151600000Y-87400000D03*
X152000000Y-87300000D03*
D28*
X152700000Y-88000000D03*
X152600000Y-88400000D03*
X152600000Y-88800000D03*
X152600000Y-89200000D03*
X152600000Y-89600000D03*
X152600000Y-90000000D03*
X152600000Y-90400000D03*
X152600000Y-90800000D03*
X152600000Y-91200000D03*
X152600000Y-91600000D03*
X152700000Y-92000000D03*
D29*
X152000000Y-92700000D03*
X151600000Y-92600000D03*
X151200000Y-92600000D03*
X150800000Y-92600000D03*
X150400000Y-92600000D03*
X150000000Y-92600000D03*
X149600000Y-92600000D03*
X149200000Y-92600000D03*
X148800000Y-92600000D03*
X148400000Y-92600000D03*
X148000000Y-92700000D03*
D30*
X150000000Y-90000000D03*
D10*
G36*
X165542866Y-80736169D02*
X165217866Y-80173253D01*
X166568866Y-79393253D01*
X166893866Y-79956169D01*
X165542866Y-80736169D01*
X165542866Y-80736169D01*
G37*
G36*
X165067866Y-79913445D02*
X164742866Y-79350529D01*
X166093866Y-78570529D01*
X166418866Y-79133445D01*
X165067866Y-79913445D01*
X165067866Y-79913445D01*
G37*
G36*
X164592866Y-79090721D02*
X164267866Y-78527805D01*
X165618866Y-77747805D01*
X165943866Y-78310721D01*
X164592866Y-79090721D01*
X164592866Y-79090721D01*
G37*
G36*
X166931134Y-77740721D02*
X166606134Y-77177805D01*
X167957134Y-76397805D01*
X168282134Y-76960721D01*
X166931134Y-77740721D01*
X166931134Y-77740721D01*
G37*
G36*
X167881134Y-79386169D02*
X167556134Y-78823253D01*
X168907134Y-78043253D01*
X169232134Y-78606169D01*
X167881134Y-79386169D01*
X167881134Y-79386169D01*
G37*
G36*
X167406134Y-78563445D02*
X167081134Y-78000529D01*
X168432134Y-77220529D01*
X168757134Y-77783445D01*
X167406134Y-78563445D01*
X167406134Y-78563445D01*
G37*
D31*
X111025000Y-89750000D03*
X118975000Y-89750000D03*
X118975000Y-94250000D03*
X111025000Y-94250000D03*
X145950000Y-69850000D03*
X138000000Y-69850000D03*
X138000000Y-65350000D03*
X145950000Y-65350000D03*
D32*
X146750000Y-128050000D03*
X146750001Y-125050000D03*
D19*
X132000000Y-98950000D03*
X132000000Y-97050000D03*
X134000000Y-98000000D03*
D21*
X128000000Y-95650000D03*
X128000000Y-98350000D03*
D17*
X125300000Y-88600000D03*
X119300000Y-72400000D03*
X170200000Y-98900000D03*
X160400000Y-72800000D03*
X191500000Y-70100000D03*
X192150000Y-68150000D03*
X189900000Y-68750000D03*
X141350000Y-63350000D03*
X145550000Y-63350000D03*
X143450000Y-63350000D03*
X174125000Y-97300000D03*
X174650000Y-83550000D03*
D10*
G36*
X150396016Y-147730330D02*
X149830330Y-148296016D01*
X149406066Y-147871752D01*
X149971752Y-147306066D01*
X150396016Y-147730330D01*
X150396016Y-147730330D01*
G37*
G36*
X149193934Y-146528248D02*
X148628248Y-147093934D01*
X148203984Y-146669670D01*
X148769670Y-146103984D01*
X149193934Y-146528248D01*
X149193934Y-146528248D01*
G37*
D33*
X190691718Y-91137172D03*
X183908282Y-90662828D03*
D10*
G36*
X183928526Y-94674011D02*
X184102917Y-92180101D01*
X185299994Y-92263809D01*
X185125603Y-94757719D01*
X183928526Y-94674011D01*
X183928526Y-94674011D01*
G37*
G36*
X186422436Y-94848402D02*
X186596827Y-92354492D01*
X187793904Y-92438200D01*
X187619513Y-94932110D01*
X186422436Y-94848402D01*
X186422436Y-94848402D01*
G37*
G36*
X188916346Y-95022793D02*
X189090737Y-92528883D01*
X190287814Y-92612591D01*
X190113423Y-95106501D01*
X188916346Y-95022793D01*
X188916346Y-95022793D01*
G37*
D34*
X148760000Y-60560000D03*
D35*
X151300000Y-60560000D03*
X148760000Y-63100000D03*
X151300000Y-63100000D03*
D10*
G36*
X181450000Y-93250000D02*
X180850000Y-93250000D01*
X180350000Y-92250000D01*
X181950000Y-92250000D01*
X181450000Y-93250000D01*
X181450000Y-93250000D01*
G37*
G36*
X181950000Y-92050000D02*
X180350000Y-92050000D01*
X180850000Y-91050000D01*
X181450000Y-91050000D01*
X181950000Y-92050000D01*
X181950000Y-92050000D01*
G37*
G36*
X149650000Y-68700000D02*
X150250000Y-68700000D01*
X150750000Y-69700000D01*
X149150000Y-69700000D01*
X149650000Y-68700000D01*
X149650000Y-68700000D01*
G37*
G36*
X149150000Y-70000000D02*
X150750000Y-70000000D01*
X150250000Y-71000000D01*
X149650000Y-71000000D01*
X149150000Y-70000000D01*
X149150000Y-70000000D01*
G37*
D17*
X154450000Y-132100000D03*
D36*
X177600000Y-77200000D03*
X176700000Y-77200000D03*
X175900000Y-77400000D03*
X168000000Y-100000000D03*
X148450000Y-119850000D03*
X150000000Y-89900000D03*
D37*
X150000000Y-90700000D03*
D36*
X149800000Y-84800000D03*
X121950000Y-97150000D03*
X145550000Y-95650000D03*
X144650000Y-97100000D03*
X157200000Y-97000000D03*
X188000000Y-69000000D03*
X123700000Y-72900000D03*
X154600000Y-96100000D03*
X140100000Y-95600000D03*
X162200000Y-77000000D03*
X150600000Y-116400000D03*
X149137500Y-105462500D03*
X150862500Y-105462500D03*
X150862500Y-103737500D03*
X149137500Y-103737500D03*
X150850000Y-120900000D03*
X145550000Y-61250000D03*
X145900000Y-67050000D03*
X152450000Y-96900000D03*
X148350000Y-108450000D03*
X164100000Y-83100000D03*
X169800000Y-76700000D03*
X147800000Y-99850000D03*
X153250000Y-103400000D03*
X121550000Y-94350000D03*
X147900000Y-140800000D03*
X153000000Y-111000000D03*
X157600000Y-97800000D03*
D37*
X144800000Y-138400000D03*
D36*
X134900000Y-92025000D03*
X131250000Y-100500000D03*
X113750000Y-95750000D03*
X123500000Y-88500000D03*
X144800000Y-95250000D03*
X108250000Y-77750000D03*
X117350000Y-90750000D03*
X168500000Y-99000000D03*
X184800000Y-75750000D03*
X179600000Y-75800000D03*
X143850000Y-95100000D03*
X111000000Y-77250000D03*
X117350000Y-91550000D03*
X165550000Y-99000000D03*
X184950000Y-74750000D03*
X140400000Y-90550000D03*
X113750000Y-74750000D03*
X117250000Y-97000000D03*
X165550000Y-97500000D03*
X116900000Y-76000000D03*
X139850000Y-89475000D03*
X118000000Y-97300000D03*
X171500000Y-97500000D03*
X183900000Y-77600000D03*
X188250000Y-72250000D03*
X139250000Y-87550000D03*
X114750000Y-71000000D03*
X118850000Y-97600000D03*
X171500000Y-96050000D03*
X138650000Y-86950000D03*
X125000000Y-73000000D03*
X173700000Y-98900000D03*
X170800000Y-92100000D03*
X133600000Y-96200000D03*
X139250000Y-86350000D03*
X126500000Y-73500000D03*
X176150000Y-98250000D03*
X172000000Y-91700000D03*
X135000000Y-94000000D03*
X162000000Y-96900000D03*
X128100000Y-75100000D03*
X138650000Y-85750000D03*
X134550000Y-95400000D03*
X160050000Y-82850000D03*
X167300000Y-90800000D03*
X181900000Y-95950000D03*
X139250000Y-85150000D03*
X130150000Y-78200000D03*
X133750000Y-95350000D03*
X185700000Y-94900000D03*
X188400000Y-76900000D03*
X138650000Y-84550000D03*
X131100000Y-78050000D03*
X133000000Y-95600000D03*
X176200000Y-91500000D03*
X139250000Y-83950000D03*
X131650000Y-79350000D03*
X125350000Y-97950000D03*
X185050000Y-77350000D03*
X188200000Y-73750000D03*
X126300000Y-94900000D03*
X176200000Y-90000000D03*
X138650000Y-83350000D03*
X133250000Y-77500000D03*
X161350000Y-87600000D03*
X125800000Y-94200000D03*
X185900000Y-93550000D03*
X139250000Y-82700000D03*
X136500000Y-77500000D03*
X184400000Y-91500000D03*
X156200000Y-80850000D03*
X139250000Y-78500000D03*
X143400000Y-82800000D03*
X183000000Y-90100000D03*
X189100000Y-77550000D03*
X144000000Y-83400000D03*
X140250000Y-80000000D03*
X190900000Y-89900000D03*
X160800000Y-85900000D03*
X143500000Y-79750000D03*
X144600000Y-82800000D03*
X145200000Y-83300000D03*
X143450000Y-76450000D03*
X180200000Y-74450000D03*
X153100000Y-101400000D03*
X145800000Y-82800000D03*
X146250000Y-80250000D03*
X180650000Y-75200000D03*
X144400000Y-77600000D03*
X150000000Y-80100000D03*
X141100000Y-91150000D03*
X150600000Y-80700000D03*
X141500000Y-91800000D03*
X151200000Y-80100000D03*
X140460000Y-69210000D03*
X147750000Y-139750000D03*
X139600000Y-68200000D03*
X146250000Y-132550000D03*
X151800000Y-80700000D03*
X142300000Y-64283530D03*
X152400000Y-80100000D03*
X148000000Y-132100000D03*
X146700000Y-116050000D03*
X156800000Y-82800000D03*
X147500000Y-71000000D03*
X157600000Y-83400000D03*
X146000000Y-71000000D03*
X146550000Y-122150000D03*
X147750000Y-130250000D03*
X156800000Y-84000000D03*
X148000000Y-73250000D03*
X147750000Y-123000000D03*
X157600000Y-84600000D03*
X148000000Y-74750000D03*
X149000000Y-114450000D03*
X156800000Y-85300000D03*
X145050000Y-74450000D03*
X148750000Y-120850000D03*
D37*
X144000000Y-71000000D03*
D36*
X157600000Y-85900000D03*
X159100000Y-82750000D03*
X151200000Y-142000000D03*
X115600000Y-92400000D03*
X156000000Y-91600000D03*
X120450000Y-80750000D03*
X160700000Y-83350000D03*
X150200000Y-142000000D03*
X156700000Y-92200000D03*
X131325000Y-84050000D03*
X194000000Y-73300000D03*
X172400000Y-99000000D03*
X149200000Y-142000000D03*
X156000000Y-92800000D03*
X132400000Y-85200000D03*
X161200000Y-86600000D03*
X156700000Y-93400000D03*
X131700000Y-84725000D03*
X161400000Y-84750000D03*
X116150000Y-91700000D03*
X156000000Y-94000000D03*
X115750000Y-78000000D03*
X160600000Y-85000000D03*
X116800000Y-92250000D03*
X115350000Y-79500000D03*
X156700000Y-94600000D03*
X159700000Y-85050000D03*
X115600000Y-91000000D03*
X155875000Y-95200000D03*
X106000000Y-75500000D03*
X147250000Y-79000000D03*
X147400000Y-67100000D03*
X134875000Y-76700000D03*
D37*
X140000000Y-72000000D03*
D36*
X115250000Y-76500000D03*
D37*
X167800000Y-95800000D03*
X154100000Y-143700000D03*
X155300000Y-112500000D03*
X155300000Y-120900000D03*
X155300000Y-130500000D03*
X155300000Y-108300000D03*
D36*
X174535715Y-89300000D03*
X173500000Y-89800000D03*
X194000000Y-89800000D03*
X192800000Y-71800000D03*
X186300000Y-75600000D03*
X165750000Y-83500000D03*
D37*
X156800000Y-63800000D03*
D36*
X161000000Y-77250000D03*
X161000000Y-77250000D03*
X183750000Y-70250000D03*
X174500000Y-73250000D03*
X162500000Y-68500000D03*
X147550000Y-101850000D03*
X146400000Y-103500000D03*
X150100000Y-118250000D03*
X149975000Y-99575000D03*
X158100000Y-96175000D03*
X150985000Y-118365000D03*
X149950000Y-100350000D03*
X158900000Y-96050000D03*
X124650000Y-89950000D03*
X146950000Y-106848062D03*
X115300000Y-70300000D03*
X147400000Y-100650000D03*
X126250000Y-91300000D03*
X135250000Y-94800000D03*
X148575000Y-99775000D03*
X162400000Y-96000000D03*
X149150000Y-100325000D03*
X159675000Y-96250000D03*
X143100000Y-94800000D03*
X149775000Y-93675000D03*
X151600000Y-96850000D03*
X152900000Y-107600000D03*
X146500000Y-108600000D03*
X146050000Y-107950000D03*
X150950000Y-110100000D03*
X152900000Y-131000000D03*
X151450000Y-101250000D03*
X147950000Y-101200000D03*
X148600000Y-122200000D03*
X136650000Y-96250000D03*
X143400000Y-98400000D03*
X151100000Y-72900000D03*
D37*
X190850000Y-94100000D03*
X190850000Y-94100000D03*
X190850000Y-93100000D03*
X150800000Y-123300000D03*
X152850000Y-115250000D03*
X174200000Y-93700000D03*
X173750000Y-84450000D03*
X172700000Y-84450000D03*
X185850000Y-95950000D03*
X187000000Y-95500000D03*
D36*
X181500000Y-74100000D03*
X168500000Y-75100000D03*
D38*
X174325000Y-76382532D02*
X174882532Y-76382532D01*
X174882532Y-76382532D02*
X175900000Y-77400000D01*
X171875000Y-76417468D02*
X174290064Y-76417468D01*
X174290064Y-76417468D02*
X174325000Y-76382532D01*
X176700000Y-77200000D02*
X177600000Y-77200000D01*
X175900000Y-77400000D02*
X176500000Y-77400000D01*
X176500000Y-77400000D02*
X176700000Y-77200000D01*
D39*
X177000000Y-94990000D02*
X174150000Y-94990000D01*
X174150000Y-94990000D02*
X168640000Y-94990000D01*
D40*
X174125000Y-97300000D02*
X174125000Y-95015000D01*
X174125000Y-95015000D02*
X174150000Y-94990000D01*
D39*
X168640000Y-94990000D02*
X168100000Y-94450000D01*
D41*
X150100000Y-64600000D02*
X153364468Y-64600000D01*
X153364468Y-64600000D02*
X154232234Y-63732234D01*
X149000000Y-63500000D02*
X150100000Y-64600000D01*
X149000000Y-63100000D02*
X149000000Y-63500000D01*
D38*
X145950000Y-65350000D02*
X146750000Y-65350000D01*
X146750000Y-65350000D02*
X149000000Y-63100000D01*
D11*
X146116117Y-141116117D02*
X146116117Y-136000000D01*
X150000000Y-131500000D02*
X146116117Y-135383883D01*
X146116117Y-135383883D02*
X146116117Y-136000000D01*
X150000000Y-131459999D02*
X150000000Y-131500000D01*
D40*
X165050000Y-98250000D02*
X166250000Y-98250000D01*
X166250000Y-98250000D02*
X168000000Y-100000000D01*
X164950000Y-98350000D02*
X165050000Y-98250000D01*
X161000000Y-98350000D02*
X164950000Y-98350000D01*
D41*
X156000000Y-98000000D02*
X157200000Y-97000000D01*
D38*
X147300000Y-120250000D02*
X148050000Y-120250000D01*
X148050000Y-120250000D02*
X148450000Y-119850000D01*
D11*
X147300000Y-120250000D02*
X147300000Y-120905000D01*
X147300000Y-119635000D02*
X147300000Y-120250000D01*
D40*
X144650000Y-97100000D02*
X145167766Y-97100000D01*
X145167766Y-97100000D02*
X145833883Y-97766117D01*
X148900000Y-82950001D02*
X148900000Y-83900000D01*
X148900000Y-83900000D02*
X149800000Y-84800000D01*
D41*
X147499999Y-96000001D02*
X145900001Y-96000001D01*
X145900001Y-96000001D02*
X145550000Y-95650000D01*
D11*
X138000000Y-65350000D02*
X145950000Y-65350000D01*
D42*
X154232234Y-63732234D02*
X153732234Y-63732234D01*
X191700000Y-68150000D02*
X191100000Y-68750000D01*
X191100000Y-68750000D02*
X189900000Y-68750000D01*
X192150000Y-68150000D02*
X191700000Y-68150000D01*
X189600000Y-68750000D02*
X189350000Y-69000000D01*
X189350000Y-69000000D02*
X188000000Y-69000000D01*
X189900000Y-68750000D02*
X189600000Y-68750000D01*
X191500000Y-70100000D02*
X189100000Y-70100000D01*
X189100000Y-70100000D02*
X188000000Y-69000000D01*
D38*
X192150000Y-68150000D02*
X191950000Y-68150000D01*
D42*
X152800000Y-142700000D02*
X152800000Y-140990000D01*
X152800000Y-140990000D02*
X153500000Y-140290000D01*
D40*
X148000000Y-115250000D02*
X149150000Y-116400000D01*
X149150000Y-116400000D02*
X150600000Y-116400000D01*
X148000000Y-112350000D02*
X148000000Y-115250000D01*
X148000000Y-112350000D02*
X146000000Y-112350000D01*
D11*
X151050000Y-114700000D02*
X151050000Y-115950000D01*
X151050000Y-115950000D02*
X150600000Y-116400000D01*
D42*
X138009465Y-65359465D02*
X138000000Y-65350000D01*
D38*
X111025000Y-89750000D02*
X118975000Y-89750000D01*
X122600000Y-93750000D02*
X122600000Y-95150000D01*
X122600000Y-95150000D02*
X121750000Y-96000000D01*
X118975000Y-90125000D02*
X122600000Y-93750000D01*
X118975000Y-89750000D02*
X118975000Y-90125000D01*
D40*
X121750000Y-96000000D02*
X121750000Y-96950000D01*
X121750000Y-96950000D02*
X121950000Y-97150000D01*
D39*
X157500000Y-99500000D02*
X156000000Y-98000000D01*
D11*
X147300000Y-119000000D02*
X147300000Y-119635000D01*
X147300000Y-118365000D02*
X147300000Y-119000000D01*
D38*
X153600000Y-116400000D02*
X150600000Y-116400000D01*
X153850000Y-117050000D02*
X153600000Y-116400000D01*
X153850000Y-119200000D02*
X153850000Y-117050000D01*
X152700000Y-119635000D02*
X153850000Y-119200000D01*
X182669134Y-71325000D02*
X188000000Y-69000000D01*
D42*
X123750000Y-75000000D02*
X123700000Y-72900000D01*
X150000000Y-84900000D02*
X149800000Y-84800000D01*
X140150000Y-97000000D02*
X140100000Y-95600000D01*
D41*
X163400000Y-79900000D02*
X162200000Y-77000000D01*
X164100000Y-80100000D02*
X163400000Y-79900000D01*
X165580866Y-79241987D02*
X164100000Y-80100000D01*
D42*
X150000000Y-87400000D02*
X150000000Y-84900000D01*
X150000000Y-87400000D02*
X150000000Y-90000000D01*
X150000000Y-92600000D02*
X150000000Y-90000000D01*
X150800000Y-92600000D02*
X150800000Y-90800000D01*
X150800000Y-90800000D02*
X150000000Y-90000000D01*
D11*
X147300000Y-117095000D02*
X147300000Y-118365000D01*
D38*
X150862500Y-105462500D02*
X149137500Y-105462500D01*
X150862500Y-103737500D02*
X150862500Y-105462500D01*
X149137500Y-103737500D02*
X150862500Y-103737500D01*
X149137500Y-105462500D02*
X149137500Y-103737500D01*
X151250000Y-102200000D02*
X151250000Y-103350000D01*
X151250000Y-103350000D02*
X150862500Y-103737500D01*
D39*
X164100000Y-83100000D02*
X163969491Y-83800000D01*
X163200000Y-83250000D02*
X163419491Y-83250000D01*
X163969491Y-83800000D02*
X163000000Y-89000000D01*
X163419491Y-83250000D02*
X163969491Y-83800000D01*
D41*
X148400000Y-69200000D02*
X149950000Y-69200000D01*
D40*
X148400000Y-69200000D02*
X147600000Y-69200000D01*
D41*
X148400000Y-72000000D02*
X148400000Y-69200000D01*
X149450000Y-73050000D02*
X148400000Y-72000000D01*
X149450000Y-76250000D02*
X149450000Y-73050000D01*
D40*
X147400000Y-69000000D02*
X145900000Y-67500000D01*
X147600000Y-69200000D02*
X147400000Y-69000000D01*
D39*
X132000000Y-97050000D02*
X132000000Y-95800000D01*
X131850000Y-95650000D02*
X132000000Y-95800000D01*
X132000000Y-95800000D02*
X132000000Y-93000000D01*
X128000000Y-95650000D02*
X131850000Y-95650000D01*
X133600000Y-81600000D02*
X131300000Y-81600000D01*
X131300000Y-81600000D02*
X129700000Y-80000000D01*
X129700000Y-80000000D02*
X128000001Y-80000000D01*
X146800000Y-81600000D02*
X133600000Y-81600000D01*
X132000000Y-88000000D02*
X133600000Y-86400000D01*
X133600000Y-86400000D02*
X133600000Y-81600000D01*
X132000000Y-93000000D02*
X132000000Y-88000000D01*
X147650000Y-80750000D02*
X146800000Y-81600000D01*
D11*
X154232234Y-101467766D02*
X152850000Y-102850000D01*
X152850000Y-102850000D02*
X152400000Y-102850000D01*
X154232234Y-99767766D02*
X154232234Y-101467766D01*
D42*
X147600000Y-106900000D02*
X147600000Y-106350000D01*
D40*
X145800000Y-100600001D02*
X145800000Y-101850000D01*
X145450000Y-102200000D02*
X145450000Y-107300000D01*
X145300000Y-109150000D02*
X146000000Y-109850000D01*
X145800000Y-101850000D02*
X145450000Y-102200000D01*
X145450000Y-107300000D02*
X145300000Y-107450000D01*
X145300000Y-107450000D02*
X145300000Y-109150000D01*
X147150000Y-107900000D02*
X147800000Y-107900000D01*
X147800000Y-107900000D02*
X148350000Y-108450000D01*
X152700000Y-120905000D02*
X150855000Y-120905000D01*
X150855000Y-120905000D02*
X150850000Y-120900000D01*
X154450000Y-120050000D02*
X154450000Y-104850000D01*
X154450000Y-104850000D02*
X154450000Y-102550000D01*
D42*
X152400000Y-104850000D02*
X154450000Y-104850000D01*
D40*
X154450000Y-102550000D02*
X155732234Y-101267766D01*
X152700000Y-120905000D02*
X153595000Y-120905000D01*
X154450000Y-120050000D02*
X153595000Y-120905000D01*
X154450000Y-120050000D02*
X154400000Y-120100000D01*
D39*
X147650000Y-80750000D02*
X150800000Y-77600000D01*
D38*
X147949999Y-80450001D02*
X147650000Y-80750000D01*
X148900000Y-80450001D02*
X147949999Y-80450001D01*
D40*
X145550000Y-61250000D02*
X145550000Y-63350000D01*
X145900000Y-67500000D02*
X145900000Y-67050000D01*
D42*
X143450000Y-63350000D02*
X145550000Y-63350000D01*
X141350000Y-63350000D02*
X143450000Y-63350000D01*
D41*
X149450000Y-76250000D02*
X150800000Y-77600000D01*
D39*
X150800000Y-77600000D02*
X151850000Y-76550000D01*
X153300000Y-98500000D02*
X152450000Y-98371212D01*
X152450000Y-98371212D02*
X150000000Y-98000000D01*
D11*
X152450000Y-96900000D02*
X152450000Y-98371212D01*
D42*
X152775000Y-122800000D02*
X152775000Y-120980000D01*
X152775000Y-120980000D02*
X152700000Y-120905000D01*
X153450000Y-125050000D02*
X153450000Y-123475000D01*
X153450000Y-123475000D02*
X152775000Y-122800000D01*
X153449999Y-128050000D02*
X153449999Y-125050001D01*
X153449999Y-125050001D02*
X153450000Y-125050000D01*
D39*
X151850000Y-76550000D02*
X155800000Y-76550000D01*
X155800000Y-76550000D02*
X155900000Y-76650000D01*
X155900000Y-76650000D02*
X153500000Y-73500000D01*
X163200000Y-83250000D02*
X155900000Y-76650000D01*
X164100000Y-83100000D02*
X163200000Y-83250000D01*
X153300000Y-98500000D02*
X154232234Y-99767766D01*
X150000000Y-98000000D02*
X149999999Y-96000001D01*
D42*
X147150000Y-107900000D02*
X147600000Y-106900000D01*
D39*
X147000000Y-109850000D02*
X148000000Y-109850000D01*
X146000000Y-109850000D02*
X147000000Y-109850000D01*
D42*
X147000000Y-109850000D02*
X147150000Y-107900000D01*
D39*
X154232234Y-99767766D02*
X155732234Y-101267766D01*
X154600000Y-97400000D02*
X153300000Y-98500000D01*
X155600000Y-96500000D02*
X154600000Y-97400000D01*
X157300000Y-95500000D02*
X155600000Y-96500000D01*
X163000000Y-89000000D02*
X157300000Y-95500000D01*
X153500000Y-73500000D02*
X152585786Y-71414214D01*
D42*
X173075000Y-74217468D02*
X176000739Y-75175000D01*
D39*
X171900000Y-74600000D02*
X173075000Y-74217468D01*
X170100000Y-75600000D02*
X171900000Y-74600000D01*
X169800000Y-76700000D02*
X170100000Y-75600000D01*
D41*
X167919134Y-77891987D02*
X169800000Y-76700000D01*
D11*
X154232234Y-100567766D02*
X154232234Y-99767766D01*
X150400000Y-92600000D02*
X150400000Y-94750000D01*
X150400000Y-94750000D02*
X150400000Y-95600000D01*
X151200000Y-92600000D02*
X151200000Y-93950000D01*
X151200000Y-93950000D02*
X150400000Y-94750000D01*
X150400000Y-95600000D02*
X149999999Y-96000001D01*
D38*
X153200000Y-104350000D02*
X153200000Y-103450000D01*
X153200000Y-103450000D02*
X153250000Y-103400000D01*
X118975000Y-94250000D02*
X121450000Y-94250000D01*
X121450000Y-94250000D02*
X121550000Y-94350000D01*
X153000000Y-104350000D02*
X153200000Y-104350000D01*
D42*
X118975000Y-94250000D02*
X113200000Y-94250000D01*
X113200000Y-94250000D02*
X111025000Y-94250000D01*
D38*
X152400000Y-104350000D02*
X153000000Y-104350000D01*
D42*
X147883883Y-142883883D02*
X150000000Y-139079999D01*
X148498959Y-146598959D02*
X146300000Y-144400000D01*
X146300000Y-144400000D02*
X146300000Y-143300000D01*
X148698959Y-146598959D02*
X148498959Y-146598959D01*
X146300000Y-143300000D02*
X146300000Y-142700000D01*
X146300000Y-142700000D02*
X147900000Y-141100000D01*
X147900000Y-141100000D02*
X147900000Y-140800000D01*
D11*
X153900000Y-106000000D02*
X153900000Y-110100000D01*
X153900000Y-110100000D02*
X153000000Y-111000000D01*
X153250000Y-105350000D02*
X153900000Y-106000000D01*
X152400000Y-105350000D02*
X153250000Y-105350000D01*
D42*
X150890812Y-146709188D02*
X150890812Y-144609188D01*
X149901041Y-147801041D02*
X149901041Y-147698959D01*
X149901041Y-147698959D02*
X150890812Y-146709188D01*
D39*
X128000000Y-98500000D02*
X128450000Y-98950000D01*
X128450000Y-98950000D02*
X132000000Y-98950000D01*
X128000000Y-98350000D02*
X128000000Y-98500000D01*
D38*
X132000000Y-98950000D02*
X132700000Y-99136667D01*
X137650000Y-99150000D02*
X132700000Y-99136667D01*
X141050000Y-99700000D02*
X137650000Y-99150000D01*
X143000000Y-100750000D02*
X141050000Y-99700000D01*
X144350000Y-102100000D02*
X143000000Y-100750000D01*
X144450000Y-104950000D02*
X144350000Y-102100000D01*
X144450000Y-104950000D02*
X144450000Y-110800000D01*
X149750000Y-107600000D02*
X149750000Y-107000000D01*
X145250000Y-111200000D02*
X148800000Y-111200000D01*
X148800000Y-111200000D02*
X149400000Y-110750000D01*
X149400000Y-108600000D02*
X149750000Y-107600000D01*
X144450000Y-110800000D02*
X145250000Y-111200000D01*
X149400000Y-110750000D02*
X149400000Y-108600000D01*
D40*
X160400000Y-97000000D02*
X158400000Y-97000000D01*
X158400000Y-97000000D02*
X157600000Y-97800000D01*
X161000000Y-96400000D02*
X160400000Y-97000000D01*
X161000000Y-95650000D02*
X161000000Y-96400000D01*
D42*
X113750000Y-95750000D02*
X115750000Y-96000000D01*
D39*
X123000000Y-92000000D02*
X123500000Y-88500000D01*
D42*
X144800000Y-95250000D02*
X145050000Y-95000000D01*
X147400000Y-95000000D02*
X148400000Y-94000000D01*
X148400000Y-94000000D02*
X148400000Y-92600000D01*
X145050000Y-95000000D02*
X147400000Y-95000000D01*
X147000000Y-94400000D02*
X144400000Y-94400000D01*
X143850000Y-95100000D02*
X143850000Y-94950000D01*
X143850000Y-94950000D02*
X144400000Y-94400000D01*
X148000000Y-92700000D02*
X148000000Y-93400000D01*
X148000000Y-93400000D02*
X147000000Y-94400000D01*
X144850000Y-92000000D02*
X143400000Y-90550000D01*
X143400000Y-90550000D02*
X140400000Y-90550000D01*
X147300000Y-92000000D02*
X144850000Y-92000000D01*
X143025000Y-89575000D02*
X142925000Y-89475000D01*
X142925000Y-89475000D02*
X139850000Y-89475000D01*
X143500000Y-90050000D02*
X143025000Y-89575000D01*
X145050000Y-91600000D02*
X143500000Y-90050000D01*
X147400000Y-91600000D02*
X145050000Y-91600000D01*
X141500000Y-87600000D02*
X141450000Y-87550000D01*
X141450000Y-87550000D02*
X139250000Y-87550000D01*
X142200000Y-88300000D02*
X141500000Y-87600000D01*
X143550000Y-88300000D02*
X142200000Y-88300000D01*
X143700000Y-88450000D02*
X143550000Y-88300000D01*
X143700000Y-89650000D02*
X143700000Y-88450000D01*
X145250000Y-91200000D02*
X143700000Y-89650000D01*
X147400000Y-91200000D02*
X145250000Y-91200000D01*
X141500000Y-87000000D02*
X141450000Y-86950000D01*
X141450000Y-86950000D02*
X138650000Y-86950000D01*
X142400000Y-87900000D02*
X141500000Y-87000000D01*
X144100000Y-87900000D02*
X142400000Y-87900000D01*
X144100000Y-89400000D02*
X144100000Y-87900000D01*
X145500000Y-90800000D02*
X144100000Y-89400000D01*
X147400000Y-90800000D02*
X145500000Y-90800000D01*
X142300000Y-87200000D02*
X141450000Y-86350000D01*
X141450000Y-86350000D02*
X139250000Y-86350000D01*
X142600000Y-87500000D02*
X142300000Y-87200000D01*
X144350000Y-87500000D02*
X142600000Y-87500000D01*
X144500000Y-87650000D02*
X144350000Y-87500000D01*
X144500000Y-89200000D02*
X144500000Y-87650000D01*
X145700000Y-90400000D02*
X144500000Y-89200000D01*
X147400000Y-90400000D02*
X145700000Y-90400000D01*
X142000000Y-86300000D02*
X141450000Y-85750000D01*
X141450000Y-85750000D02*
X138650000Y-85750000D01*
X142800000Y-87100000D02*
X142000000Y-86300000D01*
X142800000Y-87100000D02*
X144700000Y-87100000D01*
X144700000Y-87100000D02*
X144900000Y-87300000D01*
X144900000Y-87300000D02*
X144900000Y-89000000D01*
X144900000Y-89000000D02*
X145900000Y-90000000D01*
X145900000Y-90000000D02*
X147400000Y-90000000D01*
X141650000Y-85350000D02*
X141450000Y-85150000D01*
X141450000Y-85150000D02*
X139250000Y-85150000D01*
X143000000Y-86700000D02*
X141650000Y-85350000D01*
X143000000Y-86700000D02*
X145100000Y-86700000D01*
X145300000Y-86900000D02*
X145300000Y-88800000D01*
X145100000Y-86700000D02*
X145300000Y-86900000D01*
X145300000Y-88800000D02*
X146100000Y-89600000D01*
X146100000Y-89600000D02*
X147400000Y-89600000D01*
X141900000Y-85000000D02*
X141450000Y-84550000D01*
X141450000Y-84550000D02*
X138650000Y-84550000D01*
X143200000Y-86300000D02*
X141900000Y-85000000D01*
X145500000Y-86300000D02*
X143200000Y-86300000D01*
X145700000Y-86500000D02*
X145500000Y-86300000D01*
X145700000Y-88600000D02*
X145700000Y-86500000D01*
X146300000Y-89200000D02*
X145700000Y-88600000D01*
X147400000Y-89200000D02*
X146300000Y-89200000D01*
X142200000Y-84700000D02*
X141450000Y-83950000D01*
X141450000Y-83950000D02*
X139250000Y-83950000D01*
X143400000Y-85900000D02*
X142200000Y-84700000D01*
X145700000Y-85900000D02*
X143400000Y-85900000D01*
X146100000Y-86300000D02*
X145700000Y-85900000D01*
X146100000Y-88400000D02*
X146100000Y-86300000D01*
X146500000Y-88800000D02*
X146100000Y-88400000D01*
X147400000Y-88800000D02*
X146500000Y-88800000D01*
X142550000Y-84450000D02*
X141450000Y-83350000D01*
X141450000Y-83350000D02*
X138650000Y-83350000D01*
X143600000Y-85500000D02*
X142550000Y-84450000D01*
X145900000Y-85500000D02*
X143600000Y-85500000D01*
X146500000Y-86100000D02*
X145900000Y-85500000D01*
X146500000Y-88200000D02*
X146500000Y-86100000D01*
X146700000Y-88400000D02*
X146500000Y-88200000D01*
X147400000Y-88400000D02*
X146700000Y-88400000D01*
X143050000Y-84350000D02*
X141400000Y-82700000D01*
X141400000Y-82700000D02*
X139250000Y-82700000D01*
X143800000Y-85100000D02*
X143050000Y-84350000D01*
X146100000Y-85100000D02*
X143800000Y-85100000D01*
X147300000Y-86300000D02*
X146100000Y-85100000D01*
X147300000Y-87200000D02*
X147300000Y-86300000D01*
X147300000Y-87600000D02*
X147300000Y-87200000D01*
X147300000Y-88000000D02*
X147300000Y-87600000D01*
X148000000Y-87300000D02*
X148000000Y-86400000D01*
X148000000Y-86400000D02*
X146300000Y-84700000D01*
X146300000Y-84700000D02*
X144000000Y-84700000D01*
X144000000Y-84700000D02*
X143400000Y-84100000D01*
X143400000Y-84100000D02*
X143400000Y-82800000D01*
X148400000Y-87400000D02*
X148400000Y-86200000D01*
X146500000Y-84300000D02*
X144200000Y-84300000D01*
X148400000Y-86200000D02*
X146500000Y-84300000D01*
X144200000Y-84300000D02*
X144000000Y-84100000D01*
X144000000Y-84100000D02*
X144000000Y-83400000D01*
X148800000Y-87400000D02*
X148800000Y-86000000D01*
X148800000Y-86000000D02*
X146700000Y-83900000D01*
X146700000Y-83900000D02*
X144900000Y-83900000D01*
X144900000Y-83900000D02*
X144600000Y-83600000D01*
X144600000Y-83600000D02*
X144600000Y-82800000D01*
X145675000Y-83400000D02*
X146800000Y-83400000D01*
X145200000Y-83300000D02*
X145675000Y-83400000D01*
X149200000Y-87400000D02*
X149200000Y-85800000D01*
X149200000Y-85800000D02*
X146800000Y-83400000D01*
X149600000Y-87400000D02*
X149600000Y-85600000D01*
X149600000Y-85600000D02*
X146800000Y-82800000D01*
X146800000Y-82800000D02*
X145800000Y-82800000D01*
X150500000Y-84500000D02*
X150000000Y-84000000D01*
X150000000Y-84000000D02*
X150000000Y-80100000D01*
X150500000Y-85100000D02*
X150500000Y-84600000D01*
X150400000Y-85200000D02*
X150500000Y-85100000D01*
X150400000Y-87400000D02*
X150400000Y-85200000D01*
X150600000Y-83900000D02*
X150600000Y-80700000D01*
X150900000Y-84200000D02*
X150600000Y-83900000D01*
X150900000Y-85300000D02*
X150900000Y-84200000D01*
X150800000Y-85400000D02*
X150900000Y-85300000D01*
X150800000Y-87400000D02*
X150800000Y-85400000D01*
X151200000Y-87400000D02*
X151200000Y-85600000D01*
X151200000Y-85600000D02*
X151300000Y-85500000D01*
X151300000Y-85500000D02*
X151300000Y-83800000D01*
X151300000Y-83800000D02*
X151200000Y-83700000D01*
X151200000Y-83700000D02*
X151200000Y-80100000D01*
X151600000Y-87400000D02*
X151600000Y-85800000D01*
X151600000Y-85800000D02*
X151800000Y-85600000D01*
X151800000Y-85600000D02*
X151800000Y-80700000D01*
X152000000Y-87300000D02*
X152000000Y-86000000D01*
X152000000Y-86000000D02*
X152400000Y-85600000D01*
X152400000Y-85600000D02*
X152400000Y-80100000D01*
X156200000Y-82800000D02*
X156800000Y-82800000D01*
X152700000Y-86300000D02*
X156200000Y-82800000D01*
X152700000Y-88000000D02*
X152700000Y-86300000D01*
X152600000Y-88400000D02*
X153300000Y-88400000D01*
X153500000Y-88200000D02*
X153500000Y-86100000D01*
X153500000Y-86100000D02*
X156200000Y-83400000D01*
X153300000Y-88400000D02*
X153500000Y-88200000D01*
X156200000Y-83400000D02*
X157600000Y-83400000D01*
X152600000Y-88800000D02*
X153500000Y-88800000D01*
X153500000Y-88800000D02*
X153900000Y-88400000D01*
X153900000Y-88400000D02*
X153900000Y-86300000D01*
X153900000Y-86300000D02*
X156200000Y-84000000D01*
X156200000Y-84000000D02*
X156800000Y-84000000D01*
X152600000Y-89200000D02*
X153700000Y-89200000D01*
X153700000Y-89200000D02*
X154300000Y-88600000D01*
X154300000Y-88600000D02*
X154300000Y-86500000D01*
X154300000Y-86500000D02*
X156200000Y-84600000D01*
X156200000Y-84600000D02*
X157600000Y-84600000D01*
X152600000Y-89600000D02*
X154000000Y-89600000D01*
X154000000Y-89600000D02*
X154700000Y-88900000D01*
X154700000Y-88900000D02*
X154700000Y-86700000D01*
X154700000Y-86700000D02*
X156100000Y-85300000D01*
X156100000Y-85300000D02*
X156800000Y-85300000D01*
X152600000Y-90000000D02*
X154200000Y-90000000D01*
X154200000Y-90000000D02*
X155100000Y-89100000D01*
X155100000Y-89100000D02*
X155100000Y-86900000D01*
X155100000Y-86900000D02*
X156100000Y-85900000D01*
X156100000Y-85900000D02*
X157600000Y-85900000D01*
X156000000Y-91600000D02*
X155200000Y-91600000D01*
X154000000Y-90400000D02*
X152600000Y-90400000D01*
X155200000Y-91600000D02*
X154000000Y-90400000D01*
X152600000Y-90800000D02*
X153800000Y-90800000D01*
X153800000Y-90800000D02*
X155200000Y-92200000D01*
X155200000Y-92200000D02*
X156700000Y-92200000D01*
X152600000Y-91200000D02*
X153500000Y-91200000D01*
X153500000Y-91200000D02*
X155100000Y-92800000D01*
X155100000Y-92800000D02*
X156000000Y-92800000D01*
X152600000Y-91600000D02*
X153300000Y-91600000D01*
X153300000Y-91600000D02*
X155100000Y-93400000D01*
X155100000Y-93400000D02*
X156700000Y-93400000D01*
X156000000Y-94000000D02*
X154000000Y-94000000D01*
X154000000Y-94000000D02*
X152750000Y-92750000D01*
X152750000Y-92750000D02*
X152700000Y-92750000D01*
X152700000Y-92750000D02*
X152700000Y-92000000D01*
X152000000Y-94000000D02*
X152600000Y-94600000D01*
X152600000Y-94600000D02*
X156700000Y-94600000D01*
X152000000Y-92700000D02*
X152000000Y-94000000D01*
X151600000Y-94250000D02*
X152550000Y-95200000D01*
X152550000Y-95200000D02*
X155875000Y-95200000D01*
X151600000Y-94200000D02*
X151600000Y-94250000D01*
X151600000Y-92600000D02*
X151600000Y-94200000D01*
D39*
X130500000Y-76964285D02*
X128000000Y-77500000D01*
X128000000Y-77500000D02*
X126750000Y-78250000D01*
X126750000Y-78250000D02*
X126000000Y-79000000D01*
X126000000Y-79000000D02*
X126000000Y-81000000D01*
X126000000Y-81000000D02*
X124750000Y-82250000D01*
X124750000Y-82250000D02*
X119750000Y-82250000D01*
X119750000Y-82250000D02*
X117250000Y-81000000D01*
X117250000Y-81000000D02*
X116750000Y-78750000D01*
X116750000Y-78750000D02*
X117250000Y-77300000D01*
X139000000Y-77500000D02*
X139700000Y-77575000D01*
X138200000Y-77500000D02*
X139000000Y-77500000D01*
X137000000Y-78700000D02*
X138200000Y-77500000D01*
X135800000Y-78700000D02*
X137000000Y-78700000D01*
X134875000Y-77775000D02*
X135800000Y-78700000D01*
X134875000Y-76700000D02*
X134875000Y-77775000D01*
X143725000Y-75100000D02*
X141750000Y-73187500D01*
X147250000Y-76100000D02*
X143725000Y-75100000D01*
X141525000Y-78450000D02*
X147250000Y-79000000D01*
X147250000Y-79000000D02*
X147250000Y-76100000D01*
X139700000Y-77575000D02*
X141525000Y-78450000D01*
X131500000Y-76750000D02*
X133700000Y-76350000D01*
X133700000Y-76350000D02*
X134875000Y-76700000D01*
X140000000Y-72000000D02*
X141750000Y-73187500D01*
X130500000Y-76964285D02*
X131500000Y-76750000D01*
D11*
X130000000Y-75250000D02*
X130500000Y-76964285D01*
D39*
X117250000Y-77300000D02*
X115250000Y-76500000D01*
X119000000Y-78000000D02*
X117250000Y-77300000D01*
X173500000Y-89800000D02*
X174535715Y-89300000D01*
X172000000Y-90000000D02*
X173500000Y-89800000D01*
D42*
X194000000Y-89800000D02*
X192600000Y-90600000D01*
X193500000Y-71800000D02*
X194700000Y-73000000D01*
X194700000Y-73000000D02*
X195400000Y-73000000D01*
X192800000Y-71800000D02*
X193500000Y-71800000D01*
D39*
X159707107Y-66292893D02*
X162500000Y-68500000D01*
D38*
X147600000Y-102850000D02*
X147600000Y-101900000D01*
X147600000Y-101900000D02*
X147550000Y-101850000D01*
X146900000Y-103350000D02*
X146400000Y-103500000D01*
X147600000Y-103350000D02*
X146900000Y-103350000D01*
X158100000Y-96175000D02*
X158650000Y-95100000D01*
X164100000Y-90100000D02*
X164250000Y-89950000D01*
X158650000Y-95100000D02*
X163100000Y-90800000D01*
X163100000Y-90800000D02*
X164000000Y-90100000D01*
X157150000Y-76700000D02*
X156400000Y-75950000D01*
X164100000Y-82350000D02*
X163400000Y-82400000D01*
X164250000Y-89950000D02*
X164250000Y-88300000D01*
X164000000Y-90100000D02*
X164100000Y-90100000D01*
X154150000Y-69850000D02*
X153075000Y-68775000D01*
X164250000Y-88300000D02*
X164650000Y-84500000D01*
X156400000Y-75950000D02*
X154200000Y-73150000D01*
X164650000Y-84500000D02*
X164850000Y-83250000D01*
X163400000Y-82400000D02*
X160300000Y-79600000D01*
X164850000Y-83250000D02*
X164800000Y-82800000D01*
X154200000Y-73150000D02*
X153800000Y-72350000D01*
X164800000Y-82800000D02*
X164600000Y-82550000D01*
X154050000Y-71500000D02*
X154150000Y-71325000D01*
X164600000Y-82550000D02*
X164350000Y-82400000D01*
X150650000Y-68775000D02*
X149795000Y-67920000D01*
X164350000Y-82400000D02*
X164100000Y-82350000D01*
X153800000Y-72350000D02*
X153750000Y-71900000D01*
X160300000Y-79600000D02*
X157150000Y-76700000D01*
X153750000Y-71900000D02*
X154050000Y-71500000D01*
X153075000Y-68775000D02*
X150650000Y-68775000D01*
X154150000Y-71325000D02*
X154150000Y-69850000D01*
X149795000Y-67920000D02*
X148750000Y-67920000D01*
X149975000Y-99575000D02*
X149000000Y-98600000D01*
X149000000Y-95200000D02*
X149200000Y-95000000D01*
X149000000Y-98600000D02*
X149000000Y-95200000D01*
X149200000Y-95000000D02*
X149200000Y-92600000D01*
X148750000Y-67920000D02*
X148970000Y-67920000D01*
D11*
X149500000Y-118250000D02*
X149500000Y-117600000D01*
X149500000Y-122817045D02*
X149500000Y-118250000D01*
X149500000Y-118250000D02*
X150100000Y-118250000D01*
D38*
X150750000Y-101250000D02*
X150750000Y-100350000D01*
X150750000Y-100350000D02*
X149975000Y-99575000D01*
X150750000Y-102200000D02*
X150750000Y-101250000D01*
D11*
X146750000Y-128050000D02*
X145400000Y-126150000D01*
X145400000Y-126150000D02*
X145350000Y-124050000D01*
X149500000Y-117600000D02*
X150005000Y-117095000D01*
X145350000Y-124050000D02*
X145800000Y-123600000D01*
X145800000Y-123600000D02*
X148800000Y-123634091D01*
X148800000Y-123634091D02*
X149500000Y-122817045D01*
X150005000Y-117095000D02*
X152700000Y-117095000D01*
X146750000Y-128050000D02*
X150749999Y-128050000D01*
D38*
X150750000Y-107000000D02*
X150750000Y-108050000D01*
X150750000Y-108050000D02*
X151250000Y-108550000D01*
D11*
X149950000Y-119400000D02*
X149950000Y-124250000D01*
X149950000Y-124250000D02*
X150750000Y-125050000D01*
X150985000Y-118365000D02*
X149950000Y-119400000D01*
X152700000Y-118365000D02*
X150985000Y-118365000D01*
D38*
X152720000Y-67920000D02*
X154500000Y-69700000D01*
X154500000Y-69700000D02*
X154500000Y-70800000D01*
X151250000Y-67920000D02*
X152720000Y-67920000D01*
X151250000Y-67920000D02*
X151525000Y-67920000D01*
X148600000Y-98950000D02*
X148600000Y-98850000D01*
X149950000Y-100350000D02*
X148600000Y-99000000D01*
X148600000Y-99000000D02*
X148600000Y-98950000D01*
X150250000Y-101400000D02*
X150250000Y-100650000D01*
X150250000Y-100650000D02*
X149950000Y-100350000D01*
X160450000Y-93800000D02*
X159306000Y-94900000D01*
X158900000Y-96050000D02*
X159306000Y-94900000D01*
X150250000Y-102200000D02*
X150250000Y-101400000D01*
X148600000Y-98850000D02*
X148600000Y-98600000D01*
X163550000Y-91000000D02*
X160450000Y-93800000D01*
X164450000Y-90250000D02*
X163550000Y-91000000D01*
X164600000Y-90050000D02*
X164450000Y-90250000D01*
X164650000Y-88000000D02*
X164600000Y-90050000D01*
X165000000Y-84250000D02*
X164650000Y-88000000D01*
X165200000Y-83250000D02*
X165000000Y-84250000D01*
X165150000Y-82900000D02*
X165200000Y-83250000D01*
X165100000Y-82600000D02*
X165150000Y-82900000D01*
X164800000Y-82300000D02*
X165100000Y-82600000D01*
X164350000Y-82000000D02*
X164800000Y-82300000D01*
X163500000Y-82050000D02*
X164350000Y-82000000D01*
X159900000Y-78750000D02*
X163500000Y-82050000D01*
X158500000Y-77500000D02*
X159900000Y-78750000D01*
X156200000Y-75150000D02*
X158500000Y-77500000D01*
X154350000Y-72750000D02*
X156200000Y-75150000D01*
X154150000Y-72300000D02*
X154350000Y-72750000D01*
X154100000Y-72000000D02*
X154150000Y-72300000D01*
X154250000Y-71850000D02*
X154100000Y-72000000D01*
X154300000Y-71750000D02*
X154250000Y-71850000D01*
X154450000Y-71400000D02*
X154300000Y-71750000D01*
X154500000Y-70800000D02*
X154450000Y-71400000D01*
D11*
X146750001Y-125050000D02*
X150750000Y-125050000D01*
D38*
X148600000Y-94800000D02*
X148600000Y-98600000D01*
X148800000Y-92600000D02*
X148800000Y-94600000D01*
X148800000Y-94600000D02*
X148600000Y-94800000D01*
X125300000Y-88600000D02*
X127000000Y-90000000D01*
D11*
X125300000Y-90200000D02*
X125500000Y-90000000D01*
X125000000Y-90500000D02*
X125300000Y-90200000D01*
X125300000Y-90200000D02*
X124900000Y-90200000D01*
X124900000Y-90200000D02*
X124650000Y-89950000D01*
X125500000Y-90000000D02*
X127000000Y-90000000D01*
X125000000Y-91050000D02*
X125000000Y-90500000D01*
D38*
X146950000Y-106848062D02*
X146950000Y-106100000D01*
X146950000Y-106100000D02*
X147200000Y-105850000D01*
X147200000Y-105850000D02*
X147600000Y-105850000D01*
X118300000Y-73174355D02*
X116000000Y-70640646D01*
X115300000Y-70300000D02*
X115640646Y-70640646D01*
X115640646Y-70640646D02*
X116000000Y-70640646D01*
X148750000Y-101200000D02*
X148200000Y-100650000D01*
X148200000Y-100650000D02*
X147400000Y-100650000D01*
X148750000Y-102200000D02*
X148750000Y-101200000D01*
X121800000Y-77030000D02*
X118300000Y-73174355D01*
X119300000Y-72400000D02*
X118300000Y-73174355D01*
D39*
X121800000Y-77030000D02*
X121000000Y-77050000D01*
X123000000Y-77000000D02*
X121800000Y-77030000D01*
D38*
X166750000Y-95500000D02*
X166550000Y-95700000D01*
X166550000Y-95700000D02*
X166250000Y-96000000D01*
X170200000Y-98900000D02*
X166550000Y-95700000D01*
X166250000Y-96000000D02*
X162400000Y-96000000D01*
X166750000Y-93700000D02*
X166750000Y-95500000D01*
X168250000Y-92200000D02*
X166750000Y-93700000D01*
X168250000Y-92150000D02*
X168250000Y-92200000D01*
X148575000Y-100550000D02*
X148575000Y-99775000D01*
X148875000Y-100850000D02*
X148575000Y-100550000D01*
X148975000Y-100850000D02*
X148875000Y-100850000D01*
X149250000Y-101125000D02*
X148975000Y-100850000D01*
X149250000Y-102200000D02*
X149250000Y-101125000D01*
D39*
X170000000Y-90950000D02*
X168250000Y-92150000D01*
D38*
X159075000Y-77550000D02*
X163500000Y-81350000D01*
X157775000Y-76300000D02*
X159075000Y-77550000D01*
X157454594Y-70045406D02*
X157586418Y-71125000D01*
X157586418Y-71125000D02*
X157775000Y-76300000D01*
X160400000Y-72800000D02*
X157454594Y-70045406D01*
X149750000Y-101400000D02*
X149750000Y-100925000D01*
X149750000Y-100925000D02*
X149150000Y-100325000D01*
X163800000Y-91350000D02*
X159925000Y-94777884D01*
X159925000Y-94777884D02*
X159900000Y-94800000D01*
X159675000Y-96250000D02*
X159925000Y-94777884D01*
X149750000Y-102200000D02*
X149750000Y-101400000D01*
X164950000Y-90200000D02*
X163800000Y-91350000D01*
X165250000Y-87950000D02*
X164950000Y-90200000D01*
X166050000Y-84850000D02*
X165250000Y-87950000D01*
X166550000Y-83400000D02*
X166050000Y-84850000D01*
X166200000Y-82600000D02*
X166550000Y-83400000D01*
X164950000Y-81800000D02*
X166200000Y-82600000D01*
X163500000Y-81350000D02*
X164950000Y-81800000D01*
D39*
X158964645Y-68378858D02*
X157454594Y-70045406D01*
D41*
X166055866Y-80064711D02*
X168047372Y-83014102D01*
D11*
X142850000Y-97000000D02*
X142850000Y-95050000D01*
X142850000Y-95050000D02*
X143100000Y-94800000D01*
D38*
X149775000Y-93675000D02*
X149775000Y-93375000D01*
X149775000Y-93375000D02*
X149600000Y-93200000D01*
X149600000Y-93200000D02*
X149600000Y-92600000D01*
D42*
X152300000Y-107000000D02*
X152900000Y-107600000D01*
X151750000Y-107000000D02*
X152300000Y-107000000D01*
D39*
X128300000Y-93000000D02*
X129700000Y-91600000D01*
X129700000Y-91600000D02*
X129700000Y-90000000D01*
X128000000Y-93000000D02*
X128300000Y-93000000D01*
X124250000Y-96000000D02*
X125000000Y-92950000D01*
X128000000Y-93000000D02*
X125000000Y-92950000D01*
X121000000Y-78950000D02*
X124000001Y-80000000D01*
X125700000Y-77000000D02*
X124000001Y-80000000D01*
X126250000Y-75000000D02*
X125700000Y-77000000D01*
D41*
X165600000Y-94450000D02*
X165600000Y-92200000D01*
X165600000Y-92200000D02*
X165550000Y-92150000D01*
D39*
X165550000Y-92150000D02*
X167000000Y-89000000D01*
X170000000Y-89050000D02*
X167000000Y-89000000D01*
X157621142Y-67035355D02*
X156000000Y-65500000D01*
X155414214Y-68585786D02*
X157621142Y-67035355D01*
X155414214Y-68585786D02*
X155545406Y-71954594D01*
D38*
X146500000Y-108600000D02*
X146500000Y-108350000D01*
X146500000Y-108350000D02*
X146600000Y-108250000D01*
X146350000Y-107450000D02*
X146350000Y-105550000D01*
X146350000Y-105550000D02*
X146550000Y-105350000D01*
X146600000Y-108250000D02*
X146600000Y-107700000D01*
X146600000Y-107700000D02*
X146350000Y-107450000D01*
X146550000Y-105350000D02*
X147600000Y-105350000D01*
X147600000Y-104850000D02*
X146300000Y-104850000D01*
X145950000Y-105200000D02*
X145950000Y-107850000D01*
X146300000Y-104850000D02*
X145950000Y-105200000D01*
X145950000Y-107850000D02*
X146050000Y-107950000D01*
X150950000Y-110100000D02*
X152600000Y-110100000D01*
X152600000Y-110100000D02*
X153500000Y-109200000D01*
X153500000Y-109200000D02*
X153500000Y-106600000D01*
X153250000Y-106350000D02*
X152400000Y-106350000D01*
X153500000Y-106600000D02*
X153250000Y-106350000D01*
X151050000Y-112000000D02*
X151050000Y-110200000D01*
X151050000Y-110200000D02*
X150950000Y-110100000D01*
X121000000Y-83600000D02*
X124925000Y-84814880D01*
X130550000Y-86200000D02*
X129164880Y-84814880D01*
X129164880Y-84814880D02*
X124925000Y-84814880D01*
X130550000Y-87525000D02*
X130550000Y-86200000D01*
X129150000Y-88925000D02*
X130550000Y-87525000D01*
X128042308Y-90700000D02*
X128042308Y-88925000D01*
X128042308Y-88925000D02*
X129150000Y-88925000D01*
X138000000Y-69850000D02*
X138000000Y-70825000D01*
X138300000Y-71313009D02*
X138000000Y-70825000D01*
X141600000Y-74800000D02*
X139900000Y-73600000D01*
X142175000Y-75550000D02*
X141600000Y-74800000D01*
X142150000Y-76325000D02*
X142175000Y-75550000D01*
X141750000Y-76925000D02*
X142150000Y-76325000D01*
X141100000Y-77042858D02*
X141750000Y-76925000D01*
X139925000Y-76850000D02*
X141100000Y-77042858D01*
X137125000Y-76350000D02*
X139925000Y-76850000D01*
X127900000Y-73302127D02*
X124200000Y-72200000D01*
X127900000Y-73302127D02*
X137125000Y-76350000D01*
X144200000Y-101000000D02*
X144750000Y-102100000D01*
X142050000Y-99450000D02*
X144200000Y-101000000D01*
X138100000Y-98800000D02*
X142050000Y-99450000D01*
X138000000Y-69850000D02*
X145950000Y-69850000D01*
X138300000Y-71313009D02*
X139900000Y-73600000D01*
X128042308Y-90700000D02*
X127950000Y-91100000D01*
X149000000Y-108550000D02*
X149250000Y-107600000D01*
X149000000Y-110650000D02*
X149000000Y-108550000D01*
X148750000Y-110850000D02*
X149000000Y-110650000D01*
X145350000Y-110850000D02*
X148750000Y-110850000D01*
X144800000Y-110600000D02*
X145350000Y-110850000D01*
X144800000Y-110450000D02*
X144800000Y-110600000D01*
X144790910Y-109050000D02*
X144800000Y-110450000D01*
X144750000Y-103150000D02*
X144750000Y-102100000D01*
X144800000Y-107800000D02*
X144750000Y-103150000D01*
X144790910Y-109050000D02*
X144800000Y-107800000D01*
X137350000Y-98750000D02*
X138100000Y-98800000D01*
X134350000Y-98800000D02*
X137350000Y-98750000D01*
X133200000Y-98300000D02*
X133500000Y-98800000D01*
X133500000Y-98800000D02*
X134350000Y-98800000D01*
X131950000Y-97950000D02*
X133200000Y-98300000D01*
X127000000Y-97200000D02*
X129750000Y-97300000D01*
X123800000Y-97500000D02*
X127000000Y-97200000D01*
X123050000Y-96750000D02*
X123800000Y-97500000D01*
X123200000Y-94850000D02*
X123050000Y-96750000D01*
X123650000Y-93100000D02*
X123200000Y-94850000D01*
X125300000Y-92050000D02*
X124100000Y-92150000D01*
X127950000Y-91100000D02*
X126900000Y-91800000D01*
X129750000Y-97300000D02*
X131950000Y-97950000D01*
X124100000Y-92150000D02*
X123650000Y-93100000D01*
X126900000Y-91800000D02*
X125300000Y-92050000D01*
X149250000Y-107600000D02*
X149250000Y-107000000D01*
X116300000Y-81700000D02*
X121000000Y-83600000D01*
X111700000Y-76700000D02*
X116300000Y-81700000D01*
X111800000Y-70600000D02*
X111700000Y-76700000D01*
X115100000Y-69400000D02*
X111800000Y-70600000D01*
X124200000Y-72200000D02*
X115100000Y-69400000D01*
X155100000Y-128350000D02*
X152900000Y-130550000D01*
X152900000Y-130550000D02*
X152900000Y-131000000D01*
X155100000Y-123700000D02*
X155100000Y-128350000D01*
X154600000Y-123200000D02*
X155100000Y-123700000D01*
X154600000Y-122600000D02*
X154600000Y-123200000D01*
X151750000Y-102200000D02*
X151750000Y-101550000D01*
X151750000Y-101550000D02*
X151450000Y-101250000D01*
X148250000Y-102200000D02*
X148250000Y-101500000D01*
X148250000Y-101500000D02*
X147950000Y-101200000D01*
X146600000Y-123100000D02*
X147500000Y-122200000D01*
X147500000Y-122200000D02*
X148600000Y-122200000D01*
X146250000Y-123100000D02*
X146600000Y-123100000D01*
X145750000Y-122600000D02*
X146250000Y-123100000D01*
X145300000Y-122600000D02*
X145750000Y-122600000D01*
X155500000Y-62900000D02*
X153160000Y-60560000D01*
X153160000Y-60560000D02*
X151540000Y-60560000D01*
X155500000Y-63900000D02*
X155500000Y-62900000D01*
X153900000Y-65500000D02*
X155500000Y-63900000D01*
X150000000Y-65500000D02*
X153900000Y-65500000D01*
X148850000Y-66650000D02*
X150000000Y-65500000D01*
X148750000Y-66650000D02*
X148850000Y-66650000D01*
X150200000Y-60100000D02*
X150200000Y-61760000D01*
X150200000Y-61760000D02*
X151540000Y-63100000D01*
X151300000Y-59000000D02*
X150200000Y-60100000D01*
X152300000Y-59000000D02*
X151300000Y-59000000D01*
X155900000Y-62600000D02*
X152300000Y-59000000D01*
X155900000Y-64100000D02*
X155900000Y-62600000D01*
X153350000Y-66650000D02*
X155900000Y-64100000D01*
X151250000Y-66650000D02*
X153350000Y-66650000D01*
D42*
X164300000Y-76500000D02*
X165900000Y-75255556D01*
X176300000Y-72000000D02*
X165900000Y-75255556D01*
X176300000Y-72000000D02*
X178339007Y-73825000D01*
X165105866Y-78419263D02*
X164300000Y-76500000D01*
X180330866Y-72675000D02*
X178339007Y-73825000D01*
D40*
X134000000Y-97000000D02*
X134750000Y-96250000D01*
X134750000Y-96250000D02*
X136650000Y-96250000D01*
X134000000Y-98000000D02*
X134000000Y-97000000D01*
D41*
X149950000Y-70500000D02*
X149950000Y-71750000D01*
X149950000Y-71750000D02*
X151100000Y-72900000D01*
D39*
X188850000Y-90900000D02*
X189602080Y-91652080D01*
X189602080Y-91652080D02*
X189602080Y-93817692D01*
X185950000Y-90900000D02*
X188850000Y-90900000D01*
X184150000Y-89100000D02*
X185950000Y-90900000D01*
X182100000Y-89100000D02*
X184150000Y-89100000D01*
X181150000Y-90050000D02*
X182100000Y-89100000D01*
X181150000Y-91550000D02*
X181150000Y-90050000D01*
X190850000Y-93100000D02*
X189602080Y-93817692D01*
X190850000Y-94100000D02*
X189602080Y-93817692D01*
D38*
X174650000Y-83550000D02*
X171588526Y-83550000D01*
X171588526Y-83550000D02*
X169952628Y-81914102D01*
D39*
X173750000Y-84450000D02*
X174650000Y-83550000D01*
D38*
X168394134Y-78714711D02*
X172992821Y-78714711D01*
X172992821Y-78714711D02*
X173125000Y-78582532D01*
X169214711Y-78714711D02*
X169952628Y-79452628D01*
X169952628Y-79452628D02*
X169952628Y-81914102D01*
X168394134Y-78714711D02*
X169214711Y-78714711D01*
D40*
X174650000Y-83550000D02*
X174650000Y-83300000D01*
X174650000Y-83300000D02*
X173750000Y-82400000D01*
D41*
X174650000Y-82650000D02*
X173800000Y-81800000D01*
X173800000Y-81800000D02*
X173125000Y-81125000D01*
D38*
X179912830Y-80687170D02*
X178800000Y-81800000D01*
X178800000Y-81800000D02*
X173800000Y-81800000D01*
X182123454Y-80687170D02*
X179912830Y-80687170D01*
D39*
X180100000Y-95750000D02*
X179724445Y-94450000D01*
X179724445Y-94450000D02*
X179450000Y-93500000D01*
X181150000Y-92750000D02*
X181150000Y-93024445D01*
X181150000Y-93024445D02*
X179724445Y-94450000D01*
D41*
X152500000Y-132100000D02*
X154450000Y-132100000D01*
X150800000Y-123300000D02*
X151400000Y-123300000D01*
X151850000Y-129150000D02*
X151850000Y-131450000D01*
X151400000Y-123300000D02*
X152100000Y-124000000D01*
X152100000Y-124000000D02*
X152100000Y-128900000D01*
X152100000Y-128900000D02*
X151850000Y-129150000D01*
X151850000Y-131450000D02*
X152500000Y-132100000D01*
D39*
X177200000Y-92850000D02*
X175050000Y-92850000D01*
X175050000Y-92850000D02*
X174200000Y-93700000D01*
X179450000Y-93500000D02*
X177200000Y-92850000D01*
X181650000Y-97050000D02*
X180100000Y-95750000D01*
X185850000Y-95950000D02*
X181650000Y-97050000D01*
X187000000Y-95500000D02*
X185850000Y-95950000D01*
X171400000Y-80050000D02*
X171657532Y-80050000D01*
X171657532Y-80050000D02*
X173125000Y-78582532D01*
X173750000Y-82400000D02*
X171400000Y-80050000D01*
X173750000Y-84450000D02*
X173750000Y-82400000D01*
X187108170Y-93643301D02*
X187000000Y-95500000D01*
D11*
X182123454Y-80687170D02*
X181687170Y-80687170D01*
D41*
X173125000Y-81125000D02*
X173125000Y-78582532D01*
X174650000Y-83550000D02*
X174650000Y-82650000D01*
D11*
X169952628Y-81914102D02*
X169952628Y-81754904D01*
X169952628Y-81754904D02*
X173125000Y-78582532D01*
X181500000Y-74100000D02*
X181500000Y-77850000D01*
X181500000Y-77850000D02*
X181200000Y-78150000D01*
D42*
X168500000Y-75100000D02*
X167444134Y-77069263D01*
D43*
G36*
X171478459Y-77614264D02*
X171500332Y-77639733D01*
X171618001Y-77700310D01*
X171749968Y-77710333D01*
X171875437Y-77668225D01*
X171941258Y-77630223D01*
X173229142Y-77674633D01*
X174073305Y-78987775D01*
X174122068Y-84936794D01*
X172535268Y-85118142D01*
X170297118Y-83463858D01*
X167673027Y-78847400D01*
X168953746Y-78115561D01*
X170420421Y-77577780D01*
X171478459Y-77614264D01*
X171478459Y-77614264D01*
G37*
X171478459Y-77614264D02*
X171500332Y-77639733D01*
X171618001Y-77700310D01*
X171749968Y-77710333D01*
X171875437Y-77668225D01*
X171941258Y-77630223D01*
X173229142Y-77674633D01*
X174073305Y-78987775D01*
X174122068Y-84936794D01*
X172535268Y-85118142D01*
X170297118Y-83463858D01*
X167673027Y-78847400D01*
X168953746Y-78115561D01*
X170420421Y-77577780D01*
X171478459Y-77614264D01*
G36*
X175510197Y-76689803D02*
X175552211Y-76717666D01*
X175600000Y-76727000D01*
X177755451Y-76727000D01*
X178173000Y-77061039D01*
X178173000Y-77487423D01*
X178096410Y-77870371D01*
X174253915Y-77774309D01*
X173389803Y-76910197D01*
X173347789Y-76882334D01*
X173280689Y-76874477D01*
X171990290Y-77073000D01*
X171675392Y-77073000D01*
X171169859Y-76146191D01*
X172035178Y-75627000D01*
X174447394Y-75627000D01*
X175510197Y-76689803D01*
X175510197Y-76689803D01*
G37*
X175510197Y-76689803D02*
X175552211Y-76717666D01*
X175600000Y-76727000D01*
X177755451Y-76727000D01*
X178173000Y-77061039D01*
X178173000Y-77487423D01*
X178096410Y-77870371D01*
X174253915Y-77774309D01*
X173389803Y-76910197D01*
X173347789Y-76882334D01*
X173280689Y-76874477D01*
X171990290Y-77073000D01*
X171675392Y-77073000D01*
X171169859Y-76146191D01*
X172035178Y-75627000D01*
X174447394Y-75627000D01*
X175510197Y-76689803D01*
M02*
