M48
;DRILL file {KiCad 4.0.6} date Monday, May 07, 2018 'PMt' 08:57:22 PM
;FORMAT={-:-/ absolute / inch / decimal}
FMAT,2
INCH,TZ
T1C0.012
T2C0.020
T3C0.035
T4C0.040
T5C0.046
%
G90
G05
M72
T1
X4.1732Y-2.9724
X4.2618Y-3.061
X4.3701Y-3.0413
X4.4783Y-2.9429
X4.4783Y-3.7697
X4.5177Y-2.7953
X4.5374Y-3.0118
X4.5394Y-2.7677
X4.5413Y-3.1299
X4.5512Y-3.5827
X4.5512Y-3.6378
X4.5571Y-3.0709
X4.5728Y-3.6102
X4.5984Y-3.6319
X4.6024Y-2.9921
X4.6161Y-3.8189
X4.6201Y-3.5728
X4.6201Y-3.6043
X4.6457Y-3.8307
X4.6791Y-3.8425
X4.7421Y-3.1791
X4.7854Y-3.7146
X4.8012Y-3.8248
X4.8622Y-3.4843
X4.8701Y-2.8701
X4.9075Y-3.5413
X4.9213Y-2.874
X4.935Y-3.8563
X4.9528Y-3.7087
X4.9705Y-3.5945
X4.9724Y-3.7362
X4.9803Y-2.8937
X5.0433Y-2.9567
X5.124Y-3.0787
X5.1614Y-3.0728
X5.1673Y-3.9567
X5.1703Y-3.3091
X5.1831Y-3.124
X5.185Y-3.3356
X5.2126Y-3.3543
X5.2362Y-3.7638
X5.2461Y-3.0512
X5.2598Y-3.7874
X5.2657Y-3.7539
X5.2972Y-3.7559
X5.31Y-3.0197
X5.311Y-3.623
X5.315Y-3.7008
X5.3248Y-3.7323
X5.374Y-3.0512
X5.3799Y-3.7894
X5.4587Y-3.2815
X5.4587Y-3.3287
X5.4587Y-3.376
X5.4587Y-3.4232
X5.4823Y-3.0906
X5.4823Y-3.2559
X5.4823Y-3.3051
X5.4823Y-3.3524
X5.4823Y-3.3996
X5.4823Y-3.4469
X5.4961Y-2.685
X5.5059Y-3.5226
X5.5157Y-3.7638
X5.5217Y-3.1496
X5.5276Y-3.565
X5.5299Y-2.7248
X5.5551Y-3.5886
X5.5709Y-3.6142
X5.6024Y-2.5308
X5.6339Y-3.7323
X5.6457Y-3.2598
X5.6457Y-3.874
X5.6476Y-3.0098
X5.6496Y-3.1398
X5.6634Y-3.7441
X5.6693Y-3.2835
X5.685Y-3.0551
X5.6929Y-3.2598
X5.6949Y-3.8228
X5.7008Y-3.75
X5.7106Y-2.9311
X5.7165Y-3.2795
X5.7303Y-2.4114
X5.7303Y-3.7657
X5.7402Y-3.2598
X5.7441Y-2.6398
X5.748Y-2.7953
X5.75Y-4.25
X5.7579Y-3.1594
X5.7579Y-5.2185
X5.7638Y-4.0748
X5.7677Y-4.2756
X5.7697Y-4.8091
X5.7756Y-4.5689
X5.7854Y-4.2066
X5.7972Y-3.1102
X5.8031Y-2.6417
X5.8031Y-3.9626
X5.8071Y-2.7953
X5.8091Y-4.0098
X5.8169Y-4.8425
X5.8169Y-5.128
X5.8169Y-5.502
X5.8189Y-3.9311
X5.8228Y-5.5433
X5.8248Y-3.9843
X5.8268Y-2.8839
X5.8268Y-2.9429
X5.8268Y-5.2008
X5.8406Y-4.2697
X5.8445Y-4.7185
X5.8494Y-3.9281
X5.8504Y-4.811
X5.8563Y-4.7579
X5.8661Y-4.5059
X5.8716Y-4.0842
X5.8716Y-4.1521
X5.872Y-3.9498
X5.874Y-5.5906
X5.8967Y-3.688
X5.8976Y-3.3386
X5.9035Y-3.9508
X5.9045Y-3.9203
X5.9055Y-3.1535
X5.9055Y-3.5394
X5.9094Y-4.6555
X5.9134Y-5.5906
X5.9291Y-3.1772
X5.9291Y-4.5827
X5.939Y-4.7598
X5.9395Y-4.0842
X5.9395Y-4.1521
X5.9429Y-4.3346
X5.9443Y-4.66
X5.9488Y-2.8701
X5.9528Y-3.1535
X5.9528Y-5.5906
X5.9626Y-3.9862
X5.9685Y-3.813
X5.9764Y-3.1772
X6.Y-3.1535
X6.002Y-3.815
X6.0197Y-4.2362
X6.0197Y-5.1575
X6.0236Y-4.3701
X6.0276Y-3.9921
X6.0335Y-4.0709
X6.0866Y-3.7835
X6.1368Y-3.748
X6.1417Y-3.6063
X6.1417Y-3.6535
X6.1417Y-3.7008
X6.1496Y-3.1831
X6.1693Y-3.6299
X6.1693Y-3.6772
X6.1693Y-3.7244
X6.1732Y-3.2598
X6.1732Y-3.3071
X6.1732Y-3.3583
X6.189Y-3.8189
X6.2047Y-3.2835
X6.2047Y-3.3307
X6.2047Y-3.3819
X6.2047Y-3.8504
X6.2244Y-3.7864
X6.2559Y-3.7815
X6.2638Y-3.2579
X6.2864Y-3.7894
X6.2874Y-3.3484
X6.3012Y-3.2618
X6.3228Y-3.3465
X6.3268Y-3.2815
X6.3307Y-3.3819
X6.3386Y-3.0413
X6.3386Y-3.0413
X6.3465Y-3.4094
X6.3524Y-3.4488
X6.3543Y-3.3366
X6.378Y-3.815
X6.3858Y-3.0315
X6.3937Y-3.7795
X6.3976Y-2.6969
X6.4606Y-3.2717
X6.5177Y-3.8386
X6.5177Y-3.8976
X6.5256Y-3.2874
X6.5866Y-3.5748
X6.6142Y-3.937
X6.6339Y-2.9567
X6.6339Y-3.8976
X6.685Y-3.0197
X6.7244Y-3.626
X6.752Y-3.7815
X6.752Y-3.8386
X6.7717Y-3.6102
X6.7874Y-3.8976
X6.8307Y-3.5354
X6.8386Y-3.8937
X6.8701Y-2.8839
X6.8715Y-3.5157
X6.9252Y-3.0472
X6.935Y-3.8681
X6.937Y-3.5433
X6.937Y-3.6024
X6.9567Y-3.0394
X6.9921Y-3.0394
X7.0709Y-2.9843
X7.0945Y-2.9311
X7.1122Y-2.9606
X7.1457Y-2.9173
X7.1614Y-3.7776
X7.2047Y-3.5472
X7.2343Y-2.7657
X7.2402Y-3.0551
X7.2598Y-3.6024
X7.2756Y-2.9823
X7.2815Y-2.9429
X7.2854Y-3.0453
X7.311Y-3.7362
X7.3189Y-3.6831
X7.3346Y-2.9764
X7.4016Y-2.7165
X7.4094Y-2.9035
X7.4114Y-2.8445
X7.4173Y-3.0276
X7.4449Y-3.0531
X7.5157Y-3.5394
X7.5906Y-2.8268
X7.6378Y-2.8858
X7.6378Y-3.5354
T2
X5.5118Y-2.8346
X5.6693Y-2.7953
X5.7008Y-5.4488
X5.9055Y-3.5709
X5.937Y-4.8543
X6.0177Y-4.5374
X6.0669Y-5.6575
X6.1142Y-4.2638
X6.1142Y-4.4291
X6.1142Y-4.7598
X6.1142Y-5.1378
X6.1732Y-2.5118
X6.6063Y-3.7717
X6.7992Y-3.3248
X6.8406Y-3.3248
X6.8583Y-3.689
X7.3169Y-3.7776
X7.3622Y-3.7598
X7.5138Y-3.6654
X7.5138Y-3.7047
X7.5138Y-3.7047
T3
X7.2405Y-3.5694
X7.5075Y-3.5881
T4
X5.8567Y-2.3843
X5.8567Y-2.4843
X5.9055Y-5.1756
X5.9055Y-5.2756
X5.9055Y-5.3756
X5.9055Y-5.4756
X5.9567Y-2.3843
X5.9567Y-2.4843
X6.0433Y-5.3232
X6.0433Y-5.4232
X6.0433Y-5.5232
T5
X6.9685Y-3.1496
X6.9685Y-3.7398
T0
M30
