G04 #@! TF.FileFunction,Soldermask,Bot*
%FSLAX46Y46*%
G04 Gerber Fmt 4.6, Leading zero omitted, Abs format (unit mm)*
G04 Created by KiCad (PCBNEW 4.0.6) date Monday, May 07, 2018 'PMt' 08:57:05 PM*
%MOMM*%
%LPD*%
G01*
G04 APERTURE LIST*
%ADD10C,0.100000*%
G04 APERTURE END LIST*
D10*
G36*
X150396016Y-147730330D02*
X149830330Y-148296016D01*
X149406066Y-147871752D01*
X149971752Y-147306066D01*
X150396016Y-147730330D01*
X150396016Y-147730330D01*
G37*
G36*
X149193934Y-146528248D02*
X148628248Y-147093934D01*
X148203984Y-146669670D01*
X148769670Y-146103984D01*
X149193934Y-146528248D01*
X149193934Y-146528248D01*
G37*
G36*
X151880762Y-144538477D02*
X150820101Y-145599138D01*
X149900862Y-144679899D01*
X150961523Y-143619238D01*
X151880762Y-144538477D01*
X151880762Y-144538477D01*
G37*
G36*
X148856156Y-142972271D02*
X147972271Y-143856156D01*
X146911610Y-142795495D01*
X147795495Y-141911610D01*
X148856156Y-142972271D01*
X148856156Y-142972271D01*
G37*
G36*
X153789950Y-142629289D02*
X152729289Y-143689950D01*
X151810050Y-142770711D01*
X152870711Y-141710050D01*
X153789950Y-142629289D01*
X153789950Y-142629289D01*
G37*
G36*
X147088390Y-141204505D02*
X146204505Y-142088390D01*
X145143844Y-141027729D01*
X146027729Y-140143844D01*
X147088390Y-141204505D01*
X147088390Y-141204505D01*
G37*
G36*
X153664649Y-139426451D02*
X153669374Y-139426484D01*
X153836869Y-139445272D01*
X153997524Y-139496235D01*
X154145222Y-139577432D01*
X154274335Y-139685771D01*
X154379946Y-139817124D01*
X154458032Y-139966490D01*
X154505619Y-140128177D01*
X154505622Y-140128206D01*
X154505627Y-140128224D01*
X154520898Y-140296027D01*
X154503285Y-140463602D01*
X154503281Y-140463616D01*
X154503277Y-140463651D01*
X154453437Y-140624658D01*
X154373273Y-140772919D01*
X154265838Y-140902785D01*
X154135225Y-141009311D01*
X153986408Y-141088438D01*
X153825057Y-141137153D01*
X153657316Y-141153600D01*
X153342648Y-141153600D01*
X153335351Y-141153549D01*
X153330626Y-141153516D01*
X153163131Y-141134728D01*
X153002476Y-141083765D01*
X152854778Y-141002568D01*
X152725665Y-140894229D01*
X152620054Y-140762876D01*
X152541968Y-140613510D01*
X152494381Y-140451823D01*
X152494378Y-140451794D01*
X152494373Y-140451776D01*
X152479102Y-140283973D01*
X152496715Y-140116398D01*
X152496719Y-140116384D01*
X152496723Y-140116349D01*
X152546563Y-139955342D01*
X152626727Y-139807081D01*
X152734162Y-139677215D01*
X152864775Y-139570689D01*
X153013592Y-139491562D01*
X153174943Y-139442847D01*
X153342684Y-139426400D01*
X153657352Y-139426400D01*
X153664649Y-139426451D01*
X153664649Y-139426451D01*
G37*
G36*
X151016000Y-139943599D02*
X148984000Y-139943599D01*
X148984000Y-138216399D01*
X151016000Y-138216399D01*
X151016000Y-139943599D01*
X151016000Y-139943599D01*
G37*
G36*
X153664649Y-136886451D02*
X153669374Y-136886484D01*
X153836869Y-136905272D01*
X153997524Y-136956235D01*
X154145222Y-137037432D01*
X154274335Y-137145771D01*
X154379946Y-137277124D01*
X154458032Y-137426490D01*
X154505619Y-137588177D01*
X154505622Y-137588206D01*
X154505627Y-137588224D01*
X154520898Y-137756027D01*
X154503285Y-137923602D01*
X154503281Y-137923616D01*
X154503277Y-137923651D01*
X154453437Y-138084658D01*
X154373273Y-138232919D01*
X154265838Y-138362785D01*
X154135225Y-138469311D01*
X153986408Y-138548438D01*
X153825057Y-138597153D01*
X153657316Y-138613600D01*
X153342648Y-138613600D01*
X153335351Y-138613549D01*
X153330626Y-138613516D01*
X153163131Y-138594728D01*
X153002476Y-138543765D01*
X152854778Y-138462568D01*
X152725665Y-138354229D01*
X152620054Y-138222876D01*
X152541968Y-138073510D01*
X152494381Y-137911823D01*
X152494378Y-137911794D01*
X152494373Y-137911776D01*
X152479102Y-137743973D01*
X152496715Y-137576398D01*
X152496719Y-137576384D01*
X152496723Y-137576349D01*
X152546563Y-137415342D01*
X152626727Y-137267081D01*
X152734162Y-137137215D01*
X152864775Y-137030689D01*
X153013592Y-136951562D01*
X153174943Y-136902847D01*
X153342684Y-136886400D01*
X153657352Y-136886400D01*
X153664649Y-136886451D01*
X153664649Y-136886451D01*
G37*
G36*
X150164649Y-135676450D02*
X150169374Y-135676483D01*
X150336869Y-135695271D01*
X150497524Y-135746234D01*
X150645222Y-135827431D01*
X150774335Y-135935770D01*
X150879946Y-136067123D01*
X150958032Y-136216489D01*
X151005619Y-136378176D01*
X151005622Y-136378205D01*
X151005627Y-136378223D01*
X151020898Y-136546026D01*
X151003285Y-136713601D01*
X151003281Y-136713615D01*
X151003277Y-136713650D01*
X150953437Y-136874657D01*
X150873273Y-137022918D01*
X150765838Y-137152784D01*
X150635225Y-137259310D01*
X150486408Y-137338437D01*
X150325057Y-137387152D01*
X150157316Y-137403599D01*
X149842648Y-137403599D01*
X149835351Y-137403548D01*
X149830626Y-137403515D01*
X149663131Y-137384727D01*
X149502476Y-137333764D01*
X149354778Y-137252567D01*
X149225665Y-137144228D01*
X149120054Y-137012875D01*
X149041968Y-136863509D01*
X148994381Y-136701822D01*
X148994378Y-136701793D01*
X148994373Y-136701775D01*
X148979102Y-136533972D01*
X148996715Y-136366397D01*
X148996719Y-136366383D01*
X148996723Y-136366348D01*
X149046563Y-136205341D01*
X149126727Y-136057080D01*
X149234162Y-135927214D01*
X149364775Y-135820688D01*
X149513592Y-135741561D01*
X149674943Y-135692846D01*
X149842684Y-135676399D01*
X150157352Y-135676399D01*
X150164649Y-135676450D01*
X150164649Y-135676450D01*
G37*
G36*
X154516000Y-136073600D02*
X152484000Y-136073600D01*
X152484000Y-134346400D01*
X154516000Y-134346400D01*
X154516000Y-136073600D01*
X154516000Y-136073600D01*
G37*
G36*
X150164649Y-133136450D02*
X150169374Y-133136483D01*
X150336869Y-133155271D01*
X150497524Y-133206234D01*
X150645222Y-133287431D01*
X150774335Y-133395770D01*
X150879946Y-133527123D01*
X150958032Y-133676489D01*
X151005619Y-133838176D01*
X151005622Y-133838205D01*
X151005627Y-133838223D01*
X151020898Y-134006026D01*
X151003285Y-134173601D01*
X151003281Y-134173615D01*
X151003277Y-134173650D01*
X150953437Y-134334657D01*
X150873273Y-134482918D01*
X150765838Y-134612784D01*
X150635225Y-134719310D01*
X150486408Y-134798437D01*
X150325057Y-134847152D01*
X150157316Y-134863599D01*
X149842648Y-134863599D01*
X149835351Y-134863548D01*
X149830626Y-134863515D01*
X149663131Y-134844727D01*
X149502476Y-134793764D01*
X149354778Y-134712567D01*
X149225665Y-134604228D01*
X149120054Y-134472875D01*
X149041968Y-134323509D01*
X148994381Y-134161822D01*
X148994378Y-134161793D01*
X148994373Y-134161775D01*
X148979102Y-133993972D01*
X148996715Y-133826397D01*
X148996719Y-133826383D01*
X148996723Y-133826348D01*
X149046563Y-133665341D01*
X149126727Y-133517080D01*
X149234162Y-133387214D01*
X149364775Y-133280688D01*
X149513592Y-133201561D01*
X149674943Y-133152846D01*
X149842684Y-133136399D01*
X150157352Y-133136399D01*
X150164649Y-133136450D01*
X150164649Y-133136450D01*
G37*
G36*
X154528775Y-131350498D02*
X154672856Y-131380073D01*
X154808444Y-131437069D01*
X154930382Y-131519317D01*
X155034023Y-131623685D01*
X155115419Y-131746194D01*
X155171464Y-131882173D01*
X155199966Y-132026115D01*
X155199966Y-132026125D01*
X155200032Y-132026459D01*
X155197686Y-132194455D01*
X155197610Y-132194789D01*
X155197610Y-132194801D01*
X155165104Y-132337881D01*
X155105279Y-132472250D01*
X155020496Y-132592437D01*
X154913978Y-132693872D01*
X154789796Y-132772680D01*
X154652666Y-132825869D01*
X154507819Y-132851410D01*
X154360769Y-132848330D01*
X154217111Y-132816745D01*
X154082338Y-132757864D01*
X153961554Y-132673917D01*
X153859383Y-132568115D01*
X153779709Y-132444486D01*
X153725564Y-132307731D01*
X153699012Y-132163059D01*
X153701066Y-132015992D01*
X153731645Y-131872127D01*
X153789587Y-131736937D01*
X153872687Y-131615574D01*
X153977773Y-131512665D01*
X154100844Y-131432130D01*
X154237221Y-131377030D01*
X154381693Y-131349470D01*
X154528775Y-131350498D01*
X154528775Y-131350498D01*
G37*
G36*
X150164649Y-130596450D02*
X150169374Y-130596483D01*
X150336869Y-130615271D01*
X150497524Y-130666234D01*
X150645222Y-130747431D01*
X150774335Y-130855770D01*
X150879946Y-130987123D01*
X150958032Y-131136489D01*
X151005619Y-131298176D01*
X151005622Y-131298205D01*
X151005627Y-131298223D01*
X151020898Y-131466026D01*
X151003285Y-131633601D01*
X151003281Y-131633615D01*
X151003277Y-131633650D01*
X150953437Y-131794657D01*
X150873273Y-131942918D01*
X150765838Y-132072784D01*
X150635225Y-132179310D01*
X150486408Y-132258437D01*
X150325057Y-132307152D01*
X150157316Y-132323599D01*
X149842648Y-132323599D01*
X149835351Y-132323548D01*
X149830626Y-132323515D01*
X149663131Y-132304727D01*
X149502476Y-132253764D01*
X149354778Y-132172567D01*
X149225665Y-132064228D01*
X149120054Y-131932875D01*
X149041968Y-131783509D01*
X148994381Y-131621822D01*
X148994378Y-131621793D01*
X148994373Y-131621775D01*
X148979102Y-131453972D01*
X148996715Y-131286397D01*
X148996719Y-131286383D01*
X148996723Y-131286348D01*
X149046563Y-131125341D01*
X149126727Y-130977080D01*
X149234162Y-130847214D01*
X149364775Y-130740688D01*
X149513592Y-130661561D01*
X149674943Y-130612846D01*
X149842684Y-130596399D01*
X150157352Y-130596399D01*
X150164649Y-130596450D01*
X150164649Y-130596450D01*
G37*
G36*
X147500000Y-128800000D02*
X146000000Y-128800000D01*
X146000000Y-127300000D01*
X147500000Y-127300000D01*
X147500000Y-128800000D01*
X147500000Y-128800000D01*
G37*
G36*
X154199999Y-128700000D02*
X152699999Y-128700000D01*
X152699999Y-127400000D01*
X154199999Y-127400000D01*
X154199999Y-128700000D01*
X154199999Y-128700000D01*
G37*
G36*
X151499999Y-128700000D02*
X149999999Y-128700000D01*
X149999999Y-127400000D01*
X151499999Y-127400000D01*
X151499999Y-128700000D01*
X151499999Y-128700000D01*
G37*
G36*
X147500001Y-125800000D02*
X146000001Y-125800000D01*
X146000001Y-124300000D01*
X147500001Y-124300000D01*
X147500001Y-125800000D01*
X147500001Y-125800000D01*
G37*
G36*
X151500000Y-125700000D02*
X150000000Y-125700000D01*
X150000000Y-124400000D01*
X151500000Y-124400000D01*
X151500000Y-125700000D01*
X151500000Y-125700000D01*
G37*
G36*
X154200000Y-125700000D02*
X152700000Y-125700000D01*
X152700000Y-124400000D01*
X154200000Y-124400000D01*
X154200000Y-125700000D01*
X154200000Y-125700000D01*
G37*
G36*
X145378775Y-121850498D02*
X145522856Y-121880073D01*
X145658444Y-121937069D01*
X145780382Y-122019317D01*
X145884023Y-122123685D01*
X145965419Y-122246194D01*
X146021464Y-122382173D01*
X146049966Y-122526115D01*
X146049966Y-122526125D01*
X146050032Y-122526459D01*
X146047686Y-122694455D01*
X146047610Y-122694789D01*
X146047610Y-122694801D01*
X146015104Y-122837881D01*
X145955279Y-122972250D01*
X145870496Y-123092437D01*
X145763978Y-123193872D01*
X145639796Y-123272680D01*
X145502666Y-123325869D01*
X145357819Y-123351410D01*
X145210769Y-123348330D01*
X145067111Y-123316745D01*
X144932338Y-123257864D01*
X144811554Y-123173917D01*
X144709383Y-123068115D01*
X144629709Y-122944486D01*
X144575564Y-122807731D01*
X144549012Y-122663059D01*
X144551066Y-122515992D01*
X144581645Y-122372127D01*
X144639587Y-122236937D01*
X144722687Y-122115574D01*
X144827773Y-122012665D01*
X144950844Y-121932130D01*
X145087221Y-121877030D01*
X145231693Y-121849470D01*
X145378775Y-121850498D01*
X145378775Y-121850498D01*
G37*
G36*
X154678775Y-121850498D02*
X154822856Y-121880073D01*
X154958444Y-121937069D01*
X155080382Y-122019317D01*
X155184023Y-122123685D01*
X155265419Y-122246194D01*
X155321464Y-122382173D01*
X155349966Y-122526115D01*
X155349966Y-122526125D01*
X155350032Y-122526459D01*
X155347686Y-122694455D01*
X155347610Y-122694789D01*
X155347610Y-122694801D01*
X155315104Y-122837881D01*
X155255279Y-122972250D01*
X155170496Y-123092437D01*
X155063978Y-123193872D01*
X154939796Y-123272680D01*
X154802666Y-123325869D01*
X154657819Y-123351410D01*
X154510769Y-123348330D01*
X154367111Y-123316745D01*
X154232338Y-123257864D01*
X154111554Y-123173917D01*
X154009383Y-123068115D01*
X153929709Y-122944486D01*
X153875564Y-122807731D01*
X153849012Y-122663059D01*
X153851066Y-122515992D01*
X153881645Y-122372127D01*
X153939587Y-122236937D01*
X154022687Y-122115574D01*
X154127773Y-122012665D01*
X154250844Y-121932130D01*
X154387221Y-121877030D01*
X154531693Y-121849470D01*
X154678775Y-121850498D01*
X154678775Y-121850498D01*
G37*
G36*
X148075000Y-121205000D02*
X146525000Y-121205000D01*
X146525000Y-120605000D01*
X148075000Y-120605000D01*
X148075000Y-121205000D01*
X148075000Y-121205000D01*
G37*
G36*
X153475000Y-121205000D02*
X151925000Y-121205000D01*
X151925000Y-120605000D01*
X153475000Y-120605000D01*
X153475000Y-121205000D01*
X153475000Y-121205000D01*
G37*
G36*
X148075000Y-119935000D02*
X146525000Y-119935000D01*
X146525000Y-119335000D01*
X148075000Y-119335000D01*
X148075000Y-119935000D01*
X148075000Y-119935000D01*
G37*
G36*
X153475000Y-119935000D02*
X151925000Y-119935000D01*
X151925000Y-119335000D01*
X153475000Y-119335000D01*
X153475000Y-119935000D01*
X153475000Y-119935000D01*
G37*
G36*
X148075000Y-118665000D02*
X146525000Y-118665000D01*
X146525000Y-118065000D01*
X148075000Y-118065000D01*
X148075000Y-118665000D01*
X148075000Y-118665000D01*
G37*
G36*
X153475000Y-118665000D02*
X151925000Y-118665000D01*
X151925000Y-118065000D01*
X153475000Y-118065000D01*
X153475000Y-118665000D01*
X153475000Y-118665000D01*
G37*
G36*
X148075000Y-117395000D02*
X146525000Y-117395000D01*
X146525000Y-116795000D01*
X148075000Y-116795000D01*
X148075000Y-117395000D01*
X148075000Y-117395000D01*
G37*
G36*
X153475000Y-117395000D02*
X151925000Y-117395000D01*
X151925000Y-116795000D01*
X153475000Y-116795000D01*
X153475000Y-117395000D01*
X153475000Y-117395000D01*
G37*
G36*
X151700000Y-115450000D02*
X150400000Y-115450000D01*
X150400000Y-113950000D01*
X151700000Y-113950000D01*
X151700000Y-115450000D01*
X151700000Y-115450000D01*
G37*
G36*
X148625000Y-113100000D02*
X147375000Y-113100000D01*
X147375000Y-111600000D01*
X148625000Y-111600000D01*
X148625000Y-113100000D01*
X148625000Y-113100000D01*
G37*
G36*
X146625000Y-113100000D02*
X145375000Y-113100000D01*
X145375000Y-111600000D01*
X146625000Y-111600000D01*
X146625000Y-113100000D01*
X146625000Y-113100000D01*
G37*
G36*
X151700000Y-112750000D02*
X150400000Y-112750000D01*
X150400000Y-111250000D01*
X151700000Y-111250000D01*
X151700000Y-112750000D01*
X151700000Y-112750000D01*
G37*
G36*
X148625000Y-110600000D02*
X147375000Y-110600000D01*
X147375000Y-109100000D01*
X148625000Y-109100000D01*
X148625000Y-110600000D01*
X148625000Y-110600000D01*
G37*
G36*
X146625000Y-110600000D02*
X145375000Y-110600000D01*
X145375000Y-109100000D01*
X146625000Y-109100000D01*
X146625000Y-110600000D01*
X146625000Y-110600000D01*
G37*
G36*
X151328775Y-107800498D02*
X151472856Y-107830073D01*
X151608444Y-107887069D01*
X151730382Y-107969317D01*
X151834023Y-108073685D01*
X151915419Y-108196194D01*
X151971464Y-108332173D01*
X151999966Y-108476115D01*
X151999966Y-108476125D01*
X152000032Y-108476459D01*
X151997686Y-108644455D01*
X151997610Y-108644789D01*
X151997610Y-108644801D01*
X151965104Y-108787881D01*
X151905279Y-108922250D01*
X151820496Y-109042437D01*
X151713978Y-109143872D01*
X151589796Y-109222680D01*
X151452666Y-109275869D01*
X151307819Y-109301410D01*
X151160769Y-109298330D01*
X151017111Y-109266745D01*
X150882338Y-109207864D01*
X150761554Y-109123917D01*
X150659383Y-109018115D01*
X150579709Y-108894486D01*
X150525564Y-108757731D01*
X150499012Y-108613059D01*
X150501066Y-108465992D01*
X150531645Y-108322127D01*
X150589587Y-108186937D01*
X150672687Y-108065574D01*
X150777773Y-107962665D01*
X150900844Y-107882130D01*
X151037221Y-107827030D01*
X151181693Y-107799470D01*
X151328775Y-107800498D01*
X151328775Y-107800498D01*
G37*
G36*
X148375000Y-107350000D02*
X148125000Y-107350000D01*
X148125000Y-106650000D01*
X148375000Y-106650000D01*
X148375000Y-107350000D01*
X148375000Y-107350000D01*
G37*
G36*
X148875000Y-107350000D02*
X148625000Y-107350000D01*
X148625000Y-106650000D01*
X148875000Y-106650000D01*
X148875000Y-107350000D01*
X148875000Y-107350000D01*
G37*
G36*
X149375000Y-107350000D02*
X149125000Y-107350000D01*
X149125000Y-106650000D01*
X149375000Y-106650000D01*
X149375000Y-107350000D01*
X149375000Y-107350000D01*
G37*
G36*
X149875000Y-107350000D02*
X149625000Y-107350000D01*
X149625000Y-106650000D01*
X149875000Y-106650000D01*
X149875000Y-107350000D01*
X149875000Y-107350000D01*
G37*
G36*
X150375000Y-107350000D02*
X150125000Y-107350000D01*
X150125000Y-106650000D01*
X150375000Y-106650000D01*
X150375000Y-107350000D01*
X150375000Y-107350000D01*
G37*
G36*
X150875000Y-107350000D02*
X150625000Y-107350000D01*
X150625000Y-106650000D01*
X150875000Y-106650000D01*
X150875000Y-107350000D01*
X150875000Y-107350000D01*
G37*
G36*
X151375000Y-107350000D02*
X151125000Y-107350000D01*
X151125000Y-106650000D01*
X151375000Y-106650000D01*
X151375000Y-107350000D01*
X151375000Y-107350000D01*
G37*
G36*
X151875000Y-107350000D02*
X151625000Y-107350000D01*
X151625000Y-106650000D01*
X151875000Y-106650000D01*
X151875000Y-107350000D01*
X151875000Y-107350000D01*
G37*
G36*
X147950000Y-106475000D02*
X147250000Y-106475000D01*
X147250000Y-106225000D01*
X147950000Y-106225000D01*
X147950000Y-106475000D01*
X147950000Y-106475000D01*
G37*
G36*
X152750000Y-106475000D02*
X152050000Y-106475000D01*
X152050000Y-106225000D01*
X152750000Y-106225000D01*
X152750000Y-106475000D01*
X152750000Y-106475000D01*
G37*
G36*
X151725000Y-106325000D02*
X148275000Y-106325000D01*
X148275000Y-102875000D01*
X151725000Y-102875000D01*
X151725000Y-106325000D01*
X151725000Y-106325000D01*
G37*
G36*
X147950000Y-105975000D02*
X147250000Y-105975000D01*
X147250000Y-105725000D01*
X147950000Y-105725000D01*
X147950000Y-105975000D01*
X147950000Y-105975000D01*
G37*
G36*
X152750000Y-105975000D02*
X152050000Y-105975000D01*
X152050000Y-105725000D01*
X152750000Y-105725000D01*
X152750000Y-105975000D01*
X152750000Y-105975000D01*
G37*
G36*
X147950000Y-105475000D02*
X147250000Y-105475000D01*
X147250000Y-105225000D01*
X147950000Y-105225000D01*
X147950000Y-105475000D01*
X147950000Y-105475000D01*
G37*
G36*
X152750000Y-105475000D02*
X152050000Y-105475000D01*
X152050000Y-105225000D01*
X152750000Y-105225000D01*
X152750000Y-105475000D01*
X152750000Y-105475000D01*
G37*
G36*
X152750000Y-104975000D02*
X152050000Y-104975000D01*
X152050000Y-104725000D01*
X152750000Y-104725000D01*
X152750000Y-104975000D01*
X152750000Y-104975000D01*
G37*
G36*
X147950000Y-104975000D02*
X147250000Y-104975000D01*
X147250000Y-104725000D01*
X147950000Y-104725000D01*
X147950000Y-104975000D01*
X147950000Y-104975000D01*
G37*
G36*
X147950000Y-104475000D02*
X147250000Y-104475000D01*
X147250000Y-104225000D01*
X147950000Y-104225000D01*
X147950000Y-104475000D01*
X147950000Y-104475000D01*
G37*
G36*
X152750000Y-104475000D02*
X152050000Y-104475000D01*
X152050000Y-104225000D01*
X152750000Y-104225000D01*
X152750000Y-104475000D01*
X152750000Y-104475000D01*
G37*
G36*
X147950000Y-103975000D02*
X147250000Y-103975000D01*
X147250000Y-103725000D01*
X147950000Y-103725000D01*
X147950000Y-103975000D01*
X147950000Y-103975000D01*
G37*
G36*
X152750000Y-103975000D02*
X152050000Y-103975000D01*
X152050000Y-103725000D01*
X152750000Y-103725000D01*
X152750000Y-103975000D01*
X152750000Y-103975000D01*
G37*
G36*
X152750000Y-103475000D02*
X152050000Y-103475000D01*
X152050000Y-103225000D01*
X152750000Y-103225000D01*
X152750000Y-103475000D01*
X152750000Y-103475000D01*
G37*
G36*
X147950000Y-103475000D02*
X147250000Y-103475000D01*
X147250000Y-103225000D01*
X147950000Y-103225000D01*
X147950000Y-103475000D01*
X147950000Y-103475000D01*
G37*
G36*
X147950000Y-102975000D02*
X147250000Y-102975000D01*
X147250000Y-102725000D01*
X147950000Y-102725000D01*
X147950000Y-102975000D01*
X147950000Y-102975000D01*
G37*
G36*
X152750000Y-102975000D02*
X152050000Y-102975000D01*
X152050000Y-102725000D01*
X152750000Y-102725000D01*
X152750000Y-102975000D01*
X152750000Y-102975000D01*
G37*
G36*
X149375000Y-102550000D02*
X149125000Y-102550000D01*
X149125000Y-101850000D01*
X149375000Y-101850000D01*
X149375000Y-102550000D01*
X149375000Y-102550000D01*
G37*
G36*
X151875000Y-102550000D02*
X151625000Y-102550000D01*
X151625000Y-101850000D01*
X151875000Y-101850000D01*
X151875000Y-102550000D01*
X151875000Y-102550000D01*
G37*
G36*
X151375000Y-102550000D02*
X151125000Y-102550000D01*
X151125000Y-101850000D01*
X151375000Y-101850000D01*
X151375000Y-102550000D01*
X151375000Y-102550000D01*
G37*
G36*
X150875000Y-102550000D02*
X150625000Y-102550000D01*
X150625000Y-101850000D01*
X150875000Y-101850000D01*
X150875000Y-102550000D01*
X150875000Y-102550000D01*
G37*
G36*
X150375000Y-102550000D02*
X150125000Y-102550000D01*
X150125000Y-101850000D01*
X150375000Y-101850000D01*
X150375000Y-102550000D01*
X150375000Y-102550000D01*
G37*
G36*
X149875000Y-102550000D02*
X149625000Y-102550000D01*
X149625000Y-101850000D01*
X149875000Y-101850000D01*
X149875000Y-102550000D01*
X149875000Y-102550000D01*
G37*
G36*
X148875000Y-102550000D02*
X148625000Y-102550000D01*
X148625000Y-101850000D01*
X148875000Y-101850000D01*
X148875000Y-102550000D01*
X148875000Y-102550000D01*
G37*
G36*
X148375000Y-102550000D02*
X148125000Y-102550000D01*
X148125000Y-101850000D01*
X148375000Y-101850000D01*
X148375000Y-102550000D01*
X148375000Y-102550000D01*
G37*
G36*
X156704507Y-101179378D02*
X155643846Y-102240039D01*
X154759961Y-101356154D01*
X155820622Y-100295493D01*
X156704507Y-101179378D01*
X156704507Y-101179378D01*
G37*
G36*
X146425000Y-101350001D02*
X145175000Y-101350001D01*
X145175000Y-99850001D01*
X146425000Y-99850001D01*
X146425000Y-101350001D01*
X146425000Y-101350001D01*
G37*
G36*
X155204507Y-99679378D02*
X154143846Y-100740039D01*
X153259961Y-99856154D01*
X154320622Y-98795493D01*
X155204507Y-99679378D01*
X155204507Y-99679378D01*
G37*
G36*
X158472273Y-99411612D02*
X157411612Y-100472273D01*
X156527727Y-99588388D01*
X157588388Y-98527727D01*
X158472273Y-99411612D01*
X158472273Y-99411612D01*
G37*
G36*
X170278775Y-98150498D02*
X170422856Y-98180073D01*
X170558444Y-98237069D01*
X170680382Y-98319317D01*
X170784023Y-98423685D01*
X170865419Y-98546194D01*
X170921464Y-98682173D01*
X170949966Y-98826115D01*
X170949966Y-98826125D01*
X170950032Y-98826459D01*
X170947686Y-98994455D01*
X170947610Y-98994789D01*
X170947610Y-98994801D01*
X170915104Y-99137881D01*
X170855279Y-99272250D01*
X170770496Y-99392437D01*
X170663978Y-99493872D01*
X170539796Y-99572680D01*
X170402666Y-99625869D01*
X170257819Y-99651410D01*
X170110769Y-99648330D01*
X169967111Y-99616745D01*
X169832338Y-99557864D01*
X169711554Y-99473917D01*
X169609383Y-99368115D01*
X169529709Y-99244486D01*
X169475564Y-99107731D01*
X169449012Y-98963059D01*
X169451066Y-98815992D01*
X169481645Y-98672127D01*
X169539587Y-98536937D01*
X169622687Y-98415574D01*
X169727773Y-98312665D01*
X169850844Y-98232130D01*
X169987221Y-98177030D01*
X170131693Y-98149470D01*
X170278775Y-98150498D01*
X170278775Y-98150498D01*
G37*
G36*
X132450000Y-99350000D02*
X131550000Y-99350000D01*
X131550000Y-98550000D01*
X132450000Y-98550000D01*
X132450000Y-99350000D01*
X132450000Y-99350000D01*
G37*
G36*
X161650000Y-99100000D02*
X160350000Y-99100000D01*
X160350000Y-97600000D01*
X161650000Y-97600000D01*
X161650000Y-99100000D01*
X161650000Y-99100000D01*
G37*
G36*
X128650000Y-99100000D02*
X127350000Y-99100000D01*
X127350000Y-97600000D01*
X128650000Y-97600000D01*
X128650000Y-99100000D01*
X128650000Y-99100000D01*
G37*
G36*
X156972273Y-97911612D02*
X155911612Y-98972273D01*
X155027727Y-98088388D01*
X156088388Y-97027727D01*
X156972273Y-97911612D01*
X156972273Y-97911612D01*
G37*
G36*
X146425000Y-98850001D02*
X145175000Y-98850001D01*
X145175000Y-97350001D01*
X146425000Y-97350001D01*
X146425000Y-98850001D01*
X146425000Y-98850001D01*
G37*
G36*
X134450000Y-98400000D02*
X133550000Y-98400000D01*
X133550000Y-97600000D01*
X134450000Y-97600000D01*
X134450000Y-98400000D01*
X134450000Y-98400000D01*
G37*
G36*
X174203775Y-96550498D02*
X174347856Y-96580073D01*
X174483444Y-96637069D01*
X174605382Y-96719317D01*
X174709023Y-96823685D01*
X174790419Y-96946194D01*
X174846464Y-97082173D01*
X174874966Y-97226115D01*
X174874966Y-97226125D01*
X174875032Y-97226459D01*
X174872686Y-97394455D01*
X174872610Y-97394789D01*
X174872610Y-97394801D01*
X174840104Y-97537881D01*
X174780279Y-97672250D01*
X174695496Y-97792437D01*
X174588978Y-97893872D01*
X174464796Y-97972680D01*
X174327666Y-98025869D01*
X174182819Y-98051410D01*
X174035769Y-98048330D01*
X173892111Y-98016745D01*
X173757338Y-97957864D01*
X173636554Y-97873917D01*
X173534383Y-97768115D01*
X173454709Y-97644486D01*
X173400564Y-97507731D01*
X173374012Y-97363059D01*
X173376066Y-97215992D01*
X173406645Y-97072127D01*
X173464587Y-96936937D01*
X173547687Y-96815574D01*
X173652773Y-96712665D01*
X173775844Y-96632130D01*
X173912221Y-96577030D01*
X174056693Y-96549470D01*
X174203775Y-96550498D01*
X174203775Y-96550498D01*
G37*
G36*
X140900000Y-97650000D02*
X139400000Y-97650000D01*
X139400000Y-96350000D01*
X140900000Y-96350000D01*
X140900000Y-97650000D01*
X140900000Y-97650000D01*
G37*
G36*
X143600000Y-97650000D02*
X142100000Y-97650000D01*
X142100000Y-96350000D01*
X143600000Y-96350000D01*
X143600000Y-97650000D01*
X143600000Y-97650000D01*
G37*
G36*
X132450000Y-97450000D02*
X131550000Y-97450000D01*
X131550000Y-96650000D01*
X132450000Y-96650000D01*
X132450000Y-97450000D01*
X132450000Y-97450000D01*
G37*
G36*
X115828775Y-95250498D02*
X115972856Y-95280073D01*
X116108444Y-95337069D01*
X116230382Y-95419317D01*
X116334023Y-95523685D01*
X116415419Y-95646194D01*
X116471464Y-95782173D01*
X116499966Y-95926115D01*
X116499966Y-95926125D01*
X116500032Y-95926459D01*
X116497686Y-96094455D01*
X116497610Y-96094789D01*
X116497610Y-96094801D01*
X116465104Y-96237881D01*
X116405279Y-96372250D01*
X116320496Y-96492437D01*
X116213978Y-96593872D01*
X116089796Y-96672680D01*
X115952666Y-96725869D01*
X115807819Y-96751410D01*
X115660769Y-96748330D01*
X115517111Y-96716745D01*
X115382338Y-96657864D01*
X115261554Y-96573917D01*
X115159383Y-96468115D01*
X115079709Y-96344486D01*
X115025564Y-96207731D01*
X114999012Y-96063059D01*
X115001066Y-95915992D01*
X115031645Y-95772127D01*
X115089587Y-95636937D01*
X115172687Y-95515574D01*
X115277773Y-95412665D01*
X115400844Y-95332130D01*
X115537221Y-95277030D01*
X115681693Y-95249470D01*
X115828775Y-95250498D01*
X115828775Y-95250498D01*
G37*
G36*
X148249999Y-96625001D02*
X146749999Y-96625001D01*
X146749999Y-95375001D01*
X148249999Y-95375001D01*
X148249999Y-96625001D01*
X148249999Y-96625001D01*
G37*
G36*
X150749999Y-96625001D02*
X149249999Y-96625001D01*
X149249999Y-95375001D01*
X150749999Y-95375001D01*
X150749999Y-96625001D01*
X150749999Y-96625001D01*
G37*
G36*
X125000000Y-96625000D02*
X123500000Y-96625000D01*
X123500000Y-95375000D01*
X125000000Y-95375000D01*
X125000000Y-96625000D01*
X125000000Y-96625000D01*
G37*
G36*
X122500000Y-96625000D02*
X121000000Y-96625000D01*
X121000000Y-95375000D01*
X122500000Y-95375000D01*
X122500000Y-96625000D01*
X122500000Y-96625000D01*
G37*
G36*
X128650000Y-96400000D02*
X127350000Y-96400000D01*
X127350000Y-94900000D01*
X128650000Y-94900000D01*
X128650000Y-96400000D01*
X128650000Y-96400000D01*
G37*
G36*
X161650000Y-96400000D02*
X160350000Y-96400000D01*
X160350000Y-94900000D01*
X161650000Y-94900000D01*
X161650000Y-96400000D01*
X161650000Y-96400000D01*
G37*
G36*
X177105034Y-93990664D02*
X177297141Y-94030098D01*
X177477925Y-94106093D01*
X177640509Y-94215756D01*
X177778697Y-94354913D01*
X177887223Y-94518256D01*
X177961954Y-94699567D01*
X177999978Y-94891601D01*
X177999978Y-94891616D01*
X178000043Y-94891945D01*
X177996916Y-95115940D01*
X177996839Y-95116278D01*
X177996839Y-95116286D01*
X177953471Y-95307175D01*
X177873705Y-95486333D01*
X177760661Y-95646583D01*
X177618639Y-95781828D01*
X177453061Y-95886906D01*
X177270221Y-95957827D01*
X177077093Y-95991879D01*
X176881025Y-95987773D01*
X176689485Y-95945660D01*
X176509779Y-95867147D01*
X176348742Y-95755225D01*
X176212511Y-95614153D01*
X176106279Y-95449313D01*
X176034085Y-95266974D01*
X175998682Y-95074080D01*
X176001421Y-94877990D01*
X176042194Y-94686168D01*
X176119451Y-94505914D01*
X176230247Y-94344101D01*
X176370364Y-94206887D01*
X176534461Y-94099505D01*
X176716292Y-94026041D01*
X176908925Y-93989294D01*
X177105034Y-93990664D01*
X177105034Y-93990664D01*
G37*
G36*
X190287814Y-92612590D02*
X190113423Y-95106501D01*
X188916346Y-95022794D01*
X188926472Y-94877992D01*
X189090737Y-92528883D01*
X190287814Y-92612590D01*
X190287814Y-92612590D01*
G37*
G36*
X168850000Y-95075000D02*
X167350000Y-95075000D01*
X167350000Y-93825000D01*
X168850000Y-93825000D01*
X168850000Y-95075000D01*
X168850000Y-95075000D01*
G37*
G36*
X166350000Y-95075000D02*
X164850000Y-95075000D01*
X164850000Y-93825000D01*
X166350000Y-93825000D01*
X166350000Y-95075000D01*
X166350000Y-95075000D01*
G37*
G36*
X187793904Y-92438199D02*
X187793904Y-92438200D01*
X187619513Y-94932110D01*
X186422436Y-94848403D01*
X186433781Y-94686168D01*
X186596827Y-92354492D01*
X187793904Y-92438199D01*
X187793904Y-92438199D01*
G37*
G36*
X111800000Y-94900000D02*
X110250000Y-94900000D01*
X110250000Y-93600000D01*
X111800000Y-93600000D01*
X111800000Y-94900000D01*
X111800000Y-94900000D01*
G37*
G36*
X119750000Y-94900000D02*
X118200000Y-94900000D01*
X118200000Y-93600000D01*
X119750000Y-93600000D01*
X119750000Y-94900000D01*
X119750000Y-94900000D01*
G37*
G36*
X185299994Y-92263808D02*
X185299994Y-92263809D01*
X185176767Y-94026041D01*
X185125603Y-94757719D01*
X183928526Y-94674012D01*
X183939418Y-94518256D01*
X184102917Y-92180101D01*
X185299994Y-92263808D01*
X185299994Y-92263808D01*
G37*
G36*
X133000000Y-93850000D02*
X131000000Y-93850000D01*
X131000000Y-92150000D01*
X133000000Y-92150000D01*
X133000000Y-93850000D01*
X133000000Y-93850000D01*
G37*
G36*
X129000000Y-93850000D02*
X127000000Y-93850000D01*
X127000000Y-92150000D01*
X129000000Y-92150000D01*
X129000000Y-93850000D01*
X129000000Y-93850000D01*
G37*
G36*
X125450000Y-93350000D02*
X124550000Y-93350000D01*
X124550000Y-92550000D01*
X125450000Y-92550000D01*
X125450000Y-93350000D01*
X125450000Y-93350000D01*
G37*
G36*
X181450001Y-93250000D02*
X180849999Y-93250000D01*
X180349999Y-92250000D01*
X181950001Y-92250000D01*
X181450001Y-93250000D01*
X181450001Y-93250000D01*
G37*
G36*
X152120000Y-93100000D02*
X151880000Y-93100000D01*
X151880000Y-92300000D01*
X152120000Y-92300000D01*
X152120000Y-93100000D01*
X152120000Y-93100000D01*
G37*
G36*
X148120000Y-93100000D02*
X147880000Y-93100000D01*
X147880000Y-92300000D01*
X148120000Y-92300000D01*
X148120000Y-93100000D01*
X148120000Y-93100000D01*
G37*
G36*
X148520000Y-93000000D02*
X148280000Y-93000000D01*
X148280000Y-92200000D01*
X148520000Y-92200000D01*
X148520000Y-93000000D01*
X148520000Y-93000000D01*
G37*
G36*
X148920000Y-93000000D02*
X148680000Y-93000000D01*
X148680000Y-92200000D01*
X148920000Y-92200000D01*
X148920000Y-93000000D01*
X148920000Y-93000000D01*
G37*
G36*
X149320000Y-93000000D02*
X149080000Y-93000000D01*
X149080000Y-92200000D01*
X149320000Y-92200000D01*
X149320000Y-93000000D01*
X149320000Y-93000000D01*
G37*
G36*
X149720000Y-93000000D02*
X149480000Y-93000000D01*
X149480000Y-92200000D01*
X149720000Y-92200000D01*
X149720000Y-93000000D01*
X149720000Y-93000000D01*
G37*
G36*
X151720000Y-93000000D02*
X151480000Y-93000000D01*
X151480000Y-92200000D01*
X151720000Y-92200000D01*
X151720000Y-93000000D01*
X151720000Y-93000000D01*
G37*
G36*
X151320000Y-93000000D02*
X151080000Y-93000000D01*
X151080000Y-92200000D01*
X151320000Y-92200000D01*
X151320000Y-93000000D01*
X151320000Y-93000000D01*
G37*
G36*
X150120000Y-93000000D02*
X149880000Y-93000000D01*
X149880000Y-92200000D01*
X150120000Y-92200000D01*
X150120000Y-93000000D01*
X150120000Y-93000000D01*
G37*
G36*
X150520000Y-93000000D02*
X150280000Y-93000000D01*
X150280000Y-92200000D01*
X150520000Y-92200000D01*
X150520000Y-93000000D01*
X150520000Y-93000000D01*
G37*
G36*
X150920000Y-93000000D02*
X150680000Y-93000000D01*
X150680000Y-92200000D01*
X150920000Y-92200000D01*
X150920000Y-93000000D01*
X150920000Y-93000000D01*
G37*
G36*
X166300000Y-92800000D02*
X164800000Y-92800000D01*
X164800000Y-91500000D01*
X166300000Y-91500000D01*
X166300000Y-92800000D01*
X166300000Y-92800000D01*
G37*
G36*
X169000000Y-92800000D02*
X167500000Y-92800000D01*
X167500000Y-91500000D01*
X169000000Y-91500000D01*
X169000000Y-92800000D01*
X169000000Y-92800000D01*
G37*
G36*
X123450000Y-92400000D02*
X122550000Y-92400000D01*
X122550000Y-91600000D01*
X123450000Y-91600000D01*
X123450000Y-92400000D01*
X123450000Y-92400000D01*
G37*
G36*
X153100000Y-92120000D02*
X152300000Y-92120000D01*
X152300000Y-91880000D01*
X153100000Y-91880000D01*
X153100000Y-92120000D01*
X153100000Y-92120000D01*
G37*
G36*
X147650000Y-92120000D02*
X146950000Y-92120000D01*
X146950000Y-91880000D01*
X147650000Y-91880000D01*
X147650000Y-92120000D01*
X147650000Y-92120000D01*
G37*
G36*
X181950000Y-92050000D02*
X180350000Y-92050000D01*
X180850000Y-91050000D01*
X181450000Y-91050000D01*
X181950000Y-92050000D01*
X181950000Y-92050000D01*
G37*
G36*
X153000000Y-91720000D02*
X152200000Y-91720000D01*
X152200000Y-91480000D01*
X153000000Y-91480000D01*
X153000000Y-91720000D01*
X153000000Y-91720000D01*
G37*
G36*
X147800000Y-91720000D02*
X147000000Y-91720000D01*
X147000000Y-91480000D01*
X147800000Y-91480000D01*
X147800000Y-91720000D01*
X147800000Y-91720000D01*
G37*
G36*
X190738983Y-90687470D02*
X190825432Y-90705216D01*
X190906784Y-90739413D01*
X190979950Y-90788764D01*
X191042133Y-90851382D01*
X191090968Y-90924886D01*
X191124598Y-91006477D01*
X191141671Y-91092702D01*
X191141671Y-91092713D01*
X191141737Y-91093047D01*
X191140329Y-91193845D01*
X191140253Y-91194179D01*
X191140253Y-91194191D01*
X191120781Y-91279900D01*
X191084886Y-91360522D01*
X191034017Y-91432634D01*
X190970107Y-91493494D01*
X190895592Y-91540782D01*
X190813317Y-91572695D01*
X190726411Y-91588018D01*
X190638181Y-91586171D01*
X190551983Y-91567219D01*
X190471118Y-91531890D01*
X190398653Y-91481525D01*
X190337348Y-91418041D01*
X190289542Y-91343863D01*
X190257056Y-91261811D01*
X190241124Y-91175006D01*
X190242357Y-91086767D01*
X190260704Y-91000449D01*
X190295471Y-90919333D01*
X190345329Y-90846517D01*
X190408382Y-90784770D01*
X190482225Y-90736448D01*
X190564049Y-90703389D01*
X190650732Y-90686854D01*
X190738983Y-90687470D01*
X190738983Y-90687470D01*
G37*
G36*
X125450000Y-91450000D02*
X124550000Y-91450000D01*
X124550000Y-90650000D01*
X125450000Y-90650000D01*
X125450000Y-91450000D01*
X125450000Y-91450000D01*
G37*
G36*
X192678775Y-89850498D02*
X192822856Y-89880073D01*
X192958444Y-89937069D01*
X193080382Y-90019317D01*
X193184023Y-90123685D01*
X193265419Y-90246194D01*
X193321464Y-90382173D01*
X193349966Y-90526115D01*
X193349966Y-90526125D01*
X193350032Y-90526459D01*
X193347686Y-90694455D01*
X193347610Y-90694789D01*
X193347610Y-90694801D01*
X193315104Y-90837881D01*
X193255279Y-90972250D01*
X193170496Y-91092437D01*
X193063978Y-91193872D01*
X192939796Y-91272680D01*
X192802666Y-91325869D01*
X192657819Y-91351410D01*
X192510769Y-91348330D01*
X192367111Y-91316745D01*
X192232338Y-91257864D01*
X192111554Y-91173917D01*
X192009383Y-91068115D01*
X191929709Y-90944486D01*
X191875564Y-90807731D01*
X191849012Y-90663059D01*
X191851066Y-90515992D01*
X191881645Y-90372127D01*
X191939587Y-90236937D01*
X192022687Y-90115574D01*
X192127773Y-90012665D01*
X192250844Y-89932130D01*
X192387221Y-89877030D01*
X192531693Y-89849470D01*
X192678775Y-89850498D01*
X192678775Y-89850498D01*
G37*
G36*
X170450000Y-91350000D02*
X169550000Y-91350000D01*
X169550000Y-90550000D01*
X170450000Y-90550000D01*
X170450000Y-91350000D01*
X170450000Y-91350000D01*
G37*
G36*
X153000000Y-91320000D02*
X152200000Y-91320000D01*
X152200000Y-91080000D01*
X153000000Y-91080000D01*
X153000000Y-91320000D01*
X153000000Y-91320000D01*
G37*
G36*
X147800000Y-91320000D02*
X147000000Y-91320000D01*
X147000000Y-91080000D01*
X147800000Y-91080000D01*
X147800000Y-91320000D01*
X147800000Y-91320000D01*
G37*
G36*
X151275000Y-91275000D02*
X148725000Y-91275000D01*
X148725000Y-88725000D01*
X151275000Y-88725000D01*
X151275000Y-91275000D01*
X151275000Y-91275000D01*
G37*
G36*
X183955547Y-90213126D02*
X184041996Y-90230872D01*
X184123348Y-90265069D01*
X184196514Y-90314420D01*
X184258697Y-90377038D01*
X184307532Y-90450542D01*
X184341162Y-90532133D01*
X184358235Y-90618358D01*
X184358235Y-90618369D01*
X184358301Y-90618703D01*
X184356893Y-90719501D01*
X184356817Y-90719835D01*
X184356817Y-90719847D01*
X184337345Y-90805556D01*
X184301450Y-90886178D01*
X184250581Y-90958290D01*
X184186671Y-91019150D01*
X184112156Y-91066438D01*
X184029881Y-91098351D01*
X183942975Y-91113674D01*
X183854745Y-91111827D01*
X183768547Y-91092875D01*
X183687682Y-91057546D01*
X183615217Y-91007181D01*
X183553912Y-90943697D01*
X183506106Y-90869519D01*
X183473620Y-90787467D01*
X183457688Y-90700662D01*
X183458921Y-90612423D01*
X183477268Y-90526105D01*
X183512035Y-90444989D01*
X183561893Y-90372173D01*
X183624946Y-90310426D01*
X183698789Y-90262104D01*
X183780613Y-90229045D01*
X183867296Y-90212510D01*
X183955547Y-90213126D01*
X183955547Y-90213126D01*
G37*
G36*
X153000000Y-90920000D02*
X152200000Y-90920000D01*
X152200000Y-90680000D01*
X153000000Y-90680000D01*
X153000000Y-90920000D01*
X153000000Y-90920000D01*
G37*
G36*
X147800000Y-90920000D02*
X147000000Y-90920000D01*
X147000000Y-90680000D01*
X147800000Y-90680000D01*
X147800000Y-90920000D01*
X147800000Y-90920000D01*
G37*
G36*
X127750000Y-90650000D02*
X126250000Y-90650000D01*
X126250000Y-89350000D01*
X127750000Y-89350000D01*
X127750000Y-90650000D01*
X127750000Y-90650000D01*
G37*
G36*
X130450000Y-90650000D02*
X128950000Y-90650000D01*
X128950000Y-89350000D01*
X130450000Y-89350000D01*
X130450000Y-90650000D01*
X130450000Y-90650000D01*
G37*
G36*
X147800000Y-90520000D02*
X147000000Y-90520000D01*
X147000000Y-90280000D01*
X147800000Y-90280000D01*
X147800000Y-90520000D01*
X147800000Y-90520000D01*
G37*
G36*
X153000000Y-90520000D02*
X152200000Y-90520000D01*
X152200000Y-90280000D01*
X153000000Y-90280000D01*
X153000000Y-90520000D01*
X153000000Y-90520000D01*
G37*
G36*
X172450000Y-90400000D02*
X171550000Y-90400000D01*
X171550000Y-89600000D01*
X172450000Y-89600000D01*
X172450000Y-90400000D01*
X172450000Y-90400000D01*
G37*
G36*
X111800000Y-90400000D02*
X110250000Y-90400000D01*
X110250000Y-89100000D01*
X111800000Y-89100000D01*
X111800000Y-90400000D01*
X111800000Y-90400000D01*
G37*
G36*
X119750000Y-90400000D02*
X118200000Y-90400000D01*
X118200000Y-89100000D01*
X119750000Y-89100000D01*
X119750000Y-90400000D01*
X119750000Y-90400000D01*
G37*
G36*
X147800000Y-90120000D02*
X147000000Y-90120000D01*
X147000000Y-89880000D01*
X147800000Y-89880000D01*
X147800000Y-90120000D01*
X147800000Y-90120000D01*
G37*
G36*
X153000000Y-90120000D02*
X152200000Y-90120000D01*
X152200000Y-89880000D01*
X153000000Y-89880000D01*
X153000000Y-90120000D01*
X153000000Y-90120000D01*
G37*
G36*
X168000000Y-89850000D02*
X166000000Y-89850000D01*
X166000000Y-88150000D01*
X168000000Y-88150000D01*
X168000000Y-89850000D01*
X168000000Y-89850000D01*
G37*
G36*
X164000000Y-89850000D02*
X162000000Y-89850000D01*
X162000000Y-88150000D01*
X164000000Y-88150000D01*
X164000000Y-89850000D01*
X164000000Y-89850000D01*
G37*
G36*
X153000000Y-89720000D02*
X152200000Y-89720000D01*
X152200000Y-89480000D01*
X153000000Y-89480000D01*
X153000000Y-89720000D01*
X153000000Y-89720000D01*
G37*
G36*
X147800000Y-89720000D02*
X147000000Y-89720000D01*
X147000000Y-89480000D01*
X147800000Y-89480000D01*
X147800000Y-89720000D01*
X147800000Y-89720000D01*
G37*
G36*
X170450000Y-89450000D02*
X169550000Y-89450000D01*
X169550000Y-88650000D01*
X170450000Y-88650000D01*
X170450000Y-89450000D01*
X170450000Y-89450000D01*
G37*
G36*
X125378775Y-87850498D02*
X125522856Y-87880073D01*
X125658444Y-87937069D01*
X125780382Y-88019317D01*
X125884023Y-88123685D01*
X125965419Y-88246194D01*
X126021464Y-88382173D01*
X126049966Y-88526115D01*
X126049966Y-88526125D01*
X126050032Y-88526459D01*
X126047686Y-88694455D01*
X126047610Y-88694789D01*
X126047610Y-88694801D01*
X126015104Y-88837881D01*
X125955279Y-88972250D01*
X125870496Y-89092437D01*
X125763978Y-89193872D01*
X125639796Y-89272680D01*
X125502666Y-89325869D01*
X125357819Y-89351410D01*
X125210769Y-89348330D01*
X125067111Y-89316745D01*
X124932338Y-89257864D01*
X124811554Y-89173917D01*
X124709383Y-89068115D01*
X124629709Y-88944486D01*
X124575564Y-88807731D01*
X124549012Y-88663059D01*
X124551066Y-88515992D01*
X124581645Y-88372127D01*
X124639587Y-88236937D01*
X124722687Y-88115574D01*
X124827773Y-88012665D01*
X124950844Y-87932130D01*
X125087221Y-87877030D01*
X125231693Y-87849470D01*
X125378775Y-87850498D01*
X125378775Y-87850498D01*
G37*
G36*
X153000000Y-89320000D02*
X152200000Y-89320000D01*
X152200000Y-89080000D01*
X153000000Y-89080000D01*
X153000000Y-89320000D01*
X153000000Y-89320000D01*
G37*
G36*
X147800000Y-89320000D02*
X147000000Y-89320000D01*
X147000000Y-89080000D01*
X147800000Y-89080000D01*
X147800000Y-89320000D01*
X147800000Y-89320000D01*
G37*
G36*
X147800000Y-88920000D02*
X147000000Y-88920000D01*
X147000000Y-88680000D01*
X147800000Y-88680000D01*
X147800000Y-88920000D01*
X147800000Y-88920000D01*
G37*
G36*
X153000000Y-88920000D02*
X152200000Y-88920000D01*
X152200000Y-88680000D01*
X153000000Y-88680000D01*
X153000000Y-88920000D01*
X153000000Y-88920000D01*
G37*
G36*
X147800000Y-88520000D02*
X147000000Y-88520000D01*
X147000000Y-88280000D01*
X147800000Y-88280000D01*
X147800000Y-88520000D01*
X147800000Y-88520000D01*
G37*
G36*
X153000000Y-88520000D02*
X152200000Y-88520000D01*
X152200000Y-88280000D01*
X153000000Y-88280000D01*
X153000000Y-88520000D01*
X153000000Y-88520000D01*
G37*
G36*
X147700000Y-88120000D02*
X146900000Y-88120000D01*
X146900000Y-87880000D01*
X147700000Y-87880000D01*
X147700000Y-88120000D01*
X147700000Y-88120000D01*
G37*
G36*
X153100000Y-88120000D02*
X152300000Y-88120000D01*
X152300000Y-87880000D01*
X153100000Y-87880000D01*
X153100000Y-88120000D01*
X153100000Y-88120000D01*
G37*
G36*
X148520000Y-87800000D02*
X148280000Y-87800000D01*
X148280000Y-87000000D01*
X148520000Y-87000000D01*
X148520000Y-87800000D01*
X148520000Y-87800000D01*
G37*
G36*
X148920000Y-87800000D02*
X148680000Y-87800000D01*
X148680000Y-87000000D01*
X148920000Y-87000000D01*
X148920000Y-87800000D01*
X148920000Y-87800000D01*
G37*
G36*
X149320000Y-87800000D02*
X149080000Y-87800000D01*
X149080000Y-87000000D01*
X149320000Y-87000000D01*
X149320000Y-87800000D01*
X149320000Y-87800000D01*
G37*
G36*
X149720000Y-87800000D02*
X149480000Y-87800000D01*
X149480000Y-87000000D01*
X149720000Y-87000000D01*
X149720000Y-87800000D01*
X149720000Y-87800000D01*
G37*
G36*
X150120000Y-87800000D02*
X149880000Y-87800000D01*
X149880000Y-87000000D01*
X150120000Y-87000000D01*
X150120000Y-87800000D01*
X150120000Y-87800000D01*
G37*
G36*
X150520000Y-87800000D02*
X150280000Y-87800000D01*
X150280000Y-87000000D01*
X150520000Y-87000000D01*
X150520000Y-87800000D01*
X150520000Y-87800000D01*
G37*
G36*
X150920000Y-87800000D02*
X150680000Y-87800000D01*
X150680000Y-87000000D01*
X150920000Y-87000000D01*
X150920000Y-87800000D01*
X150920000Y-87800000D01*
G37*
G36*
X151320000Y-87800000D02*
X151080000Y-87800000D01*
X151080000Y-87000000D01*
X151320000Y-87000000D01*
X151320000Y-87800000D01*
X151320000Y-87800000D01*
G37*
G36*
X151720000Y-87800000D02*
X151480000Y-87800000D01*
X151480000Y-87000000D01*
X151720000Y-87000000D01*
X151720000Y-87800000D01*
X151720000Y-87800000D01*
G37*
G36*
X152120000Y-87700000D02*
X151880000Y-87700000D01*
X151880000Y-86900000D01*
X152120000Y-86900000D01*
X152120000Y-87700000D01*
X152120000Y-87700000D01*
G37*
G36*
X148120000Y-87700000D02*
X147880000Y-87700000D01*
X147880000Y-86900000D01*
X148120000Y-86900000D01*
X148120000Y-87700000D01*
X148120000Y-87700000D01*
G37*
G36*
X168039231Y-82200001D02*
X169068782Y-83983236D01*
X169068782Y-83983237D01*
X168375962Y-84383237D01*
X167615209Y-83065574D01*
X167025962Y-82044968D01*
X167025962Y-82044967D01*
X167718782Y-81644967D01*
X168039231Y-82200001D01*
X168039231Y-82200001D01*
G37*
G36*
X174728775Y-82800498D02*
X174872856Y-82830073D01*
X175008444Y-82887069D01*
X175130382Y-82969317D01*
X175234023Y-83073685D01*
X175315419Y-83196194D01*
X175371464Y-83332173D01*
X175399966Y-83476115D01*
X175399966Y-83476125D01*
X175400032Y-83476459D01*
X175397686Y-83644455D01*
X175397610Y-83644789D01*
X175397610Y-83644801D01*
X175365104Y-83787881D01*
X175305279Y-83922250D01*
X175220496Y-84042437D01*
X175113978Y-84143872D01*
X174989796Y-84222680D01*
X174852666Y-84275869D01*
X174707819Y-84301410D01*
X174560769Y-84298330D01*
X174417111Y-84266745D01*
X174282338Y-84207864D01*
X174161554Y-84123917D01*
X174059383Y-84018115D01*
X173979709Y-83894486D01*
X173925564Y-83757731D01*
X173899012Y-83613059D01*
X173901066Y-83465992D01*
X173931645Y-83322127D01*
X173989587Y-83186937D01*
X174072687Y-83065574D01*
X174177773Y-82962665D01*
X174300844Y-82882130D01*
X174437221Y-82827030D01*
X174581693Y-82799470D01*
X174728775Y-82800498D01*
X174728775Y-82800498D01*
G37*
G36*
X149525000Y-83700001D02*
X148275000Y-83700001D01*
X148275000Y-82200001D01*
X149525000Y-82200001D01*
X149525000Y-83700001D01*
X149525000Y-83700001D01*
G37*
G36*
X169887835Y-81001877D02*
X170974038Y-82883236D01*
X170974038Y-82883237D01*
X170281218Y-83283237D01*
X169566303Y-82044967D01*
X168931218Y-80944968D01*
X168931218Y-80944967D01*
X169624038Y-80544967D01*
X169887835Y-81001877D01*
X169887835Y-81001877D01*
G37*
G36*
X182990769Y-81169626D02*
X181769169Y-81614253D01*
X181256139Y-80204714D01*
X182477739Y-79760087D01*
X182990769Y-81169626D01*
X182990769Y-81169626D01*
G37*
G36*
X149525000Y-81200001D02*
X148275000Y-81200001D01*
X148275000Y-79700001D01*
X149525000Y-79700001D01*
X149525000Y-81200001D01*
X149525000Y-81200001D01*
G37*
G36*
X177105034Y-79000664D02*
X177297141Y-79040098D01*
X177477925Y-79116093D01*
X177640509Y-79225756D01*
X177778697Y-79364913D01*
X177887223Y-79528256D01*
X177961954Y-79709567D01*
X177999978Y-79901601D01*
X177999978Y-79901616D01*
X178000043Y-79901945D01*
X177996916Y-80125940D01*
X177996839Y-80126278D01*
X177996839Y-80126286D01*
X177953471Y-80317175D01*
X177873705Y-80496333D01*
X177760661Y-80656583D01*
X177618639Y-80791828D01*
X177453061Y-80896906D01*
X177270221Y-80967827D01*
X177077093Y-81001879D01*
X176881025Y-80997773D01*
X176689485Y-80955660D01*
X176509779Y-80877147D01*
X176348742Y-80765225D01*
X176212511Y-80624153D01*
X176106279Y-80459313D01*
X176034085Y-80276974D01*
X175998682Y-80084080D01*
X176001421Y-79887990D01*
X176042194Y-79696168D01*
X176119451Y-79515914D01*
X176230247Y-79354101D01*
X176370364Y-79216887D01*
X176534461Y-79109505D01*
X176716292Y-79036041D01*
X176908925Y-78999294D01*
X177105034Y-79000664D01*
X177105034Y-79000664D01*
G37*
G36*
X129000001Y-80850000D02*
X127000001Y-80850000D01*
X127000001Y-79150000D01*
X129000001Y-79150000D01*
X129000001Y-80850000D01*
X129000001Y-80850000D01*
G37*
G36*
X125000001Y-80850000D02*
X123000001Y-80850000D01*
X123000001Y-79150000D01*
X125000001Y-79150000D01*
X125000001Y-80850000D01*
X125000001Y-80850000D01*
G37*
G36*
X166639685Y-79515915D02*
X166893866Y-79956169D01*
X166893866Y-79956170D01*
X165542866Y-80736170D01*
X165300960Y-80317176D01*
X165217866Y-80173253D01*
X165217866Y-80173252D01*
X166568866Y-79393252D01*
X166639685Y-79515915D01*
X166639685Y-79515915D01*
G37*
G36*
X166129620Y-78632456D02*
X166418866Y-79133445D01*
X166418866Y-79133446D01*
X165067866Y-79913446D01*
X164854885Y-79544551D01*
X164742866Y-79350529D01*
X164742866Y-79350528D01*
X166093866Y-78570528D01*
X166129620Y-78632456D01*
X166129620Y-78632456D01*
G37*
G36*
X174041266Y-78919551D02*
X172958734Y-79544551D01*
X172208734Y-78245513D01*
X173291266Y-77620513D01*
X174041266Y-78919551D01*
X174041266Y-78919551D01*
G37*
G36*
X169023909Y-78245513D02*
X169232134Y-78606169D01*
X169232134Y-78606170D01*
X167881134Y-79386170D01*
X167658564Y-79000666D01*
X167556134Y-78823253D01*
X167556134Y-78823252D01*
X168907134Y-78043252D01*
X169023909Y-78245513D01*
X169023909Y-78245513D01*
G37*
G36*
X121450000Y-79350000D02*
X120550000Y-79350000D01*
X120550000Y-78550000D01*
X121450000Y-78550000D01*
X121450000Y-79350000D01*
X121450000Y-79350000D01*
G37*
G36*
X165764776Y-78000528D02*
X165943866Y-78310721D01*
X165943866Y-78310722D01*
X164592866Y-79090722D01*
X164430366Y-78809263D01*
X164267866Y-78527805D01*
X164267866Y-78527804D01*
X165618866Y-77747804D01*
X165764776Y-78000528D01*
X165764776Y-78000528D01*
G37*
G36*
X182067315Y-78632456D02*
X180845715Y-79077083D01*
X180332685Y-77667544D01*
X181554285Y-77222917D01*
X182067315Y-78632456D01*
X182067315Y-78632456D01*
G37*
G36*
X168523909Y-77379487D02*
X168757134Y-77783445D01*
X168757134Y-77783446D01*
X167406134Y-78563446D01*
X167105801Y-78043253D01*
X167081134Y-78000529D01*
X167081134Y-78000528D01*
X168432134Y-77220528D01*
X168523909Y-77379487D01*
X168523909Y-77379487D01*
G37*
G36*
X119450000Y-78400000D02*
X118550000Y-78400000D01*
X118550000Y-77600000D01*
X119450000Y-77600000D01*
X119450000Y-78400000D01*
X119450000Y-78400000D01*
G37*
G36*
X168102739Y-76650000D02*
X168282134Y-76960721D01*
X168282134Y-76960722D01*
X166931134Y-77740722D01*
X166702405Y-77344551D01*
X166606134Y-77177805D01*
X166606134Y-77177804D01*
X167957134Y-76397804D01*
X168102739Y-76650000D01*
X168102739Y-76650000D01*
G37*
G36*
X126450000Y-77650000D02*
X124950000Y-77650000D01*
X124950000Y-76350000D01*
X126450000Y-76350000D01*
X126450000Y-77650000D01*
X126450000Y-77650000D01*
G37*
G36*
X123750000Y-77650000D02*
X122250000Y-77650000D01*
X122250000Y-76350000D01*
X123750000Y-76350000D01*
X123750000Y-77650000D01*
X123750000Y-77650000D01*
G37*
G36*
X121450000Y-77450000D02*
X120550000Y-77450000D01*
X120550000Y-76650000D01*
X121450000Y-76650000D01*
X121450000Y-77450000D01*
X121450000Y-77450000D01*
G37*
G36*
X172791266Y-76754487D02*
X171708734Y-77379487D01*
X170958734Y-76080449D01*
X172041266Y-75455449D01*
X172791266Y-76754487D01*
X172791266Y-76754487D01*
G37*
G36*
X175241266Y-76719551D02*
X174158734Y-77344551D01*
X173408734Y-76045513D01*
X174491266Y-75420513D01*
X175241266Y-76719551D01*
X175241266Y-76719551D01*
G37*
G36*
X176975258Y-75362917D02*
X175676220Y-76112917D01*
X175026220Y-74987083D01*
X176325258Y-74237083D01*
X176975258Y-75362917D01*
X176975258Y-75362917D01*
G37*
G36*
X130078775Y-74500498D02*
X130222856Y-74530073D01*
X130358444Y-74587069D01*
X130480382Y-74669317D01*
X130584023Y-74773685D01*
X130665419Y-74896194D01*
X130721464Y-75032173D01*
X130749966Y-75176115D01*
X130749966Y-75176125D01*
X130750032Y-75176459D01*
X130747686Y-75344455D01*
X130747610Y-75344789D01*
X130747610Y-75344801D01*
X130715104Y-75487881D01*
X130655279Y-75622250D01*
X130570496Y-75742437D01*
X130463978Y-75843872D01*
X130339796Y-75922680D01*
X130202666Y-75975869D01*
X130057819Y-76001410D01*
X129910769Y-75998330D01*
X129767111Y-75966745D01*
X129632338Y-75907864D01*
X129511554Y-75823917D01*
X129409383Y-75718115D01*
X129329709Y-75594486D01*
X129275564Y-75457731D01*
X129249012Y-75313059D01*
X129251066Y-75165992D01*
X129281645Y-75022127D01*
X129339587Y-74886937D01*
X129422687Y-74765574D01*
X129527773Y-74662665D01*
X129650844Y-74582130D01*
X129787221Y-74527030D01*
X129931693Y-74499470D01*
X130078775Y-74500498D01*
X130078775Y-74500498D01*
G37*
G36*
X124500000Y-75625000D02*
X123000000Y-75625000D01*
X123000000Y-74375000D01*
X124500000Y-74375000D01*
X124500000Y-75625000D01*
X124500000Y-75625000D01*
G37*
G36*
X127000000Y-75625000D02*
X125500000Y-75625000D01*
X125500000Y-74375000D01*
X127000000Y-74375000D01*
X127000000Y-75625000D01*
X127000000Y-75625000D01*
G37*
G36*
X173991266Y-74554487D02*
X172908734Y-75179487D01*
X172158734Y-73880449D01*
X173241266Y-73255449D01*
X173991266Y-74554487D01*
X173991266Y-74554487D01*
G37*
G36*
X179313526Y-74012917D02*
X178014488Y-74762917D01*
X177364488Y-73637083D01*
X178663526Y-72887083D01*
X179313526Y-74012917D01*
X179313526Y-74012917D01*
G37*
G36*
X195478775Y-72250498D02*
X195622856Y-72280073D01*
X195758444Y-72337069D01*
X195880382Y-72419317D01*
X195984023Y-72523685D01*
X196065419Y-72646194D01*
X196121464Y-72782173D01*
X196149966Y-72926115D01*
X196149966Y-72926125D01*
X196150032Y-72926459D01*
X196147686Y-73094455D01*
X196147610Y-73094789D01*
X196147610Y-73094801D01*
X196115104Y-73237881D01*
X196055279Y-73372250D01*
X195970496Y-73492437D01*
X195863978Y-73593872D01*
X195739796Y-73672680D01*
X195602666Y-73725869D01*
X195457819Y-73751410D01*
X195310769Y-73748330D01*
X195167111Y-73716745D01*
X195032338Y-73657864D01*
X194911554Y-73573917D01*
X194809383Y-73468115D01*
X194729709Y-73344486D01*
X194675564Y-73207731D01*
X194649012Y-73063059D01*
X194651066Y-72915992D01*
X194681645Y-72772127D01*
X194739587Y-72636937D01*
X194822687Y-72515574D01*
X194927773Y-72412665D01*
X195050844Y-72332130D01*
X195187221Y-72277030D01*
X195331693Y-72249470D01*
X195478775Y-72250498D01*
X195478775Y-72250498D01*
G37*
G36*
X181305385Y-72862917D02*
X180006347Y-73612917D01*
X179356347Y-72487083D01*
X180655385Y-71737083D01*
X181305385Y-72862917D01*
X181305385Y-72862917D01*
G37*
G36*
X160478775Y-72050498D02*
X160622856Y-72080073D01*
X160758444Y-72137069D01*
X160880382Y-72219317D01*
X160984023Y-72323685D01*
X161065419Y-72446194D01*
X161121464Y-72582173D01*
X161149966Y-72726115D01*
X161149966Y-72726125D01*
X161150032Y-72726459D01*
X161147686Y-72894455D01*
X161147610Y-72894789D01*
X161147610Y-72894801D01*
X161115104Y-73037881D01*
X161055279Y-73172250D01*
X160970496Y-73292437D01*
X160863978Y-73393872D01*
X160739796Y-73472680D01*
X160602666Y-73525869D01*
X160457819Y-73551410D01*
X160310769Y-73548330D01*
X160167111Y-73516745D01*
X160032338Y-73457864D01*
X159911554Y-73373917D01*
X159809383Y-73268115D01*
X159729709Y-73144486D01*
X159675564Y-73007731D01*
X159649012Y-72863059D01*
X159651066Y-72715992D01*
X159681645Y-72572127D01*
X159739587Y-72436937D01*
X159822687Y-72315574D01*
X159927773Y-72212665D01*
X160050844Y-72132130D01*
X160187221Y-72077030D01*
X160331693Y-72049470D01*
X160478775Y-72050498D01*
X160478775Y-72050498D01*
G37*
G36*
X119378775Y-71650498D02*
X119522856Y-71680073D01*
X119658444Y-71737069D01*
X119780382Y-71819317D01*
X119884023Y-71923685D01*
X119965419Y-72046194D01*
X120021464Y-72182173D01*
X120049966Y-72326115D01*
X120049966Y-72326125D01*
X120050032Y-72326459D01*
X120047686Y-72494455D01*
X120047610Y-72494789D01*
X120047610Y-72494801D01*
X120015104Y-72637881D01*
X119955279Y-72772250D01*
X119870496Y-72892437D01*
X119763978Y-72993872D01*
X119639796Y-73072680D01*
X119502666Y-73125869D01*
X119357819Y-73151410D01*
X119210769Y-73148330D01*
X119067111Y-73116745D01*
X118932338Y-73057864D01*
X118811554Y-72973917D01*
X118709383Y-72868115D01*
X118629709Y-72744486D01*
X118575564Y-72607731D01*
X118549012Y-72463059D01*
X118551066Y-72315992D01*
X118581645Y-72172127D01*
X118639587Y-72036937D01*
X118722687Y-71915574D01*
X118827773Y-71812665D01*
X118950844Y-71732130D01*
X119087221Y-71677030D01*
X119231693Y-71649470D01*
X119378775Y-71650498D01*
X119378775Y-71650498D01*
G37*
G36*
X156535356Y-71883883D02*
X155474695Y-72944544D01*
X154555456Y-72025305D01*
X155616117Y-70964644D01*
X156535356Y-71883883D01*
X156535356Y-71883883D01*
G37*
G36*
X153893934Y-71308148D02*
X152479720Y-72722362D01*
X151277638Y-71520280D01*
X152691852Y-70106066D01*
X153893934Y-71308148D01*
X153893934Y-71308148D01*
G37*
G36*
X183643653Y-71512917D02*
X182344615Y-72262917D01*
X181694615Y-71137083D01*
X182993653Y-70387083D01*
X183643653Y-71512917D01*
X183643653Y-71512917D01*
G37*
G36*
X158444544Y-69974695D02*
X157383883Y-71035356D01*
X156464644Y-70116117D01*
X157525305Y-69055456D01*
X158444544Y-69974695D01*
X158444544Y-69974695D01*
G37*
G36*
X196210068Y-67001330D02*
X196594280Y-67080198D01*
X196955850Y-67232188D01*
X197281017Y-67451515D01*
X197557391Y-67729826D01*
X197774443Y-68056514D01*
X197923905Y-68419137D01*
X198000020Y-68803546D01*
X198000020Y-68803556D01*
X198000086Y-68803890D01*
X197993830Y-69251879D01*
X197993754Y-69252213D01*
X197993754Y-69252225D01*
X197906938Y-69634351D01*
X197747406Y-69992664D01*
X197521318Y-70313165D01*
X197237279Y-70583651D01*
X196906120Y-70793810D01*
X196540442Y-70935649D01*
X196154183Y-71003756D01*
X195762048Y-70995543D01*
X195378971Y-70911317D01*
X195019559Y-70754294D01*
X194697488Y-70530448D01*
X194425026Y-70248306D01*
X194212559Y-69918623D01*
X194068173Y-69553945D01*
X193997368Y-69168163D01*
X194002846Y-68775981D01*
X194084391Y-68392337D01*
X194238905Y-68031829D01*
X194460496Y-67708204D01*
X194740729Y-67433779D01*
X195068924Y-67219014D01*
X195432584Y-67072086D01*
X195817854Y-66998592D01*
X196210068Y-67001330D01*
X196210068Y-67001330D01*
G37*
G36*
X104210068Y-67001330D02*
X104594280Y-67080198D01*
X104955850Y-67232188D01*
X105281017Y-67451515D01*
X105557391Y-67729826D01*
X105774443Y-68056514D01*
X105923905Y-68419137D01*
X106000020Y-68803546D01*
X106000020Y-68803556D01*
X106000086Y-68803890D01*
X105993830Y-69251879D01*
X105993754Y-69252213D01*
X105993754Y-69252225D01*
X105906938Y-69634351D01*
X105747406Y-69992664D01*
X105521318Y-70313165D01*
X105237279Y-70583651D01*
X104906120Y-70793810D01*
X104540442Y-70935649D01*
X104154183Y-71003756D01*
X103762048Y-70995543D01*
X103378971Y-70911317D01*
X103019559Y-70754294D01*
X102697488Y-70530448D01*
X102425026Y-70248306D01*
X102212559Y-69918623D01*
X102068173Y-69553945D01*
X101997368Y-69168163D01*
X102002846Y-68775981D01*
X102084391Y-68392337D01*
X102238905Y-68031829D01*
X102460496Y-67708204D01*
X102740729Y-67433779D01*
X103068924Y-67219014D01*
X103432584Y-67072086D01*
X103817854Y-66998592D01*
X104210068Y-67001330D01*
X104210068Y-67001330D01*
G37*
G36*
X150250001Y-71000000D02*
X149649999Y-71000000D01*
X149149999Y-70000000D01*
X150750001Y-70000000D01*
X150250001Y-71000000D01*
X150250001Y-71000000D01*
G37*
G36*
X191578775Y-69350498D02*
X191722856Y-69380073D01*
X191858444Y-69437069D01*
X191980382Y-69519317D01*
X192084023Y-69623685D01*
X192165419Y-69746194D01*
X192221464Y-69882173D01*
X192249966Y-70026115D01*
X192249966Y-70026125D01*
X192250032Y-70026459D01*
X192247686Y-70194455D01*
X192247610Y-70194789D01*
X192247610Y-70194801D01*
X192215104Y-70337881D01*
X192155279Y-70472250D01*
X192070496Y-70592437D01*
X191963978Y-70693872D01*
X191839796Y-70772680D01*
X191702666Y-70825869D01*
X191557819Y-70851410D01*
X191410769Y-70848330D01*
X191267111Y-70816745D01*
X191132338Y-70757864D01*
X191011554Y-70673917D01*
X190909383Y-70568115D01*
X190829709Y-70444486D01*
X190775564Y-70307731D01*
X190749012Y-70163059D01*
X190751066Y-70015992D01*
X190781645Y-69872127D01*
X190839587Y-69736937D01*
X190922687Y-69615574D01*
X191027773Y-69512665D01*
X191150844Y-69432130D01*
X191287221Y-69377030D01*
X191431693Y-69349470D01*
X191578775Y-69350498D01*
X191578775Y-69350498D01*
G37*
G36*
X146725000Y-70500000D02*
X145175000Y-70500000D01*
X145175000Y-69200000D01*
X146725000Y-69200000D01*
X146725000Y-70500000D01*
X146725000Y-70500000D01*
G37*
G36*
X138775000Y-70500000D02*
X137225000Y-70500000D01*
X137225000Y-69200000D01*
X138775000Y-69200000D01*
X138775000Y-70500000D01*
X138775000Y-70500000D01*
G37*
G36*
X156722362Y-68479720D02*
X155308148Y-69893934D01*
X154106066Y-68691852D01*
X155520280Y-67277638D01*
X156722362Y-68479720D01*
X156722362Y-68479720D01*
G37*
G36*
X150750000Y-69700000D02*
X149150000Y-69700000D01*
X149650000Y-68700000D01*
X150250000Y-68700000D01*
X150750000Y-69700000D01*
X150750000Y-69700000D01*
G37*
G36*
X189978775Y-68000498D02*
X190122856Y-68030073D01*
X190258444Y-68087069D01*
X190380382Y-68169317D01*
X190484023Y-68273685D01*
X190565419Y-68396194D01*
X190621464Y-68532173D01*
X190649966Y-68676115D01*
X190649966Y-68676125D01*
X190650032Y-68676459D01*
X190647686Y-68844455D01*
X190647610Y-68844789D01*
X190647610Y-68844801D01*
X190615104Y-68987881D01*
X190555279Y-69122250D01*
X190470496Y-69242437D01*
X190363978Y-69343872D01*
X190239796Y-69422680D01*
X190102666Y-69475869D01*
X189957819Y-69501410D01*
X189810769Y-69498330D01*
X189667111Y-69466745D01*
X189532338Y-69407864D01*
X189411554Y-69323917D01*
X189309383Y-69218115D01*
X189229709Y-69094486D01*
X189175564Y-68957731D01*
X189149012Y-68813059D01*
X189151066Y-68665992D01*
X189181645Y-68522127D01*
X189239587Y-68386937D01*
X189322687Y-68265574D01*
X189427773Y-68162665D01*
X189550844Y-68082130D01*
X189687221Y-68027030D01*
X189831693Y-67999470D01*
X189978775Y-68000498D01*
X189978775Y-68000498D01*
G37*
G36*
X159565686Y-68343503D02*
X158929290Y-68979899D01*
X158363604Y-68414213D01*
X159000000Y-67777817D01*
X159565686Y-68343503D01*
X159565686Y-68343503D01*
G37*
G36*
X192228775Y-67400498D02*
X192372856Y-67430073D01*
X192508444Y-67487069D01*
X192630382Y-67569317D01*
X192734023Y-67673685D01*
X192815419Y-67796194D01*
X192871464Y-67932173D01*
X192899966Y-68076115D01*
X192899966Y-68076125D01*
X192900032Y-68076459D01*
X192897686Y-68244455D01*
X192897610Y-68244789D01*
X192897610Y-68244801D01*
X192865104Y-68387881D01*
X192805279Y-68522250D01*
X192720496Y-68642437D01*
X192613978Y-68743872D01*
X192489796Y-68822680D01*
X192352666Y-68875869D01*
X192207819Y-68901410D01*
X192060769Y-68898330D01*
X191917111Y-68866745D01*
X191782338Y-68807864D01*
X191661554Y-68723917D01*
X191559383Y-68618115D01*
X191479709Y-68494486D01*
X191425564Y-68357731D01*
X191399012Y-68213059D01*
X191401066Y-68065992D01*
X191431645Y-67922127D01*
X191489587Y-67786937D01*
X191572687Y-67665574D01*
X191677773Y-67562665D01*
X191800844Y-67482130D01*
X191937221Y-67427030D01*
X192081693Y-67399470D01*
X192228775Y-67400498D01*
X192228775Y-67400498D01*
G37*
G36*
X151885000Y-68402600D02*
X150615000Y-68402600D01*
X150615000Y-67437400D01*
X151885000Y-67437400D01*
X151885000Y-68402600D01*
X151885000Y-68402600D01*
G37*
G36*
X149385000Y-68402600D02*
X148115000Y-68402600D01*
X148115000Y-67437400D01*
X149385000Y-67437400D01*
X149385000Y-68402600D01*
X149385000Y-68402600D01*
G37*
G36*
X158222183Y-67000000D02*
X157585787Y-67636396D01*
X157020101Y-67070710D01*
X157656497Y-66434314D01*
X158222183Y-67000000D01*
X158222183Y-67000000D01*
G37*
G36*
X151885000Y-67132600D02*
X150615000Y-67132600D01*
X150615000Y-66167400D01*
X151885000Y-66167400D01*
X151885000Y-67132600D01*
X151885000Y-67132600D01*
G37*
G36*
X149385000Y-67132600D02*
X148115000Y-67132600D01*
X148115000Y-66167400D01*
X149385000Y-66167400D01*
X149385000Y-67132600D01*
X149385000Y-67132600D01*
G37*
G36*
X160308148Y-66257538D02*
X159671752Y-66893934D01*
X159106066Y-66328248D01*
X159742462Y-65691852D01*
X160308148Y-66257538D01*
X160308148Y-66257538D01*
G37*
G36*
X156972273Y-65588388D02*
X156088388Y-66472273D01*
X155027727Y-65411612D01*
X155911612Y-64527727D01*
X156972273Y-65588388D01*
X156972273Y-65588388D01*
G37*
G36*
X146725000Y-66000000D02*
X145175000Y-66000000D01*
X145175000Y-64700000D01*
X146725000Y-64700000D01*
X146725000Y-66000000D01*
X146725000Y-66000000D01*
G37*
G36*
X138775000Y-66000000D02*
X137225000Y-66000000D01*
X137225000Y-64700000D01*
X138775000Y-64700000D01*
X138775000Y-66000000D01*
X138775000Y-66000000D01*
G37*
G36*
X155204507Y-63820622D02*
X154320622Y-64704507D01*
X153259961Y-63643846D01*
X154143846Y-62759961D01*
X155204507Y-63820622D01*
X155204507Y-63820622D01*
G37*
G36*
X145628775Y-62600498D02*
X145772856Y-62630073D01*
X145908444Y-62687069D01*
X146030382Y-62769317D01*
X146134023Y-62873685D01*
X146215419Y-62996194D01*
X146271464Y-63132173D01*
X146299966Y-63276115D01*
X146299966Y-63276125D01*
X146300032Y-63276459D01*
X146297686Y-63444455D01*
X146297610Y-63444789D01*
X146297610Y-63444801D01*
X146265104Y-63587881D01*
X146205279Y-63722250D01*
X146120496Y-63842437D01*
X146013978Y-63943872D01*
X145889796Y-64022680D01*
X145752666Y-64075869D01*
X145607819Y-64101410D01*
X145460769Y-64098330D01*
X145317111Y-64066745D01*
X145182338Y-64007864D01*
X145061554Y-63923917D01*
X144959383Y-63818115D01*
X144879709Y-63694486D01*
X144825564Y-63557731D01*
X144799012Y-63413059D01*
X144801066Y-63265992D01*
X144831645Y-63122127D01*
X144889587Y-62986937D01*
X144972687Y-62865574D01*
X145077773Y-62762665D01*
X145200844Y-62682130D01*
X145337221Y-62627030D01*
X145481693Y-62599470D01*
X145628775Y-62600498D01*
X145628775Y-62600498D01*
G37*
G36*
X143528775Y-62600498D02*
X143672856Y-62630073D01*
X143808444Y-62687069D01*
X143930382Y-62769317D01*
X144034023Y-62873685D01*
X144115419Y-62996194D01*
X144171464Y-63132173D01*
X144199966Y-63276115D01*
X144199966Y-63276125D01*
X144200032Y-63276459D01*
X144197686Y-63444455D01*
X144197610Y-63444789D01*
X144197610Y-63444801D01*
X144165104Y-63587881D01*
X144105279Y-63722250D01*
X144020496Y-63842437D01*
X143913978Y-63943872D01*
X143789796Y-64022680D01*
X143652666Y-64075869D01*
X143507819Y-64101410D01*
X143360769Y-64098330D01*
X143217111Y-64066745D01*
X143082338Y-64007864D01*
X142961554Y-63923917D01*
X142859383Y-63818115D01*
X142779709Y-63694486D01*
X142725564Y-63557731D01*
X142699012Y-63413059D01*
X142701066Y-63265992D01*
X142731645Y-63122127D01*
X142789587Y-62986937D01*
X142872687Y-62865574D01*
X142977773Y-62762665D01*
X143100844Y-62682130D01*
X143237221Y-62627030D01*
X143381693Y-62599470D01*
X143528775Y-62600498D01*
X143528775Y-62600498D01*
G37*
G36*
X141428775Y-62600498D02*
X141572856Y-62630073D01*
X141708444Y-62687069D01*
X141830382Y-62769317D01*
X141934023Y-62873685D01*
X142015419Y-62996194D01*
X142071464Y-63132173D01*
X142099966Y-63276115D01*
X142099966Y-63276125D01*
X142100032Y-63276459D01*
X142097686Y-63444455D01*
X142097610Y-63444789D01*
X142097610Y-63444801D01*
X142065104Y-63587881D01*
X142005279Y-63722250D01*
X141920496Y-63842437D01*
X141813978Y-63943872D01*
X141689796Y-64022680D01*
X141552666Y-64075869D01*
X141407819Y-64101410D01*
X141260769Y-64098330D01*
X141117111Y-64066745D01*
X140982338Y-64007864D01*
X140861554Y-63923917D01*
X140759383Y-63818115D01*
X140679709Y-63694486D01*
X140625564Y-63557731D01*
X140599012Y-63413059D01*
X140601066Y-63265992D01*
X140631645Y-63122127D01*
X140689587Y-62986937D01*
X140772687Y-62865574D01*
X140877773Y-62762665D01*
X141000844Y-62682130D01*
X141137221Y-62627030D01*
X141281693Y-62599470D01*
X141428775Y-62600498D01*
X141428775Y-62600498D01*
G37*
G36*
X151311512Y-62236451D02*
X151316237Y-62236484D01*
X151483732Y-62255272D01*
X151644387Y-62306235D01*
X151792085Y-62387432D01*
X151921198Y-62495771D01*
X152026809Y-62627124D01*
X152104895Y-62776490D01*
X152152482Y-62938177D01*
X152152485Y-62938206D01*
X152152490Y-62938224D01*
X152167761Y-63106027D01*
X152150148Y-63273602D01*
X152150144Y-63273616D01*
X152150140Y-63273651D01*
X152100300Y-63434658D01*
X152020136Y-63582919D01*
X151912701Y-63712785D01*
X151782088Y-63819311D01*
X151633271Y-63898438D01*
X151471920Y-63947153D01*
X151304179Y-63963600D01*
X151295785Y-63963600D01*
X151288488Y-63963549D01*
X151283763Y-63963516D01*
X151116268Y-63944728D01*
X150955613Y-63893765D01*
X150807915Y-63812568D01*
X150678802Y-63704229D01*
X150573191Y-63572876D01*
X150495105Y-63423510D01*
X150447518Y-63261823D01*
X150447515Y-63261794D01*
X150447510Y-63261776D01*
X150432239Y-63093973D01*
X150449852Y-62926398D01*
X150449856Y-62926384D01*
X150449860Y-62926349D01*
X150499700Y-62765342D01*
X150579864Y-62617081D01*
X150687299Y-62487215D01*
X150817912Y-62380689D01*
X150966729Y-62301562D01*
X151128080Y-62252847D01*
X151295821Y-62236400D01*
X151304215Y-62236400D01*
X151311512Y-62236451D01*
X151311512Y-62236451D01*
G37*
G36*
X148771512Y-62236451D02*
X148776237Y-62236484D01*
X148943732Y-62255272D01*
X149104387Y-62306235D01*
X149252085Y-62387432D01*
X149381198Y-62495771D01*
X149486809Y-62627124D01*
X149564895Y-62776490D01*
X149612482Y-62938177D01*
X149612485Y-62938206D01*
X149612490Y-62938224D01*
X149627761Y-63106027D01*
X149610148Y-63273602D01*
X149610144Y-63273616D01*
X149610140Y-63273651D01*
X149560300Y-63434658D01*
X149480136Y-63582919D01*
X149372701Y-63712785D01*
X149242088Y-63819311D01*
X149093271Y-63898438D01*
X148931920Y-63947153D01*
X148764179Y-63963600D01*
X148755785Y-63963600D01*
X148748488Y-63963549D01*
X148743763Y-63963516D01*
X148576268Y-63944728D01*
X148415613Y-63893765D01*
X148267915Y-63812568D01*
X148138802Y-63704229D01*
X148033191Y-63572876D01*
X147955105Y-63423510D01*
X147907518Y-63261823D01*
X147907515Y-63261794D01*
X147907510Y-63261776D01*
X147892239Y-63093973D01*
X147909852Y-62926398D01*
X147909856Y-62926384D01*
X147909860Y-62926349D01*
X147959700Y-62765342D01*
X148039864Y-62617081D01*
X148147299Y-62487215D01*
X148277912Y-62380689D01*
X148426729Y-62301562D01*
X148588080Y-62252847D01*
X148755821Y-62236400D01*
X148764215Y-62236400D01*
X148771512Y-62236451D01*
X148771512Y-62236451D01*
G37*
G36*
X151311512Y-59696451D02*
X151316237Y-59696484D01*
X151483732Y-59715272D01*
X151644387Y-59766235D01*
X151792085Y-59847432D01*
X151921198Y-59955771D01*
X152026809Y-60087124D01*
X152104895Y-60236490D01*
X152152482Y-60398177D01*
X152152485Y-60398206D01*
X152152490Y-60398224D01*
X152167761Y-60566027D01*
X152150148Y-60733602D01*
X152150144Y-60733616D01*
X152150140Y-60733651D01*
X152100300Y-60894658D01*
X152020136Y-61042919D01*
X151912701Y-61172785D01*
X151782088Y-61279311D01*
X151633271Y-61358438D01*
X151471920Y-61407153D01*
X151304179Y-61423600D01*
X151295785Y-61423600D01*
X151288488Y-61423549D01*
X151283763Y-61423516D01*
X151116268Y-61404728D01*
X150955613Y-61353765D01*
X150807915Y-61272568D01*
X150678802Y-61164229D01*
X150573191Y-61032876D01*
X150495105Y-60883510D01*
X150447518Y-60721823D01*
X150447515Y-60721794D01*
X150447510Y-60721776D01*
X150432239Y-60553973D01*
X150449852Y-60386398D01*
X150449856Y-60386384D01*
X150449860Y-60386349D01*
X150499700Y-60225342D01*
X150579864Y-60077081D01*
X150687299Y-59947215D01*
X150817912Y-59840689D01*
X150966729Y-59761562D01*
X151128080Y-59712847D01*
X151295821Y-59696400D01*
X151304215Y-59696400D01*
X151311512Y-59696451D01*
X151311512Y-59696451D01*
G37*
G36*
X149623600Y-61423600D02*
X147896400Y-61423600D01*
X147896400Y-59696400D01*
X149623600Y-59696400D01*
X149623600Y-61423600D01*
X149623600Y-61423600D01*
G37*
M02*
