G04 #@! TF.FileFunction,Copper,L5,Inr,Signal*
%FSLAX46Y46*%
G04 Gerber Fmt 4.6, Leading zero omitted, Abs format (unit mm)*
G04 Created by KiCad (PCBNEW 4.0.6) date Monday, May 07, 2018 'PMt' 08:57:05 PM*
%MOMM*%
%LPD*%
G01*
G04 APERTURE LIST*
%ADD10C,0.100000*%
%ADD11C,2.000000*%
%ADD12R,2.032000X1.727200*%
%ADD13O,2.032000X1.727200*%
%ADD14C,0.900000*%
%ADD15R,1.727200X1.727200*%
%ADD16O,1.727200X1.727200*%
%ADD17C,0.610000*%
%ADD18C,0.800000*%
%ADD19C,0.152400*%
%ADD20C,0.750000*%
%ADD21C,1.000000*%
%ADD22C,0.254000*%
G04 APERTURE END LIST*
D10*
D11*
X177000000Y-80000000D03*
X177000000Y-94990000D03*
D12*
X153500000Y-135210000D03*
D13*
X153500000Y-137750000D03*
X153500000Y-140290000D03*
D12*
X150000000Y-139079999D03*
D13*
X150000000Y-136539999D03*
X150000000Y-133999999D03*
X150000000Y-131459999D03*
D14*
X190691718Y-91137172D03*
X183908282Y-90662828D03*
D15*
X148760000Y-60560000D03*
D16*
X151300000Y-60560000D03*
X148760000Y-63100000D03*
X151300000Y-63100000D03*
D17*
X177600000Y-77200000D03*
X176700000Y-77200000D03*
X175900000Y-77400000D03*
X168000000Y-100000000D03*
X148450000Y-119850000D03*
X150000000Y-89900000D03*
D18*
X150000000Y-90700000D03*
D17*
X149800000Y-84800000D03*
X121950000Y-97150000D03*
X145550000Y-95650000D03*
X144650000Y-97100000D03*
X157200000Y-97000000D03*
X188000000Y-69000000D03*
X123700000Y-72900000D03*
X154600000Y-96100000D03*
X140100000Y-95600000D03*
X162200000Y-77000000D03*
X150600000Y-116400000D03*
X149137500Y-105462500D03*
X150862500Y-105462500D03*
X150862500Y-103737500D03*
X149137500Y-103737500D03*
X150850000Y-120900000D03*
X145550000Y-61250000D03*
X145900000Y-67050000D03*
X152450000Y-96900000D03*
X148350000Y-108450000D03*
X164100000Y-83100000D03*
X169800000Y-76700000D03*
X147800000Y-99850000D03*
X153250000Y-103400000D03*
X121550000Y-94350000D03*
X147900000Y-140800000D03*
X153000000Y-111000000D03*
X157600000Y-97800000D03*
D18*
X144800000Y-138400000D03*
D17*
X134900000Y-92025000D03*
X131250000Y-100500000D03*
X113750000Y-95750000D03*
X123500000Y-88500000D03*
X144800000Y-95250000D03*
X108250000Y-77750000D03*
X117350000Y-90750000D03*
X168500000Y-99000000D03*
X184800000Y-75750000D03*
X179600000Y-75800000D03*
X143850000Y-95100000D03*
X111000000Y-77250000D03*
X117350000Y-91550000D03*
X165550000Y-99000000D03*
X184950000Y-74750000D03*
X140400000Y-90550000D03*
X113750000Y-74750000D03*
X117250000Y-97000000D03*
X165550000Y-97500000D03*
X116900000Y-76000000D03*
X139850000Y-89475000D03*
X118000000Y-97300000D03*
X171500000Y-97500000D03*
X183900000Y-77600000D03*
X188250000Y-72250000D03*
X139250000Y-87550000D03*
X114750000Y-71000000D03*
X118850000Y-97600000D03*
X171500000Y-96050000D03*
X138650000Y-86950000D03*
X125000000Y-73000000D03*
X173700000Y-98900000D03*
X170800000Y-92100000D03*
X133600000Y-96200000D03*
X139250000Y-86350000D03*
X126500000Y-73500000D03*
X176150000Y-98250000D03*
X172000000Y-91700000D03*
X135000000Y-94000000D03*
X162000000Y-96900000D03*
X128100000Y-75100000D03*
X138650000Y-85750000D03*
X134550000Y-95400000D03*
X160050000Y-82850000D03*
X167300000Y-90800000D03*
X181900000Y-95950000D03*
X139250000Y-85150000D03*
X130150000Y-78200000D03*
X133750000Y-95350000D03*
X185700000Y-94900000D03*
X188400000Y-76900000D03*
X138650000Y-84550000D03*
X131100000Y-78050000D03*
X133000000Y-95600000D03*
X176200000Y-91500000D03*
X139250000Y-83950000D03*
X131650000Y-79350000D03*
X125350000Y-97950000D03*
X185050000Y-77350000D03*
X188200000Y-73750000D03*
X126300000Y-94900000D03*
X176200000Y-90000000D03*
X138650000Y-83350000D03*
X133250000Y-77500000D03*
X161350000Y-87600000D03*
X125800000Y-94200000D03*
X185900000Y-93550000D03*
X139250000Y-82700000D03*
X136500000Y-77500000D03*
X184400000Y-91500000D03*
X156200000Y-80850000D03*
X139250000Y-78500000D03*
X143400000Y-82800000D03*
X183000000Y-90100000D03*
X189100000Y-77550000D03*
X144000000Y-83400000D03*
X140250000Y-80000000D03*
X190900000Y-89900000D03*
X160800000Y-85900000D03*
X143500000Y-79750000D03*
X144600000Y-82800000D03*
X145200000Y-83300000D03*
X143450000Y-76450000D03*
X180200000Y-74450000D03*
X153100000Y-101400000D03*
X145800000Y-82800000D03*
X146250000Y-80250000D03*
X180650000Y-75200000D03*
X144400000Y-77600000D03*
X150000000Y-80100000D03*
X141100000Y-91150000D03*
X150600000Y-80700000D03*
X141500000Y-91800000D03*
X151200000Y-80100000D03*
X140460000Y-69210000D03*
X147750000Y-139750000D03*
X139600000Y-68200000D03*
X146250000Y-132550000D03*
X151800000Y-80700000D03*
X142300000Y-64283530D03*
X152400000Y-80100000D03*
X148000000Y-132100000D03*
X146700000Y-116050000D03*
X156800000Y-82800000D03*
X147500000Y-71000000D03*
X157600000Y-83400000D03*
X146000000Y-71000000D03*
X146550000Y-122150000D03*
X147750000Y-130250000D03*
X156800000Y-84000000D03*
X148000000Y-73250000D03*
X147750000Y-123000000D03*
X157600000Y-84600000D03*
X148000000Y-74750000D03*
X149000000Y-114450000D03*
X156800000Y-85300000D03*
X145050000Y-74450000D03*
X148750000Y-120850000D03*
D18*
X144000000Y-71000000D03*
D17*
X157600000Y-85900000D03*
X159100000Y-82750000D03*
X151200000Y-142000000D03*
X115600000Y-92400000D03*
X156000000Y-91600000D03*
X120450000Y-80750000D03*
X160700000Y-83350000D03*
X150200000Y-142000000D03*
X156700000Y-92200000D03*
X131325000Y-84050000D03*
X194000000Y-73300000D03*
X172400000Y-99000000D03*
X149200000Y-142000000D03*
X156000000Y-92800000D03*
X132400000Y-85200000D03*
X161200000Y-86600000D03*
X156700000Y-93400000D03*
X131700000Y-84725000D03*
X161400000Y-84750000D03*
X116150000Y-91700000D03*
X156000000Y-94000000D03*
X115750000Y-78000000D03*
X160600000Y-85000000D03*
X116800000Y-92250000D03*
X115350000Y-79500000D03*
X156700000Y-94600000D03*
X159700000Y-85050000D03*
X115600000Y-91000000D03*
X155875000Y-95200000D03*
X106000000Y-75500000D03*
X147250000Y-79000000D03*
X147400000Y-67100000D03*
X134875000Y-76700000D03*
D18*
X140000000Y-72000000D03*
D17*
X115250000Y-76500000D03*
D18*
X167800000Y-95800000D03*
X154100000Y-143700000D03*
X155300000Y-112500000D03*
X155300000Y-120900000D03*
X155300000Y-130500000D03*
X155300000Y-108300000D03*
D17*
X174535715Y-89300000D03*
X173500000Y-89800000D03*
X194000000Y-89800000D03*
X192800000Y-71800000D03*
X186300000Y-75600000D03*
X165750000Y-83500000D03*
D18*
X156800000Y-63800000D03*
D17*
X161000000Y-77250000D03*
X161000000Y-77250000D03*
X183750000Y-70250000D03*
X174500000Y-73250000D03*
X162500000Y-68500000D03*
X147550000Y-101850000D03*
X146400000Y-103500000D03*
X150100000Y-118250000D03*
X149975000Y-99575000D03*
X158100000Y-96175000D03*
X150985000Y-118365000D03*
X149950000Y-100350000D03*
X158900000Y-96050000D03*
X124650000Y-89950000D03*
X146950000Y-106848062D03*
X115300000Y-70300000D03*
X147400000Y-100650000D03*
X126250000Y-91300000D03*
X135250000Y-94800000D03*
X148575000Y-99775000D03*
X162400000Y-96000000D03*
X149150000Y-100325000D03*
X159675000Y-96250000D03*
X143100000Y-94800000D03*
X149775000Y-93675000D03*
X151600000Y-96850000D03*
X152900000Y-107600000D03*
X146500000Y-108600000D03*
X146050000Y-107950000D03*
X150950000Y-110100000D03*
X152900000Y-131000000D03*
X151450000Y-101250000D03*
X147950000Y-101200000D03*
X148600000Y-122200000D03*
X136650000Y-96250000D03*
X143400000Y-98400000D03*
X151100000Y-72900000D03*
D18*
X190850000Y-94100000D03*
X190850000Y-94100000D03*
X190850000Y-93100000D03*
X150800000Y-123300000D03*
X152850000Y-115250000D03*
X174200000Y-93700000D03*
X173750000Y-84450000D03*
X172700000Y-84450000D03*
X185850000Y-95950000D03*
X187000000Y-95500000D03*
D17*
X181500000Y-74100000D03*
X168500000Y-75100000D03*
D19*
X151900000Y-131600000D02*
X151759999Y-131459999D01*
X151759999Y-131459999D02*
X150000000Y-131459999D01*
X151900000Y-140100000D02*
X151900000Y-131600000D01*
X152090000Y-140290000D02*
X151900000Y-140100000D01*
X153500000Y-140290000D02*
X152090000Y-140290000D01*
X152600000Y-124400000D02*
X152600000Y-118400000D01*
X152600000Y-118400000D02*
X150600000Y-116400000D01*
X150000000Y-127000000D02*
X152600000Y-124400000D01*
X150000000Y-131459999D02*
X150000000Y-127000000D01*
X158800000Y-78700000D02*
X160500000Y-78700000D01*
X160500000Y-78700000D02*
X162200000Y-77000000D01*
X156600000Y-76500000D02*
X158800000Y-78700000D01*
X156600000Y-74600000D02*
X156600000Y-76500000D01*
X148760000Y-66760000D02*
X156600000Y-74600000D01*
X148760000Y-63100000D02*
X148760000Y-66760000D01*
D20*
X144750000Y-136500000D02*
X144750000Y-138350000D01*
X144750000Y-138350000D02*
X144800000Y-138400000D01*
X144750000Y-103750000D02*
X144750000Y-136500000D01*
X144000000Y-102000000D02*
X144750000Y-103750000D01*
X142000000Y-100250000D02*
X144000000Y-102000000D01*
X139700000Y-99055556D02*
X142000000Y-100250000D01*
X137000000Y-99000000D02*
X139700000Y-99055556D01*
X131250000Y-100500000D02*
X137000000Y-99000000D01*
X155300000Y-120900000D02*
X155300000Y-130500000D01*
X155300000Y-112500000D02*
X155300000Y-120900000D01*
X155300000Y-108300000D02*
X155300000Y-112500000D01*
X155300000Y-141200000D02*
X154100000Y-142400000D01*
X154100000Y-142400000D02*
X154100000Y-143700000D01*
X155300000Y-140300000D02*
X155300000Y-141200000D01*
X155300000Y-130500000D02*
X155300000Y-140300000D01*
D19*
X146950000Y-106848062D02*
X146901938Y-106800000D01*
X146901938Y-106800000D02*
X145710000Y-106800000D01*
X140007143Y-98150000D02*
X122800000Y-98600000D01*
X122800000Y-98600000D02*
X121400000Y-98400000D01*
X145710000Y-106800000D02*
X145500000Y-105750000D01*
X142750000Y-99750000D02*
X140007143Y-98150000D01*
X145500000Y-105750000D02*
X145500000Y-103250000D01*
X145500000Y-103250000D02*
X144500000Y-101250000D01*
X124250000Y-89200000D02*
X124550000Y-89200000D01*
X144500000Y-101250000D02*
X142750000Y-99750000D01*
X121400000Y-98400000D02*
X120000000Y-97800000D01*
X120000000Y-97800000D02*
X120000000Y-93450000D01*
X120000000Y-93450000D02*
X124250000Y-89200000D01*
X124550000Y-89200000D02*
X124650000Y-89300000D01*
X124650000Y-89300000D02*
X124650000Y-89950000D01*
X147000000Y-106850000D02*
X146950000Y-106848062D01*
X115300000Y-70300000D02*
X115412649Y-70300000D01*
X115412649Y-70300000D02*
X115912649Y-70800000D01*
X116068974Y-71100000D02*
X121488235Y-81500000D01*
X115912649Y-70800000D02*
X116068974Y-71100000D01*
X116068974Y-71100000D02*
X116068974Y-71068974D01*
X144350000Y-100621052D02*
X142900000Y-99400000D01*
X147400000Y-100650000D02*
X144378948Y-100650000D01*
X144378948Y-100650000D02*
X144350000Y-100621052D01*
X136050000Y-95600000D02*
X135250000Y-94800000D01*
X137300000Y-95600000D02*
X136050000Y-95600000D01*
X138600000Y-96900000D02*
X137300000Y-95600000D01*
X126250000Y-91300000D02*
X126000000Y-91050000D01*
X126000000Y-91050000D02*
X126000000Y-90200000D01*
X121488235Y-81500000D02*
X124400000Y-84800000D01*
X125500000Y-88500000D02*
X126000000Y-90200000D01*
X126600000Y-87800000D02*
X125500000Y-88500000D01*
X142900000Y-99400000D02*
X138600000Y-96900000D01*
X128400000Y-87600000D02*
X126600000Y-87800000D01*
X129800000Y-87400000D02*
X128400000Y-87600000D01*
X130200000Y-86400000D02*
X129800000Y-87400000D01*
X130000000Y-85600000D02*
X130200000Y-86400000D01*
X128800000Y-85200000D02*
X130000000Y-85600000D01*
X126000000Y-85200000D02*
X128800000Y-85200000D01*
X124400000Y-84800000D02*
X126000000Y-85200000D01*
D21*
X190850000Y-93100000D02*
X189050000Y-90900000D01*
X189050000Y-90900000D02*
X186800000Y-89600000D01*
X169250000Y-85150000D02*
X174400000Y-80000000D01*
X186800000Y-89600000D02*
X183650000Y-89050000D01*
X183650000Y-89050000D02*
X181700000Y-88900000D01*
X169250000Y-87250000D02*
X169250000Y-85150000D01*
X181700000Y-88900000D02*
X174700000Y-88350000D01*
X174700000Y-88350000D02*
X174150000Y-88295775D01*
X170295775Y-88295775D02*
X169250000Y-87250000D01*
X174150000Y-88295775D02*
X170295775Y-88295775D01*
X174400000Y-80000000D02*
X177000000Y-80000000D01*
X190850000Y-93100000D02*
X190850000Y-94100000D01*
D22*
G36*
X154907349Y-62086861D02*
X154943204Y-62113592D01*
X156862127Y-63073054D01*
X156656025Y-63072874D01*
X156388725Y-63183320D01*
X156184039Y-63387650D01*
X156073126Y-63654756D01*
X156072874Y-63943975D01*
X156183320Y-64211275D01*
X156387650Y-64415961D01*
X156654756Y-64526874D01*
X156943975Y-64527126D01*
X157211275Y-64416680D01*
X157415961Y-64212350D01*
X157526874Y-63945244D01*
X157527126Y-63656025D01*
X157416680Y-63388725D01*
X157274976Y-63246774D01*
X161888958Y-65092367D01*
X162444075Y-67867951D01*
X162374839Y-67867890D01*
X162142468Y-67963904D01*
X161964529Y-68141533D01*
X161868110Y-68373736D01*
X161867890Y-68625161D01*
X161963904Y-68857532D01*
X162141533Y-69035471D01*
X162373736Y-69131890D01*
X162625161Y-69132110D01*
X162691430Y-69104728D01*
X162862136Y-69958258D01*
X157910197Y-74910197D01*
X157882334Y-74952211D01*
X157873000Y-75000000D01*
X157873000Y-76000000D01*
X157883006Y-76049410D01*
X157910197Y-76089803D01*
X158910197Y-77089803D01*
X158952211Y-77117666D01*
X159001754Y-77126988D01*
X159034890Y-77122114D01*
X163224225Y-75925161D01*
X178967890Y-75925161D01*
X179063904Y-76157532D01*
X179241533Y-76335471D01*
X179473736Y-76431890D01*
X179725161Y-76432110D01*
X179957532Y-76336096D01*
X180135471Y-76158467D01*
X180231890Y-75926264D01*
X180231934Y-75875161D01*
X184167890Y-75875161D01*
X184263904Y-76107532D01*
X184441533Y-76285471D01*
X184673736Y-76381890D01*
X184925161Y-76382110D01*
X185157532Y-76286096D01*
X185335471Y-76108467D01*
X185431890Y-75876264D01*
X185432022Y-75725161D01*
X185667890Y-75725161D01*
X185763904Y-75957532D01*
X185941533Y-76135471D01*
X186173736Y-76231890D01*
X186425161Y-76232110D01*
X186657532Y-76136096D01*
X186835471Y-75958467D01*
X186931890Y-75726264D01*
X186932110Y-75474839D01*
X186836096Y-75242468D01*
X186658467Y-75064529D01*
X186426264Y-74968110D01*
X186174839Y-74967890D01*
X185942468Y-75063904D01*
X185764529Y-75241533D01*
X185668110Y-75473736D01*
X185667890Y-75725161D01*
X185432022Y-75725161D01*
X185432110Y-75624839D01*
X185336096Y-75392468D01*
X185252577Y-75308803D01*
X185307532Y-75286096D01*
X185485471Y-75108467D01*
X185581890Y-74876264D01*
X185582110Y-74624839D01*
X185486096Y-74392468D01*
X185308467Y-74214529D01*
X185076264Y-74118110D01*
X184824839Y-74117890D01*
X184592468Y-74213904D01*
X184414529Y-74391533D01*
X184318110Y-74623736D01*
X184317890Y-74875161D01*
X184413904Y-75107532D01*
X184497423Y-75191197D01*
X184442468Y-75213904D01*
X184264529Y-75391533D01*
X184168110Y-75623736D01*
X184167890Y-75875161D01*
X180231934Y-75875161D01*
X180232109Y-75675943D01*
X180291533Y-75735471D01*
X180523736Y-75831890D01*
X180775161Y-75832110D01*
X181007532Y-75736096D01*
X181185471Y-75558467D01*
X181281890Y-75326264D01*
X181282110Y-75074839D01*
X181186096Y-74842468D01*
X181008467Y-74664529D01*
X180826597Y-74589010D01*
X180831890Y-74576264D01*
X180832110Y-74324839D01*
X180790924Y-74225161D01*
X180867890Y-74225161D01*
X180963904Y-74457532D01*
X181141533Y-74635471D01*
X181373736Y-74731890D01*
X181625161Y-74732110D01*
X181857532Y-74636096D01*
X182035471Y-74458467D01*
X182131890Y-74226264D01*
X182132110Y-73974839D01*
X182090924Y-73875161D01*
X187567890Y-73875161D01*
X187663904Y-74107532D01*
X187841533Y-74285471D01*
X188073736Y-74381890D01*
X188325161Y-74382110D01*
X188557532Y-74286096D01*
X188735471Y-74108467D01*
X188831890Y-73876264D01*
X188832110Y-73624839D01*
X188736096Y-73392468D01*
X188558467Y-73214529D01*
X188326264Y-73118110D01*
X188074839Y-73117890D01*
X187842468Y-73213904D01*
X187664529Y-73391533D01*
X187568110Y-73623736D01*
X187567890Y-73875161D01*
X182090924Y-73875161D01*
X182036096Y-73742468D01*
X181858467Y-73564529D01*
X181626264Y-73468110D01*
X181374839Y-73467890D01*
X181142468Y-73563904D01*
X180964529Y-73741533D01*
X180868110Y-73973736D01*
X180867890Y-74225161D01*
X180790924Y-74225161D01*
X180736096Y-74092468D01*
X180558467Y-73914529D01*
X180326264Y-73818110D01*
X180074839Y-73817890D01*
X179842468Y-73913904D01*
X179664529Y-74091533D01*
X179568110Y-74323736D01*
X179567890Y-74575161D01*
X179663904Y-74807532D01*
X179841533Y-74985471D01*
X180023403Y-75060990D01*
X180018110Y-75073736D01*
X180017891Y-75324057D01*
X179958467Y-75264529D01*
X179726264Y-75168110D01*
X179474839Y-75167890D01*
X179242468Y-75263904D01*
X179064529Y-75441533D01*
X178968110Y-75673736D01*
X178967890Y-75925161D01*
X163224225Y-75925161D01*
X165674226Y-75225161D01*
X167867890Y-75225161D01*
X167963904Y-75457532D01*
X168141533Y-75635471D01*
X168373736Y-75731890D01*
X168625161Y-75732110D01*
X168857532Y-75636096D01*
X169035471Y-75458467D01*
X169131890Y-75226264D01*
X169132110Y-74974839D01*
X169036096Y-74742468D01*
X168858467Y-74564529D01*
X168626264Y-74468110D01*
X168374839Y-74467890D01*
X168142468Y-74563904D01*
X167964529Y-74741533D01*
X167868110Y-74973736D01*
X167867890Y-75225161D01*
X165674226Y-75225161D01*
X174013691Y-72842457D01*
X173964529Y-72891533D01*
X173868110Y-73123736D01*
X173867890Y-73375161D01*
X173963904Y-73607532D01*
X174141533Y-73785471D01*
X174373736Y-73881890D01*
X174625161Y-73882110D01*
X174857532Y-73786096D01*
X175035471Y-73608467D01*
X175131890Y-73376264D01*
X175132110Y-73124839D01*
X175036096Y-72892468D01*
X174858467Y-72714529D01*
X174696634Y-72647330D01*
X175649225Y-72375161D01*
X187617890Y-72375161D01*
X187713904Y-72607532D01*
X187891533Y-72785471D01*
X188123736Y-72881890D01*
X188375161Y-72882110D01*
X188607532Y-72786096D01*
X188785471Y-72608467D01*
X188881890Y-72376264D01*
X188882110Y-72124839D01*
X188799605Y-71925161D01*
X192167890Y-71925161D01*
X192263904Y-72157532D01*
X192441533Y-72335471D01*
X192673736Y-72431890D01*
X192925161Y-72432110D01*
X193157532Y-72336096D01*
X193335471Y-72158467D01*
X193431890Y-71926264D01*
X193432110Y-71674839D01*
X193336096Y-71442468D01*
X193158467Y-71264529D01*
X192926264Y-71168110D01*
X192674839Y-71167890D01*
X192442468Y-71263904D01*
X192264529Y-71441533D01*
X192168110Y-71673736D01*
X192167890Y-71925161D01*
X188799605Y-71925161D01*
X188786096Y-71892468D01*
X188608467Y-71714529D01*
X188376264Y-71618110D01*
X188124839Y-71617890D01*
X187892468Y-71713904D01*
X187714529Y-71891533D01*
X187618110Y-72123736D01*
X187617890Y-72375161D01*
X175649225Y-72375161D01*
X183118007Y-70241224D01*
X183117890Y-70375161D01*
X183213904Y-70607532D01*
X183391533Y-70785471D01*
X183623736Y-70881890D01*
X183875161Y-70882110D01*
X184107532Y-70786096D01*
X184285471Y-70608467D01*
X184381890Y-70376264D01*
X184382110Y-70124839D01*
X184291645Y-69905898D01*
X192517970Y-67555520D01*
X193679517Y-71040161D01*
X193682083Y-71047167D01*
X194376088Y-72782181D01*
X194358467Y-72764529D01*
X194126264Y-72668110D01*
X193874839Y-72667890D01*
X193642468Y-72763904D01*
X193464529Y-72941533D01*
X193368110Y-73173736D01*
X193367890Y-73425161D01*
X193463904Y-73657532D01*
X193641533Y-73835471D01*
X193873736Y-73931890D01*
X194125161Y-73932110D01*
X194357532Y-73836096D01*
X194535471Y-73658467D01*
X194631890Y-73426264D01*
X194631894Y-73421695D01*
X194850981Y-73969413D01*
X188930389Y-79890005D01*
X174978002Y-84873000D01*
X174355292Y-84873000D01*
X174365961Y-84862350D01*
X174476874Y-84595244D01*
X174477126Y-84306025D01*
X174366680Y-84038725D01*
X174162350Y-83834039D01*
X173895244Y-83723126D01*
X173606025Y-83722874D01*
X173338725Y-83833320D01*
X173224981Y-83946866D01*
X173112350Y-83834039D01*
X172845244Y-83723126D01*
X172556025Y-83722874D01*
X172288725Y-83833320D01*
X172084039Y-84037650D01*
X171973126Y-84304756D01*
X171972874Y-84593975D01*
X172083320Y-84861275D01*
X172095025Y-84873000D01*
X171000000Y-84873000D01*
X170943204Y-84886408D01*
X170423088Y-85146466D01*
X174742554Y-80827000D01*
X175950533Y-80827000D01*
X176247334Y-81124319D01*
X176734885Y-81326769D01*
X177262798Y-81327229D01*
X177750703Y-81125631D01*
X178124319Y-80752666D01*
X178326769Y-80265115D01*
X178327229Y-79737202D01*
X178125631Y-79249297D01*
X177752666Y-78875681D01*
X177265115Y-78673231D01*
X176737202Y-78672771D01*
X176249297Y-78874369D01*
X175950145Y-79173000D01*
X174400000Y-79173000D01*
X174083521Y-79235952D01*
X173815223Y-79415223D01*
X168665223Y-84565223D01*
X168485952Y-84833521D01*
X168423000Y-85150000D01*
X168423000Y-87250000D01*
X168485952Y-87566479D01*
X168665223Y-87834777D01*
X169710998Y-88880552D01*
X169979296Y-89059823D01*
X170295775Y-89122775D01*
X173924986Y-89122775D01*
X173903825Y-89173736D01*
X173903706Y-89309847D01*
X173858467Y-89264529D01*
X173626264Y-89168110D01*
X173374839Y-89167890D01*
X173142468Y-89263904D01*
X172964529Y-89441533D01*
X172868110Y-89673736D01*
X172867890Y-89925161D01*
X172963904Y-90157532D01*
X173141533Y-90335471D01*
X173373736Y-90431890D01*
X173625161Y-90432110D01*
X173857532Y-90336096D01*
X174035471Y-90158467D01*
X174049300Y-90125161D01*
X175567890Y-90125161D01*
X175663904Y-90357532D01*
X175841533Y-90535471D01*
X176073736Y-90631890D01*
X176325161Y-90632110D01*
X176557532Y-90536096D01*
X176735471Y-90358467D01*
X176831890Y-90126264D01*
X176832110Y-89874839D01*
X176736096Y-89642468D01*
X176558467Y-89464529D01*
X176326264Y-89368110D01*
X176074839Y-89367890D01*
X175842468Y-89463904D01*
X175664529Y-89641533D01*
X175568110Y-89873736D01*
X175567890Y-90125161D01*
X174049300Y-90125161D01*
X174131890Y-89926264D01*
X174132009Y-89790153D01*
X174177248Y-89835471D01*
X174409451Y-89931890D01*
X174660876Y-89932110D01*
X174893247Y-89836096D01*
X175071186Y-89658467D01*
X175167605Y-89426264D01*
X175167789Y-89216304D01*
X181635221Y-89724459D01*
X181635907Y-89724378D01*
X181636572Y-89724564D01*
X182445730Y-89786807D01*
X182368110Y-89973736D01*
X182367890Y-90225161D01*
X182463904Y-90457532D01*
X182641533Y-90635471D01*
X182873736Y-90731890D01*
X183125161Y-90732110D01*
X183131224Y-90729605D01*
X183131148Y-90816705D01*
X183249190Y-91102388D01*
X183467572Y-91321152D01*
X183753049Y-91439693D01*
X183768052Y-91439706D01*
X183767890Y-91625161D01*
X183863904Y-91857532D01*
X184041533Y-92035471D01*
X184273736Y-92131890D01*
X184525161Y-92132110D01*
X184757532Y-92036096D01*
X184935471Y-91858467D01*
X185031890Y-91626264D01*
X185032110Y-91374839D01*
X184936096Y-91142468D01*
X184758467Y-90964529D01*
X184644055Y-90917021D01*
X184685147Y-90818061D01*
X184685416Y-90508951D01*
X184567374Y-90223268D01*
X184357520Y-90013047D01*
X186513269Y-90389447D01*
X188505542Y-91540538D01*
X190023000Y-93395209D01*
X190023000Y-94100000D01*
X190036705Y-94168898D01*
X189890185Y-94901496D01*
X187726927Y-95584630D01*
X187727126Y-95356025D01*
X187616680Y-95088725D01*
X187412350Y-94884039D01*
X187145244Y-94773126D01*
X186856025Y-94772874D01*
X186588725Y-94883320D01*
X186384039Y-95087650D01*
X186276036Y-95347749D01*
X186262350Y-95334039D01*
X186189903Y-95303956D01*
X186235471Y-95258467D01*
X186331890Y-95026264D01*
X186332110Y-94774839D01*
X186236096Y-94542468D01*
X186058467Y-94364529D01*
X185826264Y-94268110D01*
X185574839Y-94267890D01*
X185342468Y-94363904D01*
X185164529Y-94541533D01*
X185068110Y-94773736D01*
X185067890Y-95025161D01*
X185163904Y-95257532D01*
X185338969Y-95432903D01*
X185234039Y-95537650D01*
X185123126Y-95804756D01*
X185122874Y-96093975D01*
X185233320Y-96361275D01*
X185241525Y-96369494D01*
X171212769Y-100799628D01*
X170433321Y-100873000D01*
X167502123Y-100873000D01*
X166173343Y-100532554D01*
X162654862Y-99125161D01*
X164917890Y-99125161D01*
X165013904Y-99357532D01*
X165191533Y-99535471D01*
X165423736Y-99631890D01*
X165675161Y-99632110D01*
X165907532Y-99536096D01*
X166085471Y-99358467D01*
X166181890Y-99126264D01*
X166181890Y-99125161D01*
X167867890Y-99125161D01*
X167963904Y-99357532D01*
X168141533Y-99535471D01*
X168373736Y-99631890D01*
X168625161Y-99632110D01*
X168857532Y-99536096D01*
X169035471Y-99358467D01*
X169131890Y-99126264D01*
X169131890Y-99125161D01*
X171767890Y-99125161D01*
X171863904Y-99357532D01*
X172041533Y-99535471D01*
X172273736Y-99631890D01*
X172525161Y-99632110D01*
X172757532Y-99536096D01*
X172935471Y-99358467D01*
X173031890Y-99126264D01*
X173031978Y-99025161D01*
X173067890Y-99025161D01*
X173163904Y-99257532D01*
X173341533Y-99435471D01*
X173573736Y-99531890D01*
X173825161Y-99532110D01*
X174057532Y-99436096D01*
X174235471Y-99258467D01*
X174331890Y-99026264D01*
X174332110Y-98774839D01*
X174236096Y-98542468D01*
X174069081Y-98375161D01*
X175517890Y-98375161D01*
X175613904Y-98607532D01*
X175791533Y-98785471D01*
X176023736Y-98881890D01*
X176275161Y-98882110D01*
X176507532Y-98786096D01*
X176685471Y-98608467D01*
X176781890Y-98376264D01*
X176782110Y-98124839D01*
X176686096Y-97892468D01*
X176508467Y-97714529D01*
X176276264Y-97618110D01*
X176024839Y-97617890D01*
X175792468Y-97713904D01*
X175614529Y-97891533D01*
X175518110Y-98123736D01*
X175517890Y-98375161D01*
X174069081Y-98375161D01*
X174058467Y-98364529D01*
X173826264Y-98268110D01*
X173574839Y-98267890D01*
X173342468Y-98363904D01*
X173164529Y-98541533D01*
X173068110Y-98773736D01*
X173067890Y-99025161D01*
X173031978Y-99025161D01*
X173032110Y-98874839D01*
X172936096Y-98642468D01*
X172758467Y-98464529D01*
X172526264Y-98368110D01*
X172274839Y-98367890D01*
X172042468Y-98463904D01*
X171864529Y-98641533D01*
X171768110Y-98873736D01*
X171767890Y-99125161D01*
X169131890Y-99125161D01*
X169132110Y-98874839D01*
X169036096Y-98642468D01*
X168858467Y-98464529D01*
X168626264Y-98368110D01*
X168374839Y-98367890D01*
X168142468Y-98463904D01*
X167964529Y-98641533D01*
X167868110Y-98873736D01*
X167867890Y-99125161D01*
X166181890Y-99125161D01*
X166182110Y-98874839D01*
X166086096Y-98642468D01*
X165908467Y-98464529D01*
X165676264Y-98368110D01*
X165424839Y-98367890D01*
X165192468Y-98463904D01*
X165014529Y-98641533D01*
X164918110Y-98873736D01*
X164917890Y-99125161D01*
X162654862Y-99125161D01*
X162047167Y-98882083D01*
X161997574Y-98873023D01*
X161959839Y-98879517D01*
X158959839Y-99879517D01*
X158910197Y-99910197D01*
X157628139Y-101192255D01*
X157547912Y-101245861D01*
X157547908Y-101245863D01*
X157495901Y-101297871D01*
X157443893Y-101349878D01*
X157443891Y-101349882D01*
X157390285Y-101430109D01*
X155910197Y-102910197D01*
X155879517Y-102959839D01*
X154879517Y-105959839D01*
X154873000Y-106000000D01*
X154873000Y-107699018D01*
X154684039Y-107887650D01*
X154573126Y-108154756D01*
X154572874Y-108443975D01*
X154598000Y-108504785D01*
X154598000Y-112294853D01*
X154573126Y-112354756D01*
X154572874Y-112643975D01*
X154598000Y-112704785D01*
X154598000Y-120694853D01*
X154573126Y-120754756D01*
X154572874Y-121043975D01*
X154598000Y-121104785D01*
X154598000Y-130294853D01*
X154573126Y-130354756D01*
X154572874Y-130643975D01*
X154598000Y-130704785D01*
X154598000Y-134029600D01*
X154516000Y-134012994D01*
X152484000Y-134012994D01*
X152362821Y-134035795D01*
X152251526Y-134107412D01*
X152176862Y-134216686D01*
X152150594Y-134346400D01*
X152150594Y-136073600D01*
X152173395Y-136194779D01*
X152245012Y-136306074D01*
X152354286Y-136380738D01*
X152484000Y-136407006D01*
X154516000Y-136407006D01*
X154598000Y-136391577D01*
X154598000Y-137023968D01*
X154520592Y-136908119D01*
X154134334Y-136650029D01*
X153678711Y-136559400D01*
X153321289Y-136559400D01*
X152865666Y-136650029D01*
X152479408Y-136908119D01*
X152221318Y-137294377D01*
X152130689Y-137750000D01*
X152221318Y-138205623D01*
X152479408Y-138591881D01*
X152865666Y-138849971D01*
X152948823Y-138866512D01*
X152507134Y-139053604D01*
X152097962Y-139469351D01*
X151918815Y-139837923D01*
X152026438Y-140067000D01*
X153277000Y-140067000D01*
X153277000Y-140047000D01*
X153723000Y-140047000D01*
X153723000Y-140067000D01*
X153743000Y-140067000D01*
X153743000Y-140513000D01*
X153723000Y-140513000D01*
X153723000Y-141624593D01*
X153825613Y-141681609D01*
X153603611Y-141903611D01*
X153451437Y-142131356D01*
X153398000Y-142400000D01*
X153398000Y-143323576D01*
X150000000Y-148760376D01*
X145852991Y-142125161D01*
X148567890Y-142125161D01*
X148663904Y-142357532D01*
X148841533Y-142535471D01*
X149073736Y-142631890D01*
X149325161Y-142632110D01*
X149557532Y-142536096D01*
X149700093Y-142393784D01*
X149841533Y-142535471D01*
X150073736Y-142631890D01*
X150325161Y-142632110D01*
X150557532Y-142536096D01*
X150700093Y-142393784D01*
X150841533Y-142535471D01*
X151073736Y-142631890D01*
X151325161Y-142632110D01*
X151557532Y-142536096D01*
X151735471Y-142358467D01*
X151831890Y-142126264D01*
X151832110Y-141874839D01*
X151736096Y-141642468D01*
X151558467Y-141464529D01*
X151326264Y-141368110D01*
X151074839Y-141367890D01*
X150842468Y-141463904D01*
X150699907Y-141606216D01*
X150558467Y-141464529D01*
X150326264Y-141368110D01*
X150074839Y-141367890D01*
X149842468Y-141463904D01*
X149699907Y-141606216D01*
X149558467Y-141464529D01*
X149326264Y-141368110D01*
X149074839Y-141367890D01*
X148842468Y-141463904D01*
X148664529Y-141641533D01*
X148568110Y-141873736D01*
X148567890Y-142125161D01*
X145852991Y-142125161D01*
X145127000Y-140963576D01*
X145127000Y-139875161D01*
X147117890Y-139875161D01*
X147213904Y-140107532D01*
X147391533Y-140285471D01*
X147482871Y-140323398D01*
X147364529Y-140441533D01*
X147268110Y-140673736D01*
X147267890Y-140925161D01*
X147363904Y-141157532D01*
X147541533Y-141335471D01*
X147773736Y-141431890D01*
X148025161Y-141432110D01*
X148257532Y-141336096D01*
X148435471Y-141158467D01*
X148531890Y-140926264D01*
X148532051Y-140742077D01*
X151918815Y-140742077D01*
X152097962Y-141110649D01*
X152507134Y-141526396D01*
X153044259Y-141753913D01*
X153277000Y-141624593D01*
X153277000Y-140513000D01*
X152026438Y-140513000D01*
X151918815Y-140742077D01*
X148532051Y-140742077D01*
X148532110Y-140674839D01*
X148436096Y-140442468D01*
X148258467Y-140264529D01*
X148167129Y-140226602D01*
X148285471Y-140108467D01*
X148381890Y-139876264D01*
X148382110Y-139624839D01*
X148286096Y-139392468D01*
X148108467Y-139214529D01*
X147876264Y-139118110D01*
X147624839Y-139117890D01*
X147392468Y-139213904D01*
X147214529Y-139391533D01*
X147118110Y-139623736D01*
X147117890Y-139875161D01*
X145127000Y-139875161D01*
X145127000Y-139051502D01*
X145211275Y-139016680D01*
X145415961Y-138812350D01*
X145526874Y-138545244D01*
X145527126Y-138256025D01*
X145510753Y-138216399D01*
X148650594Y-138216399D01*
X148650594Y-139943599D01*
X148673395Y-140064778D01*
X148745012Y-140176073D01*
X148854286Y-140250737D01*
X148984000Y-140277005D01*
X151016000Y-140277005D01*
X151137179Y-140254204D01*
X151248474Y-140182587D01*
X151323138Y-140073313D01*
X151349406Y-139943599D01*
X151349406Y-138216399D01*
X151326605Y-138095220D01*
X151254988Y-137983925D01*
X151145714Y-137909261D01*
X151016000Y-137882993D01*
X148984000Y-137882993D01*
X148862821Y-137905794D01*
X148751526Y-137977411D01*
X148676862Y-138086685D01*
X148650594Y-138216399D01*
X145510753Y-138216399D01*
X145452000Y-138074206D01*
X145452000Y-136539999D01*
X148630689Y-136539999D01*
X148721318Y-136995622D01*
X148979408Y-137381880D01*
X149365666Y-137639970D01*
X149821289Y-137730599D01*
X150178711Y-137730599D01*
X150634334Y-137639970D01*
X151020592Y-137381880D01*
X151278682Y-136995622D01*
X151369311Y-136539999D01*
X151278682Y-136084376D01*
X151020592Y-135698118D01*
X150634334Y-135440028D01*
X150178711Y-135349399D01*
X149821289Y-135349399D01*
X149365666Y-135440028D01*
X148979408Y-135698118D01*
X148721318Y-136084376D01*
X148630689Y-136539999D01*
X145452000Y-136539999D01*
X145452000Y-132675161D01*
X145617890Y-132675161D01*
X145713904Y-132907532D01*
X145891533Y-133085471D01*
X146123736Y-133181890D01*
X146375161Y-133182110D01*
X146607532Y-133086096D01*
X146785471Y-132908467D01*
X146881890Y-132676264D01*
X146882110Y-132424839D01*
X146799605Y-132225161D01*
X147367890Y-132225161D01*
X147463904Y-132457532D01*
X147641533Y-132635471D01*
X147873736Y-132731890D01*
X148125161Y-132732110D01*
X148357532Y-132636096D01*
X148535471Y-132458467D01*
X148605941Y-132288756D01*
X149007134Y-132696395D01*
X149448823Y-132883487D01*
X149365666Y-132900028D01*
X148979408Y-133158118D01*
X148721318Y-133544376D01*
X148630689Y-133999999D01*
X148721318Y-134455622D01*
X148979408Y-134841880D01*
X149365666Y-135099970D01*
X149821289Y-135190599D01*
X150178711Y-135190599D01*
X150634334Y-135099970D01*
X151020592Y-134841880D01*
X151278682Y-134455622D01*
X151369311Y-133999999D01*
X151278682Y-133544376D01*
X151020592Y-133158118D01*
X150634334Y-132900028D01*
X150551177Y-132883487D01*
X150992866Y-132696395D01*
X151402038Y-132280648D01*
X151581185Y-131912076D01*
X151473562Y-131682999D01*
X150223000Y-131682999D01*
X150223000Y-131702999D01*
X149777000Y-131702999D01*
X149777000Y-131682999D01*
X148526438Y-131682999D01*
X148510531Y-131716858D01*
X148358467Y-131564529D01*
X148126264Y-131468110D01*
X147874839Y-131467890D01*
X147642468Y-131563904D01*
X147464529Y-131741533D01*
X147368110Y-131973736D01*
X147367890Y-132225161D01*
X146799605Y-132225161D01*
X146786096Y-132192468D01*
X146608467Y-132014529D01*
X146376264Y-131918110D01*
X146124839Y-131917890D01*
X145892468Y-132013904D01*
X145714529Y-132191533D01*
X145618110Y-132423736D01*
X145617890Y-132675161D01*
X145452000Y-132675161D01*
X145452000Y-131007922D01*
X148418815Y-131007922D01*
X148526438Y-131236999D01*
X149777000Y-131236999D01*
X149777000Y-130125406D01*
X150223000Y-130125406D01*
X150223000Y-131236999D01*
X151473562Y-131236999D01*
X151526104Y-131125161D01*
X152267890Y-131125161D01*
X152363904Y-131357532D01*
X152541533Y-131535471D01*
X152773736Y-131631890D01*
X153025161Y-131632110D01*
X153257532Y-131536096D01*
X153435471Y-131358467D01*
X153531890Y-131126264D01*
X153532110Y-130874839D01*
X153436096Y-130642468D01*
X153258467Y-130464529D01*
X153026264Y-130368110D01*
X152774839Y-130367890D01*
X152542468Y-130463904D01*
X152364529Y-130641533D01*
X152268110Y-130873736D01*
X152267890Y-131125161D01*
X151526104Y-131125161D01*
X151581185Y-131007922D01*
X151402038Y-130639350D01*
X150992866Y-130223603D01*
X150455741Y-129996086D01*
X150223000Y-130125406D01*
X149777000Y-130125406D01*
X149544259Y-129996086D01*
X149007134Y-130223603D01*
X148597962Y-130639350D01*
X148418815Y-131007922D01*
X145452000Y-131007922D01*
X145452000Y-130375161D01*
X147117890Y-130375161D01*
X147213904Y-130607532D01*
X147391533Y-130785471D01*
X147623736Y-130881890D01*
X147875161Y-130882110D01*
X148107532Y-130786096D01*
X148285471Y-130608467D01*
X148381890Y-130376264D01*
X148382110Y-130124839D01*
X148286096Y-129892468D01*
X148108467Y-129714529D01*
X147876264Y-129618110D01*
X147624839Y-129617890D01*
X147392468Y-129713904D01*
X147214529Y-129891533D01*
X147118110Y-130123736D01*
X147117890Y-130375161D01*
X145452000Y-130375161D01*
X145452000Y-123125161D01*
X147117890Y-123125161D01*
X147213904Y-123357532D01*
X147391533Y-123535471D01*
X147623736Y-123631890D01*
X147875161Y-123632110D01*
X148107532Y-123536096D01*
X148199813Y-123443975D01*
X150072874Y-123443975D01*
X150183320Y-123711275D01*
X150387650Y-123915961D01*
X150654756Y-124026874D01*
X150943975Y-124027126D01*
X151211275Y-123916680D01*
X151415961Y-123712350D01*
X151526874Y-123445244D01*
X151527126Y-123156025D01*
X151416680Y-122888725D01*
X151212350Y-122684039D01*
X150945244Y-122573126D01*
X150656025Y-122572874D01*
X150388725Y-122683320D01*
X150184039Y-122887650D01*
X150073126Y-123154756D01*
X150072874Y-123443975D01*
X148199813Y-123443975D01*
X148285471Y-123358467D01*
X148381890Y-123126264D01*
X148382110Y-122874839D01*
X148341712Y-122777069D01*
X148473736Y-122831890D01*
X148725161Y-122832110D01*
X148957532Y-122736096D01*
X149135471Y-122558467D01*
X149231890Y-122326264D01*
X149232110Y-122074839D01*
X149136096Y-121842468D01*
X148958467Y-121664529D01*
X148726264Y-121568110D01*
X148474839Y-121567890D01*
X148242468Y-121663904D01*
X148064529Y-121841533D01*
X147968110Y-122073736D01*
X147967890Y-122325161D01*
X148008288Y-122422931D01*
X147876264Y-122368110D01*
X147624839Y-122367890D01*
X147392468Y-122463904D01*
X147214529Y-122641533D01*
X147118110Y-122873736D01*
X147117890Y-123125161D01*
X145452000Y-123125161D01*
X145452000Y-122275161D01*
X145917890Y-122275161D01*
X146013904Y-122507532D01*
X146191533Y-122685471D01*
X146423736Y-122781890D01*
X146675161Y-122782110D01*
X146907532Y-122686096D01*
X147085471Y-122508467D01*
X147181890Y-122276264D01*
X147182110Y-122024839D01*
X147086096Y-121792468D01*
X146908467Y-121614529D01*
X146676264Y-121518110D01*
X146424839Y-121517890D01*
X146192468Y-121613904D01*
X146014529Y-121791533D01*
X145918110Y-122023736D01*
X145917890Y-122275161D01*
X145452000Y-122275161D01*
X145452000Y-120975161D01*
X148117890Y-120975161D01*
X148213904Y-121207532D01*
X148391533Y-121385471D01*
X148623736Y-121481890D01*
X148875161Y-121482110D01*
X149107532Y-121386096D01*
X149285471Y-121208467D01*
X149361586Y-121025161D01*
X150217890Y-121025161D01*
X150313904Y-121257532D01*
X150491533Y-121435471D01*
X150723736Y-121531890D01*
X150975161Y-121532110D01*
X151207532Y-121436096D01*
X151385471Y-121258467D01*
X151481890Y-121026264D01*
X151482110Y-120774839D01*
X151386096Y-120542468D01*
X151208467Y-120364529D01*
X150976264Y-120268110D01*
X150724839Y-120267890D01*
X150492468Y-120363904D01*
X150314529Y-120541533D01*
X150218110Y-120773736D01*
X150217890Y-121025161D01*
X149361586Y-121025161D01*
X149381890Y-120976264D01*
X149382110Y-120724839D01*
X149286096Y-120492468D01*
X149108467Y-120314529D01*
X148876264Y-120218110D01*
X148624839Y-120217890D01*
X148392468Y-120313904D01*
X148214529Y-120491533D01*
X148118110Y-120723736D01*
X148117890Y-120975161D01*
X145452000Y-120975161D01*
X145452000Y-118375161D01*
X149467890Y-118375161D01*
X149563904Y-118607532D01*
X149741533Y-118785471D01*
X149973736Y-118881890D01*
X150225161Y-118882110D01*
X150457532Y-118786096D01*
X150484992Y-118758683D01*
X150626533Y-118900471D01*
X150858736Y-118996890D01*
X151110161Y-118997110D01*
X151342532Y-118901096D01*
X151520471Y-118723467D01*
X151616890Y-118491264D01*
X151617110Y-118239839D01*
X151521096Y-118007468D01*
X151343467Y-117829529D01*
X151111264Y-117733110D01*
X150859839Y-117732890D01*
X150627468Y-117828904D01*
X150600008Y-117856317D01*
X150458467Y-117714529D01*
X150226264Y-117618110D01*
X149974839Y-117617890D01*
X149742468Y-117713904D01*
X149564529Y-117891533D01*
X149468110Y-118123736D01*
X149467890Y-118375161D01*
X145452000Y-118375161D01*
X145452000Y-116175161D01*
X146067890Y-116175161D01*
X146163904Y-116407532D01*
X146341533Y-116585471D01*
X146573736Y-116681890D01*
X146825161Y-116682110D01*
X147057532Y-116586096D01*
X147235471Y-116408467D01*
X147331890Y-116176264D01*
X147332110Y-115924839D01*
X147236096Y-115692468D01*
X147058467Y-115514529D01*
X146826264Y-115418110D01*
X146574839Y-115417890D01*
X146342468Y-115513904D01*
X146164529Y-115691533D01*
X146068110Y-115923736D01*
X146067890Y-116175161D01*
X145452000Y-116175161D01*
X145452000Y-115393975D01*
X152122874Y-115393975D01*
X152233320Y-115661275D01*
X152437650Y-115865961D01*
X152704756Y-115976874D01*
X152993975Y-115977126D01*
X153261275Y-115866680D01*
X153465961Y-115662350D01*
X153576874Y-115395244D01*
X153577126Y-115106025D01*
X153466680Y-114838725D01*
X153262350Y-114634039D01*
X152995244Y-114523126D01*
X152706025Y-114522874D01*
X152438725Y-114633320D01*
X152234039Y-114837650D01*
X152123126Y-115104756D01*
X152122874Y-115393975D01*
X145452000Y-115393975D01*
X145452000Y-114575161D01*
X148367890Y-114575161D01*
X148463904Y-114807532D01*
X148641533Y-114985471D01*
X148873736Y-115081890D01*
X149125161Y-115082110D01*
X149357532Y-114986096D01*
X149535471Y-114808467D01*
X149631890Y-114576264D01*
X149632110Y-114324839D01*
X149536096Y-114092468D01*
X149358467Y-113914529D01*
X149126264Y-113818110D01*
X148874839Y-113817890D01*
X148642468Y-113913904D01*
X148464529Y-114091533D01*
X148368110Y-114323736D01*
X148367890Y-114575161D01*
X145452000Y-114575161D01*
X145452000Y-111125161D01*
X152367890Y-111125161D01*
X152463904Y-111357532D01*
X152641533Y-111535471D01*
X152873736Y-111631890D01*
X153125161Y-111632110D01*
X153357532Y-111536096D01*
X153535471Y-111358467D01*
X153631890Y-111126264D01*
X153632110Y-110874839D01*
X153536096Y-110642468D01*
X153358467Y-110464529D01*
X153126264Y-110368110D01*
X152874839Y-110367890D01*
X152642468Y-110463904D01*
X152464529Y-110641533D01*
X152368110Y-110873736D01*
X152367890Y-111125161D01*
X145452000Y-111125161D01*
X145452000Y-110225161D01*
X150317890Y-110225161D01*
X150413904Y-110457532D01*
X150591533Y-110635471D01*
X150823736Y-110731890D01*
X151075161Y-110732110D01*
X151307532Y-110636096D01*
X151485471Y-110458467D01*
X151581890Y-110226264D01*
X151582110Y-109974839D01*
X151486096Y-109742468D01*
X151308467Y-109564529D01*
X151076264Y-109468110D01*
X150824839Y-109467890D01*
X150592468Y-109563904D01*
X150414529Y-109741533D01*
X150318110Y-109973736D01*
X150317890Y-110225161D01*
X145452000Y-110225161D01*
X145452000Y-108157713D01*
X145513904Y-108307532D01*
X145691533Y-108485471D01*
X145868036Y-108558761D01*
X145867890Y-108725161D01*
X145963904Y-108957532D01*
X146141533Y-109135471D01*
X146373736Y-109231890D01*
X146625161Y-109232110D01*
X146857532Y-109136096D01*
X147035471Y-108958467D01*
X147131890Y-108726264D01*
X147132022Y-108575161D01*
X147717890Y-108575161D01*
X147813904Y-108807532D01*
X147991533Y-108985471D01*
X148223736Y-109081890D01*
X148475161Y-109082110D01*
X148707532Y-108986096D01*
X148885471Y-108808467D01*
X148981890Y-108576264D01*
X148982110Y-108324839D01*
X148886096Y-108092468D01*
X148708467Y-107914529D01*
X148476264Y-107818110D01*
X148224839Y-107817890D01*
X147992468Y-107913904D01*
X147814529Y-108091533D01*
X147718110Y-108323736D01*
X147717890Y-108575161D01*
X147132022Y-108575161D01*
X147132110Y-108474839D01*
X147036096Y-108242468D01*
X146858467Y-108064529D01*
X146681964Y-107991239D01*
X146682110Y-107824839D01*
X146640924Y-107725161D01*
X152267890Y-107725161D01*
X152363904Y-107957532D01*
X152541533Y-108135471D01*
X152773736Y-108231890D01*
X153025161Y-108232110D01*
X153257532Y-108136096D01*
X153435471Y-107958467D01*
X153531890Y-107726264D01*
X153532110Y-107474839D01*
X153436096Y-107242468D01*
X153258467Y-107064529D01*
X153026264Y-106968110D01*
X152774839Y-106967890D01*
X152542468Y-107063904D01*
X152364529Y-107241533D01*
X152268110Y-107473736D01*
X152267890Y-107725161D01*
X146640924Y-107725161D01*
X146586096Y-107592468D01*
X146408467Y-107414529D01*
X146176264Y-107318110D01*
X145924839Y-107317890D01*
X145692468Y-107413904D01*
X145514529Y-107591533D01*
X145452000Y-107742120D01*
X145452000Y-107103216D01*
X145458088Y-107107284D01*
X145486345Y-107135482D01*
X145522855Y-107150560D01*
X145555702Y-107172508D01*
X145594858Y-107180297D01*
X145631753Y-107195534D01*
X145671254Y-107195493D01*
X145710000Y-107203200D01*
X146412915Y-107203200D01*
X146413904Y-107205594D01*
X146591533Y-107383533D01*
X146823736Y-107479952D01*
X147075161Y-107480172D01*
X147307532Y-107384158D01*
X147485471Y-107206529D01*
X147581890Y-106974326D01*
X147582110Y-106722901D01*
X147486096Y-106490530D01*
X147308467Y-106312591D01*
X147076264Y-106216172D01*
X146824839Y-106215952D01*
X146592468Y-106311966D01*
X146507486Y-106396800D01*
X146040545Y-106396800D01*
X145903200Y-105710076D01*
X145903200Y-103896897D01*
X146041533Y-104035471D01*
X146273736Y-104131890D01*
X146525161Y-104132110D01*
X146757532Y-104036096D01*
X146935471Y-103858467D01*
X147031890Y-103626264D01*
X147031978Y-103525161D01*
X152617890Y-103525161D01*
X152713904Y-103757532D01*
X152891533Y-103935471D01*
X153123736Y-104031890D01*
X153375161Y-104032110D01*
X153607532Y-103936096D01*
X153785471Y-103758467D01*
X153881890Y-103526264D01*
X153882110Y-103274839D01*
X153786096Y-103042468D01*
X153608467Y-102864529D01*
X153376264Y-102768110D01*
X153124839Y-102767890D01*
X152892468Y-102863904D01*
X152714529Y-103041533D01*
X152618110Y-103273736D01*
X152617890Y-103525161D01*
X147031978Y-103525161D01*
X147032110Y-103374839D01*
X146936096Y-103142468D01*
X146758467Y-102964529D01*
X146526264Y-102868110D01*
X146274839Y-102867890D01*
X146042468Y-102963904D01*
X145878792Y-103127295D01*
X145872508Y-103095702D01*
X145864460Y-103083657D01*
X145860633Y-103069683D01*
X144860633Y-101069683D01*
X144859899Y-101068738D01*
X144859577Y-101067587D01*
X144848276Y-101053200D01*
X146909492Y-101053200D01*
X147041533Y-101185471D01*
X147271846Y-101281105D01*
X147192468Y-101313904D01*
X147014529Y-101491533D01*
X146918110Y-101723736D01*
X146917890Y-101975161D01*
X147013904Y-102207532D01*
X147191533Y-102385471D01*
X147423736Y-102481890D01*
X147675161Y-102482110D01*
X147907532Y-102386096D01*
X148085471Y-102208467D01*
X148181890Y-101976264D01*
X148182055Y-101787942D01*
X148307532Y-101736096D01*
X148485471Y-101558467D01*
X148561586Y-101375161D01*
X150817890Y-101375161D01*
X150913904Y-101607532D01*
X151091533Y-101785471D01*
X151323736Y-101881890D01*
X151575161Y-101882110D01*
X151807532Y-101786096D01*
X151985471Y-101608467D01*
X152020062Y-101525161D01*
X152467890Y-101525161D01*
X152563904Y-101757532D01*
X152741533Y-101935471D01*
X152973736Y-102031890D01*
X153225161Y-102032110D01*
X153457532Y-101936096D01*
X153635471Y-101758467D01*
X153731890Y-101526264D01*
X153732110Y-101274839D01*
X153636096Y-101042468D01*
X153458467Y-100864529D01*
X153226264Y-100768110D01*
X152974839Y-100767890D01*
X152742468Y-100863904D01*
X152564529Y-101041533D01*
X152468110Y-101273736D01*
X152467890Y-101525161D01*
X152020062Y-101525161D01*
X152081890Y-101376264D01*
X152082110Y-101124839D01*
X151986096Y-100892468D01*
X151808467Y-100714529D01*
X151576264Y-100618110D01*
X151324839Y-100617890D01*
X151092468Y-100713904D01*
X150914529Y-100891533D01*
X150818110Y-101123736D01*
X150817890Y-101375161D01*
X148561586Y-101375161D01*
X148581890Y-101326264D01*
X148582110Y-101074839D01*
X148486096Y-100842468D01*
X148308467Y-100664529D01*
X148076264Y-100568110D01*
X148032072Y-100568071D01*
X148032110Y-100524839D01*
X148001433Y-100450595D01*
X148157532Y-100386096D01*
X148228367Y-100315385D01*
X148448736Y-100406890D01*
X148517928Y-100406951D01*
X148517890Y-100450161D01*
X148613904Y-100682532D01*
X148791533Y-100860471D01*
X149023736Y-100956890D01*
X149275161Y-100957110D01*
X149507532Y-100861096D01*
X149537418Y-100831262D01*
X149591533Y-100885471D01*
X149823736Y-100981890D01*
X150075161Y-100982110D01*
X150307532Y-100886096D01*
X150485471Y-100708467D01*
X150581890Y-100476264D01*
X150582110Y-100224839D01*
X150486096Y-99992468D01*
X150468762Y-99975104D01*
X150510471Y-99933467D01*
X150606890Y-99701264D01*
X150607110Y-99449839D01*
X150511096Y-99217468D01*
X150333467Y-99039529D01*
X150101264Y-98943110D01*
X149849839Y-98942890D01*
X149617468Y-99038904D01*
X149439529Y-99216533D01*
X149343110Y-99448736D01*
X149342890Y-99700161D01*
X149353172Y-99725045D01*
X149276264Y-99693110D01*
X149207072Y-99693049D01*
X149207110Y-99649839D01*
X149111096Y-99417468D01*
X148933467Y-99239529D01*
X148701264Y-99143110D01*
X148449839Y-99142890D01*
X148217468Y-99238904D01*
X148146633Y-99309615D01*
X147926264Y-99218110D01*
X147674839Y-99217890D01*
X147442468Y-99313904D01*
X147264529Y-99491533D01*
X147168110Y-99723736D01*
X147167890Y-99975161D01*
X147198567Y-100049405D01*
X147042468Y-100113904D01*
X146909340Y-100246800D01*
X144531531Y-100246800D01*
X143159715Y-99091588D01*
X143128976Y-99074654D01*
X143102657Y-99051431D01*
X142197473Y-98525161D01*
X142767890Y-98525161D01*
X142863904Y-98757532D01*
X143041533Y-98935471D01*
X143273736Y-99031890D01*
X143525161Y-99032110D01*
X143757532Y-98936096D01*
X143935471Y-98758467D01*
X144031890Y-98526264D01*
X144032110Y-98274839D01*
X143936096Y-98042468D01*
X143818994Y-97925161D01*
X156967890Y-97925161D01*
X157063904Y-98157532D01*
X157241533Y-98335471D01*
X157473736Y-98431890D01*
X157725161Y-98432110D01*
X157957532Y-98336096D01*
X158135471Y-98158467D01*
X158231890Y-97926264D01*
X158232110Y-97674839D01*
X158211584Y-97625161D01*
X164917890Y-97625161D01*
X165013904Y-97857532D01*
X165191533Y-98035471D01*
X165423736Y-98131890D01*
X165675161Y-98132110D01*
X165907532Y-98036096D01*
X166085471Y-97858467D01*
X166181890Y-97626264D01*
X166181890Y-97625161D01*
X170867890Y-97625161D01*
X170963904Y-97857532D01*
X171141533Y-98035471D01*
X171373736Y-98131890D01*
X171625161Y-98132110D01*
X171857532Y-98036096D01*
X172035471Y-97858467D01*
X172131890Y-97626264D01*
X172132110Y-97374839D01*
X172036096Y-97142468D01*
X171858467Y-96964529D01*
X171626264Y-96868110D01*
X171374839Y-96867890D01*
X171142468Y-96963904D01*
X170964529Y-97141533D01*
X170868110Y-97373736D01*
X170867890Y-97625161D01*
X166181890Y-97625161D01*
X166182110Y-97374839D01*
X166086096Y-97142468D01*
X165908467Y-96964529D01*
X165676264Y-96868110D01*
X165424839Y-96867890D01*
X165192468Y-96963904D01*
X165014529Y-97141533D01*
X164918110Y-97373736D01*
X164917890Y-97625161D01*
X158211584Y-97625161D01*
X158136096Y-97442468D01*
X157958467Y-97264529D01*
X157726264Y-97168110D01*
X157474839Y-97167890D01*
X157242468Y-97263904D01*
X157064529Y-97441533D01*
X156968110Y-97673736D01*
X156967890Y-97925161D01*
X143818994Y-97925161D01*
X143758467Y-97864529D01*
X143526264Y-97768110D01*
X143274839Y-97767890D01*
X143042468Y-97863904D01*
X142864529Y-98041533D01*
X142768110Y-98273736D01*
X142767890Y-98525161D01*
X142197473Y-98525161D01*
X139531473Y-96975161D01*
X150967890Y-96975161D01*
X151063904Y-97207532D01*
X151241533Y-97385471D01*
X151473736Y-97481890D01*
X151725161Y-97482110D01*
X151957532Y-97386096D01*
X151999962Y-97343740D01*
X152091533Y-97435471D01*
X152323736Y-97531890D01*
X152575161Y-97532110D01*
X152807532Y-97436096D01*
X152985471Y-97258467D01*
X153081890Y-97026264D01*
X153081890Y-97025161D01*
X161367890Y-97025161D01*
X161463904Y-97257532D01*
X161641533Y-97435471D01*
X161873736Y-97531890D01*
X162125161Y-97532110D01*
X162357532Y-97436096D01*
X162535471Y-97258467D01*
X162631890Y-97026264D01*
X162632110Y-96774839D01*
X162566139Y-96615178D01*
X162757532Y-96536096D01*
X162935471Y-96358467D01*
X163031890Y-96126264D01*
X163032049Y-95943975D01*
X167072874Y-95943975D01*
X167183320Y-96211275D01*
X167387650Y-96415961D01*
X167654756Y-96526874D01*
X167943975Y-96527126D01*
X168211275Y-96416680D01*
X168415961Y-96212350D01*
X168431403Y-96175161D01*
X170867890Y-96175161D01*
X170963904Y-96407532D01*
X171141533Y-96585471D01*
X171373736Y-96681890D01*
X171625161Y-96682110D01*
X171857532Y-96586096D01*
X172035471Y-96408467D01*
X172121004Y-96202480D01*
X176102889Y-96202480D01*
X176209361Y-96457612D01*
X176831175Y-96648461D01*
X177478692Y-96586825D01*
X177790639Y-96457612D01*
X177897111Y-96202480D01*
X177769792Y-96075161D01*
X181267890Y-96075161D01*
X181363904Y-96307532D01*
X181541533Y-96485471D01*
X181773736Y-96581890D01*
X182025161Y-96582110D01*
X182257532Y-96486096D01*
X182435471Y-96308467D01*
X182531890Y-96076264D01*
X182532110Y-95824839D01*
X182436096Y-95592468D01*
X182258467Y-95414529D01*
X182026264Y-95318110D01*
X181774839Y-95317890D01*
X181542468Y-95413904D01*
X181364529Y-95591533D01*
X181268110Y-95823736D01*
X181267890Y-96075161D01*
X177769792Y-96075161D01*
X177000000Y-95305370D01*
X176102889Y-96202480D01*
X172121004Y-96202480D01*
X172131890Y-96176264D01*
X172132110Y-95924839D01*
X172036096Y-95692468D01*
X171858467Y-95514529D01*
X171626264Y-95418110D01*
X171374839Y-95417890D01*
X171142468Y-95513904D01*
X170964529Y-95691533D01*
X170868110Y-95923736D01*
X170867890Y-96175161D01*
X168431403Y-96175161D01*
X168526874Y-95945244D01*
X168527126Y-95656025D01*
X168416680Y-95388725D01*
X168212350Y-95184039D01*
X167945244Y-95073126D01*
X167656025Y-95072874D01*
X167388725Y-95183320D01*
X167184039Y-95387650D01*
X167073126Y-95654756D01*
X167072874Y-95943975D01*
X163032049Y-95943975D01*
X163032110Y-95874839D01*
X162936096Y-95642468D01*
X162758467Y-95464529D01*
X162526264Y-95368110D01*
X162274839Y-95367890D01*
X162042468Y-95463904D01*
X161864529Y-95641533D01*
X161768110Y-95873736D01*
X161767890Y-96125161D01*
X161833861Y-96284822D01*
X161642468Y-96363904D01*
X161464529Y-96541533D01*
X161368110Y-96773736D01*
X161367890Y-97025161D01*
X153081890Y-97025161D01*
X153082110Y-96774839D01*
X152986096Y-96542468D01*
X152808467Y-96364529D01*
X152653452Y-96300161D01*
X157467890Y-96300161D01*
X157563904Y-96532532D01*
X157741533Y-96710471D01*
X157973736Y-96806890D01*
X158225161Y-96807110D01*
X158457532Y-96711096D01*
X158571084Y-96597742D01*
X158773736Y-96681890D01*
X159025161Y-96682110D01*
X159158396Y-96627058D01*
X159316533Y-96785471D01*
X159548736Y-96881890D01*
X159800161Y-96882110D01*
X160032532Y-96786096D01*
X160210471Y-96608467D01*
X160306890Y-96376264D01*
X160307110Y-96124839D01*
X160211096Y-95892468D01*
X160033467Y-95714529D01*
X159801264Y-95618110D01*
X159549839Y-95617890D01*
X159416604Y-95672942D01*
X159258467Y-95514529D01*
X159026264Y-95418110D01*
X158774839Y-95417890D01*
X158542468Y-95513904D01*
X158428916Y-95627258D01*
X158226264Y-95543110D01*
X157974839Y-95542890D01*
X157742468Y-95638904D01*
X157564529Y-95816533D01*
X157468110Y-96048736D01*
X157467890Y-96300161D01*
X152653452Y-96300161D01*
X152576264Y-96268110D01*
X152324839Y-96267890D01*
X152092468Y-96363904D01*
X152050038Y-96406260D01*
X151958467Y-96314529D01*
X151726264Y-96218110D01*
X151474839Y-96217890D01*
X151242468Y-96313904D01*
X151064529Y-96491533D01*
X150968110Y-96723736D01*
X150967890Y-96975161D01*
X139531473Y-96975161D01*
X138848010Y-96577799D01*
X137585105Y-95314895D01*
X137454298Y-95227492D01*
X137442579Y-95225161D01*
X137300000Y-95196800D01*
X136217011Y-95196800D01*
X135945372Y-94925161D01*
X142467890Y-94925161D01*
X142563904Y-95157532D01*
X142741533Y-95335471D01*
X142973736Y-95431890D01*
X143225161Y-95432110D01*
X143291990Y-95404497D01*
X143313904Y-95457532D01*
X143491533Y-95635471D01*
X143723736Y-95731890D01*
X143975161Y-95732110D01*
X144207532Y-95636096D01*
X144255798Y-95587914D01*
X144263904Y-95607532D01*
X144441533Y-95785471D01*
X144673736Y-95881890D01*
X144925161Y-95882110D01*
X145157532Y-95786096D01*
X145335471Y-95608467D01*
X145431890Y-95376264D01*
X145431934Y-95325161D01*
X155242890Y-95325161D01*
X155338904Y-95557532D01*
X155516533Y-95735471D01*
X155748736Y-95831890D01*
X156000161Y-95832110D01*
X156232532Y-95736096D01*
X156410471Y-95558467D01*
X156506890Y-95326264D01*
X156506997Y-95204178D01*
X156573736Y-95231890D01*
X156825161Y-95232110D01*
X157057532Y-95136096D01*
X157235471Y-94958467D01*
X157292479Y-94821175D01*
X175341539Y-94821175D01*
X175403175Y-95468692D01*
X175532388Y-95780639D01*
X175787520Y-95887111D01*
X176684630Y-94990000D01*
X177315370Y-94990000D01*
X178212480Y-95887111D01*
X178467612Y-95780639D01*
X178658461Y-95158825D01*
X178596825Y-94511308D01*
X178467612Y-94199361D01*
X178212480Y-94092889D01*
X177315370Y-94990000D01*
X176684630Y-94990000D01*
X175787520Y-94092889D01*
X175532388Y-94199361D01*
X175341539Y-94821175D01*
X157292479Y-94821175D01*
X157331890Y-94726264D01*
X157332110Y-94474839D01*
X157236096Y-94242468D01*
X157058467Y-94064529D01*
X156902969Y-93999960D01*
X157057532Y-93936096D01*
X157149813Y-93843975D01*
X173472874Y-93843975D01*
X173583320Y-94111275D01*
X173787650Y-94315961D01*
X174054756Y-94426874D01*
X174343975Y-94427126D01*
X174611275Y-94316680D01*
X174815961Y-94112350D01*
X174926874Y-93845244D01*
X174926933Y-93777520D01*
X176102889Y-93777520D01*
X177000000Y-94674630D01*
X177897111Y-93777520D01*
X177854395Y-93675161D01*
X185267890Y-93675161D01*
X185363904Y-93907532D01*
X185541533Y-94085471D01*
X185773736Y-94181890D01*
X186025161Y-94182110D01*
X186257532Y-94086096D01*
X186435471Y-93908467D01*
X186531890Y-93676264D01*
X186532110Y-93424839D01*
X186436096Y-93192468D01*
X186258467Y-93014529D01*
X186026264Y-92918110D01*
X185774839Y-92917890D01*
X185542468Y-93013904D01*
X185364529Y-93191533D01*
X185268110Y-93423736D01*
X185267890Y-93675161D01*
X177854395Y-93675161D01*
X177790639Y-93522388D01*
X177168825Y-93331539D01*
X176521308Y-93393175D01*
X176209361Y-93522388D01*
X176102889Y-93777520D01*
X174926933Y-93777520D01*
X174927126Y-93556025D01*
X174816680Y-93288725D01*
X174612350Y-93084039D01*
X174345244Y-92973126D01*
X174056025Y-92972874D01*
X173788725Y-93083320D01*
X173584039Y-93287650D01*
X173473126Y-93554756D01*
X173472874Y-93843975D01*
X157149813Y-93843975D01*
X157235471Y-93758467D01*
X157331890Y-93526264D01*
X157332110Y-93274839D01*
X157236096Y-93042468D01*
X157058467Y-92864529D01*
X156902969Y-92799960D01*
X157057532Y-92736096D01*
X157235471Y-92558467D01*
X157331890Y-92326264D01*
X157331978Y-92225161D01*
X170167890Y-92225161D01*
X170263904Y-92457532D01*
X170441533Y-92635471D01*
X170673736Y-92731890D01*
X170925161Y-92732110D01*
X171157532Y-92636096D01*
X171335471Y-92458467D01*
X171431890Y-92226264D01*
X171432105Y-91980573D01*
X171463904Y-92057532D01*
X171641533Y-92235471D01*
X171873736Y-92331890D01*
X172125161Y-92332110D01*
X172357532Y-92236096D01*
X172535471Y-92058467D01*
X172631890Y-91826264D01*
X172632065Y-91625161D01*
X175567890Y-91625161D01*
X175663904Y-91857532D01*
X175841533Y-92035471D01*
X176073736Y-92131890D01*
X176325161Y-92132110D01*
X176557532Y-92036096D01*
X176735471Y-91858467D01*
X176831890Y-91626264D01*
X176832110Y-91374839D01*
X176736096Y-91142468D01*
X176558467Y-90964529D01*
X176326264Y-90868110D01*
X176074839Y-90867890D01*
X175842468Y-90963904D01*
X175664529Y-91141533D01*
X175568110Y-91373736D01*
X175567890Y-91625161D01*
X172632065Y-91625161D01*
X172632110Y-91574839D01*
X172536096Y-91342468D01*
X172358467Y-91164529D01*
X172126264Y-91068110D01*
X171874839Y-91067890D01*
X171642468Y-91163904D01*
X171464529Y-91341533D01*
X171368110Y-91573736D01*
X171367895Y-91819427D01*
X171336096Y-91742468D01*
X171158467Y-91564529D01*
X170926264Y-91468110D01*
X170674839Y-91467890D01*
X170442468Y-91563904D01*
X170264529Y-91741533D01*
X170168110Y-91973736D01*
X170167890Y-92225161D01*
X157331978Y-92225161D01*
X157332110Y-92074839D01*
X157236096Y-91842468D01*
X157058467Y-91664529D01*
X156826264Y-91568110D01*
X156632029Y-91567940D01*
X156632110Y-91474839D01*
X156536096Y-91242468D01*
X156358467Y-91064529D01*
X156126264Y-90968110D01*
X155874839Y-90967890D01*
X155642468Y-91063904D01*
X155464529Y-91241533D01*
X155368110Y-91473736D01*
X155367890Y-91725161D01*
X155463904Y-91957532D01*
X155641533Y-92135471D01*
X155797031Y-92200040D01*
X155642468Y-92263904D01*
X155464529Y-92441533D01*
X155368110Y-92673736D01*
X155367890Y-92925161D01*
X155463904Y-93157532D01*
X155641533Y-93335471D01*
X155797031Y-93400040D01*
X155642468Y-93463904D01*
X155464529Y-93641533D01*
X155368110Y-93873736D01*
X155367890Y-94125161D01*
X155463904Y-94357532D01*
X155641533Y-94535471D01*
X155734686Y-94574151D01*
X155517468Y-94663904D01*
X155339529Y-94841533D01*
X155243110Y-95073736D01*
X155242890Y-95325161D01*
X145431934Y-95325161D01*
X145432110Y-95124839D01*
X145336096Y-94892468D01*
X145158467Y-94714529D01*
X144926264Y-94618110D01*
X144674839Y-94617890D01*
X144442468Y-94713904D01*
X144394202Y-94762086D01*
X144386096Y-94742468D01*
X144208467Y-94564529D01*
X143976264Y-94468110D01*
X143724839Y-94467890D01*
X143658010Y-94495503D01*
X143636096Y-94442468D01*
X143458467Y-94264529D01*
X143226264Y-94168110D01*
X142974839Y-94167890D01*
X142742468Y-94263904D01*
X142564529Y-94441533D01*
X142468110Y-94673736D01*
X142467890Y-94925161D01*
X135945372Y-94925161D01*
X135881946Y-94861736D01*
X135882110Y-94674839D01*
X135786096Y-94442468D01*
X135608467Y-94264529D01*
X135579476Y-94252491D01*
X135631890Y-94126264D01*
X135632110Y-93874839D01*
X135601254Y-93800161D01*
X149142890Y-93800161D01*
X149238904Y-94032532D01*
X149416533Y-94210471D01*
X149648736Y-94306890D01*
X149900161Y-94307110D01*
X150132532Y-94211096D01*
X150310471Y-94033467D01*
X150406890Y-93801264D01*
X150407110Y-93549839D01*
X150311096Y-93317468D01*
X150133467Y-93139529D01*
X149901264Y-93043110D01*
X149649839Y-93042890D01*
X149417468Y-93138904D01*
X149239529Y-93316533D01*
X149143110Y-93548736D01*
X149142890Y-93800161D01*
X135601254Y-93800161D01*
X135536096Y-93642468D01*
X135358467Y-93464529D01*
X135126264Y-93368110D01*
X134874839Y-93367890D01*
X134642468Y-93463904D01*
X134464529Y-93641533D01*
X134368110Y-93873736D01*
X134367890Y-94125161D01*
X134463904Y-94357532D01*
X134641533Y-94535471D01*
X134670524Y-94547509D01*
X134618110Y-94673736D01*
X134618027Y-94768059D01*
X134424839Y-94767890D01*
X134192468Y-94863904D01*
X134175082Y-94881260D01*
X134108467Y-94814529D01*
X133876264Y-94718110D01*
X133624839Y-94717890D01*
X133392468Y-94813904D01*
X133214529Y-94991533D01*
X133209844Y-95002815D01*
X133126264Y-94968110D01*
X132874839Y-94967890D01*
X132642468Y-95063904D01*
X132464529Y-95241533D01*
X132368110Y-95473736D01*
X132367890Y-95725161D01*
X132463904Y-95957532D01*
X132641533Y-96135471D01*
X132873736Y-96231890D01*
X132967972Y-96231972D01*
X132967890Y-96325161D01*
X133063904Y-96557532D01*
X133241533Y-96735471D01*
X133473736Y-96831890D01*
X133725161Y-96832110D01*
X133957532Y-96736096D01*
X134135471Y-96558467D01*
X134231890Y-96326264D01*
X134232110Y-96074839D01*
X134162512Y-95906399D01*
X134191533Y-95935471D01*
X134423736Y-96031890D01*
X134675161Y-96032110D01*
X134907532Y-95936096D01*
X135085471Y-95758467D01*
X135181890Y-95526264D01*
X135181973Y-95431941D01*
X135311844Y-95432055D01*
X135764895Y-95885106D01*
X135869932Y-95955289D01*
X135895702Y-95972508D01*
X136050000Y-96003200D01*
X136068161Y-96003200D01*
X136018110Y-96123736D01*
X136017890Y-96375161D01*
X136113904Y-96607532D01*
X136291533Y-96785471D01*
X136523736Y-96881890D01*
X136775161Y-96882110D01*
X137007532Y-96786096D01*
X137185471Y-96608467D01*
X137281890Y-96376264D01*
X137282086Y-96152296D01*
X138314895Y-97185106D01*
X138358247Y-97214073D01*
X138397343Y-97248569D01*
X139286480Y-97765509D01*
X125966280Y-98113858D01*
X125981890Y-98076264D01*
X125982110Y-97824839D01*
X125886096Y-97592468D01*
X125708467Y-97414529D01*
X125476264Y-97318110D01*
X125224839Y-97317890D01*
X124992468Y-97413904D01*
X124814529Y-97591533D01*
X124718110Y-97823736D01*
X124717890Y-98075161D01*
X124747054Y-98145743D01*
X122823409Y-98196050D01*
X121509811Y-98008393D01*
X120403200Y-97534132D01*
X120403200Y-94475161D01*
X120917890Y-94475161D01*
X121013904Y-94707532D01*
X121191533Y-94885471D01*
X121423736Y-94981890D01*
X121675161Y-94982110D01*
X121907532Y-94886096D01*
X122085471Y-94708467D01*
X122181890Y-94476264D01*
X122182022Y-94325161D01*
X125167890Y-94325161D01*
X125263904Y-94557532D01*
X125441533Y-94735471D01*
X125668061Y-94829534D01*
X125667890Y-95025161D01*
X125763904Y-95257532D01*
X125941533Y-95435471D01*
X126173736Y-95531890D01*
X126425161Y-95532110D01*
X126657532Y-95436096D01*
X126835471Y-95258467D01*
X126931890Y-95026264D01*
X126932110Y-94774839D01*
X126836096Y-94542468D01*
X126658467Y-94364529D01*
X126431939Y-94270466D01*
X126432110Y-94074839D01*
X126336096Y-93842468D01*
X126158467Y-93664529D01*
X125926264Y-93568110D01*
X125674839Y-93567890D01*
X125442468Y-93663904D01*
X125264529Y-93841533D01*
X125168110Y-94073736D01*
X125167890Y-94325161D01*
X122182022Y-94325161D01*
X122182110Y-94224839D01*
X122086096Y-93992468D01*
X121908467Y-93814529D01*
X121676264Y-93718110D01*
X121424839Y-93717890D01*
X121192468Y-93813904D01*
X121014529Y-93991533D01*
X120918110Y-94223736D01*
X120917890Y-94475161D01*
X120403200Y-94475161D01*
X120403200Y-93617010D01*
X121870049Y-92150161D01*
X134267890Y-92150161D01*
X134363904Y-92382532D01*
X134541533Y-92560471D01*
X134773736Y-92656890D01*
X135025161Y-92657110D01*
X135257532Y-92561096D01*
X135435471Y-92383467D01*
X135531890Y-92151264D01*
X135532110Y-91899839D01*
X135436096Y-91667468D01*
X135258467Y-91489529D01*
X135026264Y-91393110D01*
X134774839Y-91392890D01*
X134542468Y-91488904D01*
X134364529Y-91666533D01*
X134268110Y-91898736D01*
X134267890Y-92150161D01*
X121870049Y-92150161D01*
X124017954Y-90002257D01*
X124017890Y-90075161D01*
X124113904Y-90307532D01*
X124291533Y-90485471D01*
X124523736Y-90581890D01*
X124775161Y-90582110D01*
X125007532Y-90486096D01*
X125185471Y-90308467D01*
X125281890Y-90076264D01*
X125282110Y-89824839D01*
X125186096Y-89592468D01*
X125053200Y-89459340D01*
X125053200Y-89300000D01*
X125022508Y-89145702D01*
X124983225Y-89086911D01*
X124935105Y-89014894D01*
X124835105Y-88914895D01*
X124704298Y-88827492D01*
X124550000Y-88796800D01*
X124250000Y-88796800D01*
X124095702Y-88827492D01*
X124007388Y-88886502D01*
X124035471Y-88858467D01*
X124131890Y-88626264D01*
X124132093Y-88393854D01*
X125133082Y-88348355D01*
X125129178Y-88360841D01*
X125106402Y-88412534D01*
X125105893Y-88435322D01*
X125099091Y-88457081D01*
X125104152Y-88513345D01*
X125102891Y-88569815D01*
X125111142Y-88591064D01*
X125113184Y-88613769D01*
X125596800Y-90258064D01*
X125596800Y-91050000D01*
X125620250Y-91167890D01*
X125620343Y-91168358D01*
X125618110Y-91173736D01*
X125617890Y-91425161D01*
X125713904Y-91657532D01*
X125891533Y-91835471D01*
X126123736Y-91931890D01*
X126375161Y-91932110D01*
X126607532Y-91836096D01*
X126785471Y-91658467D01*
X126881890Y-91426264D01*
X126882110Y-91174839D01*
X126786096Y-90942468D01*
X126608467Y-90764529D01*
X126403200Y-90679295D01*
X126403200Y-90200000D01*
X126391972Y-90143551D01*
X126386816Y-90086231D01*
X126243855Y-89600161D01*
X139217890Y-89600161D01*
X139313904Y-89832532D01*
X139491533Y-90010471D01*
X139723736Y-90106890D01*
X139949122Y-90107087D01*
X139864529Y-90191533D01*
X139768110Y-90423736D01*
X139767890Y-90675161D01*
X139863904Y-90907532D01*
X140041533Y-91085471D01*
X140273736Y-91181890D01*
X140467971Y-91182060D01*
X140467890Y-91275161D01*
X140563904Y-91507532D01*
X140741533Y-91685471D01*
X140868054Y-91738007D01*
X140867890Y-91925161D01*
X140963904Y-92157532D01*
X141141533Y-92335471D01*
X141373736Y-92431890D01*
X141625161Y-92432110D01*
X141857532Y-92336096D01*
X142035471Y-92158467D01*
X142131890Y-91926264D01*
X142132110Y-91674839D01*
X142036096Y-91442468D01*
X141858467Y-91264529D01*
X141731946Y-91211993D01*
X141732110Y-91024839D01*
X141690924Y-90925161D01*
X166667890Y-90925161D01*
X166763904Y-91157532D01*
X166941533Y-91335471D01*
X167173736Y-91431890D01*
X167425161Y-91432110D01*
X167657532Y-91336096D01*
X167835471Y-91158467D01*
X167931890Y-90926264D01*
X167932110Y-90674839D01*
X167836096Y-90442468D01*
X167658467Y-90264529D01*
X167426264Y-90168110D01*
X167174839Y-90167890D01*
X166942468Y-90263904D01*
X166764529Y-90441533D01*
X166668110Y-90673736D01*
X166667890Y-90925161D01*
X141690924Y-90925161D01*
X141636096Y-90792468D01*
X141458467Y-90614529D01*
X141226264Y-90518110D01*
X141032029Y-90517940D01*
X141032110Y-90424839D01*
X140936096Y-90192468D01*
X140758467Y-90014529D01*
X140526264Y-89918110D01*
X140300878Y-89917913D01*
X140385471Y-89833467D01*
X140481890Y-89601264D01*
X140482110Y-89349839D01*
X140386096Y-89117468D01*
X140208467Y-88939529D01*
X139976264Y-88843110D01*
X139724839Y-88842890D01*
X139492468Y-88938904D01*
X139314529Y-89116533D01*
X139218110Y-89348736D01*
X139217890Y-89600161D01*
X126243855Y-89600161D01*
X125972420Y-88677286D01*
X126593638Y-88281966D01*
X130005767Y-88126869D01*
X130054672Y-88114630D01*
X130094962Y-88084328D01*
X130113592Y-88056796D01*
X131113592Y-86056796D01*
X131126740Y-86008128D01*
X131119916Y-85958178D01*
X131089803Y-85910197D01*
X130089803Y-84910197D01*
X130047789Y-84882334D01*
X130000000Y-84873000D01*
X129094030Y-84873000D01*
X128927503Y-84817491D01*
X128863388Y-84809409D01*
X128800000Y-84796800D01*
X126049638Y-84796800D01*
X124619400Y-84439242D01*
X124386388Y-84175161D01*
X130692890Y-84175161D01*
X130788904Y-84407532D01*
X130966533Y-84585471D01*
X131068085Y-84627639D01*
X131067890Y-84850161D01*
X131163904Y-85082532D01*
X131341533Y-85260471D01*
X131573736Y-85356890D01*
X131781075Y-85357071D01*
X131863904Y-85557532D01*
X132041533Y-85735471D01*
X132273736Y-85831890D01*
X132525161Y-85832110D01*
X132757532Y-85736096D01*
X132935471Y-85558467D01*
X133031890Y-85326264D01*
X133032110Y-85074839D01*
X132936096Y-84842468D01*
X132758467Y-84664529D01*
X132526264Y-84568110D01*
X132318925Y-84567929D01*
X132236096Y-84367468D01*
X132058467Y-84189529D01*
X131956915Y-84147361D01*
X131957110Y-83924839D01*
X131861096Y-83692468D01*
X131683467Y-83514529D01*
X131588659Y-83475161D01*
X138017890Y-83475161D01*
X138113904Y-83707532D01*
X138291533Y-83885471D01*
X138447031Y-83950040D01*
X138292468Y-84013904D01*
X138114529Y-84191533D01*
X138018110Y-84423736D01*
X138017890Y-84675161D01*
X138113904Y-84907532D01*
X138291533Y-85085471D01*
X138447031Y-85150040D01*
X138292468Y-85213904D01*
X138114529Y-85391533D01*
X138018110Y-85623736D01*
X138017890Y-85875161D01*
X138113904Y-86107532D01*
X138291533Y-86285471D01*
X138447031Y-86350040D01*
X138292468Y-86413904D01*
X138114529Y-86591533D01*
X138018110Y-86823736D01*
X138017890Y-87075161D01*
X138113904Y-87307532D01*
X138291533Y-87485471D01*
X138523736Y-87581890D01*
X138617972Y-87581972D01*
X138617890Y-87675161D01*
X138713904Y-87907532D01*
X138891533Y-88085471D01*
X139123736Y-88181890D01*
X139375161Y-88182110D01*
X139607532Y-88086096D01*
X139785471Y-87908467D01*
X139881890Y-87676264D01*
X139882110Y-87424839D01*
X139786096Y-87192468D01*
X139608467Y-87014529D01*
X139452969Y-86949960D01*
X139607532Y-86886096D01*
X139785471Y-86708467D01*
X139881890Y-86476264D01*
X139882110Y-86224839D01*
X139786096Y-85992468D01*
X139608467Y-85814529D01*
X139452969Y-85749960D01*
X139607532Y-85686096D01*
X139785471Y-85508467D01*
X139881890Y-85276264D01*
X139882110Y-85024839D01*
X139786096Y-84792468D01*
X139608467Y-84614529D01*
X139452969Y-84549960D01*
X139607532Y-84486096D01*
X139785471Y-84308467D01*
X139881890Y-84076264D01*
X139882110Y-83824839D01*
X139786096Y-83592468D01*
X139608467Y-83414529D01*
X139392613Y-83324899D01*
X139607532Y-83236096D01*
X139785471Y-83058467D01*
X139840824Y-82925161D01*
X142767890Y-82925161D01*
X142863904Y-83157532D01*
X143041533Y-83335471D01*
X143273736Y-83431890D01*
X143367972Y-83431972D01*
X143367890Y-83525161D01*
X143463904Y-83757532D01*
X143641533Y-83935471D01*
X143873736Y-84031890D01*
X144125161Y-84032110D01*
X144357532Y-83936096D01*
X144535471Y-83758467D01*
X144620750Y-83553092D01*
X144663904Y-83657532D01*
X144841533Y-83835471D01*
X145073736Y-83931890D01*
X145325161Y-83932110D01*
X145557532Y-83836096D01*
X145735471Y-83658467D01*
X145829497Y-83432026D01*
X145925161Y-83432110D01*
X146157532Y-83336096D01*
X146335471Y-83158467D01*
X146431890Y-82926264D01*
X146431890Y-82925161D01*
X156167890Y-82925161D01*
X156263904Y-83157532D01*
X156441533Y-83335471D01*
X156597031Y-83400040D01*
X156442468Y-83463904D01*
X156264529Y-83641533D01*
X156168110Y-83873736D01*
X156167890Y-84125161D01*
X156263904Y-84357532D01*
X156441533Y-84535471D01*
X156673736Y-84631890D01*
X156925161Y-84632110D01*
X156967987Y-84614415D01*
X156967925Y-84685409D01*
X156926264Y-84668110D01*
X156674839Y-84667890D01*
X156442468Y-84763904D01*
X156264529Y-84941533D01*
X156168110Y-85173736D01*
X156167890Y-85425161D01*
X156263904Y-85657532D01*
X156441533Y-85835471D01*
X156673736Y-85931890D01*
X156925161Y-85932110D01*
X156967987Y-85914415D01*
X156967890Y-86025161D01*
X157063904Y-86257532D01*
X157241533Y-86435471D01*
X157473736Y-86531890D01*
X157725161Y-86532110D01*
X157957532Y-86436096D01*
X158135471Y-86258467D01*
X158231890Y-86026264D01*
X158232110Y-85774839D01*
X158136096Y-85542468D01*
X157958467Y-85364529D01*
X157726264Y-85268110D01*
X157474839Y-85267890D01*
X157432013Y-85285585D01*
X157432075Y-85214591D01*
X157473736Y-85231890D01*
X157725161Y-85232110D01*
X157862987Y-85175161D01*
X159067890Y-85175161D01*
X159163904Y-85407532D01*
X159341533Y-85585471D01*
X159573736Y-85681890D01*
X159825161Y-85682110D01*
X160057532Y-85586096D01*
X160175005Y-85468827D01*
X160241533Y-85535471D01*
X160263294Y-85544507D01*
X160168110Y-85773736D01*
X160167890Y-86025161D01*
X160263904Y-86257532D01*
X160441533Y-86435471D01*
X160568097Y-86488025D01*
X160567890Y-86725161D01*
X160663904Y-86957532D01*
X160841533Y-87135471D01*
X160897497Y-87158709D01*
X160814529Y-87241533D01*
X160718110Y-87473736D01*
X160717890Y-87725161D01*
X160813904Y-87957532D01*
X160991533Y-88135471D01*
X161223736Y-88231890D01*
X161475161Y-88232110D01*
X161707532Y-88136096D01*
X161885471Y-87958467D01*
X161981890Y-87726264D01*
X161982110Y-87474839D01*
X161886096Y-87242468D01*
X161708467Y-87064529D01*
X161652503Y-87041291D01*
X161735471Y-86958467D01*
X161831890Y-86726264D01*
X161832110Y-86474839D01*
X161736096Y-86242468D01*
X161558467Y-86064529D01*
X161431903Y-86011975D01*
X161432110Y-85774839D01*
X161336096Y-85542468D01*
X161158467Y-85364529D01*
X161136706Y-85355493D01*
X161147509Y-85329476D01*
X161273736Y-85381890D01*
X161525161Y-85382110D01*
X161757532Y-85286096D01*
X161935471Y-85108467D01*
X162031890Y-84876264D01*
X162032110Y-84624839D01*
X161936096Y-84392468D01*
X161758467Y-84214529D01*
X161526264Y-84118110D01*
X161274839Y-84117890D01*
X161042468Y-84213904D01*
X160864529Y-84391533D01*
X160852491Y-84420524D01*
X160726264Y-84368110D01*
X160474839Y-84367890D01*
X160242468Y-84463904D01*
X160124995Y-84581173D01*
X160058467Y-84514529D01*
X159826264Y-84418110D01*
X159574839Y-84417890D01*
X159342468Y-84513904D01*
X159164529Y-84691533D01*
X159068110Y-84923736D01*
X159067890Y-85175161D01*
X157862987Y-85175161D01*
X157957532Y-85136096D01*
X158135471Y-84958467D01*
X158231890Y-84726264D01*
X158232110Y-84474839D01*
X158136096Y-84242468D01*
X157958467Y-84064529D01*
X157802969Y-83999960D01*
X157957532Y-83936096D01*
X158135471Y-83758467D01*
X158231890Y-83526264D01*
X158232110Y-83274839D01*
X158136096Y-83042468D01*
X157969081Y-82875161D01*
X158467890Y-82875161D01*
X158563904Y-83107532D01*
X158741533Y-83285471D01*
X158973736Y-83381890D01*
X159225161Y-83382110D01*
X159457532Y-83286096D01*
X159525049Y-83218697D01*
X159691533Y-83385471D01*
X159923736Y-83481890D01*
X160070724Y-83482019D01*
X160163904Y-83707532D01*
X160341533Y-83885471D01*
X160573736Y-83981890D01*
X160825161Y-83982110D01*
X161057532Y-83886096D01*
X161235471Y-83708467D01*
X161331890Y-83476264D01*
X161332109Y-83225161D01*
X163467890Y-83225161D01*
X163563904Y-83457532D01*
X163741533Y-83635471D01*
X163973736Y-83731890D01*
X164225161Y-83732110D01*
X164457532Y-83636096D01*
X164468486Y-83625161D01*
X165117890Y-83625161D01*
X165213904Y-83857532D01*
X165391533Y-84035471D01*
X165623736Y-84131890D01*
X165875161Y-84132110D01*
X166107532Y-84036096D01*
X166285471Y-83858467D01*
X166381890Y-83626264D01*
X166382110Y-83374839D01*
X166286096Y-83142468D01*
X166108467Y-82964529D01*
X165876264Y-82868110D01*
X165624839Y-82867890D01*
X165392468Y-82963904D01*
X165214529Y-83141533D01*
X165118110Y-83373736D01*
X165117890Y-83625161D01*
X164468486Y-83625161D01*
X164635471Y-83458467D01*
X164731890Y-83226264D01*
X164732110Y-82974839D01*
X164636096Y-82742468D01*
X164458467Y-82564529D01*
X164226264Y-82468110D01*
X163974839Y-82467890D01*
X163742468Y-82563904D01*
X163564529Y-82741533D01*
X163468110Y-82973736D01*
X163467890Y-83225161D01*
X161332109Y-83225161D01*
X161332110Y-83224839D01*
X161236096Y-82992468D01*
X161058467Y-82814529D01*
X160826264Y-82718110D01*
X160679276Y-82717981D01*
X160586096Y-82492468D01*
X160408467Y-82314529D01*
X160176264Y-82218110D01*
X159924839Y-82217890D01*
X159692468Y-82313904D01*
X159624951Y-82381303D01*
X159458467Y-82214529D01*
X159226264Y-82118110D01*
X158974839Y-82117890D01*
X158742468Y-82213904D01*
X158564529Y-82391533D01*
X158468110Y-82623736D01*
X158467890Y-82875161D01*
X157969081Y-82875161D01*
X157958467Y-82864529D01*
X157726264Y-82768110D01*
X157474839Y-82767890D01*
X157432013Y-82785585D01*
X157432110Y-82674839D01*
X157336096Y-82442468D01*
X157158467Y-82264529D01*
X156926264Y-82168110D01*
X156674839Y-82167890D01*
X156442468Y-82263904D01*
X156264529Y-82441533D01*
X156168110Y-82673736D01*
X156167890Y-82925161D01*
X146431890Y-82925161D01*
X146432110Y-82674839D01*
X146336096Y-82442468D01*
X146158467Y-82264529D01*
X145926264Y-82168110D01*
X145674839Y-82167890D01*
X145442468Y-82263904D01*
X145264529Y-82441533D01*
X145199960Y-82597031D01*
X145136096Y-82442468D01*
X144958467Y-82264529D01*
X144726264Y-82168110D01*
X144474839Y-82167890D01*
X144242468Y-82263904D01*
X144064529Y-82441533D01*
X143999960Y-82597031D01*
X143936096Y-82442468D01*
X143758467Y-82264529D01*
X143526264Y-82168110D01*
X143274839Y-82167890D01*
X143042468Y-82263904D01*
X142864529Y-82441533D01*
X142768110Y-82673736D01*
X142767890Y-82925161D01*
X139840824Y-82925161D01*
X139881890Y-82826264D01*
X139882110Y-82574839D01*
X139786096Y-82342468D01*
X139608467Y-82164529D01*
X139376264Y-82068110D01*
X139124839Y-82067890D01*
X138892468Y-82163904D01*
X138714529Y-82341533D01*
X138618110Y-82573736D01*
X138617984Y-82717972D01*
X138524839Y-82717890D01*
X138292468Y-82813904D01*
X138114529Y-82991533D01*
X138018110Y-83223736D01*
X138017890Y-83475161D01*
X131588659Y-83475161D01*
X131451264Y-83418110D01*
X131199839Y-83417890D01*
X130967468Y-83513904D01*
X130789529Y-83691533D01*
X130693110Y-83923736D01*
X130692890Y-84175161D01*
X124386388Y-84175161D01*
X121823088Y-81270087D01*
X121226488Y-80125161D01*
X139617890Y-80125161D01*
X139713904Y-80357532D01*
X139891533Y-80535471D01*
X140123736Y-80631890D01*
X140375161Y-80632110D01*
X140607532Y-80536096D01*
X140785471Y-80358467D01*
X140881890Y-80126264D01*
X140882109Y-79875161D01*
X142867890Y-79875161D01*
X142963904Y-80107532D01*
X143141533Y-80285471D01*
X143373736Y-80381890D01*
X143625161Y-80382110D01*
X143641978Y-80375161D01*
X145617890Y-80375161D01*
X145713904Y-80607532D01*
X145891533Y-80785471D01*
X146123736Y-80881890D01*
X146375161Y-80882110D01*
X146607532Y-80786096D01*
X146785471Y-80608467D01*
X146881890Y-80376264D01*
X146882022Y-80225161D01*
X149367890Y-80225161D01*
X149463904Y-80457532D01*
X149641533Y-80635471D01*
X149873736Y-80731890D01*
X149967972Y-80731972D01*
X149967890Y-80825161D01*
X150063904Y-81057532D01*
X150241533Y-81235471D01*
X150473736Y-81331890D01*
X150725161Y-81332110D01*
X150957532Y-81236096D01*
X151135471Y-81058467D01*
X151200040Y-80902969D01*
X151263904Y-81057532D01*
X151441533Y-81235471D01*
X151673736Y-81331890D01*
X151925161Y-81332110D01*
X152157532Y-81236096D01*
X152335471Y-81058467D01*
X152370062Y-80975161D01*
X155567890Y-80975161D01*
X155663904Y-81207532D01*
X155841533Y-81385471D01*
X156073736Y-81481890D01*
X156325161Y-81482110D01*
X156557532Y-81386096D01*
X156735471Y-81208467D01*
X156831890Y-80976264D01*
X156832110Y-80724839D01*
X156736096Y-80492468D01*
X156558467Y-80314529D01*
X156326264Y-80218110D01*
X156074839Y-80217890D01*
X155842468Y-80313904D01*
X155664529Y-80491533D01*
X155568110Y-80723736D01*
X155567890Y-80975161D01*
X152370062Y-80975161D01*
X152431890Y-80826264D01*
X152431972Y-80732028D01*
X152525161Y-80732110D01*
X152757532Y-80636096D01*
X152935471Y-80458467D01*
X153031890Y-80226264D01*
X153032110Y-79974839D01*
X152936096Y-79742468D01*
X152758467Y-79564529D01*
X152526264Y-79468110D01*
X152274839Y-79467890D01*
X152042468Y-79563904D01*
X151864529Y-79741533D01*
X151799960Y-79897031D01*
X151736096Y-79742468D01*
X151558467Y-79564529D01*
X151326264Y-79468110D01*
X151074839Y-79467890D01*
X150842468Y-79563904D01*
X150664529Y-79741533D01*
X150599960Y-79897031D01*
X150536096Y-79742468D01*
X150358467Y-79564529D01*
X150126264Y-79468110D01*
X149874839Y-79467890D01*
X149642468Y-79563904D01*
X149464529Y-79741533D01*
X149368110Y-79973736D01*
X149367890Y-80225161D01*
X146882022Y-80225161D01*
X146882110Y-80124839D01*
X146786096Y-79892468D01*
X146608467Y-79714529D01*
X146376264Y-79618110D01*
X146124839Y-79617890D01*
X145892468Y-79713904D01*
X145714529Y-79891533D01*
X145618110Y-80123736D01*
X145617890Y-80375161D01*
X143641978Y-80375161D01*
X143857532Y-80286096D01*
X144035471Y-80108467D01*
X144131890Y-79876264D01*
X144132110Y-79624839D01*
X144036096Y-79392468D01*
X143858467Y-79214529D01*
X143643245Y-79125161D01*
X146617890Y-79125161D01*
X146713904Y-79357532D01*
X146891533Y-79535471D01*
X147123736Y-79631890D01*
X147375161Y-79632110D01*
X147607532Y-79536096D01*
X147785471Y-79358467D01*
X147881890Y-79126264D01*
X147882110Y-78874839D01*
X147786096Y-78642468D01*
X147608467Y-78464529D01*
X147376264Y-78368110D01*
X147124839Y-78367890D01*
X146892468Y-78463904D01*
X146714529Y-78641533D01*
X146618110Y-78873736D01*
X146617890Y-79125161D01*
X143643245Y-79125161D01*
X143626264Y-79118110D01*
X143374839Y-79117890D01*
X143142468Y-79213904D01*
X142964529Y-79391533D01*
X142868110Y-79623736D01*
X142867890Y-79875161D01*
X140882109Y-79875161D01*
X140882110Y-79874839D01*
X140786096Y-79642468D01*
X140608467Y-79464529D01*
X140376264Y-79368110D01*
X140124839Y-79367890D01*
X139892468Y-79463904D01*
X139714529Y-79641533D01*
X139618110Y-79873736D01*
X139617890Y-80125161D01*
X121226488Y-80125161D01*
X120887784Y-79475161D01*
X131017890Y-79475161D01*
X131113904Y-79707532D01*
X131291533Y-79885471D01*
X131523736Y-79981890D01*
X131775161Y-79982110D01*
X132007532Y-79886096D01*
X132185471Y-79708467D01*
X132281890Y-79476264D01*
X132282110Y-79224839D01*
X132186096Y-78992468D01*
X132008467Y-78814529D01*
X131776264Y-78718110D01*
X131524839Y-78717890D01*
X131292468Y-78813904D01*
X131114529Y-78991533D01*
X131018110Y-79223736D01*
X131017890Y-79475161D01*
X120887784Y-79475161D01*
X120288538Y-78325161D01*
X129517890Y-78325161D01*
X129613904Y-78557532D01*
X129791533Y-78735471D01*
X130023736Y-78831890D01*
X130275161Y-78832110D01*
X130507532Y-78736096D01*
X130685471Y-78558467D01*
X130694021Y-78537876D01*
X130741533Y-78585471D01*
X130973736Y-78681890D01*
X131225161Y-78682110D01*
X131362987Y-78625161D01*
X138617890Y-78625161D01*
X138713904Y-78857532D01*
X138891533Y-79035471D01*
X139123736Y-79131890D01*
X139375161Y-79132110D01*
X139607532Y-79036096D01*
X139785471Y-78858467D01*
X139881890Y-78626264D01*
X139882110Y-78374839D01*
X139786096Y-78142468D01*
X139608467Y-77964529D01*
X139376264Y-77868110D01*
X139124839Y-77867890D01*
X138892468Y-77963904D01*
X138714529Y-78141533D01*
X138618110Y-78373736D01*
X138617890Y-78625161D01*
X131362987Y-78625161D01*
X131457532Y-78586096D01*
X131635471Y-78408467D01*
X131731890Y-78176264D01*
X131732110Y-77924839D01*
X131636096Y-77692468D01*
X131568907Y-77625161D01*
X132617890Y-77625161D01*
X132713904Y-77857532D01*
X132891533Y-78035471D01*
X133123736Y-78131890D01*
X133375161Y-78132110D01*
X133607532Y-78036096D01*
X133785471Y-77858467D01*
X133881890Y-77626264D01*
X133881890Y-77625161D01*
X135867890Y-77625161D01*
X135963904Y-77857532D01*
X136141533Y-78035471D01*
X136373736Y-78131890D01*
X136625161Y-78132110D01*
X136857532Y-78036096D01*
X137035471Y-77858467D01*
X137131890Y-77626264D01*
X137132110Y-77374839D01*
X137036096Y-77142468D01*
X136858467Y-76964529D01*
X136626264Y-76868110D01*
X136374839Y-76867890D01*
X136142468Y-76963904D01*
X135964529Y-77141533D01*
X135868110Y-77373736D01*
X135867890Y-77625161D01*
X133881890Y-77625161D01*
X133882110Y-77374839D01*
X133786096Y-77142468D01*
X133608467Y-76964529D01*
X133376264Y-76868110D01*
X133124839Y-76867890D01*
X132892468Y-76963904D01*
X132714529Y-77141533D01*
X132618110Y-77373736D01*
X132617890Y-77625161D01*
X131568907Y-77625161D01*
X131458467Y-77514529D01*
X131226264Y-77418110D01*
X130974839Y-77417890D01*
X130742468Y-77513904D01*
X130564529Y-77691533D01*
X130555979Y-77712124D01*
X130508467Y-77664529D01*
X130276264Y-77568110D01*
X130024839Y-77567890D01*
X129792468Y-77663904D01*
X129614529Y-77841533D01*
X129518110Y-78073736D01*
X129517890Y-78325161D01*
X120288538Y-78325161D01*
X118673181Y-75225161D01*
X127467890Y-75225161D01*
X127563904Y-75457532D01*
X127741533Y-75635471D01*
X127973736Y-75731890D01*
X128225161Y-75732110D01*
X128457532Y-75636096D01*
X128635471Y-75458467D01*
X128731890Y-75226264D01*
X128732110Y-74974839D01*
X128636096Y-74742468D01*
X128458467Y-74564529D01*
X128226264Y-74468110D01*
X127974839Y-74467890D01*
X127742468Y-74563904D01*
X127564529Y-74741533D01*
X127468110Y-74973736D01*
X127467890Y-75225161D01*
X118673181Y-75225161D01*
X116450386Y-70959438D01*
X116441482Y-70914676D01*
X116375976Y-70816641D01*
X116270216Y-70613678D01*
X116231822Y-70565880D01*
X116197755Y-70514895D01*
X115932045Y-70249185D01*
X115932110Y-70174839D01*
X115836096Y-69942468D01*
X115705280Y-69811424D01*
X119961234Y-71120948D01*
X124479163Y-72626924D01*
X124464529Y-72641533D01*
X124368110Y-72873736D01*
X124367890Y-73125161D01*
X124463904Y-73357532D01*
X124641533Y-73535471D01*
X124873736Y-73631890D01*
X125125161Y-73632110D01*
X125357532Y-73536096D01*
X125535471Y-73358467D01*
X125631890Y-73126264D01*
X125631991Y-73011200D01*
X125979163Y-73126924D01*
X125964529Y-73141533D01*
X125868110Y-73373736D01*
X125867890Y-73625161D01*
X125963904Y-73857532D01*
X126141533Y-74035471D01*
X126373736Y-74131890D01*
X126625161Y-74132110D01*
X126857532Y-74036096D01*
X127035471Y-73858467D01*
X127131890Y-73626264D01*
X127131991Y-73511200D01*
X134802197Y-76067936D01*
X134749839Y-76067890D01*
X134517468Y-76163904D01*
X134339529Y-76341533D01*
X134243110Y-76573736D01*
X134242890Y-76825161D01*
X134338904Y-77057532D01*
X134516533Y-77235471D01*
X134748736Y-77331890D01*
X135000161Y-77332110D01*
X135232532Y-77236096D01*
X135410471Y-77058467D01*
X135506890Y-76826264D01*
X135507110Y-76574839D01*
X135411096Y-76342468D01*
X135304027Y-76235212D01*
X140959839Y-78120483D01*
X141009878Y-78126615D01*
X141058360Y-78112797D01*
X141089803Y-78089803D01*
X141454445Y-77725161D01*
X143767890Y-77725161D01*
X143863904Y-77957532D01*
X144041533Y-78135471D01*
X144273736Y-78231890D01*
X144525161Y-78232110D01*
X144757532Y-78136096D01*
X144935471Y-77958467D01*
X145031890Y-77726264D01*
X145032110Y-77474839D01*
X144990924Y-77375161D01*
X160367890Y-77375161D01*
X160463904Y-77607532D01*
X160641533Y-77785471D01*
X160873736Y-77881890D01*
X161125161Y-77882110D01*
X161357532Y-77786096D01*
X161418573Y-77725161D01*
X183267890Y-77725161D01*
X183363904Y-77957532D01*
X183541533Y-78135471D01*
X183773736Y-78231890D01*
X184025161Y-78232110D01*
X184257532Y-78136096D01*
X184435471Y-77958467D01*
X184531890Y-77726264D01*
X184531891Y-77725550D01*
X184691533Y-77885471D01*
X184923736Y-77981890D01*
X185175161Y-77982110D01*
X185407532Y-77886096D01*
X185585471Y-77708467D01*
X185681890Y-77476264D01*
X185682110Y-77224839D01*
X185599605Y-77025161D01*
X187767890Y-77025161D01*
X187863904Y-77257532D01*
X188041533Y-77435471D01*
X188273736Y-77531890D01*
X188468015Y-77532060D01*
X188467890Y-77675161D01*
X188563904Y-77907532D01*
X188741533Y-78085471D01*
X188973736Y-78181890D01*
X189225161Y-78182110D01*
X189457532Y-78086096D01*
X189635471Y-77908467D01*
X189731890Y-77676264D01*
X189732110Y-77424839D01*
X189636096Y-77192468D01*
X189458467Y-77014529D01*
X189226264Y-76918110D01*
X189031985Y-76917940D01*
X189032110Y-76774839D01*
X188936096Y-76542468D01*
X188758467Y-76364529D01*
X188526264Y-76268110D01*
X188274839Y-76267890D01*
X188042468Y-76363904D01*
X187864529Y-76541533D01*
X187768110Y-76773736D01*
X187767890Y-77025161D01*
X185599605Y-77025161D01*
X185586096Y-76992468D01*
X185408467Y-76814529D01*
X185176264Y-76718110D01*
X184924839Y-76717890D01*
X184692468Y-76813904D01*
X184514529Y-76991533D01*
X184418110Y-77223736D01*
X184418109Y-77224450D01*
X184258467Y-77064529D01*
X184026264Y-76968110D01*
X183774839Y-76967890D01*
X183542468Y-77063904D01*
X183364529Y-77241533D01*
X183268110Y-77473736D01*
X183267890Y-77725161D01*
X161418573Y-77725161D01*
X161535471Y-77608467D01*
X161631890Y-77376264D01*
X161632110Y-77124839D01*
X161536096Y-76892468D01*
X161468907Y-76825161D01*
X169167890Y-76825161D01*
X169263904Y-77057532D01*
X169441533Y-77235471D01*
X169673736Y-77331890D01*
X169925161Y-77332110D01*
X170157532Y-77236096D01*
X170335471Y-77058467D01*
X170431890Y-76826264D01*
X170432110Y-76574839D01*
X170336096Y-76342468D01*
X170158467Y-76164529D01*
X169926264Y-76068110D01*
X169674839Y-76067890D01*
X169442468Y-76163904D01*
X169264529Y-76341533D01*
X169168110Y-76573736D01*
X169167890Y-76825161D01*
X161468907Y-76825161D01*
X161358467Y-76714529D01*
X161126264Y-76618110D01*
X160874839Y-76617890D01*
X160642468Y-76713904D01*
X160464529Y-76891533D01*
X160368110Y-77123736D01*
X160367890Y-77375161D01*
X144990924Y-77375161D01*
X144936096Y-77242468D01*
X144758467Y-77064529D01*
X144526264Y-76968110D01*
X144274839Y-76967890D01*
X144042468Y-77063904D01*
X143864529Y-77241533D01*
X143768110Y-77473736D01*
X143767890Y-77725161D01*
X141454445Y-77725161D01*
X142089803Y-77089803D01*
X142117666Y-77047789D01*
X142127000Y-77000000D01*
X142127000Y-76575161D01*
X142817890Y-76575161D01*
X142913904Y-76807532D01*
X143091533Y-76985471D01*
X143323736Y-77081890D01*
X143575161Y-77082110D01*
X143807532Y-76986096D01*
X143985471Y-76808467D01*
X144081890Y-76576264D01*
X144082110Y-76324839D01*
X143986096Y-76092468D01*
X143808467Y-75914529D01*
X143576264Y-75818110D01*
X143324839Y-75817890D01*
X143092468Y-75913904D01*
X142914529Y-76091533D01*
X142818110Y-76323736D01*
X142817890Y-76575161D01*
X142127000Y-76575161D01*
X142127000Y-75000000D01*
X142116994Y-74950590D01*
X142088553Y-74908965D01*
X142056796Y-74886408D01*
X141434303Y-74575161D01*
X144417890Y-74575161D01*
X144513904Y-74807532D01*
X144691533Y-74985471D01*
X144923736Y-75081890D01*
X145175161Y-75082110D01*
X145407532Y-74986096D01*
X145518660Y-74875161D01*
X147367890Y-74875161D01*
X147463904Y-75107532D01*
X147641533Y-75285471D01*
X147873736Y-75381890D01*
X148125161Y-75382110D01*
X148357532Y-75286096D01*
X148535471Y-75108467D01*
X148631890Y-74876264D01*
X148632110Y-74624839D01*
X148536096Y-74392468D01*
X148358467Y-74214529D01*
X148126264Y-74118110D01*
X147874839Y-74117890D01*
X147642468Y-74213904D01*
X147464529Y-74391533D01*
X147368110Y-74623736D01*
X147367890Y-74875161D01*
X145518660Y-74875161D01*
X145585471Y-74808467D01*
X145681890Y-74576264D01*
X145682110Y-74324839D01*
X145586096Y-74092468D01*
X145408467Y-73914529D01*
X145176264Y-73818110D01*
X144924839Y-73817890D01*
X144692468Y-73913904D01*
X144514529Y-74091533D01*
X144418110Y-74323736D01*
X144417890Y-74575161D01*
X141434303Y-74575161D01*
X140099985Y-73908002D01*
X139886849Y-73375161D01*
X147367890Y-73375161D01*
X147463904Y-73607532D01*
X147641533Y-73785471D01*
X147873736Y-73881890D01*
X148125161Y-73882110D01*
X148357532Y-73786096D01*
X148535471Y-73608467D01*
X148631890Y-73376264D01*
X148632110Y-73124839D01*
X148590924Y-73025161D01*
X150467890Y-73025161D01*
X150563904Y-73257532D01*
X150741533Y-73435471D01*
X150973736Y-73531890D01*
X151225161Y-73532110D01*
X151457532Y-73436096D01*
X151635471Y-73258467D01*
X151731890Y-73026264D01*
X151732110Y-72774839D01*
X151636096Y-72542468D01*
X151458467Y-72364529D01*
X151226264Y-72268110D01*
X150974839Y-72267890D01*
X150742468Y-72363904D01*
X150564529Y-72541533D01*
X150468110Y-72773736D01*
X150467890Y-73025161D01*
X148590924Y-73025161D01*
X148536096Y-72892468D01*
X148358467Y-72714529D01*
X148126264Y-72618110D01*
X147874839Y-72617890D01*
X147642468Y-72713904D01*
X147464529Y-72891533D01*
X147368110Y-73123736D01*
X147367890Y-73375161D01*
X139886849Y-73375161D01*
X139580172Y-72608470D01*
X139587650Y-72615961D01*
X139854756Y-72726874D01*
X140143975Y-72727126D01*
X140411275Y-72616680D01*
X140615961Y-72412350D01*
X140726874Y-72145244D01*
X140727126Y-71856025D01*
X140616680Y-71588725D01*
X140412350Y-71384039D01*
X140145244Y-71273126D01*
X139856025Y-71272874D01*
X139588725Y-71383320D01*
X139384039Y-71587650D01*
X139275958Y-71847935D01*
X138994375Y-71143975D01*
X143272874Y-71143975D01*
X143383320Y-71411275D01*
X143587650Y-71615961D01*
X143854756Y-71726874D01*
X144143975Y-71727126D01*
X144411275Y-71616680D01*
X144615961Y-71412350D01*
X144726874Y-71145244D01*
X144726891Y-71125161D01*
X145367890Y-71125161D01*
X145463904Y-71357532D01*
X145641533Y-71535471D01*
X145873736Y-71631890D01*
X146125161Y-71632110D01*
X146357532Y-71536096D01*
X146535471Y-71358467D01*
X146631890Y-71126264D01*
X146631890Y-71125161D01*
X146867890Y-71125161D01*
X146963904Y-71357532D01*
X147141533Y-71535471D01*
X147373736Y-71631890D01*
X147625161Y-71632110D01*
X147857532Y-71536096D01*
X148035471Y-71358467D01*
X148131890Y-71126264D01*
X148132110Y-70874839D01*
X148036096Y-70642468D01*
X147858467Y-70464529D01*
X147626264Y-70368110D01*
X147374839Y-70367890D01*
X147142468Y-70463904D01*
X146964529Y-70641533D01*
X146868110Y-70873736D01*
X146867890Y-71125161D01*
X146631890Y-71125161D01*
X146632110Y-70874839D01*
X146536096Y-70642468D01*
X146358467Y-70464529D01*
X146126264Y-70368110D01*
X145874839Y-70367890D01*
X145642468Y-70463904D01*
X145464529Y-70641533D01*
X145368110Y-70873736D01*
X145367890Y-71125161D01*
X144726891Y-71125161D01*
X144727126Y-70856025D01*
X144616680Y-70588725D01*
X144412350Y-70384039D01*
X144145244Y-70273126D01*
X143856025Y-70272874D01*
X143588725Y-70383320D01*
X143384039Y-70587650D01*
X143273126Y-70854756D01*
X143272874Y-71143975D01*
X138994375Y-71143975D01*
X138270849Y-69335161D01*
X139827890Y-69335161D01*
X139923904Y-69567532D01*
X140101533Y-69745471D01*
X140333736Y-69841890D01*
X140585161Y-69842110D01*
X140817532Y-69746096D01*
X140995471Y-69568467D01*
X141091890Y-69336264D01*
X141092110Y-69084839D01*
X140996096Y-68852468D01*
X140818467Y-68674529D01*
X140586264Y-68578110D01*
X140334839Y-68577890D01*
X140102468Y-68673904D01*
X139924529Y-68851533D01*
X139828110Y-69083736D01*
X139827890Y-69335161D01*
X138270849Y-69335161D01*
X138131938Y-68987886D01*
X138264483Y-68325161D01*
X138967890Y-68325161D01*
X139063904Y-68557532D01*
X139241533Y-68735471D01*
X139473736Y-68831890D01*
X139725161Y-68832110D01*
X139957532Y-68736096D01*
X140135471Y-68558467D01*
X140231890Y-68326264D01*
X140232110Y-68074839D01*
X140136096Y-67842468D01*
X139958467Y-67664529D01*
X139726264Y-67568110D01*
X139474839Y-67567890D01*
X139242468Y-67663904D01*
X139064529Y-67841533D01*
X138968110Y-68073736D01*
X138967890Y-68325161D01*
X138264483Y-68325161D01*
X138494483Y-67175161D01*
X145267890Y-67175161D01*
X145363904Y-67407532D01*
X145541533Y-67585471D01*
X145773736Y-67681890D01*
X146025161Y-67682110D01*
X146257532Y-67586096D01*
X146435471Y-67408467D01*
X146511586Y-67225161D01*
X146767890Y-67225161D01*
X146863904Y-67457532D01*
X147041533Y-67635471D01*
X147273736Y-67731890D01*
X147525161Y-67732110D01*
X147757532Y-67636096D01*
X147935471Y-67458467D01*
X148031890Y-67226264D01*
X148032110Y-66974839D01*
X147936096Y-66742468D01*
X147758467Y-66564529D01*
X147526264Y-66468110D01*
X147274839Y-66467890D01*
X147042468Y-66563904D01*
X146864529Y-66741533D01*
X146768110Y-66973736D01*
X146767890Y-67225161D01*
X146511586Y-67225161D01*
X146531890Y-67176264D01*
X146532110Y-66924839D01*
X146436096Y-66692468D01*
X146258467Y-66514529D01*
X146026264Y-66418110D01*
X145774839Y-66417890D01*
X145542468Y-66513904D01*
X145364529Y-66691533D01*
X145268110Y-66923736D01*
X145267890Y-67175161D01*
X138494483Y-67175161D01*
X139047777Y-64408691D01*
X141667890Y-64408691D01*
X141763904Y-64641062D01*
X141941533Y-64819001D01*
X142173736Y-64915420D01*
X142425161Y-64915640D01*
X142657532Y-64819626D01*
X142835471Y-64641997D01*
X142931890Y-64409794D01*
X142932110Y-64158369D01*
X142836096Y-63925998D01*
X142658467Y-63748059D01*
X142426264Y-63651640D01*
X142174839Y-63651420D01*
X141942468Y-63747434D01*
X141764529Y-63925063D01*
X141668110Y-64157266D01*
X141667890Y-64408691D01*
X139047777Y-64408691D01*
X139107930Y-64107930D01*
X141887193Y-63552077D01*
X147331215Y-63552077D01*
X147430016Y-63790647D01*
X147795554Y-64247037D01*
X148307920Y-64528802D01*
X148537000Y-64423182D01*
X148537000Y-63323000D01*
X147438838Y-63323000D01*
X147331215Y-63552077D01*
X141887193Y-63552077D01*
X144024907Y-63124534D01*
X144089803Y-63089803D01*
X145334691Y-61844915D01*
X145423736Y-61881890D01*
X145675161Y-61882110D01*
X145907532Y-61786096D01*
X146085471Y-61608467D01*
X146181890Y-61376264D01*
X146182110Y-61124839D01*
X146174403Y-61106188D01*
X147562994Y-60932614D01*
X147562994Y-61423600D01*
X147585795Y-61544779D01*
X147657412Y-61656074D01*
X147766686Y-61730738D01*
X147896400Y-61757006D01*
X148151885Y-61757006D01*
X147795554Y-61952963D01*
X147430016Y-62409353D01*
X147331215Y-62647923D01*
X147438838Y-62877000D01*
X148537000Y-62877000D01*
X148537000Y-62857000D01*
X148983000Y-62857000D01*
X148983000Y-62877000D01*
X149003000Y-62877000D01*
X149003000Y-63323000D01*
X148983000Y-63323000D01*
X148983000Y-64423182D01*
X149212080Y-64528802D01*
X149724446Y-64247037D01*
X150089984Y-63790647D01*
X150183256Y-63565428D01*
X150434794Y-63941881D01*
X150821052Y-64199971D01*
X151276675Y-64290600D01*
X151323325Y-64290600D01*
X151778948Y-64199971D01*
X152165206Y-63941881D01*
X152423296Y-63555623D01*
X152513925Y-63100000D01*
X152423296Y-62644377D01*
X152165206Y-62258119D01*
X151778948Y-62000029D01*
X151323325Y-61909400D01*
X151276675Y-61909400D01*
X150821052Y-62000029D01*
X150434794Y-62258119D01*
X150183256Y-62634572D01*
X150089984Y-62409353D01*
X149724446Y-61952963D01*
X149368115Y-61757006D01*
X149623600Y-61757006D01*
X149744779Y-61734205D01*
X149856074Y-61662588D01*
X149930738Y-61553314D01*
X149957006Y-61423600D01*
X149957006Y-60633362D01*
X150015752Y-60626019D01*
X150082251Y-60596766D01*
X150091778Y-60588668D01*
X150176704Y-61015623D01*
X150434794Y-61401881D01*
X150821052Y-61659971D01*
X151276675Y-61750600D01*
X151323325Y-61750600D01*
X151778948Y-61659971D01*
X152165206Y-61401881D01*
X152423296Y-61015623D01*
X152513925Y-60560000D01*
X152423296Y-60104377D01*
X152165206Y-59718119D01*
X151778948Y-59460029D01*
X151487737Y-59402103D01*
X151990082Y-58975110D01*
X154907349Y-62086861D01*
X154907349Y-62086861D01*
G37*
X154907349Y-62086861D02*
X154943204Y-62113592D01*
X156862127Y-63073054D01*
X156656025Y-63072874D01*
X156388725Y-63183320D01*
X156184039Y-63387650D01*
X156073126Y-63654756D01*
X156072874Y-63943975D01*
X156183320Y-64211275D01*
X156387650Y-64415961D01*
X156654756Y-64526874D01*
X156943975Y-64527126D01*
X157211275Y-64416680D01*
X157415961Y-64212350D01*
X157526874Y-63945244D01*
X157527126Y-63656025D01*
X157416680Y-63388725D01*
X157274976Y-63246774D01*
X161888958Y-65092367D01*
X162444075Y-67867951D01*
X162374839Y-67867890D01*
X162142468Y-67963904D01*
X161964529Y-68141533D01*
X161868110Y-68373736D01*
X161867890Y-68625161D01*
X161963904Y-68857532D01*
X162141533Y-69035471D01*
X162373736Y-69131890D01*
X162625161Y-69132110D01*
X162691430Y-69104728D01*
X162862136Y-69958258D01*
X157910197Y-74910197D01*
X157882334Y-74952211D01*
X157873000Y-75000000D01*
X157873000Y-76000000D01*
X157883006Y-76049410D01*
X157910197Y-76089803D01*
X158910197Y-77089803D01*
X158952211Y-77117666D01*
X159001754Y-77126988D01*
X159034890Y-77122114D01*
X163224225Y-75925161D01*
X178967890Y-75925161D01*
X179063904Y-76157532D01*
X179241533Y-76335471D01*
X179473736Y-76431890D01*
X179725161Y-76432110D01*
X179957532Y-76336096D01*
X180135471Y-76158467D01*
X180231890Y-75926264D01*
X180231934Y-75875161D01*
X184167890Y-75875161D01*
X184263904Y-76107532D01*
X184441533Y-76285471D01*
X184673736Y-76381890D01*
X184925161Y-76382110D01*
X185157532Y-76286096D01*
X185335471Y-76108467D01*
X185431890Y-75876264D01*
X185432022Y-75725161D01*
X185667890Y-75725161D01*
X185763904Y-75957532D01*
X185941533Y-76135471D01*
X186173736Y-76231890D01*
X186425161Y-76232110D01*
X186657532Y-76136096D01*
X186835471Y-75958467D01*
X186931890Y-75726264D01*
X186932110Y-75474839D01*
X186836096Y-75242468D01*
X186658467Y-75064529D01*
X186426264Y-74968110D01*
X186174839Y-74967890D01*
X185942468Y-75063904D01*
X185764529Y-75241533D01*
X185668110Y-75473736D01*
X185667890Y-75725161D01*
X185432022Y-75725161D01*
X185432110Y-75624839D01*
X185336096Y-75392468D01*
X185252577Y-75308803D01*
X185307532Y-75286096D01*
X185485471Y-75108467D01*
X185581890Y-74876264D01*
X185582110Y-74624839D01*
X185486096Y-74392468D01*
X185308467Y-74214529D01*
X185076264Y-74118110D01*
X184824839Y-74117890D01*
X184592468Y-74213904D01*
X184414529Y-74391533D01*
X184318110Y-74623736D01*
X184317890Y-74875161D01*
X184413904Y-75107532D01*
X184497423Y-75191197D01*
X184442468Y-75213904D01*
X184264529Y-75391533D01*
X184168110Y-75623736D01*
X184167890Y-75875161D01*
X180231934Y-75875161D01*
X180232109Y-75675943D01*
X180291533Y-75735471D01*
X180523736Y-75831890D01*
X180775161Y-75832110D01*
X181007532Y-75736096D01*
X181185471Y-75558467D01*
X181281890Y-75326264D01*
X181282110Y-75074839D01*
X181186096Y-74842468D01*
X181008467Y-74664529D01*
X180826597Y-74589010D01*
X180831890Y-74576264D01*
X180832110Y-74324839D01*
X180790924Y-74225161D01*
X180867890Y-74225161D01*
X180963904Y-74457532D01*
X181141533Y-74635471D01*
X181373736Y-74731890D01*
X181625161Y-74732110D01*
X181857532Y-74636096D01*
X182035471Y-74458467D01*
X182131890Y-74226264D01*
X182132110Y-73974839D01*
X182090924Y-73875161D01*
X187567890Y-73875161D01*
X187663904Y-74107532D01*
X187841533Y-74285471D01*
X188073736Y-74381890D01*
X188325161Y-74382110D01*
X188557532Y-74286096D01*
X188735471Y-74108467D01*
X188831890Y-73876264D01*
X188832110Y-73624839D01*
X188736096Y-73392468D01*
X188558467Y-73214529D01*
X188326264Y-73118110D01*
X188074839Y-73117890D01*
X187842468Y-73213904D01*
X187664529Y-73391533D01*
X187568110Y-73623736D01*
X187567890Y-73875161D01*
X182090924Y-73875161D01*
X182036096Y-73742468D01*
X181858467Y-73564529D01*
X181626264Y-73468110D01*
X181374839Y-73467890D01*
X181142468Y-73563904D01*
X180964529Y-73741533D01*
X180868110Y-73973736D01*
X180867890Y-74225161D01*
X180790924Y-74225161D01*
X180736096Y-74092468D01*
X180558467Y-73914529D01*
X180326264Y-73818110D01*
X180074839Y-73817890D01*
X179842468Y-73913904D01*
X179664529Y-74091533D01*
X179568110Y-74323736D01*
X179567890Y-74575161D01*
X179663904Y-74807532D01*
X179841533Y-74985471D01*
X180023403Y-75060990D01*
X180018110Y-75073736D01*
X180017891Y-75324057D01*
X179958467Y-75264529D01*
X179726264Y-75168110D01*
X179474839Y-75167890D01*
X179242468Y-75263904D01*
X179064529Y-75441533D01*
X178968110Y-75673736D01*
X178967890Y-75925161D01*
X163224225Y-75925161D01*
X165674226Y-75225161D01*
X167867890Y-75225161D01*
X167963904Y-75457532D01*
X168141533Y-75635471D01*
X168373736Y-75731890D01*
X168625161Y-75732110D01*
X168857532Y-75636096D01*
X169035471Y-75458467D01*
X169131890Y-75226264D01*
X169132110Y-74974839D01*
X169036096Y-74742468D01*
X168858467Y-74564529D01*
X168626264Y-74468110D01*
X168374839Y-74467890D01*
X168142468Y-74563904D01*
X167964529Y-74741533D01*
X167868110Y-74973736D01*
X167867890Y-75225161D01*
X165674226Y-75225161D01*
X174013691Y-72842457D01*
X173964529Y-72891533D01*
X173868110Y-73123736D01*
X173867890Y-73375161D01*
X173963904Y-73607532D01*
X174141533Y-73785471D01*
X174373736Y-73881890D01*
X174625161Y-73882110D01*
X174857532Y-73786096D01*
X175035471Y-73608467D01*
X175131890Y-73376264D01*
X175132110Y-73124839D01*
X175036096Y-72892468D01*
X174858467Y-72714529D01*
X174696634Y-72647330D01*
X175649225Y-72375161D01*
X187617890Y-72375161D01*
X187713904Y-72607532D01*
X187891533Y-72785471D01*
X188123736Y-72881890D01*
X188375161Y-72882110D01*
X188607532Y-72786096D01*
X188785471Y-72608467D01*
X188881890Y-72376264D01*
X188882110Y-72124839D01*
X188799605Y-71925161D01*
X192167890Y-71925161D01*
X192263904Y-72157532D01*
X192441533Y-72335471D01*
X192673736Y-72431890D01*
X192925161Y-72432110D01*
X193157532Y-72336096D01*
X193335471Y-72158467D01*
X193431890Y-71926264D01*
X193432110Y-71674839D01*
X193336096Y-71442468D01*
X193158467Y-71264529D01*
X192926264Y-71168110D01*
X192674839Y-71167890D01*
X192442468Y-71263904D01*
X192264529Y-71441533D01*
X192168110Y-71673736D01*
X192167890Y-71925161D01*
X188799605Y-71925161D01*
X188786096Y-71892468D01*
X188608467Y-71714529D01*
X188376264Y-71618110D01*
X188124839Y-71617890D01*
X187892468Y-71713904D01*
X187714529Y-71891533D01*
X187618110Y-72123736D01*
X187617890Y-72375161D01*
X175649225Y-72375161D01*
X183118007Y-70241224D01*
X183117890Y-70375161D01*
X183213904Y-70607532D01*
X183391533Y-70785471D01*
X183623736Y-70881890D01*
X183875161Y-70882110D01*
X184107532Y-70786096D01*
X184285471Y-70608467D01*
X184381890Y-70376264D01*
X184382110Y-70124839D01*
X184291645Y-69905898D01*
X192517970Y-67555520D01*
X193679517Y-71040161D01*
X193682083Y-71047167D01*
X194376088Y-72782181D01*
X194358467Y-72764529D01*
X194126264Y-72668110D01*
X193874839Y-72667890D01*
X193642468Y-72763904D01*
X193464529Y-72941533D01*
X193368110Y-73173736D01*
X193367890Y-73425161D01*
X193463904Y-73657532D01*
X193641533Y-73835471D01*
X193873736Y-73931890D01*
X194125161Y-73932110D01*
X194357532Y-73836096D01*
X194535471Y-73658467D01*
X194631890Y-73426264D01*
X194631894Y-73421695D01*
X194850981Y-73969413D01*
X188930389Y-79890005D01*
X174978002Y-84873000D01*
X174355292Y-84873000D01*
X174365961Y-84862350D01*
X174476874Y-84595244D01*
X174477126Y-84306025D01*
X174366680Y-84038725D01*
X174162350Y-83834039D01*
X173895244Y-83723126D01*
X173606025Y-83722874D01*
X173338725Y-83833320D01*
X173224981Y-83946866D01*
X173112350Y-83834039D01*
X172845244Y-83723126D01*
X172556025Y-83722874D01*
X172288725Y-83833320D01*
X172084039Y-84037650D01*
X171973126Y-84304756D01*
X171972874Y-84593975D01*
X172083320Y-84861275D01*
X172095025Y-84873000D01*
X171000000Y-84873000D01*
X170943204Y-84886408D01*
X170423088Y-85146466D01*
X174742554Y-80827000D01*
X175950533Y-80827000D01*
X176247334Y-81124319D01*
X176734885Y-81326769D01*
X177262798Y-81327229D01*
X177750703Y-81125631D01*
X178124319Y-80752666D01*
X178326769Y-80265115D01*
X178327229Y-79737202D01*
X178125631Y-79249297D01*
X177752666Y-78875681D01*
X177265115Y-78673231D01*
X176737202Y-78672771D01*
X176249297Y-78874369D01*
X175950145Y-79173000D01*
X174400000Y-79173000D01*
X174083521Y-79235952D01*
X173815223Y-79415223D01*
X168665223Y-84565223D01*
X168485952Y-84833521D01*
X168423000Y-85150000D01*
X168423000Y-87250000D01*
X168485952Y-87566479D01*
X168665223Y-87834777D01*
X169710998Y-88880552D01*
X169979296Y-89059823D01*
X170295775Y-89122775D01*
X173924986Y-89122775D01*
X173903825Y-89173736D01*
X173903706Y-89309847D01*
X173858467Y-89264529D01*
X173626264Y-89168110D01*
X173374839Y-89167890D01*
X173142468Y-89263904D01*
X172964529Y-89441533D01*
X172868110Y-89673736D01*
X172867890Y-89925161D01*
X172963904Y-90157532D01*
X173141533Y-90335471D01*
X173373736Y-90431890D01*
X173625161Y-90432110D01*
X173857532Y-90336096D01*
X174035471Y-90158467D01*
X174049300Y-90125161D01*
X175567890Y-90125161D01*
X175663904Y-90357532D01*
X175841533Y-90535471D01*
X176073736Y-90631890D01*
X176325161Y-90632110D01*
X176557532Y-90536096D01*
X176735471Y-90358467D01*
X176831890Y-90126264D01*
X176832110Y-89874839D01*
X176736096Y-89642468D01*
X176558467Y-89464529D01*
X176326264Y-89368110D01*
X176074839Y-89367890D01*
X175842468Y-89463904D01*
X175664529Y-89641533D01*
X175568110Y-89873736D01*
X175567890Y-90125161D01*
X174049300Y-90125161D01*
X174131890Y-89926264D01*
X174132009Y-89790153D01*
X174177248Y-89835471D01*
X174409451Y-89931890D01*
X174660876Y-89932110D01*
X174893247Y-89836096D01*
X175071186Y-89658467D01*
X175167605Y-89426264D01*
X175167789Y-89216304D01*
X181635221Y-89724459D01*
X181635907Y-89724378D01*
X181636572Y-89724564D01*
X182445730Y-89786807D01*
X182368110Y-89973736D01*
X182367890Y-90225161D01*
X182463904Y-90457532D01*
X182641533Y-90635471D01*
X182873736Y-90731890D01*
X183125161Y-90732110D01*
X183131224Y-90729605D01*
X183131148Y-90816705D01*
X183249190Y-91102388D01*
X183467572Y-91321152D01*
X183753049Y-91439693D01*
X183768052Y-91439706D01*
X183767890Y-91625161D01*
X183863904Y-91857532D01*
X184041533Y-92035471D01*
X184273736Y-92131890D01*
X184525161Y-92132110D01*
X184757532Y-92036096D01*
X184935471Y-91858467D01*
X185031890Y-91626264D01*
X185032110Y-91374839D01*
X184936096Y-91142468D01*
X184758467Y-90964529D01*
X184644055Y-90917021D01*
X184685147Y-90818061D01*
X184685416Y-90508951D01*
X184567374Y-90223268D01*
X184357520Y-90013047D01*
X186513269Y-90389447D01*
X188505542Y-91540538D01*
X190023000Y-93395209D01*
X190023000Y-94100000D01*
X190036705Y-94168898D01*
X189890185Y-94901496D01*
X187726927Y-95584630D01*
X187727126Y-95356025D01*
X187616680Y-95088725D01*
X187412350Y-94884039D01*
X187145244Y-94773126D01*
X186856025Y-94772874D01*
X186588725Y-94883320D01*
X186384039Y-95087650D01*
X186276036Y-95347749D01*
X186262350Y-95334039D01*
X186189903Y-95303956D01*
X186235471Y-95258467D01*
X186331890Y-95026264D01*
X186332110Y-94774839D01*
X186236096Y-94542468D01*
X186058467Y-94364529D01*
X185826264Y-94268110D01*
X185574839Y-94267890D01*
X185342468Y-94363904D01*
X185164529Y-94541533D01*
X185068110Y-94773736D01*
X185067890Y-95025161D01*
X185163904Y-95257532D01*
X185338969Y-95432903D01*
X185234039Y-95537650D01*
X185123126Y-95804756D01*
X185122874Y-96093975D01*
X185233320Y-96361275D01*
X185241525Y-96369494D01*
X171212769Y-100799628D01*
X170433321Y-100873000D01*
X167502123Y-100873000D01*
X166173343Y-100532554D01*
X162654862Y-99125161D01*
X164917890Y-99125161D01*
X165013904Y-99357532D01*
X165191533Y-99535471D01*
X165423736Y-99631890D01*
X165675161Y-99632110D01*
X165907532Y-99536096D01*
X166085471Y-99358467D01*
X166181890Y-99126264D01*
X166181890Y-99125161D01*
X167867890Y-99125161D01*
X167963904Y-99357532D01*
X168141533Y-99535471D01*
X168373736Y-99631890D01*
X168625161Y-99632110D01*
X168857532Y-99536096D01*
X169035471Y-99358467D01*
X169131890Y-99126264D01*
X169131890Y-99125161D01*
X171767890Y-99125161D01*
X171863904Y-99357532D01*
X172041533Y-99535471D01*
X172273736Y-99631890D01*
X172525161Y-99632110D01*
X172757532Y-99536096D01*
X172935471Y-99358467D01*
X173031890Y-99126264D01*
X173031978Y-99025161D01*
X173067890Y-99025161D01*
X173163904Y-99257532D01*
X173341533Y-99435471D01*
X173573736Y-99531890D01*
X173825161Y-99532110D01*
X174057532Y-99436096D01*
X174235471Y-99258467D01*
X174331890Y-99026264D01*
X174332110Y-98774839D01*
X174236096Y-98542468D01*
X174069081Y-98375161D01*
X175517890Y-98375161D01*
X175613904Y-98607532D01*
X175791533Y-98785471D01*
X176023736Y-98881890D01*
X176275161Y-98882110D01*
X176507532Y-98786096D01*
X176685471Y-98608467D01*
X176781890Y-98376264D01*
X176782110Y-98124839D01*
X176686096Y-97892468D01*
X176508467Y-97714529D01*
X176276264Y-97618110D01*
X176024839Y-97617890D01*
X175792468Y-97713904D01*
X175614529Y-97891533D01*
X175518110Y-98123736D01*
X175517890Y-98375161D01*
X174069081Y-98375161D01*
X174058467Y-98364529D01*
X173826264Y-98268110D01*
X173574839Y-98267890D01*
X173342468Y-98363904D01*
X173164529Y-98541533D01*
X173068110Y-98773736D01*
X173067890Y-99025161D01*
X173031978Y-99025161D01*
X173032110Y-98874839D01*
X172936096Y-98642468D01*
X172758467Y-98464529D01*
X172526264Y-98368110D01*
X172274839Y-98367890D01*
X172042468Y-98463904D01*
X171864529Y-98641533D01*
X171768110Y-98873736D01*
X171767890Y-99125161D01*
X169131890Y-99125161D01*
X169132110Y-98874839D01*
X169036096Y-98642468D01*
X168858467Y-98464529D01*
X168626264Y-98368110D01*
X168374839Y-98367890D01*
X168142468Y-98463904D01*
X167964529Y-98641533D01*
X167868110Y-98873736D01*
X167867890Y-99125161D01*
X166181890Y-99125161D01*
X166182110Y-98874839D01*
X166086096Y-98642468D01*
X165908467Y-98464529D01*
X165676264Y-98368110D01*
X165424839Y-98367890D01*
X165192468Y-98463904D01*
X165014529Y-98641533D01*
X164918110Y-98873736D01*
X164917890Y-99125161D01*
X162654862Y-99125161D01*
X162047167Y-98882083D01*
X161997574Y-98873023D01*
X161959839Y-98879517D01*
X158959839Y-99879517D01*
X158910197Y-99910197D01*
X157628139Y-101192255D01*
X157547912Y-101245861D01*
X157547908Y-101245863D01*
X157495901Y-101297871D01*
X157443893Y-101349878D01*
X157443891Y-101349882D01*
X157390285Y-101430109D01*
X155910197Y-102910197D01*
X155879517Y-102959839D01*
X154879517Y-105959839D01*
X154873000Y-106000000D01*
X154873000Y-107699018D01*
X154684039Y-107887650D01*
X154573126Y-108154756D01*
X154572874Y-108443975D01*
X154598000Y-108504785D01*
X154598000Y-112294853D01*
X154573126Y-112354756D01*
X154572874Y-112643975D01*
X154598000Y-112704785D01*
X154598000Y-120694853D01*
X154573126Y-120754756D01*
X154572874Y-121043975D01*
X154598000Y-121104785D01*
X154598000Y-130294853D01*
X154573126Y-130354756D01*
X154572874Y-130643975D01*
X154598000Y-130704785D01*
X154598000Y-134029600D01*
X154516000Y-134012994D01*
X152484000Y-134012994D01*
X152362821Y-134035795D01*
X152251526Y-134107412D01*
X152176862Y-134216686D01*
X152150594Y-134346400D01*
X152150594Y-136073600D01*
X152173395Y-136194779D01*
X152245012Y-136306074D01*
X152354286Y-136380738D01*
X152484000Y-136407006D01*
X154516000Y-136407006D01*
X154598000Y-136391577D01*
X154598000Y-137023968D01*
X154520592Y-136908119D01*
X154134334Y-136650029D01*
X153678711Y-136559400D01*
X153321289Y-136559400D01*
X152865666Y-136650029D01*
X152479408Y-136908119D01*
X152221318Y-137294377D01*
X152130689Y-137750000D01*
X152221318Y-138205623D01*
X152479408Y-138591881D01*
X152865666Y-138849971D01*
X152948823Y-138866512D01*
X152507134Y-139053604D01*
X152097962Y-139469351D01*
X151918815Y-139837923D01*
X152026438Y-140067000D01*
X153277000Y-140067000D01*
X153277000Y-140047000D01*
X153723000Y-140047000D01*
X153723000Y-140067000D01*
X153743000Y-140067000D01*
X153743000Y-140513000D01*
X153723000Y-140513000D01*
X153723000Y-141624593D01*
X153825613Y-141681609D01*
X153603611Y-141903611D01*
X153451437Y-142131356D01*
X153398000Y-142400000D01*
X153398000Y-143323576D01*
X150000000Y-148760376D01*
X145852991Y-142125161D01*
X148567890Y-142125161D01*
X148663904Y-142357532D01*
X148841533Y-142535471D01*
X149073736Y-142631890D01*
X149325161Y-142632110D01*
X149557532Y-142536096D01*
X149700093Y-142393784D01*
X149841533Y-142535471D01*
X150073736Y-142631890D01*
X150325161Y-142632110D01*
X150557532Y-142536096D01*
X150700093Y-142393784D01*
X150841533Y-142535471D01*
X151073736Y-142631890D01*
X151325161Y-142632110D01*
X151557532Y-142536096D01*
X151735471Y-142358467D01*
X151831890Y-142126264D01*
X151832110Y-141874839D01*
X151736096Y-141642468D01*
X151558467Y-141464529D01*
X151326264Y-141368110D01*
X151074839Y-141367890D01*
X150842468Y-141463904D01*
X150699907Y-141606216D01*
X150558467Y-141464529D01*
X150326264Y-141368110D01*
X150074839Y-141367890D01*
X149842468Y-141463904D01*
X149699907Y-141606216D01*
X149558467Y-141464529D01*
X149326264Y-141368110D01*
X149074839Y-141367890D01*
X148842468Y-141463904D01*
X148664529Y-141641533D01*
X148568110Y-141873736D01*
X148567890Y-142125161D01*
X145852991Y-142125161D01*
X145127000Y-140963576D01*
X145127000Y-139875161D01*
X147117890Y-139875161D01*
X147213904Y-140107532D01*
X147391533Y-140285471D01*
X147482871Y-140323398D01*
X147364529Y-140441533D01*
X147268110Y-140673736D01*
X147267890Y-140925161D01*
X147363904Y-141157532D01*
X147541533Y-141335471D01*
X147773736Y-141431890D01*
X148025161Y-141432110D01*
X148257532Y-141336096D01*
X148435471Y-141158467D01*
X148531890Y-140926264D01*
X148532051Y-140742077D01*
X151918815Y-140742077D01*
X152097962Y-141110649D01*
X152507134Y-141526396D01*
X153044259Y-141753913D01*
X153277000Y-141624593D01*
X153277000Y-140513000D01*
X152026438Y-140513000D01*
X151918815Y-140742077D01*
X148532051Y-140742077D01*
X148532110Y-140674839D01*
X148436096Y-140442468D01*
X148258467Y-140264529D01*
X148167129Y-140226602D01*
X148285471Y-140108467D01*
X148381890Y-139876264D01*
X148382110Y-139624839D01*
X148286096Y-139392468D01*
X148108467Y-139214529D01*
X147876264Y-139118110D01*
X147624839Y-139117890D01*
X147392468Y-139213904D01*
X147214529Y-139391533D01*
X147118110Y-139623736D01*
X147117890Y-139875161D01*
X145127000Y-139875161D01*
X145127000Y-139051502D01*
X145211275Y-139016680D01*
X145415961Y-138812350D01*
X145526874Y-138545244D01*
X145527126Y-138256025D01*
X145510753Y-138216399D01*
X148650594Y-138216399D01*
X148650594Y-139943599D01*
X148673395Y-140064778D01*
X148745012Y-140176073D01*
X148854286Y-140250737D01*
X148984000Y-140277005D01*
X151016000Y-140277005D01*
X151137179Y-140254204D01*
X151248474Y-140182587D01*
X151323138Y-140073313D01*
X151349406Y-139943599D01*
X151349406Y-138216399D01*
X151326605Y-138095220D01*
X151254988Y-137983925D01*
X151145714Y-137909261D01*
X151016000Y-137882993D01*
X148984000Y-137882993D01*
X148862821Y-137905794D01*
X148751526Y-137977411D01*
X148676862Y-138086685D01*
X148650594Y-138216399D01*
X145510753Y-138216399D01*
X145452000Y-138074206D01*
X145452000Y-136539999D01*
X148630689Y-136539999D01*
X148721318Y-136995622D01*
X148979408Y-137381880D01*
X149365666Y-137639970D01*
X149821289Y-137730599D01*
X150178711Y-137730599D01*
X150634334Y-137639970D01*
X151020592Y-137381880D01*
X151278682Y-136995622D01*
X151369311Y-136539999D01*
X151278682Y-136084376D01*
X151020592Y-135698118D01*
X150634334Y-135440028D01*
X150178711Y-135349399D01*
X149821289Y-135349399D01*
X149365666Y-135440028D01*
X148979408Y-135698118D01*
X148721318Y-136084376D01*
X148630689Y-136539999D01*
X145452000Y-136539999D01*
X145452000Y-132675161D01*
X145617890Y-132675161D01*
X145713904Y-132907532D01*
X145891533Y-133085471D01*
X146123736Y-133181890D01*
X146375161Y-133182110D01*
X146607532Y-133086096D01*
X146785471Y-132908467D01*
X146881890Y-132676264D01*
X146882110Y-132424839D01*
X146799605Y-132225161D01*
X147367890Y-132225161D01*
X147463904Y-132457532D01*
X147641533Y-132635471D01*
X147873736Y-132731890D01*
X148125161Y-132732110D01*
X148357532Y-132636096D01*
X148535471Y-132458467D01*
X148605941Y-132288756D01*
X149007134Y-132696395D01*
X149448823Y-132883487D01*
X149365666Y-132900028D01*
X148979408Y-133158118D01*
X148721318Y-133544376D01*
X148630689Y-133999999D01*
X148721318Y-134455622D01*
X148979408Y-134841880D01*
X149365666Y-135099970D01*
X149821289Y-135190599D01*
X150178711Y-135190599D01*
X150634334Y-135099970D01*
X151020592Y-134841880D01*
X151278682Y-134455622D01*
X151369311Y-133999999D01*
X151278682Y-133544376D01*
X151020592Y-133158118D01*
X150634334Y-132900028D01*
X150551177Y-132883487D01*
X150992866Y-132696395D01*
X151402038Y-132280648D01*
X151581185Y-131912076D01*
X151473562Y-131682999D01*
X150223000Y-131682999D01*
X150223000Y-131702999D01*
X149777000Y-131702999D01*
X149777000Y-131682999D01*
X148526438Y-131682999D01*
X148510531Y-131716858D01*
X148358467Y-131564529D01*
X148126264Y-131468110D01*
X147874839Y-131467890D01*
X147642468Y-131563904D01*
X147464529Y-131741533D01*
X147368110Y-131973736D01*
X147367890Y-132225161D01*
X146799605Y-132225161D01*
X146786096Y-132192468D01*
X146608467Y-132014529D01*
X146376264Y-131918110D01*
X146124839Y-131917890D01*
X145892468Y-132013904D01*
X145714529Y-132191533D01*
X145618110Y-132423736D01*
X145617890Y-132675161D01*
X145452000Y-132675161D01*
X145452000Y-131007922D01*
X148418815Y-131007922D01*
X148526438Y-131236999D01*
X149777000Y-131236999D01*
X149777000Y-130125406D01*
X150223000Y-130125406D01*
X150223000Y-131236999D01*
X151473562Y-131236999D01*
X151526104Y-131125161D01*
X152267890Y-131125161D01*
X152363904Y-131357532D01*
X152541533Y-131535471D01*
X152773736Y-131631890D01*
X153025161Y-131632110D01*
X153257532Y-131536096D01*
X153435471Y-131358467D01*
X153531890Y-131126264D01*
X153532110Y-130874839D01*
X153436096Y-130642468D01*
X153258467Y-130464529D01*
X153026264Y-130368110D01*
X152774839Y-130367890D01*
X152542468Y-130463904D01*
X152364529Y-130641533D01*
X152268110Y-130873736D01*
X152267890Y-131125161D01*
X151526104Y-131125161D01*
X151581185Y-131007922D01*
X151402038Y-130639350D01*
X150992866Y-130223603D01*
X150455741Y-129996086D01*
X150223000Y-130125406D01*
X149777000Y-130125406D01*
X149544259Y-129996086D01*
X149007134Y-130223603D01*
X148597962Y-130639350D01*
X148418815Y-131007922D01*
X145452000Y-131007922D01*
X145452000Y-130375161D01*
X147117890Y-130375161D01*
X147213904Y-130607532D01*
X147391533Y-130785471D01*
X147623736Y-130881890D01*
X147875161Y-130882110D01*
X148107532Y-130786096D01*
X148285471Y-130608467D01*
X148381890Y-130376264D01*
X148382110Y-130124839D01*
X148286096Y-129892468D01*
X148108467Y-129714529D01*
X147876264Y-129618110D01*
X147624839Y-129617890D01*
X147392468Y-129713904D01*
X147214529Y-129891533D01*
X147118110Y-130123736D01*
X147117890Y-130375161D01*
X145452000Y-130375161D01*
X145452000Y-123125161D01*
X147117890Y-123125161D01*
X147213904Y-123357532D01*
X147391533Y-123535471D01*
X147623736Y-123631890D01*
X147875161Y-123632110D01*
X148107532Y-123536096D01*
X148199813Y-123443975D01*
X150072874Y-123443975D01*
X150183320Y-123711275D01*
X150387650Y-123915961D01*
X150654756Y-124026874D01*
X150943975Y-124027126D01*
X151211275Y-123916680D01*
X151415961Y-123712350D01*
X151526874Y-123445244D01*
X151527126Y-123156025D01*
X151416680Y-122888725D01*
X151212350Y-122684039D01*
X150945244Y-122573126D01*
X150656025Y-122572874D01*
X150388725Y-122683320D01*
X150184039Y-122887650D01*
X150073126Y-123154756D01*
X150072874Y-123443975D01*
X148199813Y-123443975D01*
X148285471Y-123358467D01*
X148381890Y-123126264D01*
X148382110Y-122874839D01*
X148341712Y-122777069D01*
X148473736Y-122831890D01*
X148725161Y-122832110D01*
X148957532Y-122736096D01*
X149135471Y-122558467D01*
X149231890Y-122326264D01*
X149232110Y-122074839D01*
X149136096Y-121842468D01*
X148958467Y-121664529D01*
X148726264Y-121568110D01*
X148474839Y-121567890D01*
X148242468Y-121663904D01*
X148064529Y-121841533D01*
X147968110Y-122073736D01*
X147967890Y-122325161D01*
X148008288Y-122422931D01*
X147876264Y-122368110D01*
X147624839Y-122367890D01*
X147392468Y-122463904D01*
X147214529Y-122641533D01*
X147118110Y-122873736D01*
X147117890Y-123125161D01*
X145452000Y-123125161D01*
X145452000Y-122275161D01*
X145917890Y-122275161D01*
X146013904Y-122507532D01*
X146191533Y-122685471D01*
X146423736Y-122781890D01*
X146675161Y-122782110D01*
X146907532Y-122686096D01*
X147085471Y-122508467D01*
X147181890Y-122276264D01*
X147182110Y-122024839D01*
X147086096Y-121792468D01*
X146908467Y-121614529D01*
X146676264Y-121518110D01*
X146424839Y-121517890D01*
X146192468Y-121613904D01*
X146014529Y-121791533D01*
X145918110Y-122023736D01*
X145917890Y-122275161D01*
X145452000Y-122275161D01*
X145452000Y-120975161D01*
X148117890Y-120975161D01*
X148213904Y-121207532D01*
X148391533Y-121385471D01*
X148623736Y-121481890D01*
X148875161Y-121482110D01*
X149107532Y-121386096D01*
X149285471Y-121208467D01*
X149361586Y-121025161D01*
X150217890Y-121025161D01*
X150313904Y-121257532D01*
X150491533Y-121435471D01*
X150723736Y-121531890D01*
X150975161Y-121532110D01*
X151207532Y-121436096D01*
X151385471Y-121258467D01*
X151481890Y-121026264D01*
X151482110Y-120774839D01*
X151386096Y-120542468D01*
X151208467Y-120364529D01*
X150976264Y-120268110D01*
X150724839Y-120267890D01*
X150492468Y-120363904D01*
X150314529Y-120541533D01*
X150218110Y-120773736D01*
X150217890Y-121025161D01*
X149361586Y-121025161D01*
X149381890Y-120976264D01*
X149382110Y-120724839D01*
X149286096Y-120492468D01*
X149108467Y-120314529D01*
X148876264Y-120218110D01*
X148624839Y-120217890D01*
X148392468Y-120313904D01*
X148214529Y-120491533D01*
X148118110Y-120723736D01*
X148117890Y-120975161D01*
X145452000Y-120975161D01*
X145452000Y-118375161D01*
X149467890Y-118375161D01*
X149563904Y-118607532D01*
X149741533Y-118785471D01*
X149973736Y-118881890D01*
X150225161Y-118882110D01*
X150457532Y-118786096D01*
X150484992Y-118758683D01*
X150626533Y-118900471D01*
X150858736Y-118996890D01*
X151110161Y-118997110D01*
X151342532Y-118901096D01*
X151520471Y-118723467D01*
X151616890Y-118491264D01*
X151617110Y-118239839D01*
X151521096Y-118007468D01*
X151343467Y-117829529D01*
X151111264Y-117733110D01*
X150859839Y-117732890D01*
X150627468Y-117828904D01*
X150600008Y-117856317D01*
X150458467Y-117714529D01*
X150226264Y-117618110D01*
X149974839Y-117617890D01*
X149742468Y-117713904D01*
X149564529Y-117891533D01*
X149468110Y-118123736D01*
X149467890Y-118375161D01*
X145452000Y-118375161D01*
X145452000Y-116175161D01*
X146067890Y-116175161D01*
X146163904Y-116407532D01*
X146341533Y-116585471D01*
X146573736Y-116681890D01*
X146825161Y-116682110D01*
X147057532Y-116586096D01*
X147235471Y-116408467D01*
X147331890Y-116176264D01*
X147332110Y-115924839D01*
X147236096Y-115692468D01*
X147058467Y-115514529D01*
X146826264Y-115418110D01*
X146574839Y-115417890D01*
X146342468Y-115513904D01*
X146164529Y-115691533D01*
X146068110Y-115923736D01*
X146067890Y-116175161D01*
X145452000Y-116175161D01*
X145452000Y-115393975D01*
X152122874Y-115393975D01*
X152233320Y-115661275D01*
X152437650Y-115865961D01*
X152704756Y-115976874D01*
X152993975Y-115977126D01*
X153261275Y-115866680D01*
X153465961Y-115662350D01*
X153576874Y-115395244D01*
X153577126Y-115106025D01*
X153466680Y-114838725D01*
X153262350Y-114634039D01*
X152995244Y-114523126D01*
X152706025Y-114522874D01*
X152438725Y-114633320D01*
X152234039Y-114837650D01*
X152123126Y-115104756D01*
X152122874Y-115393975D01*
X145452000Y-115393975D01*
X145452000Y-114575161D01*
X148367890Y-114575161D01*
X148463904Y-114807532D01*
X148641533Y-114985471D01*
X148873736Y-115081890D01*
X149125161Y-115082110D01*
X149357532Y-114986096D01*
X149535471Y-114808467D01*
X149631890Y-114576264D01*
X149632110Y-114324839D01*
X149536096Y-114092468D01*
X149358467Y-113914529D01*
X149126264Y-113818110D01*
X148874839Y-113817890D01*
X148642468Y-113913904D01*
X148464529Y-114091533D01*
X148368110Y-114323736D01*
X148367890Y-114575161D01*
X145452000Y-114575161D01*
X145452000Y-111125161D01*
X152367890Y-111125161D01*
X152463904Y-111357532D01*
X152641533Y-111535471D01*
X152873736Y-111631890D01*
X153125161Y-111632110D01*
X153357532Y-111536096D01*
X153535471Y-111358467D01*
X153631890Y-111126264D01*
X153632110Y-110874839D01*
X153536096Y-110642468D01*
X153358467Y-110464529D01*
X153126264Y-110368110D01*
X152874839Y-110367890D01*
X152642468Y-110463904D01*
X152464529Y-110641533D01*
X152368110Y-110873736D01*
X152367890Y-111125161D01*
X145452000Y-111125161D01*
X145452000Y-110225161D01*
X150317890Y-110225161D01*
X150413904Y-110457532D01*
X150591533Y-110635471D01*
X150823736Y-110731890D01*
X151075161Y-110732110D01*
X151307532Y-110636096D01*
X151485471Y-110458467D01*
X151581890Y-110226264D01*
X151582110Y-109974839D01*
X151486096Y-109742468D01*
X151308467Y-109564529D01*
X151076264Y-109468110D01*
X150824839Y-109467890D01*
X150592468Y-109563904D01*
X150414529Y-109741533D01*
X150318110Y-109973736D01*
X150317890Y-110225161D01*
X145452000Y-110225161D01*
X145452000Y-108157713D01*
X145513904Y-108307532D01*
X145691533Y-108485471D01*
X145868036Y-108558761D01*
X145867890Y-108725161D01*
X145963904Y-108957532D01*
X146141533Y-109135471D01*
X146373736Y-109231890D01*
X146625161Y-109232110D01*
X146857532Y-109136096D01*
X147035471Y-108958467D01*
X147131890Y-108726264D01*
X147132022Y-108575161D01*
X147717890Y-108575161D01*
X147813904Y-108807532D01*
X147991533Y-108985471D01*
X148223736Y-109081890D01*
X148475161Y-109082110D01*
X148707532Y-108986096D01*
X148885471Y-108808467D01*
X148981890Y-108576264D01*
X148982110Y-108324839D01*
X148886096Y-108092468D01*
X148708467Y-107914529D01*
X148476264Y-107818110D01*
X148224839Y-107817890D01*
X147992468Y-107913904D01*
X147814529Y-108091533D01*
X147718110Y-108323736D01*
X147717890Y-108575161D01*
X147132022Y-108575161D01*
X147132110Y-108474839D01*
X147036096Y-108242468D01*
X146858467Y-108064529D01*
X146681964Y-107991239D01*
X146682110Y-107824839D01*
X146640924Y-107725161D01*
X152267890Y-107725161D01*
X152363904Y-107957532D01*
X152541533Y-108135471D01*
X152773736Y-108231890D01*
X153025161Y-108232110D01*
X153257532Y-108136096D01*
X153435471Y-107958467D01*
X153531890Y-107726264D01*
X153532110Y-107474839D01*
X153436096Y-107242468D01*
X153258467Y-107064529D01*
X153026264Y-106968110D01*
X152774839Y-106967890D01*
X152542468Y-107063904D01*
X152364529Y-107241533D01*
X152268110Y-107473736D01*
X152267890Y-107725161D01*
X146640924Y-107725161D01*
X146586096Y-107592468D01*
X146408467Y-107414529D01*
X146176264Y-107318110D01*
X145924839Y-107317890D01*
X145692468Y-107413904D01*
X145514529Y-107591533D01*
X145452000Y-107742120D01*
X145452000Y-107103216D01*
X145458088Y-107107284D01*
X145486345Y-107135482D01*
X145522855Y-107150560D01*
X145555702Y-107172508D01*
X145594858Y-107180297D01*
X145631753Y-107195534D01*
X145671254Y-107195493D01*
X145710000Y-107203200D01*
X146412915Y-107203200D01*
X146413904Y-107205594D01*
X146591533Y-107383533D01*
X146823736Y-107479952D01*
X147075161Y-107480172D01*
X147307532Y-107384158D01*
X147485471Y-107206529D01*
X147581890Y-106974326D01*
X147582110Y-106722901D01*
X147486096Y-106490530D01*
X147308467Y-106312591D01*
X147076264Y-106216172D01*
X146824839Y-106215952D01*
X146592468Y-106311966D01*
X146507486Y-106396800D01*
X146040545Y-106396800D01*
X145903200Y-105710076D01*
X145903200Y-103896897D01*
X146041533Y-104035471D01*
X146273736Y-104131890D01*
X146525161Y-104132110D01*
X146757532Y-104036096D01*
X146935471Y-103858467D01*
X147031890Y-103626264D01*
X147031978Y-103525161D01*
X152617890Y-103525161D01*
X152713904Y-103757532D01*
X152891533Y-103935471D01*
X153123736Y-104031890D01*
X153375161Y-104032110D01*
X153607532Y-103936096D01*
X153785471Y-103758467D01*
X153881890Y-103526264D01*
X153882110Y-103274839D01*
X153786096Y-103042468D01*
X153608467Y-102864529D01*
X153376264Y-102768110D01*
X153124839Y-102767890D01*
X152892468Y-102863904D01*
X152714529Y-103041533D01*
X152618110Y-103273736D01*
X152617890Y-103525161D01*
X147031978Y-103525161D01*
X147032110Y-103374839D01*
X146936096Y-103142468D01*
X146758467Y-102964529D01*
X146526264Y-102868110D01*
X146274839Y-102867890D01*
X146042468Y-102963904D01*
X145878792Y-103127295D01*
X145872508Y-103095702D01*
X145864460Y-103083657D01*
X145860633Y-103069683D01*
X144860633Y-101069683D01*
X144859899Y-101068738D01*
X144859577Y-101067587D01*
X144848276Y-101053200D01*
X146909492Y-101053200D01*
X147041533Y-101185471D01*
X147271846Y-101281105D01*
X147192468Y-101313904D01*
X147014529Y-101491533D01*
X146918110Y-101723736D01*
X146917890Y-101975161D01*
X147013904Y-102207532D01*
X147191533Y-102385471D01*
X147423736Y-102481890D01*
X147675161Y-102482110D01*
X147907532Y-102386096D01*
X148085471Y-102208467D01*
X148181890Y-101976264D01*
X148182055Y-101787942D01*
X148307532Y-101736096D01*
X148485471Y-101558467D01*
X148561586Y-101375161D01*
X150817890Y-101375161D01*
X150913904Y-101607532D01*
X151091533Y-101785471D01*
X151323736Y-101881890D01*
X151575161Y-101882110D01*
X151807532Y-101786096D01*
X151985471Y-101608467D01*
X152020062Y-101525161D01*
X152467890Y-101525161D01*
X152563904Y-101757532D01*
X152741533Y-101935471D01*
X152973736Y-102031890D01*
X153225161Y-102032110D01*
X153457532Y-101936096D01*
X153635471Y-101758467D01*
X153731890Y-101526264D01*
X153732110Y-101274839D01*
X153636096Y-101042468D01*
X153458467Y-100864529D01*
X153226264Y-100768110D01*
X152974839Y-100767890D01*
X152742468Y-100863904D01*
X152564529Y-101041533D01*
X152468110Y-101273736D01*
X152467890Y-101525161D01*
X152020062Y-101525161D01*
X152081890Y-101376264D01*
X152082110Y-101124839D01*
X151986096Y-100892468D01*
X151808467Y-100714529D01*
X151576264Y-100618110D01*
X151324839Y-100617890D01*
X151092468Y-100713904D01*
X150914529Y-100891533D01*
X150818110Y-101123736D01*
X150817890Y-101375161D01*
X148561586Y-101375161D01*
X148581890Y-101326264D01*
X148582110Y-101074839D01*
X148486096Y-100842468D01*
X148308467Y-100664529D01*
X148076264Y-100568110D01*
X148032072Y-100568071D01*
X148032110Y-100524839D01*
X148001433Y-100450595D01*
X148157532Y-100386096D01*
X148228367Y-100315385D01*
X148448736Y-100406890D01*
X148517928Y-100406951D01*
X148517890Y-100450161D01*
X148613904Y-100682532D01*
X148791533Y-100860471D01*
X149023736Y-100956890D01*
X149275161Y-100957110D01*
X149507532Y-100861096D01*
X149537418Y-100831262D01*
X149591533Y-100885471D01*
X149823736Y-100981890D01*
X150075161Y-100982110D01*
X150307532Y-100886096D01*
X150485471Y-100708467D01*
X150581890Y-100476264D01*
X150582110Y-100224839D01*
X150486096Y-99992468D01*
X150468762Y-99975104D01*
X150510471Y-99933467D01*
X150606890Y-99701264D01*
X150607110Y-99449839D01*
X150511096Y-99217468D01*
X150333467Y-99039529D01*
X150101264Y-98943110D01*
X149849839Y-98942890D01*
X149617468Y-99038904D01*
X149439529Y-99216533D01*
X149343110Y-99448736D01*
X149342890Y-99700161D01*
X149353172Y-99725045D01*
X149276264Y-99693110D01*
X149207072Y-99693049D01*
X149207110Y-99649839D01*
X149111096Y-99417468D01*
X148933467Y-99239529D01*
X148701264Y-99143110D01*
X148449839Y-99142890D01*
X148217468Y-99238904D01*
X148146633Y-99309615D01*
X147926264Y-99218110D01*
X147674839Y-99217890D01*
X147442468Y-99313904D01*
X147264529Y-99491533D01*
X147168110Y-99723736D01*
X147167890Y-99975161D01*
X147198567Y-100049405D01*
X147042468Y-100113904D01*
X146909340Y-100246800D01*
X144531531Y-100246800D01*
X143159715Y-99091588D01*
X143128976Y-99074654D01*
X143102657Y-99051431D01*
X142197473Y-98525161D01*
X142767890Y-98525161D01*
X142863904Y-98757532D01*
X143041533Y-98935471D01*
X143273736Y-99031890D01*
X143525161Y-99032110D01*
X143757532Y-98936096D01*
X143935471Y-98758467D01*
X144031890Y-98526264D01*
X144032110Y-98274839D01*
X143936096Y-98042468D01*
X143818994Y-97925161D01*
X156967890Y-97925161D01*
X157063904Y-98157532D01*
X157241533Y-98335471D01*
X157473736Y-98431890D01*
X157725161Y-98432110D01*
X157957532Y-98336096D01*
X158135471Y-98158467D01*
X158231890Y-97926264D01*
X158232110Y-97674839D01*
X158211584Y-97625161D01*
X164917890Y-97625161D01*
X165013904Y-97857532D01*
X165191533Y-98035471D01*
X165423736Y-98131890D01*
X165675161Y-98132110D01*
X165907532Y-98036096D01*
X166085471Y-97858467D01*
X166181890Y-97626264D01*
X166181890Y-97625161D01*
X170867890Y-97625161D01*
X170963904Y-97857532D01*
X171141533Y-98035471D01*
X171373736Y-98131890D01*
X171625161Y-98132110D01*
X171857532Y-98036096D01*
X172035471Y-97858467D01*
X172131890Y-97626264D01*
X172132110Y-97374839D01*
X172036096Y-97142468D01*
X171858467Y-96964529D01*
X171626264Y-96868110D01*
X171374839Y-96867890D01*
X171142468Y-96963904D01*
X170964529Y-97141533D01*
X170868110Y-97373736D01*
X170867890Y-97625161D01*
X166181890Y-97625161D01*
X166182110Y-97374839D01*
X166086096Y-97142468D01*
X165908467Y-96964529D01*
X165676264Y-96868110D01*
X165424839Y-96867890D01*
X165192468Y-96963904D01*
X165014529Y-97141533D01*
X164918110Y-97373736D01*
X164917890Y-97625161D01*
X158211584Y-97625161D01*
X158136096Y-97442468D01*
X157958467Y-97264529D01*
X157726264Y-97168110D01*
X157474839Y-97167890D01*
X157242468Y-97263904D01*
X157064529Y-97441533D01*
X156968110Y-97673736D01*
X156967890Y-97925161D01*
X143818994Y-97925161D01*
X143758467Y-97864529D01*
X143526264Y-97768110D01*
X143274839Y-97767890D01*
X143042468Y-97863904D01*
X142864529Y-98041533D01*
X142768110Y-98273736D01*
X142767890Y-98525161D01*
X142197473Y-98525161D01*
X139531473Y-96975161D01*
X150967890Y-96975161D01*
X151063904Y-97207532D01*
X151241533Y-97385471D01*
X151473736Y-97481890D01*
X151725161Y-97482110D01*
X151957532Y-97386096D01*
X151999962Y-97343740D01*
X152091533Y-97435471D01*
X152323736Y-97531890D01*
X152575161Y-97532110D01*
X152807532Y-97436096D01*
X152985471Y-97258467D01*
X153081890Y-97026264D01*
X153081890Y-97025161D01*
X161367890Y-97025161D01*
X161463904Y-97257532D01*
X161641533Y-97435471D01*
X161873736Y-97531890D01*
X162125161Y-97532110D01*
X162357532Y-97436096D01*
X162535471Y-97258467D01*
X162631890Y-97026264D01*
X162632110Y-96774839D01*
X162566139Y-96615178D01*
X162757532Y-96536096D01*
X162935471Y-96358467D01*
X163031890Y-96126264D01*
X163032049Y-95943975D01*
X167072874Y-95943975D01*
X167183320Y-96211275D01*
X167387650Y-96415961D01*
X167654756Y-96526874D01*
X167943975Y-96527126D01*
X168211275Y-96416680D01*
X168415961Y-96212350D01*
X168431403Y-96175161D01*
X170867890Y-96175161D01*
X170963904Y-96407532D01*
X171141533Y-96585471D01*
X171373736Y-96681890D01*
X171625161Y-96682110D01*
X171857532Y-96586096D01*
X172035471Y-96408467D01*
X172121004Y-96202480D01*
X176102889Y-96202480D01*
X176209361Y-96457612D01*
X176831175Y-96648461D01*
X177478692Y-96586825D01*
X177790639Y-96457612D01*
X177897111Y-96202480D01*
X177769792Y-96075161D01*
X181267890Y-96075161D01*
X181363904Y-96307532D01*
X181541533Y-96485471D01*
X181773736Y-96581890D01*
X182025161Y-96582110D01*
X182257532Y-96486096D01*
X182435471Y-96308467D01*
X182531890Y-96076264D01*
X182532110Y-95824839D01*
X182436096Y-95592468D01*
X182258467Y-95414529D01*
X182026264Y-95318110D01*
X181774839Y-95317890D01*
X181542468Y-95413904D01*
X181364529Y-95591533D01*
X181268110Y-95823736D01*
X181267890Y-96075161D01*
X177769792Y-96075161D01*
X177000000Y-95305370D01*
X176102889Y-96202480D01*
X172121004Y-96202480D01*
X172131890Y-96176264D01*
X172132110Y-95924839D01*
X172036096Y-95692468D01*
X171858467Y-95514529D01*
X171626264Y-95418110D01*
X171374839Y-95417890D01*
X171142468Y-95513904D01*
X170964529Y-95691533D01*
X170868110Y-95923736D01*
X170867890Y-96175161D01*
X168431403Y-96175161D01*
X168526874Y-95945244D01*
X168527126Y-95656025D01*
X168416680Y-95388725D01*
X168212350Y-95184039D01*
X167945244Y-95073126D01*
X167656025Y-95072874D01*
X167388725Y-95183320D01*
X167184039Y-95387650D01*
X167073126Y-95654756D01*
X167072874Y-95943975D01*
X163032049Y-95943975D01*
X163032110Y-95874839D01*
X162936096Y-95642468D01*
X162758467Y-95464529D01*
X162526264Y-95368110D01*
X162274839Y-95367890D01*
X162042468Y-95463904D01*
X161864529Y-95641533D01*
X161768110Y-95873736D01*
X161767890Y-96125161D01*
X161833861Y-96284822D01*
X161642468Y-96363904D01*
X161464529Y-96541533D01*
X161368110Y-96773736D01*
X161367890Y-97025161D01*
X153081890Y-97025161D01*
X153082110Y-96774839D01*
X152986096Y-96542468D01*
X152808467Y-96364529D01*
X152653452Y-96300161D01*
X157467890Y-96300161D01*
X157563904Y-96532532D01*
X157741533Y-96710471D01*
X157973736Y-96806890D01*
X158225161Y-96807110D01*
X158457532Y-96711096D01*
X158571084Y-96597742D01*
X158773736Y-96681890D01*
X159025161Y-96682110D01*
X159158396Y-96627058D01*
X159316533Y-96785471D01*
X159548736Y-96881890D01*
X159800161Y-96882110D01*
X160032532Y-96786096D01*
X160210471Y-96608467D01*
X160306890Y-96376264D01*
X160307110Y-96124839D01*
X160211096Y-95892468D01*
X160033467Y-95714529D01*
X159801264Y-95618110D01*
X159549839Y-95617890D01*
X159416604Y-95672942D01*
X159258467Y-95514529D01*
X159026264Y-95418110D01*
X158774839Y-95417890D01*
X158542468Y-95513904D01*
X158428916Y-95627258D01*
X158226264Y-95543110D01*
X157974839Y-95542890D01*
X157742468Y-95638904D01*
X157564529Y-95816533D01*
X157468110Y-96048736D01*
X157467890Y-96300161D01*
X152653452Y-96300161D01*
X152576264Y-96268110D01*
X152324839Y-96267890D01*
X152092468Y-96363904D01*
X152050038Y-96406260D01*
X151958467Y-96314529D01*
X151726264Y-96218110D01*
X151474839Y-96217890D01*
X151242468Y-96313904D01*
X151064529Y-96491533D01*
X150968110Y-96723736D01*
X150967890Y-96975161D01*
X139531473Y-96975161D01*
X138848010Y-96577799D01*
X137585105Y-95314895D01*
X137454298Y-95227492D01*
X137442579Y-95225161D01*
X137300000Y-95196800D01*
X136217011Y-95196800D01*
X135945372Y-94925161D01*
X142467890Y-94925161D01*
X142563904Y-95157532D01*
X142741533Y-95335471D01*
X142973736Y-95431890D01*
X143225161Y-95432110D01*
X143291990Y-95404497D01*
X143313904Y-95457532D01*
X143491533Y-95635471D01*
X143723736Y-95731890D01*
X143975161Y-95732110D01*
X144207532Y-95636096D01*
X144255798Y-95587914D01*
X144263904Y-95607532D01*
X144441533Y-95785471D01*
X144673736Y-95881890D01*
X144925161Y-95882110D01*
X145157532Y-95786096D01*
X145335471Y-95608467D01*
X145431890Y-95376264D01*
X145431934Y-95325161D01*
X155242890Y-95325161D01*
X155338904Y-95557532D01*
X155516533Y-95735471D01*
X155748736Y-95831890D01*
X156000161Y-95832110D01*
X156232532Y-95736096D01*
X156410471Y-95558467D01*
X156506890Y-95326264D01*
X156506997Y-95204178D01*
X156573736Y-95231890D01*
X156825161Y-95232110D01*
X157057532Y-95136096D01*
X157235471Y-94958467D01*
X157292479Y-94821175D01*
X175341539Y-94821175D01*
X175403175Y-95468692D01*
X175532388Y-95780639D01*
X175787520Y-95887111D01*
X176684630Y-94990000D01*
X177315370Y-94990000D01*
X178212480Y-95887111D01*
X178467612Y-95780639D01*
X178658461Y-95158825D01*
X178596825Y-94511308D01*
X178467612Y-94199361D01*
X178212480Y-94092889D01*
X177315370Y-94990000D01*
X176684630Y-94990000D01*
X175787520Y-94092889D01*
X175532388Y-94199361D01*
X175341539Y-94821175D01*
X157292479Y-94821175D01*
X157331890Y-94726264D01*
X157332110Y-94474839D01*
X157236096Y-94242468D01*
X157058467Y-94064529D01*
X156902969Y-93999960D01*
X157057532Y-93936096D01*
X157149813Y-93843975D01*
X173472874Y-93843975D01*
X173583320Y-94111275D01*
X173787650Y-94315961D01*
X174054756Y-94426874D01*
X174343975Y-94427126D01*
X174611275Y-94316680D01*
X174815961Y-94112350D01*
X174926874Y-93845244D01*
X174926933Y-93777520D01*
X176102889Y-93777520D01*
X177000000Y-94674630D01*
X177897111Y-93777520D01*
X177854395Y-93675161D01*
X185267890Y-93675161D01*
X185363904Y-93907532D01*
X185541533Y-94085471D01*
X185773736Y-94181890D01*
X186025161Y-94182110D01*
X186257532Y-94086096D01*
X186435471Y-93908467D01*
X186531890Y-93676264D01*
X186532110Y-93424839D01*
X186436096Y-93192468D01*
X186258467Y-93014529D01*
X186026264Y-92918110D01*
X185774839Y-92917890D01*
X185542468Y-93013904D01*
X185364529Y-93191533D01*
X185268110Y-93423736D01*
X185267890Y-93675161D01*
X177854395Y-93675161D01*
X177790639Y-93522388D01*
X177168825Y-93331539D01*
X176521308Y-93393175D01*
X176209361Y-93522388D01*
X176102889Y-93777520D01*
X174926933Y-93777520D01*
X174927126Y-93556025D01*
X174816680Y-93288725D01*
X174612350Y-93084039D01*
X174345244Y-92973126D01*
X174056025Y-92972874D01*
X173788725Y-93083320D01*
X173584039Y-93287650D01*
X173473126Y-93554756D01*
X173472874Y-93843975D01*
X157149813Y-93843975D01*
X157235471Y-93758467D01*
X157331890Y-93526264D01*
X157332110Y-93274839D01*
X157236096Y-93042468D01*
X157058467Y-92864529D01*
X156902969Y-92799960D01*
X157057532Y-92736096D01*
X157235471Y-92558467D01*
X157331890Y-92326264D01*
X157331978Y-92225161D01*
X170167890Y-92225161D01*
X170263904Y-92457532D01*
X170441533Y-92635471D01*
X170673736Y-92731890D01*
X170925161Y-92732110D01*
X171157532Y-92636096D01*
X171335471Y-92458467D01*
X171431890Y-92226264D01*
X171432105Y-91980573D01*
X171463904Y-92057532D01*
X171641533Y-92235471D01*
X171873736Y-92331890D01*
X172125161Y-92332110D01*
X172357532Y-92236096D01*
X172535471Y-92058467D01*
X172631890Y-91826264D01*
X172632065Y-91625161D01*
X175567890Y-91625161D01*
X175663904Y-91857532D01*
X175841533Y-92035471D01*
X176073736Y-92131890D01*
X176325161Y-92132110D01*
X176557532Y-92036096D01*
X176735471Y-91858467D01*
X176831890Y-91626264D01*
X176832110Y-91374839D01*
X176736096Y-91142468D01*
X176558467Y-90964529D01*
X176326264Y-90868110D01*
X176074839Y-90867890D01*
X175842468Y-90963904D01*
X175664529Y-91141533D01*
X175568110Y-91373736D01*
X175567890Y-91625161D01*
X172632065Y-91625161D01*
X172632110Y-91574839D01*
X172536096Y-91342468D01*
X172358467Y-91164529D01*
X172126264Y-91068110D01*
X171874839Y-91067890D01*
X171642468Y-91163904D01*
X171464529Y-91341533D01*
X171368110Y-91573736D01*
X171367895Y-91819427D01*
X171336096Y-91742468D01*
X171158467Y-91564529D01*
X170926264Y-91468110D01*
X170674839Y-91467890D01*
X170442468Y-91563904D01*
X170264529Y-91741533D01*
X170168110Y-91973736D01*
X170167890Y-92225161D01*
X157331978Y-92225161D01*
X157332110Y-92074839D01*
X157236096Y-91842468D01*
X157058467Y-91664529D01*
X156826264Y-91568110D01*
X156632029Y-91567940D01*
X156632110Y-91474839D01*
X156536096Y-91242468D01*
X156358467Y-91064529D01*
X156126264Y-90968110D01*
X155874839Y-90967890D01*
X155642468Y-91063904D01*
X155464529Y-91241533D01*
X155368110Y-91473736D01*
X155367890Y-91725161D01*
X155463904Y-91957532D01*
X155641533Y-92135471D01*
X155797031Y-92200040D01*
X155642468Y-92263904D01*
X155464529Y-92441533D01*
X155368110Y-92673736D01*
X155367890Y-92925161D01*
X155463904Y-93157532D01*
X155641533Y-93335471D01*
X155797031Y-93400040D01*
X155642468Y-93463904D01*
X155464529Y-93641533D01*
X155368110Y-93873736D01*
X155367890Y-94125161D01*
X155463904Y-94357532D01*
X155641533Y-94535471D01*
X155734686Y-94574151D01*
X155517468Y-94663904D01*
X155339529Y-94841533D01*
X155243110Y-95073736D01*
X155242890Y-95325161D01*
X145431934Y-95325161D01*
X145432110Y-95124839D01*
X145336096Y-94892468D01*
X145158467Y-94714529D01*
X144926264Y-94618110D01*
X144674839Y-94617890D01*
X144442468Y-94713904D01*
X144394202Y-94762086D01*
X144386096Y-94742468D01*
X144208467Y-94564529D01*
X143976264Y-94468110D01*
X143724839Y-94467890D01*
X143658010Y-94495503D01*
X143636096Y-94442468D01*
X143458467Y-94264529D01*
X143226264Y-94168110D01*
X142974839Y-94167890D01*
X142742468Y-94263904D01*
X142564529Y-94441533D01*
X142468110Y-94673736D01*
X142467890Y-94925161D01*
X135945372Y-94925161D01*
X135881946Y-94861736D01*
X135882110Y-94674839D01*
X135786096Y-94442468D01*
X135608467Y-94264529D01*
X135579476Y-94252491D01*
X135631890Y-94126264D01*
X135632110Y-93874839D01*
X135601254Y-93800161D01*
X149142890Y-93800161D01*
X149238904Y-94032532D01*
X149416533Y-94210471D01*
X149648736Y-94306890D01*
X149900161Y-94307110D01*
X150132532Y-94211096D01*
X150310471Y-94033467D01*
X150406890Y-93801264D01*
X150407110Y-93549839D01*
X150311096Y-93317468D01*
X150133467Y-93139529D01*
X149901264Y-93043110D01*
X149649839Y-93042890D01*
X149417468Y-93138904D01*
X149239529Y-93316533D01*
X149143110Y-93548736D01*
X149142890Y-93800161D01*
X135601254Y-93800161D01*
X135536096Y-93642468D01*
X135358467Y-93464529D01*
X135126264Y-93368110D01*
X134874839Y-93367890D01*
X134642468Y-93463904D01*
X134464529Y-93641533D01*
X134368110Y-93873736D01*
X134367890Y-94125161D01*
X134463904Y-94357532D01*
X134641533Y-94535471D01*
X134670524Y-94547509D01*
X134618110Y-94673736D01*
X134618027Y-94768059D01*
X134424839Y-94767890D01*
X134192468Y-94863904D01*
X134175082Y-94881260D01*
X134108467Y-94814529D01*
X133876264Y-94718110D01*
X133624839Y-94717890D01*
X133392468Y-94813904D01*
X133214529Y-94991533D01*
X133209844Y-95002815D01*
X133126264Y-94968110D01*
X132874839Y-94967890D01*
X132642468Y-95063904D01*
X132464529Y-95241533D01*
X132368110Y-95473736D01*
X132367890Y-95725161D01*
X132463904Y-95957532D01*
X132641533Y-96135471D01*
X132873736Y-96231890D01*
X132967972Y-96231972D01*
X132967890Y-96325161D01*
X133063904Y-96557532D01*
X133241533Y-96735471D01*
X133473736Y-96831890D01*
X133725161Y-96832110D01*
X133957532Y-96736096D01*
X134135471Y-96558467D01*
X134231890Y-96326264D01*
X134232110Y-96074839D01*
X134162512Y-95906399D01*
X134191533Y-95935471D01*
X134423736Y-96031890D01*
X134675161Y-96032110D01*
X134907532Y-95936096D01*
X135085471Y-95758467D01*
X135181890Y-95526264D01*
X135181973Y-95431941D01*
X135311844Y-95432055D01*
X135764895Y-95885106D01*
X135869932Y-95955289D01*
X135895702Y-95972508D01*
X136050000Y-96003200D01*
X136068161Y-96003200D01*
X136018110Y-96123736D01*
X136017890Y-96375161D01*
X136113904Y-96607532D01*
X136291533Y-96785471D01*
X136523736Y-96881890D01*
X136775161Y-96882110D01*
X137007532Y-96786096D01*
X137185471Y-96608467D01*
X137281890Y-96376264D01*
X137282086Y-96152296D01*
X138314895Y-97185106D01*
X138358247Y-97214073D01*
X138397343Y-97248569D01*
X139286480Y-97765509D01*
X125966280Y-98113858D01*
X125981890Y-98076264D01*
X125982110Y-97824839D01*
X125886096Y-97592468D01*
X125708467Y-97414529D01*
X125476264Y-97318110D01*
X125224839Y-97317890D01*
X124992468Y-97413904D01*
X124814529Y-97591533D01*
X124718110Y-97823736D01*
X124717890Y-98075161D01*
X124747054Y-98145743D01*
X122823409Y-98196050D01*
X121509811Y-98008393D01*
X120403200Y-97534132D01*
X120403200Y-94475161D01*
X120917890Y-94475161D01*
X121013904Y-94707532D01*
X121191533Y-94885471D01*
X121423736Y-94981890D01*
X121675161Y-94982110D01*
X121907532Y-94886096D01*
X122085471Y-94708467D01*
X122181890Y-94476264D01*
X122182022Y-94325161D01*
X125167890Y-94325161D01*
X125263904Y-94557532D01*
X125441533Y-94735471D01*
X125668061Y-94829534D01*
X125667890Y-95025161D01*
X125763904Y-95257532D01*
X125941533Y-95435471D01*
X126173736Y-95531890D01*
X126425161Y-95532110D01*
X126657532Y-95436096D01*
X126835471Y-95258467D01*
X126931890Y-95026264D01*
X126932110Y-94774839D01*
X126836096Y-94542468D01*
X126658467Y-94364529D01*
X126431939Y-94270466D01*
X126432110Y-94074839D01*
X126336096Y-93842468D01*
X126158467Y-93664529D01*
X125926264Y-93568110D01*
X125674839Y-93567890D01*
X125442468Y-93663904D01*
X125264529Y-93841533D01*
X125168110Y-94073736D01*
X125167890Y-94325161D01*
X122182022Y-94325161D01*
X122182110Y-94224839D01*
X122086096Y-93992468D01*
X121908467Y-93814529D01*
X121676264Y-93718110D01*
X121424839Y-93717890D01*
X121192468Y-93813904D01*
X121014529Y-93991533D01*
X120918110Y-94223736D01*
X120917890Y-94475161D01*
X120403200Y-94475161D01*
X120403200Y-93617010D01*
X121870049Y-92150161D01*
X134267890Y-92150161D01*
X134363904Y-92382532D01*
X134541533Y-92560471D01*
X134773736Y-92656890D01*
X135025161Y-92657110D01*
X135257532Y-92561096D01*
X135435471Y-92383467D01*
X135531890Y-92151264D01*
X135532110Y-91899839D01*
X135436096Y-91667468D01*
X135258467Y-91489529D01*
X135026264Y-91393110D01*
X134774839Y-91392890D01*
X134542468Y-91488904D01*
X134364529Y-91666533D01*
X134268110Y-91898736D01*
X134267890Y-92150161D01*
X121870049Y-92150161D01*
X124017954Y-90002257D01*
X124017890Y-90075161D01*
X124113904Y-90307532D01*
X124291533Y-90485471D01*
X124523736Y-90581890D01*
X124775161Y-90582110D01*
X125007532Y-90486096D01*
X125185471Y-90308467D01*
X125281890Y-90076264D01*
X125282110Y-89824839D01*
X125186096Y-89592468D01*
X125053200Y-89459340D01*
X125053200Y-89300000D01*
X125022508Y-89145702D01*
X124983225Y-89086911D01*
X124935105Y-89014894D01*
X124835105Y-88914895D01*
X124704298Y-88827492D01*
X124550000Y-88796800D01*
X124250000Y-88796800D01*
X124095702Y-88827492D01*
X124007388Y-88886502D01*
X124035471Y-88858467D01*
X124131890Y-88626264D01*
X124132093Y-88393854D01*
X125133082Y-88348355D01*
X125129178Y-88360841D01*
X125106402Y-88412534D01*
X125105893Y-88435322D01*
X125099091Y-88457081D01*
X125104152Y-88513345D01*
X125102891Y-88569815D01*
X125111142Y-88591064D01*
X125113184Y-88613769D01*
X125596800Y-90258064D01*
X125596800Y-91050000D01*
X125620250Y-91167890D01*
X125620343Y-91168358D01*
X125618110Y-91173736D01*
X125617890Y-91425161D01*
X125713904Y-91657532D01*
X125891533Y-91835471D01*
X126123736Y-91931890D01*
X126375161Y-91932110D01*
X126607532Y-91836096D01*
X126785471Y-91658467D01*
X126881890Y-91426264D01*
X126882110Y-91174839D01*
X126786096Y-90942468D01*
X126608467Y-90764529D01*
X126403200Y-90679295D01*
X126403200Y-90200000D01*
X126391972Y-90143551D01*
X126386816Y-90086231D01*
X126243855Y-89600161D01*
X139217890Y-89600161D01*
X139313904Y-89832532D01*
X139491533Y-90010471D01*
X139723736Y-90106890D01*
X139949122Y-90107087D01*
X139864529Y-90191533D01*
X139768110Y-90423736D01*
X139767890Y-90675161D01*
X139863904Y-90907532D01*
X140041533Y-91085471D01*
X140273736Y-91181890D01*
X140467971Y-91182060D01*
X140467890Y-91275161D01*
X140563904Y-91507532D01*
X140741533Y-91685471D01*
X140868054Y-91738007D01*
X140867890Y-91925161D01*
X140963904Y-92157532D01*
X141141533Y-92335471D01*
X141373736Y-92431890D01*
X141625161Y-92432110D01*
X141857532Y-92336096D01*
X142035471Y-92158467D01*
X142131890Y-91926264D01*
X142132110Y-91674839D01*
X142036096Y-91442468D01*
X141858467Y-91264529D01*
X141731946Y-91211993D01*
X141732110Y-91024839D01*
X141690924Y-90925161D01*
X166667890Y-90925161D01*
X166763904Y-91157532D01*
X166941533Y-91335471D01*
X167173736Y-91431890D01*
X167425161Y-91432110D01*
X167657532Y-91336096D01*
X167835471Y-91158467D01*
X167931890Y-90926264D01*
X167932110Y-90674839D01*
X167836096Y-90442468D01*
X167658467Y-90264529D01*
X167426264Y-90168110D01*
X167174839Y-90167890D01*
X166942468Y-90263904D01*
X166764529Y-90441533D01*
X166668110Y-90673736D01*
X166667890Y-90925161D01*
X141690924Y-90925161D01*
X141636096Y-90792468D01*
X141458467Y-90614529D01*
X141226264Y-90518110D01*
X141032029Y-90517940D01*
X141032110Y-90424839D01*
X140936096Y-90192468D01*
X140758467Y-90014529D01*
X140526264Y-89918110D01*
X140300878Y-89917913D01*
X140385471Y-89833467D01*
X140481890Y-89601264D01*
X140482110Y-89349839D01*
X140386096Y-89117468D01*
X140208467Y-88939529D01*
X139976264Y-88843110D01*
X139724839Y-88842890D01*
X139492468Y-88938904D01*
X139314529Y-89116533D01*
X139218110Y-89348736D01*
X139217890Y-89600161D01*
X126243855Y-89600161D01*
X125972420Y-88677286D01*
X126593638Y-88281966D01*
X130005767Y-88126869D01*
X130054672Y-88114630D01*
X130094962Y-88084328D01*
X130113592Y-88056796D01*
X131113592Y-86056796D01*
X131126740Y-86008128D01*
X131119916Y-85958178D01*
X131089803Y-85910197D01*
X130089803Y-84910197D01*
X130047789Y-84882334D01*
X130000000Y-84873000D01*
X129094030Y-84873000D01*
X128927503Y-84817491D01*
X128863388Y-84809409D01*
X128800000Y-84796800D01*
X126049638Y-84796800D01*
X124619400Y-84439242D01*
X124386388Y-84175161D01*
X130692890Y-84175161D01*
X130788904Y-84407532D01*
X130966533Y-84585471D01*
X131068085Y-84627639D01*
X131067890Y-84850161D01*
X131163904Y-85082532D01*
X131341533Y-85260471D01*
X131573736Y-85356890D01*
X131781075Y-85357071D01*
X131863904Y-85557532D01*
X132041533Y-85735471D01*
X132273736Y-85831890D01*
X132525161Y-85832110D01*
X132757532Y-85736096D01*
X132935471Y-85558467D01*
X133031890Y-85326264D01*
X133032110Y-85074839D01*
X132936096Y-84842468D01*
X132758467Y-84664529D01*
X132526264Y-84568110D01*
X132318925Y-84567929D01*
X132236096Y-84367468D01*
X132058467Y-84189529D01*
X131956915Y-84147361D01*
X131957110Y-83924839D01*
X131861096Y-83692468D01*
X131683467Y-83514529D01*
X131588659Y-83475161D01*
X138017890Y-83475161D01*
X138113904Y-83707532D01*
X138291533Y-83885471D01*
X138447031Y-83950040D01*
X138292468Y-84013904D01*
X138114529Y-84191533D01*
X138018110Y-84423736D01*
X138017890Y-84675161D01*
X138113904Y-84907532D01*
X138291533Y-85085471D01*
X138447031Y-85150040D01*
X138292468Y-85213904D01*
X138114529Y-85391533D01*
X138018110Y-85623736D01*
X138017890Y-85875161D01*
X138113904Y-86107532D01*
X138291533Y-86285471D01*
X138447031Y-86350040D01*
X138292468Y-86413904D01*
X138114529Y-86591533D01*
X138018110Y-86823736D01*
X138017890Y-87075161D01*
X138113904Y-87307532D01*
X138291533Y-87485471D01*
X138523736Y-87581890D01*
X138617972Y-87581972D01*
X138617890Y-87675161D01*
X138713904Y-87907532D01*
X138891533Y-88085471D01*
X139123736Y-88181890D01*
X139375161Y-88182110D01*
X139607532Y-88086096D01*
X139785471Y-87908467D01*
X139881890Y-87676264D01*
X139882110Y-87424839D01*
X139786096Y-87192468D01*
X139608467Y-87014529D01*
X139452969Y-86949960D01*
X139607532Y-86886096D01*
X139785471Y-86708467D01*
X139881890Y-86476264D01*
X139882110Y-86224839D01*
X139786096Y-85992468D01*
X139608467Y-85814529D01*
X139452969Y-85749960D01*
X139607532Y-85686096D01*
X139785471Y-85508467D01*
X139881890Y-85276264D01*
X139882110Y-85024839D01*
X139786096Y-84792468D01*
X139608467Y-84614529D01*
X139452969Y-84549960D01*
X139607532Y-84486096D01*
X139785471Y-84308467D01*
X139881890Y-84076264D01*
X139882110Y-83824839D01*
X139786096Y-83592468D01*
X139608467Y-83414529D01*
X139392613Y-83324899D01*
X139607532Y-83236096D01*
X139785471Y-83058467D01*
X139840824Y-82925161D01*
X142767890Y-82925161D01*
X142863904Y-83157532D01*
X143041533Y-83335471D01*
X143273736Y-83431890D01*
X143367972Y-83431972D01*
X143367890Y-83525161D01*
X143463904Y-83757532D01*
X143641533Y-83935471D01*
X143873736Y-84031890D01*
X144125161Y-84032110D01*
X144357532Y-83936096D01*
X144535471Y-83758467D01*
X144620750Y-83553092D01*
X144663904Y-83657532D01*
X144841533Y-83835471D01*
X145073736Y-83931890D01*
X145325161Y-83932110D01*
X145557532Y-83836096D01*
X145735471Y-83658467D01*
X145829497Y-83432026D01*
X145925161Y-83432110D01*
X146157532Y-83336096D01*
X146335471Y-83158467D01*
X146431890Y-82926264D01*
X146431890Y-82925161D01*
X156167890Y-82925161D01*
X156263904Y-83157532D01*
X156441533Y-83335471D01*
X156597031Y-83400040D01*
X156442468Y-83463904D01*
X156264529Y-83641533D01*
X156168110Y-83873736D01*
X156167890Y-84125161D01*
X156263904Y-84357532D01*
X156441533Y-84535471D01*
X156673736Y-84631890D01*
X156925161Y-84632110D01*
X156967987Y-84614415D01*
X156967925Y-84685409D01*
X156926264Y-84668110D01*
X156674839Y-84667890D01*
X156442468Y-84763904D01*
X156264529Y-84941533D01*
X156168110Y-85173736D01*
X156167890Y-85425161D01*
X156263904Y-85657532D01*
X156441533Y-85835471D01*
X156673736Y-85931890D01*
X156925161Y-85932110D01*
X156967987Y-85914415D01*
X156967890Y-86025161D01*
X157063904Y-86257532D01*
X157241533Y-86435471D01*
X157473736Y-86531890D01*
X157725161Y-86532110D01*
X157957532Y-86436096D01*
X158135471Y-86258467D01*
X158231890Y-86026264D01*
X158232110Y-85774839D01*
X158136096Y-85542468D01*
X157958467Y-85364529D01*
X157726264Y-85268110D01*
X157474839Y-85267890D01*
X157432013Y-85285585D01*
X157432075Y-85214591D01*
X157473736Y-85231890D01*
X157725161Y-85232110D01*
X157862987Y-85175161D01*
X159067890Y-85175161D01*
X159163904Y-85407532D01*
X159341533Y-85585471D01*
X159573736Y-85681890D01*
X159825161Y-85682110D01*
X160057532Y-85586096D01*
X160175005Y-85468827D01*
X160241533Y-85535471D01*
X160263294Y-85544507D01*
X160168110Y-85773736D01*
X160167890Y-86025161D01*
X160263904Y-86257532D01*
X160441533Y-86435471D01*
X160568097Y-86488025D01*
X160567890Y-86725161D01*
X160663904Y-86957532D01*
X160841533Y-87135471D01*
X160897497Y-87158709D01*
X160814529Y-87241533D01*
X160718110Y-87473736D01*
X160717890Y-87725161D01*
X160813904Y-87957532D01*
X160991533Y-88135471D01*
X161223736Y-88231890D01*
X161475161Y-88232110D01*
X161707532Y-88136096D01*
X161885471Y-87958467D01*
X161981890Y-87726264D01*
X161982110Y-87474839D01*
X161886096Y-87242468D01*
X161708467Y-87064529D01*
X161652503Y-87041291D01*
X161735471Y-86958467D01*
X161831890Y-86726264D01*
X161832110Y-86474839D01*
X161736096Y-86242468D01*
X161558467Y-86064529D01*
X161431903Y-86011975D01*
X161432110Y-85774839D01*
X161336096Y-85542468D01*
X161158467Y-85364529D01*
X161136706Y-85355493D01*
X161147509Y-85329476D01*
X161273736Y-85381890D01*
X161525161Y-85382110D01*
X161757532Y-85286096D01*
X161935471Y-85108467D01*
X162031890Y-84876264D01*
X162032110Y-84624839D01*
X161936096Y-84392468D01*
X161758467Y-84214529D01*
X161526264Y-84118110D01*
X161274839Y-84117890D01*
X161042468Y-84213904D01*
X160864529Y-84391533D01*
X160852491Y-84420524D01*
X160726264Y-84368110D01*
X160474839Y-84367890D01*
X160242468Y-84463904D01*
X160124995Y-84581173D01*
X160058467Y-84514529D01*
X159826264Y-84418110D01*
X159574839Y-84417890D01*
X159342468Y-84513904D01*
X159164529Y-84691533D01*
X159068110Y-84923736D01*
X159067890Y-85175161D01*
X157862987Y-85175161D01*
X157957532Y-85136096D01*
X158135471Y-84958467D01*
X158231890Y-84726264D01*
X158232110Y-84474839D01*
X158136096Y-84242468D01*
X157958467Y-84064529D01*
X157802969Y-83999960D01*
X157957532Y-83936096D01*
X158135471Y-83758467D01*
X158231890Y-83526264D01*
X158232110Y-83274839D01*
X158136096Y-83042468D01*
X157969081Y-82875161D01*
X158467890Y-82875161D01*
X158563904Y-83107532D01*
X158741533Y-83285471D01*
X158973736Y-83381890D01*
X159225161Y-83382110D01*
X159457532Y-83286096D01*
X159525049Y-83218697D01*
X159691533Y-83385471D01*
X159923736Y-83481890D01*
X160070724Y-83482019D01*
X160163904Y-83707532D01*
X160341533Y-83885471D01*
X160573736Y-83981890D01*
X160825161Y-83982110D01*
X161057532Y-83886096D01*
X161235471Y-83708467D01*
X161331890Y-83476264D01*
X161332109Y-83225161D01*
X163467890Y-83225161D01*
X163563904Y-83457532D01*
X163741533Y-83635471D01*
X163973736Y-83731890D01*
X164225161Y-83732110D01*
X164457532Y-83636096D01*
X164468486Y-83625161D01*
X165117890Y-83625161D01*
X165213904Y-83857532D01*
X165391533Y-84035471D01*
X165623736Y-84131890D01*
X165875161Y-84132110D01*
X166107532Y-84036096D01*
X166285471Y-83858467D01*
X166381890Y-83626264D01*
X166382110Y-83374839D01*
X166286096Y-83142468D01*
X166108467Y-82964529D01*
X165876264Y-82868110D01*
X165624839Y-82867890D01*
X165392468Y-82963904D01*
X165214529Y-83141533D01*
X165118110Y-83373736D01*
X165117890Y-83625161D01*
X164468486Y-83625161D01*
X164635471Y-83458467D01*
X164731890Y-83226264D01*
X164732110Y-82974839D01*
X164636096Y-82742468D01*
X164458467Y-82564529D01*
X164226264Y-82468110D01*
X163974839Y-82467890D01*
X163742468Y-82563904D01*
X163564529Y-82741533D01*
X163468110Y-82973736D01*
X163467890Y-83225161D01*
X161332109Y-83225161D01*
X161332110Y-83224839D01*
X161236096Y-82992468D01*
X161058467Y-82814529D01*
X160826264Y-82718110D01*
X160679276Y-82717981D01*
X160586096Y-82492468D01*
X160408467Y-82314529D01*
X160176264Y-82218110D01*
X159924839Y-82217890D01*
X159692468Y-82313904D01*
X159624951Y-82381303D01*
X159458467Y-82214529D01*
X159226264Y-82118110D01*
X158974839Y-82117890D01*
X158742468Y-82213904D01*
X158564529Y-82391533D01*
X158468110Y-82623736D01*
X158467890Y-82875161D01*
X157969081Y-82875161D01*
X157958467Y-82864529D01*
X157726264Y-82768110D01*
X157474839Y-82767890D01*
X157432013Y-82785585D01*
X157432110Y-82674839D01*
X157336096Y-82442468D01*
X157158467Y-82264529D01*
X156926264Y-82168110D01*
X156674839Y-82167890D01*
X156442468Y-82263904D01*
X156264529Y-82441533D01*
X156168110Y-82673736D01*
X156167890Y-82925161D01*
X146431890Y-82925161D01*
X146432110Y-82674839D01*
X146336096Y-82442468D01*
X146158467Y-82264529D01*
X145926264Y-82168110D01*
X145674839Y-82167890D01*
X145442468Y-82263904D01*
X145264529Y-82441533D01*
X145199960Y-82597031D01*
X145136096Y-82442468D01*
X144958467Y-82264529D01*
X144726264Y-82168110D01*
X144474839Y-82167890D01*
X144242468Y-82263904D01*
X144064529Y-82441533D01*
X143999960Y-82597031D01*
X143936096Y-82442468D01*
X143758467Y-82264529D01*
X143526264Y-82168110D01*
X143274839Y-82167890D01*
X143042468Y-82263904D01*
X142864529Y-82441533D01*
X142768110Y-82673736D01*
X142767890Y-82925161D01*
X139840824Y-82925161D01*
X139881890Y-82826264D01*
X139882110Y-82574839D01*
X139786096Y-82342468D01*
X139608467Y-82164529D01*
X139376264Y-82068110D01*
X139124839Y-82067890D01*
X138892468Y-82163904D01*
X138714529Y-82341533D01*
X138618110Y-82573736D01*
X138617984Y-82717972D01*
X138524839Y-82717890D01*
X138292468Y-82813904D01*
X138114529Y-82991533D01*
X138018110Y-83223736D01*
X138017890Y-83475161D01*
X131588659Y-83475161D01*
X131451264Y-83418110D01*
X131199839Y-83417890D01*
X130967468Y-83513904D01*
X130789529Y-83691533D01*
X130693110Y-83923736D01*
X130692890Y-84175161D01*
X124386388Y-84175161D01*
X121823088Y-81270087D01*
X121226488Y-80125161D01*
X139617890Y-80125161D01*
X139713904Y-80357532D01*
X139891533Y-80535471D01*
X140123736Y-80631890D01*
X140375161Y-80632110D01*
X140607532Y-80536096D01*
X140785471Y-80358467D01*
X140881890Y-80126264D01*
X140882109Y-79875161D01*
X142867890Y-79875161D01*
X142963904Y-80107532D01*
X143141533Y-80285471D01*
X143373736Y-80381890D01*
X143625161Y-80382110D01*
X143641978Y-80375161D01*
X145617890Y-80375161D01*
X145713904Y-80607532D01*
X145891533Y-80785471D01*
X146123736Y-80881890D01*
X146375161Y-80882110D01*
X146607532Y-80786096D01*
X146785471Y-80608467D01*
X146881890Y-80376264D01*
X146882022Y-80225161D01*
X149367890Y-80225161D01*
X149463904Y-80457532D01*
X149641533Y-80635471D01*
X149873736Y-80731890D01*
X149967972Y-80731972D01*
X149967890Y-80825161D01*
X150063904Y-81057532D01*
X150241533Y-81235471D01*
X150473736Y-81331890D01*
X150725161Y-81332110D01*
X150957532Y-81236096D01*
X151135471Y-81058467D01*
X151200040Y-80902969D01*
X151263904Y-81057532D01*
X151441533Y-81235471D01*
X151673736Y-81331890D01*
X151925161Y-81332110D01*
X152157532Y-81236096D01*
X152335471Y-81058467D01*
X152370062Y-80975161D01*
X155567890Y-80975161D01*
X155663904Y-81207532D01*
X155841533Y-81385471D01*
X156073736Y-81481890D01*
X156325161Y-81482110D01*
X156557532Y-81386096D01*
X156735471Y-81208467D01*
X156831890Y-80976264D01*
X156832110Y-80724839D01*
X156736096Y-80492468D01*
X156558467Y-80314529D01*
X156326264Y-80218110D01*
X156074839Y-80217890D01*
X155842468Y-80313904D01*
X155664529Y-80491533D01*
X155568110Y-80723736D01*
X155567890Y-80975161D01*
X152370062Y-80975161D01*
X152431890Y-80826264D01*
X152431972Y-80732028D01*
X152525161Y-80732110D01*
X152757532Y-80636096D01*
X152935471Y-80458467D01*
X153031890Y-80226264D01*
X153032110Y-79974839D01*
X152936096Y-79742468D01*
X152758467Y-79564529D01*
X152526264Y-79468110D01*
X152274839Y-79467890D01*
X152042468Y-79563904D01*
X151864529Y-79741533D01*
X151799960Y-79897031D01*
X151736096Y-79742468D01*
X151558467Y-79564529D01*
X151326264Y-79468110D01*
X151074839Y-79467890D01*
X150842468Y-79563904D01*
X150664529Y-79741533D01*
X150599960Y-79897031D01*
X150536096Y-79742468D01*
X150358467Y-79564529D01*
X150126264Y-79468110D01*
X149874839Y-79467890D01*
X149642468Y-79563904D01*
X149464529Y-79741533D01*
X149368110Y-79973736D01*
X149367890Y-80225161D01*
X146882022Y-80225161D01*
X146882110Y-80124839D01*
X146786096Y-79892468D01*
X146608467Y-79714529D01*
X146376264Y-79618110D01*
X146124839Y-79617890D01*
X145892468Y-79713904D01*
X145714529Y-79891533D01*
X145618110Y-80123736D01*
X145617890Y-80375161D01*
X143641978Y-80375161D01*
X143857532Y-80286096D01*
X144035471Y-80108467D01*
X144131890Y-79876264D01*
X144132110Y-79624839D01*
X144036096Y-79392468D01*
X143858467Y-79214529D01*
X143643245Y-79125161D01*
X146617890Y-79125161D01*
X146713904Y-79357532D01*
X146891533Y-79535471D01*
X147123736Y-79631890D01*
X147375161Y-79632110D01*
X147607532Y-79536096D01*
X147785471Y-79358467D01*
X147881890Y-79126264D01*
X147882110Y-78874839D01*
X147786096Y-78642468D01*
X147608467Y-78464529D01*
X147376264Y-78368110D01*
X147124839Y-78367890D01*
X146892468Y-78463904D01*
X146714529Y-78641533D01*
X146618110Y-78873736D01*
X146617890Y-79125161D01*
X143643245Y-79125161D01*
X143626264Y-79118110D01*
X143374839Y-79117890D01*
X143142468Y-79213904D01*
X142964529Y-79391533D01*
X142868110Y-79623736D01*
X142867890Y-79875161D01*
X140882109Y-79875161D01*
X140882110Y-79874839D01*
X140786096Y-79642468D01*
X140608467Y-79464529D01*
X140376264Y-79368110D01*
X140124839Y-79367890D01*
X139892468Y-79463904D01*
X139714529Y-79641533D01*
X139618110Y-79873736D01*
X139617890Y-80125161D01*
X121226488Y-80125161D01*
X120887784Y-79475161D01*
X131017890Y-79475161D01*
X131113904Y-79707532D01*
X131291533Y-79885471D01*
X131523736Y-79981890D01*
X131775161Y-79982110D01*
X132007532Y-79886096D01*
X132185471Y-79708467D01*
X132281890Y-79476264D01*
X132282110Y-79224839D01*
X132186096Y-78992468D01*
X132008467Y-78814529D01*
X131776264Y-78718110D01*
X131524839Y-78717890D01*
X131292468Y-78813904D01*
X131114529Y-78991533D01*
X131018110Y-79223736D01*
X131017890Y-79475161D01*
X120887784Y-79475161D01*
X120288538Y-78325161D01*
X129517890Y-78325161D01*
X129613904Y-78557532D01*
X129791533Y-78735471D01*
X130023736Y-78831890D01*
X130275161Y-78832110D01*
X130507532Y-78736096D01*
X130685471Y-78558467D01*
X130694021Y-78537876D01*
X130741533Y-78585471D01*
X130973736Y-78681890D01*
X131225161Y-78682110D01*
X131362987Y-78625161D01*
X138617890Y-78625161D01*
X138713904Y-78857532D01*
X138891533Y-79035471D01*
X139123736Y-79131890D01*
X139375161Y-79132110D01*
X139607532Y-79036096D01*
X139785471Y-78858467D01*
X139881890Y-78626264D01*
X139882110Y-78374839D01*
X139786096Y-78142468D01*
X139608467Y-77964529D01*
X139376264Y-77868110D01*
X139124839Y-77867890D01*
X138892468Y-77963904D01*
X138714529Y-78141533D01*
X138618110Y-78373736D01*
X138617890Y-78625161D01*
X131362987Y-78625161D01*
X131457532Y-78586096D01*
X131635471Y-78408467D01*
X131731890Y-78176264D01*
X131732110Y-77924839D01*
X131636096Y-77692468D01*
X131568907Y-77625161D01*
X132617890Y-77625161D01*
X132713904Y-77857532D01*
X132891533Y-78035471D01*
X133123736Y-78131890D01*
X133375161Y-78132110D01*
X133607532Y-78036096D01*
X133785471Y-77858467D01*
X133881890Y-77626264D01*
X133881890Y-77625161D01*
X135867890Y-77625161D01*
X135963904Y-77857532D01*
X136141533Y-78035471D01*
X136373736Y-78131890D01*
X136625161Y-78132110D01*
X136857532Y-78036096D01*
X137035471Y-77858467D01*
X137131890Y-77626264D01*
X137132110Y-77374839D01*
X137036096Y-77142468D01*
X136858467Y-76964529D01*
X136626264Y-76868110D01*
X136374839Y-76867890D01*
X136142468Y-76963904D01*
X135964529Y-77141533D01*
X135868110Y-77373736D01*
X135867890Y-77625161D01*
X133881890Y-77625161D01*
X133882110Y-77374839D01*
X133786096Y-77142468D01*
X133608467Y-76964529D01*
X133376264Y-76868110D01*
X133124839Y-76867890D01*
X132892468Y-76963904D01*
X132714529Y-77141533D01*
X132618110Y-77373736D01*
X132617890Y-77625161D01*
X131568907Y-77625161D01*
X131458467Y-77514529D01*
X131226264Y-77418110D01*
X130974839Y-77417890D01*
X130742468Y-77513904D01*
X130564529Y-77691533D01*
X130555979Y-77712124D01*
X130508467Y-77664529D01*
X130276264Y-77568110D01*
X130024839Y-77567890D01*
X129792468Y-77663904D01*
X129614529Y-77841533D01*
X129518110Y-78073736D01*
X129517890Y-78325161D01*
X120288538Y-78325161D01*
X118673181Y-75225161D01*
X127467890Y-75225161D01*
X127563904Y-75457532D01*
X127741533Y-75635471D01*
X127973736Y-75731890D01*
X128225161Y-75732110D01*
X128457532Y-75636096D01*
X128635471Y-75458467D01*
X128731890Y-75226264D01*
X128732110Y-74974839D01*
X128636096Y-74742468D01*
X128458467Y-74564529D01*
X128226264Y-74468110D01*
X127974839Y-74467890D01*
X127742468Y-74563904D01*
X127564529Y-74741533D01*
X127468110Y-74973736D01*
X127467890Y-75225161D01*
X118673181Y-75225161D01*
X116450386Y-70959438D01*
X116441482Y-70914676D01*
X116375976Y-70816641D01*
X116270216Y-70613678D01*
X116231822Y-70565880D01*
X116197755Y-70514895D01*
X115932045Y-70249185D01*
X115932110Y-70174839D01*
X115836096Y-69942468D01*
X115705280Y-69811424D01*
X119961234Y-71120948D01*
X124479163Y-72626924D01*
X124464529Y-72641533D01*
X124368110Y-72873736D01*
X124367890Y-73125161D01*
X124463904Y-73357532D01*
X124641533Y-73535471D01*
X124873736Y-73631890D01*
X125125161Y-73632110D01*
X125357532Y-73536096D01*
X125535471Y-73358467D01*
X125631890Y-73126264D01*
X125631991Y-73011200D01*
X125979163Y-73126924D01*
X125964529Y-73141533D01*
X125868110Y-73373736D01*
X125867890Y-73625161D01*
X125963904Y-73857532D01*
X126141533Y-74035471D01*
X126373736Y-74131890D01*
X126625161Y-74132110D01*
X126857532Y-74036096D01*
X127035471Y-73858467D01*
X127131890Y-73626264D01*
X127131991Y-73511200D01*
X134802197Y-76067936D01*
X134749839Y-76067890D01*
X134517468Y-76163904D01*
X134339529Y-76341533D01*
X134243110Y-76573736D01*
X134242890Y-76825161D01*
X134338904Y-77057532D01*
X134516533Y-77235471D01*
X134748736Y-77331890D01*
X135000161Y-77332110D01*
X135232532Y-77236096D01*
X135410471Y-77058467D01*
X135506890Y-76826264D01*
X135507110Y-76574839D01*
X135411096Y-76342468D01*
X135304027Y-76235212D01*
X140959839Y-78120483D01*
X141009878Y-78126615D01*
X141058360Y-78112797D01*
X141089803Y-78089803D01*
X141454445Y-77725161D01*
X143767890Y-77725161D01*
X143863904Y-77957532D01*
X144041533Y-78135471D01*
X144273736Y-78231890D01*
X144525161Y-78232110D01*
X144757532Y-78136096D01*
X144935471Y-77958467D01*
X145031890Y-77726264D01*
X145032110Y-77474839D01*
X144990924Y-77375161D01*
X160367890Y-77375161D01*
X160463904Y-77607532D01*
X160641533Y-77785471D01*
X160873736Y-77881890D01*
X161125161Y-77882110D01*
X161357532Y-77786096D01*
X161418573Y-77725161D01*
X183267890Y-77725161D01*
X183363904Y-77957532D01*
X183541533Y-78135471D01*
X183773736Y-78231890D01*
X184025161Y-78232110D01*
X184257532Y-78136096D01*
X184435471Y-77958467D01*
X184531890Y-77726264D01*
X184531891Y-77725550D01*
X184691533Y-77885471D01*
X184923736Y-77981890D01*
X185175161Y-77982110D01*
X185407532Y-77886096D01*
X185585471Y-77708467D01*
X185681890Y-77476264D01*
X185682110Y-77224839D01*
X185599605Y-77025161D01*
X187767890Y-77025161D01*
X187863904Y-77257532D01*
X188041533Y-77435471D01*
X188273736Y-77531890D01*
X188468015Y-77532060D01*
X188467890Y-77675161D01*
X188563904Y-77907532D01*
X188741533Y-78085471D01*
X188973736Y-78181890D01*
X189225161Y-78182110D01*
X189457532Y-78086096D01*
X189635471Y-77908467D01*
X189731890Y-77676264D01*
X189732110Y-77424839D01*
X189636096Y-77192468D01*
X189458467Y-77014529D01*
X189226264Y-76918110D01*
X189031985Y-76917940D01*
X189032110Y-76774839D01*
X188936096Y-76542468D01*
X188758467Y-76364529D01*
X188526264Y-76268110D01*
X188274839Y-76267890D01*
X188042468Y-76363904D01*
X187864529Y-76541533D01*
X187768110Y-76773736D01*
X187767890Y-77025161D01*
X185599605Y-77025161D01*
X185586096Y-76992468D01*
X185408467Y-76814529D01*
X185176264Y-76718110D01*
X184924839Y-76717890D01*
X184692468Y-76813904D01*
X184514529Y-76991533D01*
X184418110Y-77223736D01*
X184418109Y-77224450D01*
X184258467Y-77064529D01*
X184026264Y-76968110D01*
X183774839Y-76967890D01*
X183542468Y-77063904D01*
X183364529Y-77241533D01*
X183268110Y-77473736D01*
X183267890Y-77725161D01*
X161418573Y-77725161D01*
X161535471Y-77608467D01*
X161631890Y-77376264D01*
X161632110Y-77124839D01*
X161536096Y-76892468D01*
X161468907Y-76825161D01*
X169167890Y-76825161D01*
X169263904Y-77057532D01*
X169441533Y-77235471D01*
X169673736Y-77331890D01*
X169925161Y-77332110D01*
X170157532Y-77236096D01*
X170335471Y-77058467D01*
X170431890Y-76826264D01*
X170432110Y-76574839D01*
X170336096Y-76342468D01*
X170158467Y-76164529D01*
X169926264Y-76068110D01*
X169674839Y-76067890D01*
X169442468Y-76163904D01*
X169264529Y-76341533D01*
X169168110Y-76573736D01*
X169167890Y-76825161D01*
X161468907Y-76825161D01*
X161358467Y-76714529D01*
X161126264Y-76618110D01*
X160874839Y-76617890D01*
X160642468Y-76713904D01*
X160464529Y-76891533D01*
X160368110Y-77123736D01*
X160367890Y-77375161D01*
X144990924Y-77375161D01*
X144936096Y-77242468D01*
X144758467Y-77064529D01*
X144526264Y-76968110D01*
X144274839Y-76967890D01*
X144042468Y-77063904D01*
X143864529Y-77241533D01*
X143768110Y-77473736D01*
X143767890Y-77725161D01*
X141454445Y-77725161D01*
X142089803Y-77089803D01*
X142117666Y-77047789D01*
X142127000Y-77000000D01*
X142127000Y-76575161D01*
X142817890Y-76575161D01*
X142913904Y-76807532D01*
X143091533Y-76985471D01*
X143323736Y-77081890D01*
X143575161Y-77082110D01*
X143807532Y-76986096D01*
X143985471Y-76808467D01*
X144081890Y-76576264D01*
X144082110Y-76324839D01*
X143986096Y-76092468D01*
X143808467Y-75914529D01*
X143576264Y-75818110D01*
X143324839Y-75817890D01*
X143092468Y-75913904D01*
X142914529Y-76091533D01*
X142818110Y-76323736D01*
X142817890Y-76575161D01*
X142127000Y-76575161D01*
X142127000Y-75000000D01*
X142116994Y-74950590D01*
X142088553Y-74908965D01*
X142056796Y-74886408D01*
X141434303Y-74575161D01*
X144417890Y-74575161D01*
X144513904Y-74807532D01*
X144691533Y-74985471D01*
X144923736Y-75081890D01*
X145175161Y-75082110D01*
X145407532Y-74986096D01*
X145518660Y-74875161D01*
X147367890Y-74875161D01*
X147463904Y-75107532D01*
X147641533Y-75285471D01*
X147873736Y-75381890D01*
X148125161Y-75382110D01*
X148357532Y-75286096D01*
X148535471Y-75108467D01*
X148631890Y-74876264D01*
X148632110Y-74624839D01*
X148536096Y-74392468D01*
X148358467Y-74214529D01*
X148126264Y-74118110D01*
X147874839Y-74117890D01*
X147642468Y-74213904D01*
X147464529Y-74391533D01*
X147368110Y-74623736D01*
X147367890Y-74875161D01*
X145518660Y-74875161D01*
X145585471Y-74808467D01*
X145681890Y-74576264D01*
X145682110Y-74324839D01*
X145586096Y-74092468D01*
X145408467Y-73914529D01*
X145176264Y-73818110D01*
X144924839Y-73817890D01*
X144692468Y-73913904D01*
X144514529Y-74091533D01*
X144418110Y-74323736D01*
X144417890Y-74575161D01*
X141434303Y-74575161D01*
X140099985Y-73908002D01*
X139886849Y-73375161D01*
X147367890Y-73375161D01*
X147463904Y-73607532D01*
X147641533Y-73785471D01*
X147873736Y-73881890D01*
X148125161Y-73882110D01*
X148357532Y-73786096D01*
X148535471Y-73608467D01*
X148631890Y-73376264D01*
X148632110Y-73124839D01*
X148590924Y-73025161D01*
X150467890Y-73025161D01*
X150563904Y-73257532D01*
X150741533Y-73435471D01*
X150973736Y-73531890D01*
X151225161Y-73532110D01*
X151457532Y-73436096D01*
X151635471Y-73258467D01*
X151731890Y-73026264D01*
X151732110Y-72774839D01*
X151636096Y-72542468D01*
X151458467Y-72364529D01*
X151226264Y-72268110D01*
X150974839Y-72267890D01*
X150742468Y-72363904D01*
X150564529Y-72541533D01*
X150468110Y-72773736D01*
X150467890Y-73025161D01*
X148590924Y-73025161D01*
X148536096Y-72892468D01*
X148358467Y-72714529D01*
X148126264Y-72618110D01*
X147874839Y-72617890D01*
X147642468Y-72713904D01*
X147464529Y-72891533D01*
X147368110Y-73123736D01*
X147367890Y-73375161D01*
X139886849Y-73375161D01*
X139580172Y-72608470D01*
X139587650Y-72615961D01*
X139854756Y-72726874D01*
X140143975Y-72727126D01*
X140411275Y-72616680D01*
X140615961Y-72412350D01*
X140726874Y-72145244D01*
X140727126Y-71856025D01*
X140616680Y-71588725D01*
X140412350Y-71384039D01*
X140145244Y-71273126D01*
X139856025Y-71272874D01*
X139588725Y-71383320D01*
X139384039Y-71587650D01*
X139275958Y-71847935D01*
X138994375Y-71143975D01*
X143272874Y-71143975D01*
X143383320Y-71411275D01*
X143587650Y-71615961D01*
X143854756Y-71726874D01*
X144143975Y-71727126D01*
X144411275Y-71616680D01*
X144615961Y-71412350D01*
X144726874Y-71145244D01*
X144726891Y-71125161D01*
X145367890Y-71125161D01*
X145463904Y-71357532D01*
X145641533Y-71535471D01*
X145873736Y-71631890D01*
X146125161Y-71632110D01*
X146357532Y-71536096D01*
X146535471Y-71358467D01*
X146631890Y-71126264D01*
X146631890Y-71125161D01*
X146867890Y-71125161D01*
X146963904Y-71357532D01*
X147141533Y-71535471D01*
X147373736Y-71631890D01*
X147625161Y-71632110D01*
X147857532Y-71536096D01*
X148035471Y-71358467D01*
X148131890Y-71126264D01*
X148132110Y-70874839D01*
X148036096Y-70642468D01*
X147858467Y-70464529D01*
X147626264Y-70368110D01*
X147374839Y-70367890D01*
X147142468Y-70463904D01*
X146964529Y-70641533D01*
X146868110Y-70873736D01*
X146867890Y-71125161D01*
X146631890Y-71125161D01*
X146632110Y-70874839D01*
X146536096Y-70642468D01*
X146358467Y-70464529D01*
X146126264Y-70368110D01*
X145874839Y-70367890D01*
X145642468Y-70463904D01*
X145464529Y-70641533D01*
X145368110Y-70873736D01*
X145367890Y-71125161D01*
X144726891Y-71125161D01*
X144727126Y-70856025D01*
X144616680Y-70588725D01*
X144412350Y-70384039D01*
X144145244Y-70273126D01*
X143856025Y-70272874D01*
X143588725Y-70383320D01*
X143384039Y-70587650D01*
X143273126Y-70854756D01*
X143272874Y-71143975D01*
X138994375Y-71143975D01*
X138270849Y-69335161D01*
X139827890Y-69335161D01*
X139923904Y-69567532D01*
X140101533Y-69745471D01*
X140333736Y-69841890D01*
X140585161Y-69842110D01*
X140817532Y-69746096D01*
X140995471Y-69568467D01*
X141091890Y-69336264D01*
X141092110Y-69084839D01*
X140996096Y-68852468D01*
X140818467Y-68674529D01*
X140586264Y-68578110D01*
X140334839Y-68577890D01*
X140102468Y-68673904D01*
X139924529Y-68851533D01*
X139828110Y-69083736D01*
X139827890Y-69335161D01*
X138270849Y-69335161D01*
X138131938Y-68987886D01*
X138264483Y-68325161D01*
X138967890Y-68325161D01*
X139063904Y-68557532D01*
X139241533Y-68735471D01*
X139473736Y-68831890D01*
X139725161Y-68832110D01*
X139957532Y-68736096D01*
X140135471Y-68558467D01*
X140231890Y-68326264D01*
X140232110Y-68074839D01*
X140136096Y-67842468D01*
X139958467Y-67664529D01*
X139726264Y-67568110D01*
X139474839Y-67567890D01*
X139242468Y-67663904D01*
X139064529Y-67841533D01*
X138968110Y-68073736D01*
X138967890Y-68325161D01*
X138264483Y-68325161D01*
X138494483Y-67175161D01*
X145267890Y-67175161D01*
X145363904Y-67407532D01*
X145541533Y-67585471D01*
X145773736Y-67681890D01*
X146025161Y-67682110D01*
X146257532Y-67586096D01*
X146435471Y-67408467D01*
X146511586Y-67225161D01*
X146767890Y-67225161D01*
X146863904Y-67457532D01*
X147041533Y-67635471D01*
X147273736Y-67731890D01*
X147525161Y-67732110D01*
X147757532Y-67636096D01*
X147935471Y-67458467D01*
X148031890Y-67226264D01*
X148032110Y-66974839D01*
X147936096Y-66742468D01*
X147758467Y-66564529D01*
X147526264Y-66468110D01*
X147274839Y-66467890D01*
X147042468Y-66563904D01*
X146864529Y-66741533D01*
X146768110Y-66973736D01*
X146767890Y-67225161D01*
X146511586Y-67225161D01*
X146531890Y-67176264D01*
X146532110Y-66924839D01*
X146436096Y-66692468D01*
X146258467Y-66514529D01*
X146026264Y-66418110D01*
X145774839Y-66417890D01*
X145542468Y-66513904D01*
X145364529Y-66691533D01*
X145268110Y-66923736D01*
X145267890Y-67175161D01*
X138494483Y-67175161D01*
X139047777Y-64408691D01*
X141667890Y-64408691D01*
X141763904Y-64641062D01*
X141941533Y-64819001D01*
X142173736Y-64915420D01*
X142425161Y-64915640D01*
X142657532Y-64819626D01*
X142835471Y-64641997D01*
X142931890Y-64409794D01*
X142932110Y-64158369D01*
X142836096Y-63925998D01*
X142658467Y-63748059D01*
X142426264Y-63651640D01*
X142174839Y-63651420D01*
X141942468Y-63747434D01*
X141764529Y-63925063D01*
X141668110Y-64157266D01*
X141667890Y-64408691D01*
X139047777Y-64408691D01*
X139107930Y-64107930D01*
X141887193Y-63552077D01*
X147331215Y-63552077D01*
X147430016Y-63790647D01*
X147795554Y-64247037D01*
X148307920Y-64528802D01*
X148537000Y-64423182D01*
X148537000Y-63323000D01*
X147438838Y-63323000D01*
X147331215Y-63552077D01*
X141887193Y-63552077D01*
X144024907Y-63124534D01*
X144089803Y-63089803D01*
X145334691Y-61844915D01*
X145423736Y-61881890D01*
X145675161Y-61882110D01*
X145907532Y-61786096D01*
X146085471Y-61608467D01*
X146181890Y-61376264D01*
X146182110Y-61124839D01*
X146174403Y-61106188D01*
X147562994Y-60932614D01*
X147562994Y-61423600D01*
X147585795Y-61544779D01*
X147657412Y-61656074D01*
X147766686Y-61730738D01*
X147896400Y-61757006D01*
X148151885Y-61757006D01*
X147795554Y-61952963D01*
X147430016Y-62409353D01*
X147331215Y-62647923D01*
X147438838Y-62877000D01*
X148537000Y-62877000D01*
X148537000Y-62857000D01*
X148983000Y-62857000D01*
X148983000Y-62877000D01*
X149003000Y-62877000D01*
X149003000Y-63323000D01*
X148983000Y-63323000D01*
X148983000Y-64423182D01*
X149212080Y-64528802D01*
X149724446Y-64247037D01*
X150089984Y-63790647D01*
X150183256Y-63565428D01*
X150434794Y-63941881D01*
X150821052Y-64199971D01*
X151276675Y-64290600D01*
X151323325Y-64290600D01*
X151778948Y-64199971D01*
X152165206Y-63941881D01*
X152423296Y-63555623D01*
X152513925Y-63100000D01*
X152423296Y-62644377D01*
X152165206Y-62258119D01*
X151778948Y-62000029D01*
X151323325Y-61909400D01*
X151276675Y-61909400D01*
X150821052Y-62000029D01*
X150434794Y-62258119D01*
X150183256Y-62634572D01*
X150089984Y-62409353D01*
X149724446Y-61952963D01*
X149368115Y-61757006D01*
X149623600Y-61757006D01*
X149744779Y-61734205D01*
X149856074Y-61662588D01*
X149930738Y-61553314D01*
X149957006Y-61423600D01*
X149957006Y-60633362D01*
X150015752Y-60626019D01*
X150082251Y-60596766D01*
X150091778Y-60588668D01*
X150176704Y-61015623D01*
X150434794Y-61401881D01*
X150821052Y-61659971D01*
X151276675Y-61750600D01*
X151323325Y-61750600D01*
X151778948Y-61659971D01*
X152165206Y-61401881D01*
X152423296Y-61015623D01*
X152513925Y-60560000D01*
X152423296Y-60104377D01*
X152165206Y-59718119D01*
X151778948Y-59460029D01*
X151487737Y-59402103D01*
X151990082Y-58975110D01*
X154907349Y-62086861D01*
M02*
