G04 #@! TF.FileFunction,Paste,Top*
%FSLAX46Y46*%
G04 Gerber Fmt 4.6, Leading zero omitted, Abs format (unit mm)*
G04 Created by KiCad (PCBNEW 4.0.6) date Monday, May 07, 2018 'PMt' 08:57:05 PM*
%MOMM*%
%LPD*%
G01*
G04 APERTURE LIST*
%ADD10C,0.100000*%
%ADD11R,1.597660X1.800860*%
%ADD12R,0.800000X0.600000*%
%ADD13R,1.498600X0.899160*%
%ADD14R,0.899160X1.498600*%
%ADD15R,0.800000X1.800000*%
G04 APERTURE END LIST*
D10*
D11*
X151400000Y-98400000D03*
X154239720Y-98400000D03*
X145760280Y-98400000D03*
X148600000Y-98400000D03*
D12*
X150000000Y-107150000D03*
X150000000Y-108850000D03*
D13*
X114000000Y-92498600D03*
X114000000Y-91000000D03*
X110901200Y-91000000D03*
X110901200Y-92498600D03*
X169901200Y-80501400D03*
X169901200Y-82000000D03*
X173000000Y-82000000D03*
X173000000Y-80501400D03*
X173901200Y-74501400D03*
X173901200Y-76000000D03*
X177000000Y-76000000D03*
X177000000Y-74501400D03*
X168901200Y-89000000D03*
X168901200Y-90498600D03*
X172000000Y-90498600D03*
X172000000Y-89000000D03*
X153450600Y-73250700D03*
X153450600Y-74749300D03*
X156549400Y-74749300D03*
X156549400Y-73250700D03*
D10*
G36*
X192327090Y-74896878D02*
X193386760Y-73837208D01*
X194022562Y-74473010D01*
X192962892Y-75532680D01*
X192327090Y-74896878D01*
X192327090Y-74896878D01*
G37*
G36*
X191267420Y-73837208D02*
X192327090Y-72777538D01*
X192962892Y-73413340D01*
X191903222Y-74473010D01*
X191267420Y-73837208D01*
X191267420Y-73837208D01*
G37*
G36*
X189076238Y-76028390D02*
X190135908Y-74968720D01*
X190771710Y-75604522D01*
X189712040Y-76664192D01*
X189076238Y-76028390D01*
X189076238Y-76028390D01*
G37*
G36*
X190135908Y-77088060D02*
X191195578Y-76028390D01*
X191831380Y-76664192D01*
X190771710Y-77723862D01*
X190135908Y-77088060D01*
X190135908Y-77088060D01*
G37*
D13*
X183450600Y-72250700D03*
X183450600Y-73749300D03*
X186549400Y-73749300D03*
X186549400Y-72250700D03*
X154901200Y-79501400D03*
X154901200Y-81000000D03*
X158000000Y-81000000D03*
X158000000Y-79501400D03*
X161901200Y-78501400D03*
X161901200Y-80000000D03*
X165000000Y-80000000D03*
X165000000Y-78501400D03*
D14*
X182000000Y-76901200D03*
X180501400Y-76901200D03*
X180501400Y-80000000D03*
X182000000Y-80000000D03*
D10*
G36*
X159340385Y-66543047D02*
X158591085Y-67840873D01*
X157812389Y-67391293D01*
X158561689Y-66093467D01*
X159340385Y-66543047D01*
X159340385Y-66543047D01*
G37*
G36*
X160638211Y-67292347D02*
X159888911Y-68590173D01*
X159110215Y-68140593D01*
X159859515Y-66842767D01*
X160638211Y-67292347D01*
X160638211Y-67292347D01*
G37*
G36*
X162187611Y-64608707D02*
X161438311Y-65906533D01*
X160659615Y-65456953D01*
X161408915Y-64159127D01*
X162187611Y-64608707D01*
X162187611Y-64608707D01*
G37*
G36*
X160889785Y-63859407D02*
X160140485Y-65157233D01*
X159361789Y-64707653D01*
X160111089Y-63409827D01*
X160889785Y-63859407D01*
X160889785Y-63859407D01*
G37*
D13*
X152450600Y-68250700D03*
X152450600Y-69749300D03*
X155549400Y-69749300D03*
X155549400Y-68250700D03*
D14*
X153749300Y-129450600D03*
X152250700Y-129450600D03*
X152250700Y-132549400D03*
X153749300Y-132549400D03*
D13*
X164000000Y-97501400D03*
X164000000Y-99000000D03*
X167098800Y-99000000D03*
X167098800Y-97501400D03*
X163098800Y-93498600D03*
X163098800Y-92000000D03*
X160000000Y-92000000D03*
X160000000Y-93498600D03*
D14*
X153749300Y-119450600D03*
X152250700Y-119450600D03*
X152250700Y-122549400D03*
X153749300Y-122549400D03*
D13*
X181098800Y-91498600D03*
X181098800Y-90000000D03*
X178000000Y-90000000D03*
X178000000Y-91498600D03*
X156549400Y-89749300D03*
X156549400Y-88250700D03*
X153450600Y-88250700D03*
X153450600Y-89749300D03*
D14*
X153749300Y-109450600D03*
X152250700Y-109450600D03*
X152250700Y-112549400D03*
X153749300Y-112549400D03*
D13*
X189000000Y-92498600D03*
X189000000Y-91000000D03*
X185901200Y-91000000D03*
X185901200Y-92498600D03*
D10*
G36*
X150909615Y-144956953D02*
X151658915Y-143659127D01*
X152437611Y-144108707D01*
X151688311Y-145406533D01*
X150909615Y-144956953D01*
X150909615Y-144956953D01*
G37*
G36*
X149611789Y-144207653D02*
X150361089Y-142909827D01*
X151139785Y-143359407D01*
X150390485Y-144657233D01*
X149611789Y-144207653D01*
X149611789Y-144207653D01*
G37*
G36*
X148062389Y-146891293D02*
X148811689Y-145593467D01*
X149590385Y-146043047D01*
X148841085Y-147340873D01*
X148062389Y-146891293D01*
X148062389Y-146891293D01*
G37*
G36*
X149360215Y-147640593D02*
X150109515Y-146342767D01*
X150888211Y-146792347D01*
X150138911Y-148090173D01*
X149360215Y-147640593D01*
X149360215Y-147640593D01*
G37*
D13*
X170000000Y-96000000D03*
X170000000Y-97498600D03*
X173098800Y-97498600D03*
X173098800Y-96000000D03*
D10*
G36*
X154659615Y-103456953D02*
X155408915Y-102159127D01*
X156187611Y-102608707D01*
X155438311Y-103906533D01*
X154659615Y-103456953D01*
X154659615Y-103456953D01*
G37*
G36*
X153361789Y-102707653D02*
X154111089Y-101409827D01*
X154889785Y-101859407D01*
X154140485Y-103157233D01*
X153361789Y-102707653D01*
X153361789Y-102707653D01*
G37*
G36*
X151812389Y-105391293D02*
X152561689Y-104093467D01*
X153340385Y-104543047D01*
X152591085Y-105840873D01*
X151812389Y-105391293D01*
X151812389Y-105391293D01*
G37*
G36*
X153110215Y-106140593D02*
X153859515Y-104842767D01*
X154638211Y-105292347D01*
X153888911Y-106590173D01*
X153110215Y-106140593D01*
X153110215Y-106140593D01*
G37*
G36*
X180697596Y-95315798D02*
X179339403Y-95949134D01*
X178959402Y-95134218D01*
X180317595Y-94500882D01*
X180697596Y-95315798D01*
X180697596Y-95315798D01*
G37*
G36*
X181330932Y-96673991D02*
X179972739Y-97307327D01*
X179592738Y-96492411D01*
X180950931Y-95859075D01*
X181330932Y-96673991D01*
X181330932Y-96673991D01*
G37*
G36*
X184139398Y-95364382D02*
X182781205Y-95997718D01*
X182401204Y-95182802D01*
X183759397Y-94549466D01*
X184139398Y-95364382D01*
X184139398Y-95364382D01*
G37*
G36*
X183506062Y-94006189D02*
X182147869Y-94639525D01*
X181767868Y-93824609D01*
X183126061Y-93191273D01*
X183506062Y-94006189D01*
X183506062Y-94006189D01*
G37*
D13*
X134901200Y-78501400D03*
X134901200Y-80000000D03*
X138000000Y-80000000D03*
X138000000Y-78501400D03*
D14*
X134800100Y-88298700D03*
X136298700Y-88298700D03*
X136298700Y-85199900D03*
X134800100Y-85199900D03*
D13*
X151549400Y-83498600D03*
X151549400Y-82000000D03*
X148450600Y-82000000D03*
X148450600Y-83498600D03*
D14*
X118000000Y-80098800D03*
X119498600Y-80098800D03*
X119498600Y-77000000D03*
X118000000Y-77000000D03*
D13*
X141901200Y-79501400D03*
X141901200Y-81000000D03*
X145000000Y-81000000D03*
X145000000Y-79501400D03*
X143450600Y-73250700D03*
X143450600Y-74749300D03*
X146549400Y-74749300D03*
X146549400Y-73250700D03*
X116549400Y-73749300D03*
X116549400Y-72250700D03*
X113450600Y-72250700D03*
X113450600Y-73749300D03*
X144450600Y-68250700D03*
X144450600Y-69749300D03*
X147549400Y-69749300D03*
X147549400Y-68250700D03*
D10*
G36*
X108195578Y-74473010D02*
X107135908Y-73413340D01*
X107771710Y-72777538D01*
X108831380Y-73837208D01*
X108195578Y-74473010D01*
X108195578Y-74473010D01*
G37*
G36*
X107135908Y-75532680D02*
X106076238Y-74473010D01*
X106712040Y-73837208D01*
X107771710Y-74896878D01*
X107135908Y-75532680D01*
X107135908Y-75532680D01*
G37*
G36*
X109327090Y-77723862D02*
X108267420Y-76664192D01*
X108903222Y-76028390D01*
X109962892Y-77088060D01*
X109327090Y-77723862D01*
X109327090Y-77723862D01*
G37*
G36*
X110386760Y-76664192D02*
X109327090Y-75604522D01*
X109962892Y-74968720D01*
X111022562Y-76028390D01*
X110386760Y-76664192D01*
X110386760Y-76664192D01*
G37*
D13*
X126098800Y-76000000D03*
X126098800Y-74501400D03*
X123000000Y-74501400D03*
X123000000Y-76000000D03*
X126901200Y-80501400D03*
X126901200Y-82000000D03*
X130000000Y-82000000D03*
X130000000Y-80501400D03*
X146549400Y-89749300D03*
X146549400Y-88250700D03*
X143450600Y-88250700D03*
X143450600Y-89749300D03*
X136901200Y-92000000D03*
X136901200Y-93498600D03*
X140000000Y-93498600D03*
X140000000Y-92000000D03*
D14*
X146250700Y-137549400D03*
X147749300Y-137549400D03*
X147749300Y-134450600D03*
X146250700Y-134450600D03*
D13*
X131000000Y-90498600D03*
X131000000Y-89000000D03*
X127901200Y-89000000D03*
X127901200Y-90498600D03*
D10*
G36*
X146140485Y-104842767D02*
X146889785Y-106140593D01*
X146111089Y-106590173D01*
X145361789Y-105292347D01*
X146140485Y-104842767D01*
X146140485Y-104842767D01*
G37*
G36*
X147438311Y-104093467D02*
X148187611Y-105391293D01*
X147408915Y-105840873D01*
X146659615Y-104543047D01*
X147438311Y-104093467D01*
X147438311Y-104093467D01*
G37*
G36*
X145888911Y-101409827D02*
X146638211Y-102707653D01*
X145859515Y-103157233D01*
X145110215Y-101859407D01*
X145888911Y-101409827D01*
X145888911Y-101409827D01*
G37*
G36*
X144591085Y-102159127D02*
X145340385Y-103456953D01*
X144561689Y-103906533D01*
X143812389Y-102608707D01*
X144591085Y-102159127D01*
X144591085Y-102159127D01*
G37*
D13*
X126901200Y-96000000D03*
X126901200Y-97498600D03*
X130000000Y-97498600D03*
X130000000Y-96000000D03*
X136000000Y-99000000D03*
X136000000Y-97501400D03*
X132901200Y-97501400D03*
X132901200Y-99000000D03*
D10*
G36*
X117852131Y-94639525D02*
X116493938Y-94006189D01*
X116873939Y-93191273D01*
X118232132Y-93824609D01*
X117852131Y-94639525D01*
X117852131Y-94639525D01*
G37*
G36*
X117218795Y-95997718D02*
X115860602Y-95364382D01*
X116240603Y-94549466D01*
X117598796Y-95182802D01*
X117218795Y-95997718D01*
X117218795Y-95997718D01*
G37*
G36*
X120027261Y-97307327D02*
X118669068Y-96673991D01*
X119049069Y-95859075D01*
X120407262Y-96492411D01*
X120027261Y-97307327D01*
X120027261Y-97307327D01*
G37*
G36*
X120660597Y-95949134D02*
X119302404Y-95315798D01*
X119682405Y-94500882D01*
X121040598Y-95134218D01*
X120660597Y-95949134D01*
X120660597Y-95949134D01*
G37*
D14*
X146250700Y-117549400D03*
X147749300Y-117549400D03*
X147749300Y-114450600D03*
X146250700Y-114450600D03*
D13*
X118901200Y-90000000D03*
X118901200Y-91498600D03*
X122000000Y-91498600D03*
X122000000Y-90000000D03*
D14*
X146250700Y-127549400D03*
X147749300Y-127549400D03*
X147749300Y-124450600D03*
X146250700Y-124450600D03*
D10*
G36*
X141140485Y-66842767D02*
X141889785Y-68140593D01*
X141111089Y-68590173D01*
X140361789Y-67292347D01*
X141140485Y-66842767D01*
X141140485Y-66842767D01*
G37*
G36*
X142438311Y-66093467D02*
X143187611Y-67391293D01*
X142408915Y-67840873D01*
X141659615Y-66543047D01*
X142438311Y-66093467D01*
X142438311Y-66093467D01*
G37*
G36*
X140888911Y-63409827D02*
X141638211Y-64707653D01*
X140859515Y-65157233D01*
X140110215Y-63859407D01*
X140888911Y-63409827D01*
X140888911Y-63409827D01*
G37*
G36*
X139591085Y-64159127D02*
X140340385Y-65456953D01*
X139561689Y-65906533D01*
X138812389Y-64608707D01*
X139591085Y-64159127D01*
X139591085Y-64159127D01*
G37*
D13*
X162901200Y-86000000D03*
X162901200Y-87498600D03*
X166000000Y-87498600D03*
X166000000Y-86000000D03*
D15*
X151905000Y-95075000D03*
X150635000Y-95075000D03*
X149365000Y-95075000D03*
X148095000Y-95075000D03*
M02*
